<?xml version="1.0" encoding="utf-8"?>
<svg xmlns="http://www.w3.org/2000/svg"
	xmlns:xlink="http://www.w3.org/1999/xlink"
	width="38px" height="33px" viewBox="0 0 38 33">
<g><path fillRule="evenodd" d="M 37.37 1.6C 37.37 1.6 37.36 1.61 37.36 1.61 37.36 1.61 31.85 2.8 31.85 2.8 31.85 2.8 31.19 11.84 31.19 11.84 31.19 11.84 31.19 13.24 31.19 13.24 31.19 13.24 31.09 13.24 31.09 13.24 31.09 13.24 30.29 24.23 30.29 24.23 30.29 24.58 30.12 24.76 29.94 24.87 29.88 24.91 29.8 24.94 29.7 24.96 29.58 24.99 29.49 24.98 29.49 24.98 29.49 24.98 29.48 24.99 29.48 24.99 29.48 24.99 3.08 24.99 3.08 24.99 3.08 24.99 2.28 24.99 2.28 24.23 2.28 23.45 3.08 23.41 3.08 23.41 3.08 23.41 28.76 23.41 28.76 23.41 28.76 23.41 28.97 20.62 28.97 20.62 28.97 20.62 2.73 20.62 2.73 20.62 2.73 20.62 0 5.26 0 5.26 0 5.26 30.38 1.2 30.38 1.2 30.38 1.2 30.41 0.75 30.41 0.75 30.41 0.75 30.41 0.74 30.41 0.74 30.41 0.74 30.51-0.05 31.29 0 32.05 0.05 31.99 0.85 31.99 0.85 31.99 0.85 31.99 0.86 31.99 0.86 31.99 0.86 31.97 1.17 31.97 1.17 31.97 1.17 37.02 0.07 37.02 0.07 37.02 0.07 37.03 0.07 37.03 0.07 37.03 0.07 37.82-0.06 37.99 0.7 38.15 1.44 37.37 1.6 37.37 1.6ZM 25.11 19.04C 25.11 19.04 29.08 19.04 29.08 19.04 29.08 19.04 29.5 13.24 29.5 13.24 29.5 13.24 24.95 13.24 24.95 13.24 24.95 13.24 25.11 19.04 25.11 19.04ZM 5.9 6.06C 5.9 6.06 1.84 6.61 1.84 6.61 1.84 6.61 2.75 11.66 2.75 11.66 2.75 11.66 6.35 11.66 6.35 11.66 6.35 11.66 5.9 6.06 5.9 6.06ZM 6.48 13.24C 6.48 13.24 3.03 13.24 3.03 13.24 3.03 13.24 4.06 19.03 4.06 19.03 4.06 19.03 6.94 19.03 6.94 19.03 6.94 19.03 6.48 13.24 6.48 13.24ZM 13.39 5.06C 13.39 5.06 7.48 5.85 7.48 5.85 7.48 5.85 7.94 11.66 7.94 11.66 7.94 11.66 13.81 11.66 13.81 11.66 13.81 11.66 13.39 5.06 13.39 5.06ZM 13.91 13.24C 13.91 13.24 8.07 13.24 8.07 13.24 8.07 13.24 8.53 19.03 8.53 19.03 8.53 19.03 14.28 19.03 14.28 19.03 14.28 19.03 13.91 13.24 13.91 13.24ZM 23.1 3.76C 23.1 3.76 14.96 4.85 14.96 4.85 14.96 4.85 15.4 11.66 15.4 11.66 15.4 11.66 23.32 11.66 23.32 11.66 23.32 11.66 23.1 3.76 23.1 3.76ZM 23.36 13.24C 23.36 13.24 15.5 13.24 15.5 13.24 15.5 13.24 15.87 19.03 15.87 19.03 15.87 19.03 23.52 19.04 23.52 19.04 23.52 19.04 23.36 13.24 23.36 13.24ZM 24.68 3.55C 24.68 3.55 24.9 11.66 24.9 11.66 24.9 11.66 29.62 11.66 29.62 11.66 29.62 11.66 30.26 2.81 30.26 2.81 30.26 2.81 24.68 3.55 24.68 3.55ZM 8.05 27.25C 9.64 27.25 10.94 28.54 10.93 30.13 10.93 31.72 9.63 33 8.04 33 6.44 32.99 5.15 31.71 5.15 30.12 5.15 28.53 6.45 27.25 8.05 27.25ZM 27.33 25.53C 29.41 25.53 31.09 27.2 31.09 29.26 31.09 31.32 29.41 33 27.33 33 25.26 33 23.58 31.32 23.58 29.26 23.58 27.2 25.26 25.53 27.33 25.53Z" fill="rgb(101,101,101)"/><path fillRule="evenodd" d="M 27.33 32C 28.85 32 30.09 30.77 30.09 29.26 30.09 27.76 28.85 26.53 27.33 26.53 25.81 26.53 24.58 27.76 24.58 29.26 24.58 30.77 25.81 32 27.33 32M 8.04 32C 9.08 32 9.93 31.16 9.93 30.13 9.93 29.09 9.09 28.25 8.05 28.25 7 28.25 6.15 29.09 6.15 30.12 6.15 30.62 6.34 31.09 6.7 31.44 7.06 31.8 7.53 32 8.04 32 8.04 32 8.04 32 8.04 32M 8.04 33C 8.04 33 8.04 33 8.04 33 6.44 32.99 5.15 31.71 5.15 30.12 5.15 28.53 6.45 27.25 8.05 27.25 9.64 27.25 10.94 28.54 10.93 30.13 10.93 31.71 9.64 33 8.04 33 8.04 33 8.04 33 8.04 33ZM 27.33 33C 25.26 33 23.58 31.32 23.58 29.26 23.58 27.2 25.26 25.53 27.33 25.53 29.41 25.53 31.09 27.2 31.09 29.26 31.09 31.32 29.41 33 27.33 33 27.33 33 27.33 33 27.33 33ZM 3.08 24.99C 3.05 24.99 2.28 24.98 2.28 24.23 2.28 23.45 3.08 23.41 3.08 23.41 3.08 23.41 28.76 23.41 28.76 23.41 28.76 23.41 28.97 20.62 28.97 20.62 28.97 20.62 2.73 20.62 2.73 20.62 2.73 20.62 0 5.26 0 5.26 0 5.26 30.38 1.2 30.38 1.2 30.38 1.2 30.41 0.75 30.41 0.75 30.41 0.75 30.41 0.74 30.41 0.74 30.41 0.74 30.5 0 31.22 0 31.24 0 31.26 0 31.29 0 32.05 0.05 31.99 0.85 31.99 0.85 31.99 0.85 31.99 0.86 31.99 0.86 31.99 0.86 31.97 1.17 31.97 1.17 31.97 1.17 37.02 0.07 37.02 0.07 37.02 0.07 37.03 0.07 37.03 0.07 37.03 0.07 37.08 0.06 37.16 0.06 37.39 0.06 37.86 0.13 37.99 0.7 38.15 1.44 37.37 1.6 37.37 1.6 37.37 1.6 37.36 1.61 37.36 1.61 37.36 1.61 31.85 2.8 31.85 2.8 31.85 2.8 31.19 11.84 31.19 11.84 31.19 11.84 31.19 13.24 31.19 13.24 31.19 13.24 31.09 13.24 31.09 13.24 31.09 13.24 30.29 24.23 30.29 24.23 30.29 24.58 30.12 24.76 29.94 24.87 29.88 24.91 29.8 24.94 29.7 24.96 29.58 24.98 29.49 24.98 29.49 24.98 29.49 24.98 29.49 24.98 29.49 24.98 29.49 24.98 29.48 24.99 29.48 24.99 29.48 24.99 3.08 24.99 3.08 24.99 3.08 24.99 3.08 24.99 3.08 24.99 3.08 24.99 3.08 24.99 3.08 24.99ZM 24.95 13.24C 24.95 13.24 25.11 19.04 25.11 19.04 25.11 19.04 29.08 19.04 29.08 19.04 29.08 19.04 29.5 13.24 29.5 13.24 29.5 13.24 24.95 13.24 24.95 13.24 24.95 13.24 24.95 13.24 24.95 13.24ZM 15.5 13.24C 15.5 13.24 15.87 19.03 15.87 19.03 15.87 19.03 23.52 19.04 23.52 19.04 23.52 19.04 23.36 13.24 23.36 13.24 23.36 13.24 15.5 13.24 15.5 13.24 15.5 13.24 15.5 13.24 15.5 13.24ZM 8.07 13.24C 8.07 13.24 8.53 19.03 8.53 19.03 8.53 19.03 14.28 19.03 14.28 19.03 14.28 19.03 13.91 13.24 13.91 13.24 13.91 13.24 8.07 13.24 8.07 13.24 8.07 13.24 8.07 13.24 8.07 13.24ZM 3.03 13.24C 3.03 13.24 4.06 19.03 4.06 19.03 4.06 19.03 6.94 19.03 6.94 19.03 6.94 19.03 6.48 13.24 6.48 13.24 6.48 13.24 3.03 13.24 3.03 13.24 3.03 13.24 3.03 13.24 3.03 13.24ZM 30.26 2.81C 30.26 2.81 24.68 3.55 24.68 3.55 24.68 3.55 24.9 11.66 24.9 11.66 24.9 11.66 29.62 11.66 29.62 11.66 29.62 11.66 30.26 2.81 30.26 2.81 30.26 2.81 30.26 2.81 30.26 2.81ZM 23.1 3.76C 23.1 3.76 14.96 4.85 14.96 4.85 14.96 4.85 15.4 11.66 15.4 11.66 15.4 11.66 23.32 11.66 23.32 11.66 23.32 11.66 23.1 3.76 23.1 3.76 23.1 3.76 23.1 3.76 23.1 3.76ZM 13.39 5.06C 13.39 5.06 7.48 5.85 7.48 5.85 7.48 5.85 7.94 11.66 7.94 11.66 7.94 11.66 13.81 11.66 13.81 11.66 13.81 11.66 13.39 5.06 13.39 5.06 13.39 5.06 13.39 5.06 13.39 5.06ZM 5.9 6.06C 5.9 6.06 1.84 6.61 1.84 6.61 1.84 6.61 2.75 11.66 2.75 11.66 2.75 11.66 6.35 11.66 6.35 11.66 6.35 11.66 5.9 6.06 5.9 6.06 5.9 6.06 5.9 6.06 5.9 6.06Z" fill="rgb(101,101,101)"/></g></svg>