<?xml version="1.0" standalone="no"?>
<!DOCTYPE svg PUBLIC "-//W3C//DTD SVG 1.1//EN" "http://www.w3.org/Graphics/SVG/1.1/DTD/svg11.dtd" >
<svg xmlns="http://www.w3.org/2000/svg">
<metadata>Generated by IcoMoon</metadata>
<defs>
<font id="icomoon" horiz-adv-x="1024">
<font-face units-per-em="1024" ascent="960" descent="-64" />
<missing-glyph horiz-adv-x="1024" />
<glyph unicode="&#x20;" d="" horiz-adv-x="512" />
<glyph unicode="&#xe600;" d="M816.763 752.66c0 153.866 0 164.485 0 164.485 0 22.528-18.432 40.96-40.96 40.96h-531.241c-22.528 0-40.96-18.432-40.96-40.96 0 0 0-12.431 0-165.519s187.054-227.072 187.054-306.432-187.054-153.6-187.054-306.371c0-152.76 0-163.758 0-163.758 0-22.518 18.432-40.96 40.96-40.96h531.241c22.528 0 40.96 18.442 40.96 40.96 0 0 0 11.899 0 163.779 0 151.869-182.19 218.030-182.19 306.35s182.19 153.6 182.19 307.466zM552.653 445.194c0-72.172 51.436-123.556 96.829-168.888 51.558-51.507 85.361-88.904 85.361-137.462v-102.339h-22.6l-143.022 137.533c-32.481 31.222-85.617 31.222-118.098 0l-143.012-137.544h-22.589v102.318c0 54.497 46.612 100.444 91.679 144.855 46.889 46.213 95.365 94.003 95.365 161.526s-48.456 115.251-95.324 161.403c-55.409 54.559-91.73 94.126-91.73 145.029v103.168h449.321v-102.134c0-49.838-33.956-87.47-85.77-139.182-45.189-45.107-96.41-96.236-96.41-168.284z" />
<glyph unicode="&#xe601;" d="M166.636-31.99l373.709 474.86-373.709 474.89h317l373.729-474.89-373.729-474.86h-317z" />
<glyph unicode="&#xe602;" d="M0 576l383.75-383.75 383.75 383.75h-767.5z" horiz-adv-x="768" />
<glyph unicode="&#xe603;" d="M269.117 234.537h16.773v-129.536h-16.773v129.536zM461.599 234.537h16.783v-129.536h-16.783v129.536zM490.291 234.537h16.783v-129.536h-16.783v129.536zM294.871 234.537h8.387v-129.536h-8.387v129.536zM315.013 234.537h25.518v-129.536h-25.518v129.536zM349.501 234.537h8.397v-129.536h-8.397v129.536zM395.602 234.537h25.518v-129.536h-25.518v129.536zM430.1 234.537h8.387v-129.536h-8.387v129.536zM603.689 234.537h25.518v-129.536h-25.518v129.536zM638.188 234.537h8.387v-129.536h-8.387v129.536zM369.91 234.537h8.387v-129.536h-8.387v129.536zM665.713 234.537h8.387v-129.536h-8.387v129.536zM711.803 234.537h25.518v-129.536h-25.518v129.536zM686.111 234.537h8.387v-129.536h-8.387v129.536zM746.496 234.537h8.387v-129.536h-8.387v129.536zM515.328 234.537h8.387v-129.536h-8.387v129.536zM562.258 234.537h25.518v-129.536h-25.518v129.536zM536.566 234.537h8.387v-129.536h-8.387v129.536zM269.117 651.766v118.047h25.027v-97.372h42.967v-20.675h-67.994zM456.612 710.953c0-9.093-1.065-17.388-3.185-24.873-2.13-7.485-5.366-13.885-9.728-19.22-4.362-5.325-9.861-9.441-16.507-12.36-6.646-2.908-14.49-4.362-23.532-4.362s-16.886 1.454-23.542 4.362c-6.646 2.908-12.145 7.025-16.476 12.36s-7.557 11.745-9.687 19.261c-2.12 7.506-3.185 15.841-3.185 24.996 0 9.144 1.065 17.449 3.185 24.914 2.13 7.455 5.366 13.814 9.728 19.098 4.362 5.274 9.861 9.349 16.507 12.237 6.646 2.877 14.52 4.321 23.613 4.321 9.042 0 16.876-1.444 23.501-4.321s12.093-6.973 16.435-12.268c4.332-5.304 7.557-11.684 9.697-19.139 2.109-7.475 3.174-15.8 3.174-25.006zM376.504 710.953c0-6.195 0.532-11.745 1.618-16.671 1.075-4.925 2.734-9.093 4.966-12.513s5.048-6.052 8.438-7.875c3.389-1.823 7.434-2.744 12.114-2.744 4.792 0 8.899 0.911 12.319 2.744s6.216 4.454 8.397 7.875c2.181 3.42 3.799 7.588 4.844 12.513 1.055 4.925 1.577 10.486 1.577 16.671s-0.522 11.745-1.577 16.671c-1.044 4.925-2.662 9.114-4.844 12.554s-4.966 6.083-8.356 7.916c-3.389 1.833-7.455 2.744-12.196 2.744-4.69 0-8.745-0.922-12.186-2.744-3.451-1.833-6.287-4.465-8.52-7.916s-3.891-7.629-4.966-12.554c-1.085-4.925-1.628-10.476-1.628-16.671zM519.107 651.766h-24.955v97.219h-29.635v20.828h84.142v-20.828h-29.553v-97.219zM611.482 651.766h-24.955v97.219h-29.635v20.828h84.132v-20.828h-29.553v-97.219zM754.883 710.953c0-9.093-1.065-17.388-3.195-24.873s-5.366-13.885-9.728-19.22c-4.362-5.325-9.871-9.441-16.517-12.36-6.646-2.908-14.49-4.362-23.532-4.362-9.052 0-16.896 1.454-23.542 4.362s-12.145 7.025-16.476 12.36c-4.342 5.335-7.567 11.745-9.687 19.261s-3.185 15.841-3.185 24.996c0 9.144 1.065 17.449 3.185 24.914s5.366 13.814 9.728 19.098c4.362 5.274 9.861 9.349 16.517 12.237 6.646 2.877 14.52 4.321 23.624 4.321 9.042 0 16.876-1.444 23.491-4.321 6.625-2.877 12.104-6.973 16.435-12.268 4.332-5.304 7.557-11.684 9.687-19.139 2.13-7.475 3.195-15.8 3.195-25.006zM674.785 710.953c0-6.195 0.532-11.745 1.608-16.671s2.734-9.093 4.966-12.513c2.232-3.42 5.038-6.052 8.438-7.875 3.389-1.823 7.434-2.744 12.114-2.744 4.782 0 8.888 0.911 12.308 2.744s6.216 4.454 8.407 7.875c2.181 3.42 3.799 7.588 4.844 12.513 1.055 4.925 1.577 10.486 1.577 16.671s-0.522 11.745-1.577 16.671c-1.044 4.925-2.652 9.114-4.844 12.554-2.181 3.441-4.966 6.083-8.356 7.916s-7.455 2.744-12.196 2.744c-4.69 0-8.745-0.922-12.186-2.744-3.451-1.833-6.287-4.465-8.52-7.916s-3.891-7.629-4.966-12.554c-1.085-4.925-1.618-10.476-1.618-16.671zM295.731 447.375l-2.611 9.206h-13.179l-2.642-9.206h-8.172l12.411 38.82h9.912l12.462-38.82h-8.182zM291.236 463.462l-2.458 8.458c-0.102 0.317-0.266 0.84-0.471 1.556-0.205 0.727-0.43 1.526-0.666 2.396s-0.461 1.751-0.666 2.632c-0.215 0.881-0.369 1.628-0.451 2.243-0.072-0.389-0.164-0.85-0.276-1.372-0.102-0.532-0.246-1.096-0.389-1.679-0.154-0.594-0.297-1.188-0.461-1.782-0.154-0.604-0.307-1.167-0.44-1.69-0.143-0.532-0.276-0.993-0.379-1.403-0.113-0.41-0.195-0.707-0.246-0.901l-2.427-8.458h9.329zM306.964 451.164c0 0.829 0.123 1.526 0.348 2.099 0.236 0.573 0.563 1.034 0.983 1.393s0.901 0.604 1.464 0.768c0.553 0.154 1.157 0.236 1.802 0.236 0.604 0 1.188-0.082 1.741-0.236s1.034-0.41 1.454-0.768c0.42-0.348 0.748-0.819 0.993-1.393s0.358-1.27 0.358-2.099c0-0.799-0.123-1.475-0.358-2.038-0.246-0.563-0.584-1.034-0.993-1.403-0.42-0.369-0.901-0.635-1.454-0.809-0.543-0.164-1.126-0.246-1.741-0.246-0.645 0-1.249 0.082-1.802 0.246-0.563 0.164-1.044 0.44-1.464 0.809s-0.748 0.84-0.983 1.403c-0.225 0.563-0.348 1.239-0.348 2.038zM360.868 447.375h-25.641v5.683l9.001 9.81c1.137 1.239 2.161 2.376 3.082 3.41s1.72 2.048 2.376 3.041c0.655 0.983 1.178 1.997 1.546 3.011 0.358 1.024 0.553 2.12 0.553 3.308 0 1.3-0.389 2.314-1.167 3.041-0.778 0.717-1.812 1.085-3.123 1.085-1.372 0-2.703-0.338-3.973-1.034-1.27-0.686-2.601-1.669-4.004-2.939l-4.393 5.263c0.788 0.717 1.608 1.413 2.458 2.079s1.792 1.249 2.826 1.761c1.034 0.512 2.161 0.922 3.4 1.229s2.621 0.461 4.157 0.461c1.833 0 3.471-0.256 4.936-0.768 1.454-0.512 2.693-1.239 3.727-2.181 1.024-0.942 1.812-2.089 2.365-3.42 0.553-1.341 0.819-2.847 0.819-4.526 0-1.516-0.256-2.97-0.788-4.352-0.522-1.382-1.239-2.744-2.14-4.076s-1.956-2.652-3.154-3.963c-1.198-1.311-2.468-2.652-3.83-4.004l-4.598-4.68v-0.369h15.575v-6.871zM383.918 447.375h-8.079v22.374c0 0.461 0 1.004 0.010 1.649s0.031 1.311 0.051 2.007c0.020 0.696 0.051 1.403 0.082 2.099 0.031 0.707 0.051 1.352 0.061 1.935-0.092-0.113-0.236-0.266-0.44-0.481s-0.451-0.44-0.707-0.696c-0.256-0.256-0.532-0.512-0.809-0.778-0.287-0.266-0.553-0.502-0.819-0.717l-4.393-3.574-3.922 4.925 12.308 9.912h6.636v-38.656zM433.797 466.708c0-3.123-0.236-5.908-0.717-8.356s-1.249-4.526-2.304-6.236c-1.055-1.71-2.417-3.011-4.076-3.912-1.669-0.901-3.676-1.352-6.031-1.352-2.212 0-4.137 0.451-5.775 1.352-1.628 0.901-2.99 2.202-4.076 3.912s-1.884 3.789-2.417 6.236c-0.532 2.447-0.799 5.233-0.799 8.356s0.246 5.919 0.717 8.387c0.481 2.468 1.239 4.557 2.284 6.267s2.396 3.021 4.055 3.922c1.659 0.911 3.666 1.362 6.011 1.362 2.191 0 4.116-0.451 5.755-1.352s3-2.202 4.106-3.912c1.096-1.71 1.915-3.799 2.458-6.267 0.532-2.468 0.809-5.274 0.809-8.407zM415.662 466.708c0-4.403 0.369-7.721 1.116-9.943s2.048-3.338 3.891-3.338c1.812 0 3.113 1.106 3.912 3.308s1.188 5.53 1.188 9.974c0 4.424-0.399 7.752-1.188 9.984s-2.089 3.348-3.912 3.348c-0.922 0-1.7-0.287-2.335-0.84-0.635-0.563-1.157-1.403-1.556-2.519-0.399-1.106-0.686-2.499-0.86-4.168s-0.256-3.604-0.256-5.806zM461.742 477.389c0-1.341-0.215-2.54-0.645-3.604s-1.014-1.997-1.751-2.806c-0.748-0.799-1.608-1.475-2.621-2.007-0.993-0.543-2.089-0.952-3.246-1.229v-0.154c3.082-0.389 5.417-1.331 7.004-2.836s2.376-3.543 2.376-6.093c0-1.69-0.297-3.256-0.901-4.69s-1.526-2.683-2.775-3.738c-1.249-1.055-2.816-1.884-4.71-2.468-1.884-0.594-4.116-0.891-6.676-0.891-2.058 0-3.994 0.174-5.806 0.512-1.812 0.348-3.502 0.87-5.069 1.577v6.953c0.788-0.42 1.608-0.788 2.478-1.116 0.87-0.317 1.741-0.584 2.611-0.809s1.731-0.379 2.58-0.492c0.84-0.102 1.638-0.154 2.386-0.154 1.495 0 2.744 0.143 3.738 0.42 0.993 0.287 1.782 0.676 2.376 1.188s1.014 1.126 1.27 1.843c0.246 0.717 0.379 1.495 0.379 2.335 0 0.799-0.164 1.516-0.481 2.15-0.328 0.645-0.85 1.188-1.567 1.638-0.727 0.451-1.669 0.799-2.836 1.044s-2.601 0.369-4.321 0.369h-2.714v5.734h2.662c1.608 0 2.939 0.143 4.004 0.44 1.065 0.287 1.905 0.686 2.54 1.188s1.085 1.085 1.352 1.761c0.256 0.666 0.389 1.382 0.389 2.14 0 1.372-0.42 2.447-1.27 3.226-0.84 0.778-2.181 1.167-4.014 1.167-0.84 0-1.618-0.082-2.335-0.256-0.727-0.164-1.393-0.379-2.017-0.635-0.614-0.256-1.188-0.543-1.7-0.85s-0.983-0.614-1.403-0.911l-4.076 5.448c0.737 0.543 1.526 1.044 2.396 1.505s1.802 0.86 2.816 1.208c1.014 0.348 2.099 0.614 3.267 0.809s2.417 0.287 3.738 0.287c1.884 0 3.594-0.205 5.14-0.625 1.546-0.41 2.867-1.014 3.963-1.802s1.946-1.741 2.55-2.877c0.614-1.137 0.922-2.437 0.922-3.901zM506.614 447.375h-25.641v5.683l8.991 9.81c1.126 1.239 2.161 2.376 3.082 3.41s1.72 2.048 2.376 3.041c0.666 0.983 1.178 1.997 1.546 3.011 0.358 1.024 0.543 2.12 0.543 3.308 0 1.3-0.389 2.314-1.157 3.041-0.778 0.717-1.812 1.085-3.123 1.085-1.382 0-2.703-0.338-3.973-1.034-1.28-0.686-2.601-1.669-4.004-2.939l-4.393 5.263c0.778 0.717 1.608 1.413 2.458 2.079s1.792 1.249 2.826 1.761c1.024 0.512 2.161 0.922 3.4 1.229s2.621 0.461 4.157 0.461c1.823 0 3.471-0.256 4.925-0.768s2.693-1.239 3.727-2.181c1.034-0.942 1.823-2.089 2.365-3.42 0.553-1.341 0.829-2.847 0.829-4.526 0-1.516-0.266-2.97-0.788-4.352s-1.239-2.744-2.15-4.076c-0.901-1.331-1.956-2.652-3.144-3.963-1.198-1.311-2.468-2.652-3.83-4.004l-4.598-4.68v-0.369h15.575v-6.871zM523.95 472.074c1.638 0 3.164-0.256 4.577-0.768s2.642-1.26 3.686-2.243c1.044-0.993 1.864-2.222 2.458-3.686 0.594-1.475 0.891-3.164 0.891-5.069 0-2.099-0.317-3.983-0.963-5.642-0.645-1.669-1.597-3.072-2.847-4.229-1.26-1.157-2.816-2.038-4.669-2.662-1.853-0.614-3.983-0.922-6.39-0.922-0.963 0-1.915 0.041-2.847 0.133-0.942 0.092-1.843 0.215-2.703 0.379s-1.69 0.389-2.458 0.645c-0.778 0.266-1.475 0.573-2.109 0.922v7.055c0.614-0.348 1.321-0.686 2.12-0.993s1.638-0.573 2.499-0.788c0.86-0.225 1.731-0.399 2.601-0.532s1.7-0.195 2.478-0.195c2.335 0 4.116 0.492 5.335 1.464 1.219 0.983 1.823 2.54 1.823 4.669 0 1.905-0.594 3.359-1.792 4.352-1.188 0.993-3.031 1.495-5.53 1.495-0.461 0-0.942-0.020-1.454-0.072s-1.024-0.123-1.516-0.215c-0.502-0.092-0.973-0.184-1.423-0.276-0.461-0.102-0.85-0.195-1.178-0.307l-3.215 1.741 1.434 19.702h20.183v-6.932h-13.179l-0.625-7.588c0.563 0.123 1.208 0.246 1.946 0.369 0.748 0.133 1.7 0.195 2.867 0.195zM573.061 447.375h-8.079v22.374c0 0.461 0 1.004 0.010 1.649s0.020 1.311 0.051 2.007c0.020 0.696 0.051 1.403 0.082 2.099 0.020 0.707 0.041 1.352 0.061 1.935-0.082-0.113-0.236-0.266-0.44-0.481-0.215-0.215-0.44-0.44-0.707-0.696s-0.532-0.512-0.809-0.778c-0.276-0.266-0.543-0.502-0.809-0.717l-4.393-3.574-3.922 4.925 12.308 9.912h6.636v-38.656zM586.609 447.375l13.588 31.734h-17.562v6.881h26.348v-5.13l-13.926-33.485h-8.448zM640.225 472.074c1.638 0 3.164-0.256 4.577-0.768s2.632-1.26 3.686-2.243c1.044-0.993 1.864-2.222 2.458-3.686 0.594-1.475 0.891-3.164 0.891-5.069 0-2.099-0.328-3.983-0.973-5.642-0.645-1.669-1.597-3.072-2.847-4.229-1.26-1.157-2.806-2.038-4.669-2.662-1.853-0.614-3.983-0.922-6.39-0.922-0.963 0-1.905 0.041-2.847 0.133s-1.843 0.215-2.703 0.379c-0.86 0.164-1.679 0.389-2.458 0.645-0.768 0.266-1.475 0.573-2.099 0.922v7.055c0.614-0.348 1.321-0.686 2.12-0.993s1.628-0.573 2.499-0.788c0.86-0.225 1.731-0.399 2.601-0.532s1.7-0.195 2.478-0.195c2.335 0 4.116 0.492 5.335 1.464 1.219 0.983 1.833 2.54 1.833 4.669 0 1.905-0.594 3.359-1.792 4.352-1.188 0.993-3.031 1.495-5.53 1.495-0.451 0-0.932-0.020-1.454-0.072-0.512-0.051-1.024-0.123-1.516-0.215-0.502-0.092-0.973-0.184-1.423-0.276-0.461-0.102-0.84-0.195-1.178-0.307l-3.215 1.741 1.434 19.702h20.173v-6.932h-13.169l-0.635-7.588c0.553 0.123 1.208 0.246 1.946 0.369 0.737 0.133 1.7 0.195 2.867 0.195zM675.43 447.375h-8.079v22.374c0 0.461 0 1.004 0.010 1.649s0.031 1.311 0.051 2.007c0.031 0.696 0.051 1.403 0.082 2.099 0.020 0.707 0.051 1.352 0.061 1.935-0.092-0.113-0.236-0.266-0.44-0.481s-0.451-0.44-0.707-0.696c-0.266-0.256-0.532-0.512-0.809-0.778s-0.543-0.502-0.809-0.717l-4.393-3.574-3.922 4.925 12.308 9.912h6.636v-38.656zM725.299 466.708c0-3.123-0.236-5.908-0.717-8.356s-1.249-4.526-2.294-6.236c-1.055-1.71-2.417-3.011-4.086-3.912-1.659-0.901-3.666-1.352-6.031-1.352-2.202 0-4.137 0.451-5.775 1.352s-3 2.202-4.076 3.912c-1.075 1.71-1.884 3.789-2.417 6.236s-0.799 5.233-0.799 8.356c0 3.123 0.246 5.919 0.717 8.387 0.481 2.468 1.239 4.557 2.284 6.267s2.396 3.021 4.055 3.922c1.649 0.911 3.656 1.362 6.011 1.362 2.202 0 4.116-0.451 5.755-1.352s3-2.202 4.106-3.912c1.096-1.71 1.915-3.799 2.458-6.267s0.809-5.274 0.809-8.407zM707.164 466.708c0-4.403 0.379-7.721 1.126-9.943s2.048-3.338 3.891-3.338c1.812 0 3.113 1.106 3.912 3.308 0.788 2.202 1.188 5.53 1.188 9.974 0 4.424-0.399 7.752-1.188 9.984-0.799 2.232-2.099 3.348-3.912 3.348-0.922 0-1.7-0.287-2.335-0.84-0.635-0.563-1.157-1.403-1.556-2.519-0.399-1.106-0.686-2.499-0.86-4.168s-0.266-3.604-0.266-5.806zM754.739 447.375h-25.651v5.683l8.991 9.81c1.137 1.239 2.161 2.376 3.082 3.41s1.72 2.048 2.386 3.041c0.666 0.983 1.178 1.997 1.546 3.011 0.358 1.024 0.543 2.12 0.543 3.308 0 1.3-0.389 2.314-1.167 3.041-0.768 0.717-1.812 1.085-3.123 1.085-1.382 0-2.703-0.338-3.973-1.034-1.28-0.686-2.611-1.669-4.004-2.939l-4.393 5.263c0.788 0.717 1.608 1.413 2.458 2.079s1.792 1.249 2.826 1.761c1.024 0.512 2.161 0.922 3.4 1.229s2.621 0.461 4.157 0.461c1.833 0 3.471-0.256 4.925-0.768s2.693-1.239 3.727-2.181c1.034-0.942 1.812-2.089 2.365-3.42 0.553-1.341 0.829-2.847 0.829-4.526 0-1.516-0.266-2.97-0.788-4.352s-1.239-2.744-2.14-4.076c-0.901-1.331-1.956-2.652-3.144-3.963-1.198-1.311-2.468-2.652-3.83-4.004l-4.598-4.68v-0.369h15.585v-6.871zM273.91 417.741h11.192c2.396 0 4.516-0.174 6.328-0.512 1.812-0.348 3.328-0.901 4.547-1.669s2.14-1.772 2.755-3.011c0.625-1.239 0.922-2.775 0.922-4.588 0-1.096-0.133-2.109-0.389-3.072-0.256-0.952-0.645-1.792-1.147-2.509s-1.116-1.331-1.843-1.812c-0.717-0.481-1.546-0.809-2.488-0.963v-0.266c0.963-0.205 1.853-0.512 2.673-0.911 0.829-0.399 1.556-0.942 2.171-1.638s1.106-1.567 1.464-2.632c0.358-1.055 0.532-2.345 0.532-3.86 0-1.761-0.307-3.338-0.911-4.721s-1.485-2.56-2.632-3.523c-1.137-0.963-2.529-1.7-4.157-2.212s-3.471-0.768-5.53-0.768h-13.486v38.666zM282.020 402.432h4.209c1.014 0 1.853 0.092 2.54 0.276s1.229 0.461 1.638 0.84c0.42 0.369 0.727 0.829 0.911 1.393 0.184 0.553 0.276 1.198 0.276 1.946 0 1.485-0.461 2.54-1.372 3.185s-2.365 0.963-4.352 0.963h-3.84v-8.602zM282.020 395.93v-10.076h4.762c1.065 0 1.956 0.123 2.673 0.369 0.727 0.246 1.311 0.604 1.751 1.055 0.44 0.461 0.758 1.014 0.952 1.669s0.287 1.372 0.287 2.171c0 0.717-0.092 1.382-0.287 1.966s-0.512 1.096-0.973 1.526c-0.461 0.42-1.065 0.748-1.812 0.983-0.758 0.225-1.69 0.348-2.796 0.348h-4.557zM306.534 382.863c0 0.829 0.123 1.526 0.348 2.099 0.236 0.573 0.563 1.034 0.983 1.393s0.901 0.604 1.464 0.768c0.563 0.154 1.157 0.236 1.802 0.236 0.614 0 1.188-0.082 1.741-0.236 0.543-0.154 1.024-0.41 1.444-0.768 0.42-0.348 0.748-0.819 0.993-1.393s0.369-1.27 0.369-2.099c0-0.799-0.123-1.475-0.369-2.038s-0.573-1.034-0.993-1.403c-0.42-0.369-0.901-0.645-1.444-0.809-0.553-0.164-1.126-0.256-1.741-0.256-0.645 0-1.249 0.082-1.802 0.256-0.553 0.164-1.044 0.43-1.464 0.809-0.42 0.369-0.748 0.84-0.983 1.403-0.225 0.563-0.348 1.249-0.348 2.038zM358.943 409.098c0-1.341-0.215-2.54-0.645-3.615-0.43-1.065-1.014-1.997-1.751-2.806-0.737-0.799-1.608-1.475-2.611-2.007s-2.089-0.952-3.246-1.229v-0.154c3.082-0.389 5.417-1.341 7.004-2.847s2.376-3.533 2.376-6.093c0-1.69-0.297-3.256-0.901-4.69s-1.526-2.683-2.775-3.738c-1.249-1.055-2.816-1.884-4.71-2.468-1.894-0.594-4.116-0.891-6.676-0.891-2.058 0-3.994 0.174-5.806 0.512-1.812 0.348-3.502 0.87-5.069 1.577v6.953c0.788-0.43 1.618-0.799 2.488-1.116s1.741-0.584 2.611-0.809c0.87-0.225 1.731-0.389 2.58-0.492 0.84-0.102 1.638-0.154 2.396-0.154 1.495 0 2.744 0.143 3.738 0.42 0.993 0.287 1.782 0.686 2.376 1.188 0.594 0.512 1.014 1.126 1.27 1.833 0.256 0.717 0.389 1.495 0.389 2.345 0 0.799-0.164 1.516-0.481 2.15-0.328 0.645-0.85 1.188-1.567 1.638s-1.669 0.799-2.836 1.044c-1.167 0.246-2.601 0.369-4.311 0.369h-2.714v5.734h2.662c1.597 0 2.929 0.143 4.004 0.43 1.065 0.297 1.905 0.686 2.54 1.188s1.085 1.085 1.352 1.761c0.256 0.676 0.389 1.382 0.389 2.14 0 1.382-0.43 2.447-1.27 3.226s-2.181 1.167-4.014 1.167c-0.84 0-1.618-0.082-2.335-0.256-0.727-0.164-1.393-0.379-2.017-0.635-0.614-0.256-1.188-0.543-1.7-0.85s-0.983-0.614-1.403-0.911l-4.076 5.448c0.737 0.543 1.526 1.044 2.396 1.505s1.802 0.86 2.816 1.198c1.014 0.338 2.099 0.614 3.267 0.809s2.417 0.287 3.738 0.287c1.874 0 3.594-0.205 5.13-0.614 1.546-0.42 2.867-1.014 3.963-1.802 1.096-0.778 1.946-1.741 2.55-2.877 0.584-1.106 0.881-2.406 0.881-3.871zM388.434 409.098c0-1.341-0.215-2.54-0.635-3.615-0.43-1.065-1.014-1.997-1.751-2.806-0.748-0.799-1.618-1.475-2.621-2.007s-2.089-0.952-3.246-1.229v-0.154c3.082-0.389 5.417-1.341 7.004-2.847s2.386-3.533 2.386-6.093c0-1.69-0.297-3.256-0.901-4.69s-1.526-2.683-2.775-3.738c-1.249-1.055-2.806-1.884-4.7-2.468-1.894-0.594-4.116-0.891-6.676-0.891-2.058 0-3.994 0.174-5.806 0.512-1.812 0.348-3.502 0.87-5.079 1.577v6.953c0.788-0.43 1.618-0.799 2.488-1.116s1.741-0.584 2.611-0.809c0.87-0.225 1.731-0.389 2.58-0.492s1.638-0.154 2.396-0.154c1.495 0 2.744 0.143 3.738 0.42 0.993 0.287 1.782 0.686 2.376 1.188 0.594 0.512 1.014 1.126 1.27 1.833 0.256 0.717 0.379 1.495 0.379 2.345 0 0.799-0.164 1.516-0.481 2.15-0.328 0.645-0.85 1.188-1.567 1.638s-1.669 0.799-2.836 1.044c-1.167 0.246-2.601 0.369-4.311 0.369h-2.714v5.734h2.662c1.608 0 2.939 0.143 4.004 0.43 1.055 0.297 1.905 0.686 2.55 1.188 0.635 0.502 1.085 1.085 1.352 1.761s0.389 1.382 0.389 2.14c0 1.382-0.42 2.447-1.27 3.226s-2.181 1.167-4.014 1.167c-0.84 0-1.618-0.082-2.345-0.256-0.717-0.164-1.393-0.379-2.007-0.635s-1.188-0.543-1.7-0.85c-0.512-0.307-0.983-0.614-1.403-0.911l-4.076 5.448c0.737 0.543 1.526 1.044 2.396 1.505 0.86 0.461 1.802 0.86 2.806 1.198 1.014 0.338 2.099 0.614 3.267 0.809s2.417 0.287 3.738 0.287c1.874 0 3.594-0.205 5.13-0.614 1.546-0.42 2.867-1.014 3.963-1.802 1.096-0.778 1.956-1.741 2.55-2.877 0.573-1.106 0.881-2.406 0.881-3.871zM433.367 398.418c0-3.123-0.236-5.908-0.727-8.356-0.481-2.447-1.249-4.526-2.294-6.236-1.055-1.71-2.417-3.021-4.076-3.912-1.669-0.901-3.676-1.352-6.031-1.352-2.212 0-4.137 0.451-5.775 1.352s-3 2.202-4.086 3.912c-1.075 1.71-1.884 3.789-2.417 6.236s-0.799 5.233-0.799 8.356c0 3.123 0.236 5.919 0.717 8.387s1.239 4.557 2.284 6.267c1.044 1.71 2.396 3.021 4.055 3.932 1.649 0.911 3.656 1.362 6.011 1.362 2.202 0 4.116-0.451 5.755-1.352s3-2.202 4.106-3.912c1.096-1.71 1.915-3.799 2.458-6.267 0.543-2.478 0.819-5.284 0.819-8.417zM415.222 398.418c0-4.403 0.369-7.721 1.126-9.943 0.748-2.222 2.048-3.328 3.891-3.328 1.812 0 3.113 1.106 3.912 3.308s1.188 5.53 1.188 9.974c0 4.424-0.399 7.752-1.188 9.984s-2.089 3.348-3.912 3.348c-0.922 0-1.7-0.287-2.335-0.84-0.635-0.563-1.157-1.403-1.556-2.519s-0.686-2.499-0.86-4.168c-0.174-1.679-0.266-3.615-0.266-5.816zM456.366 379.085h-8.079v22.374c0 0.461 0 1.004 0.010 1.649s0.031 1.311 0.051 2.007c0.031 0.696 0.051 1.393 0.082 2.099 0.020 0.707 0.041 1.352 0.061 1.935-0.092-0.102-0.236-0.266-0.451-0.471-0.205-0.215-0.44-0.451-0.707-0.707-0.256-0.256-0.532-0.522-0.809-0.778-0.276-0.266-0.553-0.502-0.809-0.717l-4.393-3.574-3.922 4.925 12.308 9.912h6.646v-38.656zM506.767 387.092h-4.598v-8.018h-7.864v8.018h-15.79v5.683l16.23 24.965h7.424v-24.3h4.598v-6.349zM494.295 393.441v6.554c0 0.225 0 0.563 0.010 0.993s0.020 0.922 0.041 1.464c0.010 0.543 0.041 1.116 0.061 1.69 0.031 0.584 0.051 1.137 0.082 1.669s0.051 0.993 0.082 1.393c0.020 0.399 0.051 0.686 0.061 0.86h-0.236c-0.317-0.737-0.666-1.526-1.065-2.355-0.389-0.829-0.84-1.659-1.341-2.488l-6.38-9.789h8.684zM522.66 418.243c1.587 0 3.082-0.195 4.495-0.573 1.413-0.389 2.642-0.973 3.717-1.751 1.065-0.778 1.905-1.741 2.529-2.908s0.942-2.529 0.942-4.096c0-1.167-0.174-2.222-0.522-3.164s-0.829-1.802-1.434-2.57c-0.604-0.768-1.331-1.454-2.171-2.048s-1.741-1.147-2.724-1.638c1.014-0.543 1.997-1.157 2.97-1.823 0.963-0.676 1.823-1.423 2.57-2.263s1.352-1.782 1.802-2.816c0.451-1.034 0.676-2.202 0.676-3.492 0-1.608-0.317-3.062-0.942-4.362-0.625-1.311-1.505-2.417-2.642-3.338-1.137-0.911-2.488-1.618-4.065-2.12-1.577-0.492-3.318-0.737-5.212-0.737-2.058 0-3.891 0.236-5.489 0.717-1.608 0.481-2.959 1.157-4.055 2.038-1.106 0.881-1.935 1.966-2.499 3.256s-0.85 2.734-0.85 4.342c0 1.321 0.195 2.509 0.573 3.574 0.379 1.055 0.901 2.007 1.567 2.857 0.666 0.84 1.444 1.597 2.324 2.243 0.891 0.655 1.833 1.229 2.847 1.72-0.85 0.543-1.659 1.137-2.406 1.782s-1.403 1.362-1.946 2.14c-0.553 0.788-0.993 1.649-1.311 2.601-0.328 0.952-0.481 1.997-0.481 3.144 0 1.536 0.317 2.877 0.952 4.035 0.645 1.157 1.495 2.12 2.58 2.908s2.324 1.372 3.738 1.761c1.434 0.389 2.908 0.584 4.465 0.584zM517.243 389.366c0-0.707 0.113-1.352 0.338-1.946s0.563-1.096 1.004-1.526c0.451-0.42 1.004-0.758 1.659-0.993 0.666-0.236 1.434-0.358 2.294-0.358 1.833 0 3.195 0.44 4.106 1.311s1.362 2.028 1.362 3.451c0 0.737-0.154 1.403-0.461 1.997s-0.696 1.137-1.178 1.638c-0.481 0.502-1.024 0.963-1.638 1.393-0.614 0.42-1.219 0.829-1.823 1.219l-0.573 0.369c-0.768-0.389-1.464-0.809-2.089-1.26s-1.167-0.942-1.608-1.485c-0.44-0.543-0.788-1.126-1.024-1.761-0.236-0.614-0.369-1.3-0.369-2.048zM522.609 412.273c-0.573 0-1.106-0.092-1.608-0.266s-0.922-0.43-1.28-0.768c-0.358-0.338-0.645-0.748-0.85-1.249-0.205-0.492-0.317-1.044-0.317-1.669 0-0.737 0.113-1.382 0.328-1.915 0.215-0.543 0.512-1.014 0.891-1.423 0.379-0.42 0.809-0.788 1.311-1.116s1.024-0.645 1.577-0.963c0.543 0.276 1.055 0.594 1.546 0.922 0.492 0.338 0.922 0.717 1.29 1.147s0.676 0.922 0.901 1.464c0.225 0.543 0.338 1.167 0.338 1.874 0 0.614-0.102 1.178-0.307 1.669s-0.492 0.911-0.86 1.249c-0.369 0.328-0.809 0.594-1.3 0.768-0.522 0.184-1.075 0.276-1.659 0.276zM572.641 379.085h-8.079v22.374c0 0.461 0 1.004 0.010 1.649s0.031 1.311 0.051 2.007c0.031 0.696 0.051 1.393 0.082 2.099 0.020 0.707 0.051 1.352 0.061 1.935-0.092-0.102-0.236-0.266-0.44-0.471-0.205-0.215-0.451-0.451-0.707-0.707s-0.532-0.522-0.809-0.778c-0.276-0.266-0.543-0.502-0.809-0.717l-4.393-3.574-3.922 4.925 12.319 9.912h6.636v-38.656zM608.604 398.418c0-3.123-0.236-5.908-0.717-8.356s-1.249-4.526-2.294-6.236c-1.055-1.71-2.417-3.021-4.086-3.912-1.659-0.901-3.666-1.352-6.021-1.352-2.212 0-4.137 0.451-5.786 1.352-1.628 0.901-2.99 2.202-4.076 3.912s-1.884 3.789-2.417 6.236c-0.532 2.447-0.799 5.233-0.799 8.356s0.236 5.919 0.717 8.387c0.481 2.468 1.239 4.557 2.294 6.267 1.044 1.71 2.396 3.021 4.055 3.932 1.649 0.911 3.656 1.362 6.011 1.362 2.191 0 4.116-0.451 5.755-1.352s3.011-2.202 4.106-3.912c1.096-1.71 1.915-3.799 2.458-6.267 0.522-2.478 0.799-5.284 0.799-8.417zM590.469 398.418c0-4.403 0.369-7.721 1.116-9.943s2.048-3.328 3.891-3.328c1.812 0 3.113 1.106 3.912 3.308 0.788 2.202 1.188 5.53 1.188 9.974 0 4.424-0.399 7.752-1.188 9.984-0.799 2.232-2.099 3.348-3.912 3.348-0.922 0-1.7-0.287-2.335-0.84-0.635-0.563-1.157-1.403-1.556-2.519s-0.686-2.499-0.86-4.168c-0.174-1.679-0.256-3.615-0.256-5.816zM651.94 379.085h-25.641v5.683l8.991 9.81c1.137 1.239 2.161 2.376 3.082 3.41 0.922 1.044 1.72 2.058 2.386 3.041s1.178 1.997 1.546 3.021c0.358 1.024 0.543 2.12 0.543 3.308 0 1.3-0.389 2.314-1.167 3.041-0.768 0.727-1.812 1.085-3.123 1.085-1.372 0-2.703-0.348-3.973-1.034s-2.601-1.669-4.004-2.939l-4.393 5.263c0.788 0.727 1.608 1.413 2.458 2.079s1.792 1.249 2.816 1.761c1.034 0.512 2.161 0.922 3.4 1.229s2.621 0.461 4.157 0.461c1.833 0 3.471-0.256 4.925-0.768s2.693-1.239 3.727-2.181c1.034-0.942 1.812-2.089 2.365-3.42 0.553-1.341 0.829-2.847 0.829-4.526 0-1.516-0.266-2.97-0.788-4.352s-1.239-2.744-2.14-4.076c-0.901-1.331-1.956-2.652-3.154-3.963-1.188-1.311-2.458-2.652-3.83-4.004l-4.608-4.68v-0.369h15.575v-6.881zM681.431 379.085h-25.641v5.683l8.991 9.81c1.137 1.239 2.161 2.376 3.082 3.41 0.922 1.044 1.72 2.058 2.376 3.041 0.666 0.983 1.178 1.997 1.546 3.021s0.543 2.12 0.543 3.308c0 1.3-0.389 2.314-1.167 3.041-0.768 0.727-1.812 1.085-3.123 1.085-1.382 0-2.703-0.348-3.973-1.034s-2.601-1.669-3.994-2.939l-4.393 5.263c0.778 0.727 1.608 1.413 2.458 2.079s1.792 1.249 2.826 1.761c1.024 0.512 2.161 0.922 3.4 1.229s2.621 0.461 4.157 0.461c1.833 0 3.471-0.256 4.925-0.768s2.693-1.239 3.727-2.181c1.024-0.942 1.812-2.089 2.365-3.42 0.553-1.341 0.829-2.847 0.829-4.526 0-1.516-0.266-2.97-0.788-4.352s-1.239-2.744-2.14-4.076c-0.901-1.331-1.956-2.652-3.154-3.963s-2.468-2.652-3.83-4.004l-4.598-4.68v-0.369h15.585v-6.881zM724.869 398.418c0-3.123-0.236-5.908-0.717-8.356-0.471-2.447-1.239-4.526-2.294-6.236s-2.417-3.021-4.086-3.912c-1.659-0.901-3.666-1.352-6.021-1.352-2.212 0-4.147 0.451-5.775 1.352-1.638 0.901-3 2.202-4.076 3.912-1.085 1.71-1.884 3.789-2.417 6.236s-0.799 5.233-0.799 8.356c0 3.123 0.236 5.919 0.717 8.387s1.239 4.557 2.284 6.267c1.044 1.71 2.396 3.021 4.055 3.932 1.649 0.911 3.656 1.362 6.011 1.362 2.191 0 4.106-0.451 5.755-1.352 1.628-0.901 3-2.202 4.106-3.912 1.096-1.71 1.915-3.799 2.458-6.267 0.532-2.478 0.799-5.284 0.799-8.417zM706.734 398.418c0-4.403 0.379-7.721 1.126-9.943s2.048-3.328 3.901-3.328c1.812 0 3.113 1.106 3.901 3.308s1.188 5.53 1.188 9.974c0 4.424-0.399 7.752-1.188 9.984-0.799 2.232-2.099 3.348-3.901 3.348-0.922 0-1.71-0.287-2.345-0.84-0.635-0.563-1.147-1.403-1.556-2.519-0.399-1.116-0.686-2.499-0.86-4.168-0.184-1.679-0.266-3.615-0.266-5.816zM754.883 387.092h-4.598v-8.018h-7.864v8.018h-15.79v5.683l16.23 24.965h7.424v-24.3h4.598v-6.349zM742.42 393.441v6.554c0 0.225 0 0.563 0.010 0.993s0.020 0.922 0.041 1.464c0.020 0.543 0.041 1.116 0.061 1.69 0.031 0.584 0.051 1.137 0.082 1.669 0.020 0.532 0.051 0.993 0.072 1.393 0.031 0.399 0.051 0.686 0.061 0.86h-0.236c-0.307-0.737-0.666-1.526-1.065-2.355-0.389-0.829-0.84-1.659-1.341-2.488l-6.38-9.789h8.694zM269.117 582.533h485.765v-32.532h-485.765v32.532zM269.117 315.023h485.765v-32.532h-485.765v32.532zM186.255 878.592v-861.184h651.5v861.184h-651.5zM798.126 57.037h-572.252v781.926h572.242v-781.926z" />
<glyph unicode="&#xe604;" d="M290.222 93.164c0-39.782-32.195-71.967-71.967-71.967s-71.967 32.195-71.967 71.967c0 39.711 32.195 71.967 71.967 71.967s71.967-32.246 71.967-71.967zM865.997 93.164c0-39.782-32.195-71.967-71.967-71.967-39.782 0-71.967 32.195-71.967 71.967 0 39.711 32.195 71.967 71.967 71.967 39.772 0.010 71.967-32.246 71.967-71.967zM506.132 596.972h71.967v-71.967h-71.967v71.967zM650.076 453.028h71.967v-71.967h-71.967v71.967zM362.189 453.028h71.967v-71.967h-71.967v71.967zM362.189 596.972h71.967v-71.967h-71.967v71.967zM506.132 453.028h71.967v-71.967h-71.967v71.967zM236.175 740.915l-9.073 72.53c-8.858 71.414-25.016 71.414-44.841 71.414h-179.927v-71.967h143.944l71.967-575.775h647.752l143.944 503.798h-773.765zM855.736 453.028h-61.706v-71.967h41.114l-20.593-71.967h-532.337l-8.018 71.967h16.026v71.967h-23.962l-8.008 71.967h31.98v71.967h-39.997l-8.008 71.967h675.226l-61.716-215.9zM650.076 596.972h71.967v-71.967h-71.967v71.967zM794.020 596.972h71.967v-71.967h-71.967v71.967z" />
<glyph unicode="&#xe605;" d="M77.075-64c-22.022 0-40.373 7.341-55.054 25.692-29.362 29.362-29.362 80.746 3.67 110.108l396.387 378.036-396.387 378.036c-29.362 29.362-33.032 77.075-3.67 110.108 29.362 29.362 77.075 33.032 110.108 3.67l455.111-433.090c14.681-14.681 25.692-36.703 25.692-55.054s-7.341-40.373-25.692-55.054l-455.111-440.43c-14.681-14.681-36.703-22.022-55.054-22.022z" horiz-adv-x="609" />
<glyph unicode="&#xe606;" d="M383.75 704l-383.75-383.75h767.5l-383.75 383.75z" horiz-adv-x="768" />
<glyph unicode="&#xe607;" d="M13.23 731.382h188.467l315.535-330.066 315.546 330.066h182.006l-497.551-525.414z" />
<glyph unicode="&#xe900;" d="M1024 369.556l-512 397.426-512-397.428v162.038l512 397.426 512-397.428zM896 384v-384h-256v256h-256v-256h-256v384l384 288z" />
<glyph unicode="&#xe905;" d="M864 960c88.364 0 160-71.634 160-160 0-36.020-11.91-69.258-32-96l-64-64-224 224 64 64c26.742 20.090 59.978 32 96 32zM64 224l-64-288 288 64 592 592-224 224-592-592zM715.578 596.422l-448-448-55.156 55.156 448 448 55.156-55.156z" />
<glyph unicode="&#xe912;" d="M981.188 799.892c-143.632 20.65-302.332 32.108-469.186 32.108-166.86 0-325.556-11.458-469.194-32.108-27.53-107.726-42.808-226.75-42.808-351.892 0-125.14 15.278-244.166 42.808-351.89 143.638-20.652 302.336-32.11 469.194-32.11 166.854 0 325.552 11.458 469.186 32.11 27.532 107.724 42.812 226.75 42.812 351.89 0 125.142-15.28 244.166-42.812 351.892zM384.002 256v384l320-192-320-192z" />
<glyph unicode="&#xe91a;" d="M1024 530.744c0 200.926-58.792 363.938-131.482 365.226 0.292 0.006 0.578 0.030 0.872 0.030h-82.942c0 0-194.8-146.336-475.23-203.754-8.56-45.292-14.030-99.274-14.030-161.502s5.466-116.208 14.030-161.5c280.428-57.418 475.23-203.756 475.23-203.756h82.942c-0.292 0-0.578 0.024-0.872 0.032 72.696 1.288 131.482 164.298 131.482 365.224zM864.824 220.748c-9.382 0-19.532 9.742-24.746 15.548-12.63 14.064-24.792 35.96-35.188 63.328-23.256 61.232-36.066 143.31-36.066 231.124 0 87.81 12.81 169.89 36.066 231.122 10.394 27.368 22.562 49.266 35.188 63.328 5.214 5.812 15.364 15.552 24.746 15.552 9.38 0 19.536-9.744 24.744-15.552 12.634-14.064 24.796-35.958 35.188-63.328 23.258-61.23 36.068-143.312 36.068-231.122 0-87.804-12.81-169.888-36.068-231.124-10.39-27.368-22.562-49.264-35.188-63.328-5.208-5.806-15.36-15.548-24.744-15.548zM251.812 530.744c0 51.95 3.81 102.43 11.052 149.094-47.372-6.554-88.942-10.324-140.34-10.324-67.058 0-67.058 0-67.058 0l-55.466-94.686v-88.17l55.46-94.686c0 0 0 0 67.060 0 51.398 0 92.968-3.774 140.34-10.324-7.236 46.664-11.048 97.146-11.048 149.096zM368.15 317.828l-127.998 24.51 81.842-321.544c4.236-16.634 20.744-25.038 36.686-18.654l118.556 47.452c15.944 6.376 22.328 23.964 14.196 39.084l-123.282 229.152zM864.824 411.27c-3.618 0-7.528 3.754-9.538 5.992-4.87 5.42-9.556 13.86-13.562 24.408-8.962 23.6-13.9 55.234-13.9 89.078s4.938 65.478 13.9 89.078c4.006 10.548 8.696 18.988 13.562 24.408 2.010 2.24 5.92 5.994 9.538 5.994 3.616 0 7.53-3.756 9.538-5.994 4.87-5.42 9.556-13.858 13.56-24.408 8.964-23.598 13.902-55.234 13.902-89.078 0-33.842-4.938-65.478-13.902-89.078-4.004-10.548-8.696-18.988-13.56-24.408-2.008-2.238-5.92-5.992-9.538-5.992z" />
<glyph unicode="&#xe93b;" d="M480 896c-265.096 0-480-214.904-480-480 0-265.098 214.904-480 480-480 265.098 0 480 214.902 480 480 0 265.096-214.902 480-480 480zM480 32c-212.078 0-384 171.922-384 384s171.922 384 384 384c212.078 0 384-171.922 384-384s-171.922-384-384-384zM512 448v128h128v64h-128v64h-64v-64h-128v-256h128v-128h-128v-64h128v-64h64v64h128.002l-0.002 256h-128zM448 448h-64v128h64v-128zM576.002 256h-64.002v128h64.002v-128z" />
<glyph unicode="&#xe93c;" d="M480 896c-265.096 0-480-214.904-480-480s214.904-480 480-480c265.098 0 480 214.902 480 480s-214.902 480-480 480zM480 32c-212.078 0-384 171.922-384 384s171.922 384 384 384c212.076 0 384-171.922 384-384s-171.924-384-384-384zM670.824 315.66c-15.27 8.884-34.862 3.708-43.75-11.57-17.256-29.662-49.088-48.090-83.074-48.090h-128c-41.716 0-77.286 26.754-90.496 64h154.496c17.672 0 32 14.326 32 32s-14.328 32-32 32h-160v64h160c17.672 0 32 14.328 32 32s-14.328 32-32 32h-154.496c13.21 37.246 48.78 64 90.496 64h128c33.986 0 65.818-18.426 83.074-48.090 8.888-15.276 28.478-20.456 43.752-11.568 15.276 8.888 20.456 28.476 11.568 43.752-28.672 49.288-81.702 79.906-138.394 79.906h-128c-77.268 0-141.914-55.056-156.78-128h-35.22c-17.672 0-32-14.328-32-32s14.328-32 32-32h32v-64h-32c-17.672 0-32-14.326-32-32s14.328-32 32-32h35.22c14.866-72.944 79.512-128 156.78-128h128c56.692 0 109.72 30.62 138.394 79.91 8.888 15.276 3.708 34.864-11.57 43.75z" />
<glyph unicode="&#xe93d;" d="M480 896c-265.096 0-480-214.904-480-480s214.904-480 480-480c265.098 0 480 214.902 480 480s-214.902 480-480 480zM480 32c-212.078 0-384 171.922-384 384s171.922 384 384 384c212.074 0 384-171.922 384-384s-171.926-384-384-384zM608 256h-224v128h96c17.672 0 32 14.326 32 32s-14.328 32-32 32h-96v32c0 52.934 43.066 96 96 96 34.17 0 66.042-18.404 83.18-48.030 8.85-15.298 28.426-20.526 43.722-11.676 15.296 8.848 20.526 28.424 11.676 43.722-28.538 49.336-81.638 79.984-138.578 79.984-88.224 0-160-71.776-160-160v-32h-32c-17.672 0-32-14.326-32-32s14.328-32 32-32h32v-192h288c17.674 0 32 14.326 32 32s-14.326 32-32 32z" />
<glyph unicode="&#xe93e;" d="M480 896c-265.096 0-480-214.904-480-480s214.904-480 480-480c265.098 0 480 214.902 480 480s-214.902 480-480 480zM480 32c-212.078 0-384 171.922-384 384s171.922 384 384 384c212.076 0 384-171.922 384-384s-171.924-384-384-384zM608 384c17.674 0 32 14.326 32 32s-14.326 32-32 32h-68.208l94.832 142.25c9.804 14.704 5.83 34.572-8.876 44.376-14.704 9.802-34.572 5.83-44.376-8.876l-101.372-152.062-101.374 152.062c-9.804 14.706-29.672 18.68-44.376 8.876-14.706-9.804-18.678-29.672-8.876-44.376l94.834-142.25h-68.208c-17.672 0-32-14.326-32-32s14.328-32 32-32h96v-64h-96c-17.672 0-32-14.326-32-32s14.328-32 32-32h96v-96c0-17.674 14.328-32 32-32s32 14.326 32 32v96h96c17.674 0 32 14.326 32 32s-14.326 32-32 32h-96v64h96z" />
<glyph unicode="&#xe94e;" d="M658.744 210.744l-210.744 210.746v282.51h128v-229.49l173.256-173.254zM512 960c-282.77 0-512-229.23-512-512s229.23-512 512-512 512 229.23 512 512-229.23 512-512 512zM512 64c-212.078 0-384 171.922-384 384s171.922 384 384 384c212.078 0 384-171.922 384-384s-171.922-384-384-384z" />
<glyph unicode="&#xe956;" d="M0 896v-640h1024v640h-1024zM960 320h-896v512h896v-512zM672 192h-320l-32-128-64-64h512l-64 64z" />
<glyph unicode="&#xe959;" d="M768 960h-576c-35.2 0-64-28.798-64-64v-896c0-35.2 28.798-64 64-64h576c35.2 0 64 28.8 64 64v896c0 35.202-28.8 64-64 64zM480-17.782c-27.492 0-49.782 22.29-49.782 49.782s22.29 49.782 49.782 49.782 49.782-22.29 49.782-49.782-22.29-49.782-49.782-49.782zM768 128h-576v704h576v-704z" />
<glyph unicode="&#xe95a;" d="M800 960h-640c-52.8 0-96-43.2-96-96v-832c0-52.8 43.2-96 96-96h640c52.8 0 96 43.2 96 96v832c0 52.8-43.2 96-96 96zM480-32c-17.672 0-32 14.326-32 32s14.328 32 32 32 32-14.326 32-32-14.328-32-32-32zM768 64h-576v768h576v-768z" />
<glyph unicode="&#xe96b;" d="M512 896c282.77 0 512-186.25 512-416 0-229.752-229.23-416-512-416-27.156 0-53.81 1.734-79.824 5.044-109.978-109.978-241.25-129.7-368.176-132.596v26.916c68.536 33.578 128 94.74 128 164.636 0 9.754-0.758 19.33-2.164 28.696-115.796 76.264-189.836 192.754-189.836 323.304 0 229.75 229.23 416 512 416z" />
<glyph unicode="&#xe96e;" d="M512 768c-54.932 0-107.988-8.662-157.694-25.742-46.712-16.054-88.306-38.744-123.628-67.444-66.214-53.798-102.678-122.984-102.678-194.814 0-40.298 11.188-79.378 33.252-116.152 22.752-37.92 56.982-72.586 98.988-100.252 30.356-19.992 50.78-51.948 56.176-87.894 1.8-11.984 2.928-24.088 3.37-36.124 7.47 6.194 14.75 12.846 21.88 19.976 24.154 24.152 56.78 37.49 90.502 37.49 5.368 0 10.762-0.336 16.156-1.024 20.974-2.666 42.398-4.020 63.676-4.020 54.934 0 107.988 8.66 157.694 25.742 46.712 16.054 88.306 38.744 123.628 67.444 66.214 53.796 102.678 122.984 102.678 194.814s-36.464 141.016-102.678 194.814c-35.322 28.698-76.916 51.39-123.628 67.444-49.706 17.080-102.76 25.742-157.694 25.742zM512 896v0c282.77 0 512-186.25 512-416 0-229.752-229.23-416-512-416-27.156 0-53.81 1.734-79.824 5.044-109.978-109.978-241.25-129.7-368.176-132.596v26.916c68.536 33.578 128 94.74 128 164.636 0 9.754-0.758 19.33-2.164 28.696-115.796 76.264-189.836 192.754-189.836 323.304 0 229.75 229.23 416 512 416z" />
<glyph unicode="&#xe971;" d="M576 253.388v52.78c70.498 39.728 128 138.772 128 237.832 0 159.058 0 288-192 288s-192-128.942-192-288c0-99.060 57.502-198.104 128-237.832v-52.78c-217.102-17.748-384-124.42-384-253.388h896c0 128.968-166.898 235.64-384 253.388z" />
<glyph unicode="&#xe977;" d="M225 512c123.712 0 224-100.29 224-224 0-123.712-100.288-224-224-224s-224 100.288-224 224l-1 32c0 247.424 200.576 448 448 448v-128c-85.474 0-165.834-33.286-226.274-93.726-11.634-11.636-22.252-24.016-31.83-37.020 11.438 1.8 23.16 2.746 35.104 2.746zM801 512c123.71 0 224-100.29 224-224 0-123.712-100.29-224-224-224s-224 100.288-224 224l-1 32c0 247.424 200.576 448 448 448v-128c-85.474 0-165.834-33.286-226.274-93.726-11.636-11.636-22.254-24.016-31.832-37.020 11.44 1.8 23.16 2.746 35.106 2.746z" />
<glyph unicode="&#xe978;" d="M800 320c-123.712 0-224 100.29-224 224 0 123.712 100.288 224 224 224s224-100.288 224-224l1-32c0-247.424-200.576-448-448-448v128c85.474 0 165.834 33.286 226.274 93.726 11.634 11.636 22.252 24.016 31.83 37.020-11.438-1.8-23.16-2.746-35.104-2.746zM224 320c-123.71 0-224 100.29-224 224 0 123.712 100.29 224 224 224s224-100.288 224-224l1-32c0-247.424-200.576-448-448-448v128c85.474 0 165.834 33.286 226.274 93.726 11.636 11.636 22.254 24.016 31.832 37.020-11.44-1.8-23.16-2.746-35.106-2.746z" />
<glyph unicode="&#xe97a;" d="M384 832c0 70.692 57.308 128 128 128s128-57.308 128-128c0-70.692-57.308-128-128-128s-128 57.308-128 128zM655.53 719.53c0 70.692 57.308 128 128 128s128-57.308 128-128c0-70.692-57.308-128-128-128s-128 57.308-128 128zM832 448c0 35.346 28.654 64 64 64s64-28.654 64-64c0-35.346-28.654-64-64-64s-64 28.654-64 64zM719.53 176.47c0 35.346 28.654 64 64 64s64-28.654 64-64c0-35.346-28.654-64-64-64s-64 28.654-64 64zM448.002 64c0 0 0 0 0 0 0 35.346 28.654 64 64 64s64-28.654 64-64c0 0 0 0 0 0 0-35.346-28.654-64-64-64s-64 28.654-64 64zM176.472 176.47c0 0 0 0 0 0 0 35.346 28.654 64 64 64s64-28.654 64-64c0 0 0 0 0 0 0-35.346-28.654-64-64-64s-64 28.654-64 64zM144.472 719.53c0 0 0 0 0 0 0 53.019 42.981 96 96 96s96-42.981 96-96c0 0 0 0 0 0 0-53.019-42.981-96-96-96s-96 42.981-96 96zM56 448c0 39.765 32.235 72 72 72s72-32.235 72-72c0-39.765-32.235-72-72-72s-72 32.235-72 72z" />
<glyph unicode="&#xe986;" d="M992.262 88.604l-242.552 206.294c-25.074 22.566-51.89 32.926-73.552 31.926 57.256 67.068 91.842 154.078 91.842 249.176 0 212.078-171.922 384-384 384-212.076 0-384-171.922-384-384s171.922-384 384-384c95.098 0 182.108 34.586 249.176 91.844-1-21.662 9.36-48.478 31.926-73.552l206.294-242.552c35.322-39.246 93.022-42.554 128.22-7.356s31.892 92.898-7.354 128.22zM384 320c-141.384 0-256 114.616-256 256s114.616 256 256 256 256-114.616 256-256-114.614-256-256-256z" />
<glyph unicode="&#xe98d;" d="M704 960c-176.73 0-320-143.268-320-320 0-20.026 1.858-39.616 5.376-58.624l-389.376-389.376v-192c0-35.346 28.654-64 64-64h64v64h128v128h128v128h128l83.042 83.042c34.010-12.316 70.696-19.042 108.958-19.042 176.73 0 320 143.268 320 320s-143.27 320-320 320zM799.874 639.874c-53.020 0-96 42.98-96 96s42.98 96 96 96 96-42.98 96-96-42.98-96-96-96z" />
<glyph unicode="&#xe994;" d="M933.79 349.75c-53.726 93.054-21.416 212.304 72.152 266.488l-100.626 174.292c-28.75-16.854-62.176-26.518-97.846-26.518-107.536 0-194.708 87.746-194.708 195.99h-201.258c0.266-33.41-8.074-67.282-25.958-98.252-53.724-93.056-173.156-124.702-266.862-70.758l-100.624-174.292c28.97-16.472 54.050-40.588 71.886-71.478 53.638-92.908 21.512-211.92-71.708-266.224l100.626-174.292c28.65 16.696 61.916 26.254 97.4 26.254 107.196 0 194.144-87.192 194.7-194.958h201.254c-0.086 33.074 8.272 66.57 25.966 97.218 53.636 92.906 172.776 124.594 266.414 71.012l100.626 174.29c-28.78 16.466-53.692 40.498-71.434 71.228zM512 240.668c-114.508 0-207.336 92.824-207.336 207.334 0 114.508 92.826 207.334 207.336 207.334 114.508 0 207.332-92.826 207.332-207.334-0.002-114.51-92.824-207.334-207.332-207.334z" />
<glyph unicode="&#xe9ac;" d="M128 640v-640c0-35.2 28.8-64 64-64h576c35.2 0 64 28.8 64 64v640h-704zM320 64h-64v448h64v-448zM448 64h-64v448h64v-448zM576 64h-64v448h64v-448zM704 64h-64v448h64v-448zM848 832h-208v80c0 26.4-21.6 48-48 48h-224c-26.4 0-48-21.6-48-48v-80h-208c-26.4 0-48-21.6-48-48v-80h832v80c0 26.4-21.6 48-48 48zM576 832h-192v63.198h192v-63.198z" />
<glyph unicode="&#xe9bd;" d="M64 768h896v-192h-896zM64 512h896v-192h-896zM64 256h896v-192h-896z" />
<glyph unicode="&#xe9ca;" d="M512 960c-282.77 0-512-229.23-512-512s229.23-512 512-512 512 229.23 512 512-229.23 512-512 512zM512-0.002c-62.958 0-122.872 13.012-177.23 36.452l233.148 262.29c5.206 5.858 8.082 13.422 8.082 21.26v96c0 17.674-14.326 32-32 32-112.99 0-232.204 117.462-233.374 118.626-6 6.002-14.14 9.374-22.626 9.374h-128c-17.672 0-32-14.328-32-32v-192c0-12.122 6.848-23.202 17.69-28.622l110.31-55.156v-187.886c-116.052 80.956-192 215.432-192 367.664 0 68.714 15.49 133.806 43.138 192h116.862c8.488 0 16.626 3.372 22.628 9.372l128 128c6 6.002 9.372 14.14 9.372 22.628v77.412c40.562 12.074 83.518 18.588 128 18.588 70.406 0 137.004-16.26 196.282-45.2-4.144-3.502-8.176-7.164-12.046-11.036-36.266-36.264-56.236-84.478-56.236-135.764s19.97-99.5 56.236-135.764c36.434-36.432 85.218-56.264 135.634-56.26 3.166 0 6.342 0.080 9.518 0.236 13.814-51.802 38.752-186.656-8.404-372.334-0.444-1.744-0.696-3.488-0.842-5.224-81.324-83.080-194.7-134.656-320.142-134.656z" />
<glyph unicode="&#xe9cc;" d="M0 960h128v-1024h-128v1024zM832 316.998c82.624 0 154.57 19.984 192 49.5v512c-37.43-29.518-109.376-49.502-192-49.502s-154.57 19.984-192 49.502v-512c37.43-29.516 109.376-49.5 192-49.5zM608 927.472c-46.906 19.94-115.52 32.528-192 32.528-96.396 0-180.334-19.984-224-49.502v-512c43.666 29.518 127.604 49.502 224 49.502 76.48 0 145.094-12.588 192-32.528v512z" />
<glyph unicode="&#xe9ce;" d="M512 768c-223.318 0-416.882-130.042-512-320 95.118-189.958 288.682-320 512-320 223.312 0 416.876 130.042 512 320-95.116 189.958-288.688 320-512 320zM764.45 598.296c60.162-38.374 111.142-89.774 149.434-150.296-38.292-60.522-89.274-111.922-149.436-150.296-75.594-48.218-162.89-73.704-252.448-73.704-89.56 0-176.858 25.486-252.452 73.704-60.158 38.372-111.138 89.772-149.432 150.296 38.292 60.524 89.274 111.924 149.434 150.296 3.918 2.5 7.876 4.922 11.86 7.3-9.96-27.328-15.41-56.822-15.41-87.596 0-141.382 114.616-256 256-256 141.382 0 256 114.618 256 256 0 30.774-5.452 60.268-15.408 87.598 3.978-2.378 7.938-4.802 11.858-7.302v0zM512 544c0-53.020-42.98-96-96-96s-96 42.98-96 96 42.98 96 96 96 96-42.982 96-96z" />
<glyph unicode="&#xe9d1;" d="M945.942 945.942c-18.746 18.744-49.136 18.744-67.882 0l-202.164-202.164c-51.938 15.754-106.948 24.222-163.896 24.222-223.318 0-416.882-130.042-512-320 41.122-82.124 100.648-153.040 173.022-207.096l-158.962-158.962c-18.746-18.746-18.746-49.136 0-67.882 9.372-9.374 21.656-14.060 33.94-14.060s24.568 4.686 33.942 14.058l864 864c18.744 18.746 18.744 49.138 0 67.884zM416 640c42.24 0 78.082-27.294 90.92-65.196l-121.724-121.724c-37.902 12.838-65.196 48.68-65.196 90.92 0 53.020 42.98 96 96 96zM110.116 448c38.292 60.524 89.274 111.924 149.434 150.296 3.918 2.5 7.876 4.922 11.862 7.3-9.962-27.328-15.412-56.822-15.412-87.596 0-54.89 17.286-105.738 46.7-147.418l-60.924-60.924c-52.446 36.842-97.202 83.882-131.66 138.342zM768 518c0 27.166-4.256 53.334-12.102 77.898l-321.808-321.808c24.568-7.842 50.742-12.090 77.91-12.090 141.382 0 256 114.618 256 256zM830.026 670.026l-69.362-69.362c1.264-0.786 2.53-1.568 3.786-2.368 60.162-38.374 111.142-89.774 149.434-150.296-38.292-60.522-89.274-111.922-149.436-150.296-75.594-48.218-162.89-73.704-252.448-73.704-38.664 0-76.902 4.76-113.962 14.040l-76.894-76.894c59.718-21.462 123.95-33.146 190.856-33.146 223.31 0 416.876 130.042 512 320-45.022 89.916-112.118 166.396-193.974 222.026z" />
<glyph unicode="&#xe9d7;" d="M1024 562.95l-353.78 51.408-158.22 320.582-158.216-320.582-353.784-51.408 256-249.538-60.432-352.352 316.432 166.358 316.432-166.358-60.434 352.352 256.002 249.538zM512 206.502l-223.462-117.48 42.676 248.83-180.786 176.222 249.84 36.304 111.732 226.396 111.736-226.396 249.836-36.304-180.788-176.222 42.678-248.83-223.462 117.48z" />
<glyph unicode="&#xe9d9;" d="M1024 562.95l-353.78 51.408-158.22 320.582-158.216-320.582-353.784-51.408 256-249.538-60.432-352.352 316.432 166.358 316.432-166.358-60.434 352.352 256.002 249.538z" />
<glyph unicode="&#xe9da;" d="M755.188 896c-107.63 0-200.258-87.554-243.164-179-42.938 91.444-135.578 179-243.216 179-148.382 0-268.808-120.44-268.808-268.832 0-301.846 304.5-380.994 512.022-679.418 196.154 296.576 511.978 387.206 511.978 679.418 0 148.392-120.43 268.832-268.812 268.832z" />
<glyph unicode="&#xe9e1;" d="M512-64c282.77 0 512 229.23 512 512s-229.23 512-512 512-512-229.23-512-512 229.23-512 512-512zM512 864c229.75 0 416-186.25 416-416s-186.25-416-416-416-416 186.25-416 416 186.25 416 416 416zM256 640c0 35.346 28.654 64 64 64s64-28.654 64-64c0-35.346-28.654-64-64-64s-64 28.654-64 64zM640 640c0 35.346 28.654 64 64 64s64-28.654 64-64c0-35.346-28.654-64-64-64s-64 28.654-64 64zM704.098 332.74l82.328-49.396c-55.962-93.070-157.916-155.344-274.426-155.344s-218.464 62.274-274.426 155.344l82.328 49.396c39.174-65.148 110.542-108.74 192.098-108.74s152.924 43.592 192.098 108.74z" />
<glyph unicode="&#xe9e5;" d="M512-64c282.77 0 512 229.23 512 512s-229.23 512-512 512-512-229.23-512-512 229.23-512 512-512zM512 864c229.75 0 416-186.25 416-416s-186.25-416-416-416-416 186.25-416 416 186.25 416 416 416zM256 640c0 35.346 28.654 64 64 64s64-28.654 64-64c0-35.346-28.654-64-64-64s-64 28.654-64 64zM640 640c0 35.346 28.654 64 64 64s64-28.654 64-64c0-35.346-28.654-64-64-64s-64 28.654-64 64zM319.902 179.26l-82.328 49.396c55.962 93.070 157.916 155.344 274.426 155.344 116.508 0 218.462-62.274 274.426-155.344l-82.328-49.396c-39.174 65.148-110.542 108.74-192.098 108.74-81.558 0-152.924-43.592-192.098-108.74z" />
<glyph unicode="&#xea0a;" d="M992 576h-352v352c0 17.672-14.328 32-32 32h-192c-17.672 0-32-14.328-32-32v-352h-352c-17.672 0-32-14.328-32-32v-192c0-17.672 14.328-32 32-32h352v-352c0-17.672 14.328-32 32-32h192c17.672 0 32 14.328 32 32v352h352c17.672 0 32 14.328 32 32v192c0 17.672-14.328 32-32 32z" />
<glyph unicode="&#xea0b;" d="M0 544v-192c0-17.672 14.328-32 32-32h960c17.672 0 32 14.328 32 32v192c0 17.672-14.328 32-32 32h-960c-17.672 0-32-14.328-32-32z" />
<glyph unicode="&#xea0c;" d="M448 656c0 26.4 21.6 48 48 48h32c26.4 0 48-21.6 48-48v-32c0-26.4-21.6-48-48-48h-32c-26.4 0-48 21.6-48 48v32zM640 192h-256v64h64v192h-64v64h192v-256h64zM512 960c-282.77 0-512-229.23-512-512s229.23-512 512-512 512 229.23 512 512-229.23 512-512 512zM512 32c-229.75 0-416 186.25-416 416s186.25 416 416 416 416-186.25 416-416-186.25-416-416-416z" />
<glyph unicode="&#xea0d;" d="M512 960c-282.77 0-512-229.23-512-512s229.23-512 512-512 512 229.23 512 512-229.23 512-512 512zM512 32c-229.75 0-416 186.25-416 416s186.25 416 416 416 416-186.25 416-416-186.25-416-416-416zM672 704l-160-160-160 160-96-96 160-160-160-160 96-96 160 160 160-160 96 96-160 160 160 160z" />
<glyph unicode="&#xea0f;" d="M1014.662 137.34c-0.004 0.004-0.008 0.008-0.012 0.010l-310.644 310.65 310.644 310.65c0.004 0.004 0.008 0.006 0.012 0.010 3.344 3.346 5.762 7.254 7.312 11.416 4.246 11.376 1.824 24.682-7.324 33.83l-146.746 146.746c-9.148 9.146-22.45 11.566-33.828 7.32-4.16-1.55-8.070-3.968-11.418-7.31 0-0.004-0.004-0.006-0.008-0.010l-310.648-310.652-310.648 310.65c-0.004 0.004-0.006 0.006-0.010 0.010-3.346 3.342-7.254 5.76-11.414 7.31-11.38 4.248-24.682 1.826-33.83-7.32l-146.748-146.748c-9.148-9.148-11.568-22.452-7.322-33.828 1.552-4.16 3.97-8.072 7.312-11.416 0.004-0.002 0.006-0.006 0.010-0.010l310.65-310.648-310.65-310.652c-0.002-0.004-0.006-0.006-0.008-0.010-3.342-3.346-5.76-7.254-7.314-11.414-4.248-11.376-1.826-24.682 7.322-33.83l146.748-146.746c9.15-9.148 22.452-11.568 33.83-7.322 4.16 1.552 8.070 3.97 11.416 7.312 0.002 0.004 0.006 0.006 0.010 0.010l310.648 310.65 310.648-310.65c0.004-0.002 0.008-0.006 0.012-0.008 3.348-3.344 7.254-5.762 11.414-7.314 11.378-4.246 24.684-1.826 33.828 7.322l146.746 146.748c9.148 9.148 11.57 22.454 7.324 33.83-1.552 4.16-3.97 8.068-7.314 11.414z" />
<glyph unicode="&#xea10;" d="M864 832l-480-480-224 224-160-160 384-384 640 640z" />
<glyph unicode="&#xea14;" d="M768 320v128h-320v128h320v128l192-192zM704 384v-256h-320v-192l-384 192v832h704v-320h-64v256h-512l256-128v-576h256v192z" />
<glyph unicode="&#xea30;" d="M768 256h-101.49l-160 160 160 160h101.49v-160l224 224-224 224v-160h-128c-16.974 0-33.252-6.744-45.254-18.746l-178.746-178.744-178.746 178.746c-12 12-28.28 18.744-45.254 18.744h-192v-128h165.49l160-160-160-160h-165.49v-128h192c16.974 0 33.252 6.742 45.254 18.746l178.746 178.744 178.746-178.744c12.002-12.004 28.28-18.746 45.254-18.746h128v-160l224 224-224 224v-160z" />
<glyph unicode="&#xea3a;" d="M877.254 557.254l-320 320c-24.992 24.994-65.514 24.994-90.508 0l-320-320c-24.994-24.994-24.994-65.516 0-90.51 24.994-24.996 65.516-24.996 90.51 0l210.744 210.746v-613.49c0-35.346 28.654-64 64-64s64 28.654 64 64v613.49l210.746-210.746c12.496-12.496 28.876-18.744 45.254-18.744s32.758 6.248 45.254 18.746c24.994 24.994 24.994 65.514 0 90.508z" />
<glyph unicode="&#xea3c;" d="M621.254 82.746l320 320c24.994 24.992 24.994 65.516 0 90.51l-320 320c-24.994 24.992-65.516 24.992-90.51 0-24.994-24.994-24.994-65.516 0-90.51l210.746-210.746h-613.49c-35.346 0-64-28.654-64-64s28.654-64 64-64h613.49l-210.746-210.746c-12.496-12.496-18.744-28.876-18.744-45.254s6.248-32.758 18.744-45.254c24.994-24.994 65.516-24.994 90.51 0z" />
<glyph unicode="&#xea3e;" d="M877.254 338.746l-320-320c-24.992-24.994-65.514-24.994-90.508 0l-320 320c-24.994 24.994-24.994 65.516 0 90.51 24.994 24.996 65.516 24.996 90.51 0l210.744-210.746v613.49c0 35.346 28.654 64 64 64s64-28.654 64-64v-613.49l210.746 210.746c12.496 12.496 28.876 18.744 45.254 18.744s32.758-6.248 45.254-18.746c24.994-24.994 24.994-65.514 0-90.508z" />
<glyph unicode="&#xea40;" d="M402.746 82.746l-320 320c-24.994 24.992-24.994 65.516 0 90.51l320 320c24.994 24.992 65.516 24.992 90.51 0 24.994-24.994 24.994-65.516 0-90.51l-210.746-210.746h613.49c35.346 0 64-28.654 64-64s-28.654-64-64-64h-613.49l210.746-210.746c12.496-12.496 18.744-28.876 18.744-45.254s-6.248-32.758-18.744-45.254c-24.994-24.994-65.516-24.994-90.51 0z" />
<glyph unicode="&#xea41;" d="M0 448c0-282.77 229.23-512 512-512s512 229.23 512 512-229.23 512-512 512-512-229.23-512-512zM928 448c0-229.75-186.25-416-416-416s-416 186.25-416 416 186.25 416 416 416 416-186.25 416-416zM706.744 290.744l90.512 90.512-285.256 285.254-285.254-285.256 90.508-90.508 194.746 194.744z" />
<glyph unicode="&#xea42;" d="M512 960c-282.77 0-512-229.23-512-512s229.23-512 512-512 512 229.23 512 512-229.23 512-512 512zM512 32c-229.75 0-416 186.25-416 416s186.25 416 416 416 416-186.25 416-416-186.25-416-416-416zM354.744 253.256l90.512-90.512 285.254 285.256-285.256 285.254-90.508-90.508 194.744-194.746z" />
<glyph unicode="&#xea43;" d="M1024 448c0 282.77-229.23 512-512 512s-512-229.23-512-512 229.23-512 512-512 512 229.23 512 512zM96 448c0 229.75 186.25 416 416 416s416-186.25 416-416-186.25-416-416-416-416 186.25-416 416zM317.256 605.256l-90.512-90.512 285.256-285.254 285.254 285.256-90.508 90.508-194.746-194.744z" />
<glyph unicode="&#xea44;" d="M512-64c282.77 0 512 229.23 512 512s-229.23 512-512 512-512-229.23-512-512 229.23-512 512-512zM512 864c229.75 0 416-186.25 416-416s-186.25-416-416-416-416 186.25-416 416 186.25 416 416 416zM669.256 642.744l-90.512 90.512-285.254-285.256 285.256-285.254 90.508 90.508-194.744 194.746z" />
<glyph unicode="&#xea88;" d="M559.066 896c0 0-200.956 0-267.94 0-120.12 0-233.17-91.006-233.17-196.422 0-107.726 81.882-194.666 204.088-194.666 8.498 0 16.756 0.17 24.842 0.752-7.93-15.186-13.602-32.288-13.602-50.042 0-29.938 16.104-54.21 36.468-74.024-15.386 0-30.242-0.448-46.452-0.448-148.782 0.002-263.3-94.758-263.3-193.020 0-96.778 125.542-157.314 274.334-157.314 169.624 0 263.306 96.244 263.306 193.028 0 77.6-22.896 124.072-93.686 174.134-24.216 17.144-70.53 58.836-70.53 83.344 0 28.72 8.196 42.868 51.428 76.646 44.312 34.624 75.672 83.302 75.672 139.916 0 67.406-30.020 133.098-86.372 154.772h84.954l59.96 43.344zM465.48 240.542c2.126-8.972 3.284-18.206 3.284-27.628 0-78.2-50.392-139.31-194.974-139.31-102.842 0-177.116 65.104-177.116 143.3 0 76.642 92.126 140.444 194.964 139.332 24-0.254 46.368-4.116 66.67-10.69 55.826-38.826 95.876-60.762 107.172-105.004zM300.818 532.224c-69.038 2.064-134.636 77.226-146.552 167.86-11.916 90.666 34.37 160.042 103.388 157.99 69.010-2.074 134.638-74.814 146.558-165.458 11.906-90.66-34.39-162.458-103.394-160.392zM832 704v192h-64v-192h-192v-64h192v-192h64v192h192v64z" />
<glyph unicode="&#xea8c;" d="M672 768c-88.366 0-160-71.634-160-160v-96h-128v-128h128v-448h128v448h144l32 128h-176v96c0 17.672 14.326 32 32 32h160v128h-160z" />
<glyph unicode="&#xea91;" d="M1024 765.582c-37.676-16.708-78.164-28.002-120.66-33.080 43.372 26 76.686 67.17 92.372 116.23-40.596-24.078-85.556-41.56-133.41-50.98-38.32 40.83-92.922 66.34-153.346 66.34-116.022 0-210.088-94.058-210.088-210.078 0-16.466 1.858-32.5 5.44-47.878-174.6 8.764-329.402 92.4-433.018 219.506-18.084-31.028-28.446-67.116-28.446-105.618 0-72.888 37.088-137.192 93.46-174.866-34.438 1.092-66.832 10.542-95.154 26.278-0.020-0.876-0.020-1.756-0.020-2.642 0-101.788 72.418-186.696 168.522-206-17.626-4.8-36.188-7.372-55.348-7.372-13.538 0-26.698 1.32-39.528 3.772 26.736-83.46 104.32-144.206 196.252-145.896-71.9-56.35-162.486-89.934-260.916-89.934-16.958 0-33.68 0.994-50.116 2.94 92.972-59.61 203.402-94.394 322.042-94.394 386.422 0 597.736 320.124 597.736 597.744 0 9.108-0.206 18.168-0.61 27.18 41.056 29.62 76.672 66.62 104.836 108.748z" />
<glyph unicode="&#xeab6;" d="M128 448.008c0-148.026 88.322-275.968 216.43-336.578l-183.178 488.784c-21.308-46.508-33.252-97.982-33.252-152.206zM771.228 466.872c0 46.234-17.054 78.236-31.654 103.142-19.458 30.82-37.72 56.894-37.72 87.716 0 34.374 26.766 66.376 64.486 66.376 1.704 0 3.32-0.204 4.976-0.302-68.316 60.97-159.34 98.196-259.308 98.196-134.16 0-252.186-67.046-320.844-168.568 9.010-0.282 17.506-0.454 24.712-0.454 40.154 0 102.34 4.752 102.34 4.752 20.69 1.182 23.132-28.434 2.458-30.822 0 0-20.81-2.368-43.952-3.55l139.834-405.106 84.044 245.456-59.822 159.65c-20.688 1.184-40.278 3.55-40.278 3.55-20.702 1.192-18.272 32.002 2.438 30.822 0 0 63.4-4.752 101.134-4.752 40.146 0 102.35 4.752 102.35 4.752 20.702 1.182 23.14-28.434 2.446-30.822 0 0-20.834-2.372-43.948-3.55l138.78-402.018 38.312 124.632c16.58 51.75 29.216 88.9 29.216 120.9zM518.742 415.296l-115.226-326.058c34.416-9.858 70.794-15.238 108.488-15.238 44.716 0 87.604 7.518 127.518 21.2-1.018 1.602-1.974 3.304-2.75 5.154l-118.030 314.942zM848.962 627.428c1.652-11.91 2.588-24.686 2.588-38.458 0-37.93-7.292-80.596-29.202-133.95l-117.286-330.272c114.162 64.828 190.938 185.288 190.938 323.258 0 65.030-17.060 126.16-47.038 179.422zM512 960c-282.77 0-512-229.23-512-512s229.23-512 512-512 512 229.23 512 512-229.23 512-512 512zM512 0c-247.424 0-448 200.576-448 448s200.576 448 448 448 448-200.576 448-448-200.576-448-448-448z" />
</font>
</defs>
</svg>
