<?xml version="1.0" encoding="utf-8"?>
<svg xmlns="http://www.w3.org/2000/svg"
	xmlns:xlink="http://www.w3.org/1999/xlink"
	width="77px" height="68px" viewBox="0 0 77 68">
<path fillRule="evenodd" d="M 76.94 14.31C 76.94 14.31 76.04 20.01 76.04 20.01 76.04 20.01 21.61 8.6 21.61 8.6 21.61 8.6 22.51 2.89 22.51 2.89 22.93 0.92 24.91-0.36 26.91 0.06 26.91 0.06 74.08 9.95 74.08 9.95 76.08 10.37 77.36 12.33 76.94 14.31ZM 49.63 18.64C 51.62 18.09 53.69 19.26 54.24 21.22 54.24 21.22 55.05 24.12 55.05 24.12 55.05 24.12 74 28.09 74 28.09 74 28.09 70.67 43.67 70.67 43.67 70.25 45.64 68.27 46.92 66.27 46.5 66.27 46.5 61.01 45.4 61.01 45.4 61.01 45.4 62.42 50.41 62.42 50.41 62.97 52.37 61.79 54.43 59.81 54.97 59.81 54.97 12.92 67.87 12.92 67.87 10.93 68.41 8.86 67.25 8.31 65.28 8.31 65.28 0.13 36.1 0.13 36.1-0.42 34.13 0.76 32.08 2.74 31.53 2.74 31.53 17.25 27.54 17.25 27.54 17.25 27.54 19.57 16.68 19.57 16.68 19.57 16.68 40.68 21.1 40.68 21.1 40.68 21.1 49.63 18.64 49.63 18.64ZM 60.84 37.85C 60.84 37.85 66.32 39 66.32 39 67.14 39.17 67.95 38.64 68.12 37.83 68.12 37.83 69.28 32.4 69.28 32.4 69.46 31.59 68.93 30.78 68.11 30.61 68.11 30.61 62.63 29.46 62.63 29.46 61.81 29.29 60.99 29.81 60.82 30.63 60.82 30.63 59.66 36.06 59.66 36.06 59.48 36.87 60.01 37.68 60.84 37.85ZM 11.25 64.48C 11.34 64.81 11.66 64.98 11.92 64.98 11.98 64.98 12.04 64.97 12.1 64.95 12.1 64.95 58.99 52.06 58.99 52.06 59.22 52 59.34 51.85 59.41 51.74 59.47 51.62 59.54 51.44 59.48 51.22 59.48 51.22 57.65 44.69 57.65 44.69 57.65 44.69 54.71 34.19 54.71 34.19 54.71 34.19 6.48 47.45 6.48 47.45 6.48 47.45 11.25 64.48 11.25 64.48ZM 16.53 30.88C 16.53 30.88 3.56 34.45 3.56 34.45 3.19 34.55 2.97 34.93 3.07 35.29 3.07 35.29 4.67 41 4.67 41 4.67 41 52.9 27.74 52.9 27.74 52.9 27.74 51.69 23.41 51.69 23.41 51.69 23.41 51.3 22.03 51.3 22.03 51.21 21.7 50.89 21.53 50.63 21.53 50.57 21.53 50.51 21.54 50.45 21.55 50.45 21.55 47.15 22.46 47.15 22.46 47.15 22.46 16.53 30.88 16.53 30.88ZM 20.14 59.67C 20.14 59.67 14.66 61.17 14.66 61.17 13.85 61.4 13.01 60.92 12.78 60.12 12.78 60.12 11.26 54.7 11.26 54.7 11.04 53.89 11.51 53.06 12.32 52.83 12.32 52.83 17.8 51.33 17.8 51.33 18.61 51.11 19.45 51.58 19.68 52.38 19.68 52.38 21.2 57.81 21.2 57.81 21.42 58.61 20.95 59.44 20.14 59.67Z" fill="rgb(0,0,0)"/></svg>