<?xml version="1.0" encoding="utf-8"?>
<svg xmlns="http://www.w3.org/2000/svg"
	xmlns:xlink="http://www.w3.org/1999/xlink"
	width="59px" height="40px" viewBox="0 0 59 40">
<path fillRule="evenodd" d="M 57.84 40C 57.84 40 1.16 40 1.16 40 0.52 40-0 39.48-0 38.84-0 38.84-0 1.16-0 1.16-0 0.52 0.52 0 1.16 0 1.16 0 57.84 0 57.84 0 58.48 0 59 0.52 59 1.16 59 1.16 59 38.84 59 38.84 59 39.48 58.48 40 57.84 40ZM 55.65 37.68C 55.65 37.68 38.5 15.47 38.5 15.47 38.5 15.47 29.54 21.46 29.54 21.46 29.54 21.46 20.43 15.39 20.43 15.39 20.43 15.39 3.25 37.68 3.25 37.68 3.25 37.68 55.65 37.68 55.65 37.68ZM 2.33 35.07C 2.33 35.07 18.49 14.1 18.49 14.1 18.49 14.1 2.33 3.33 2.33 3.33 2.33 3.33 2.33 35.07 2.33 35.07ZM 5 2.32C 5 2.32 29.5 18.65 29.5 18.65 29.5 18.65 54 2.32 54 2.32 54 2.32 5 2.32 5 2.32ZM 40.44 14.18C 40.44 14.18 56.67 35.2 56.67 35.2 56.67 35.2 56.67 3.34 56.67 3.34 56.67 3.34 40.44 14.18 40.44 14.18Z" fill="rgb(51,51,51)"/></svg>