<?xml version="1.0" encoding="utf-8"?>
<svg xmlns="http://www.w3.org/2000/svg"
	xmlns:xlink="http://www.w3.org/1999/xlink"
	width="90px" height="78px" viewBox="0 0 90 78">
<g><path fillRule="evenodd" d="M 88.51 3.79C 88.51 3.79 88.48 3.8 88.48 3.8 88.48 3.8 75.44 6.63 75.44 6.63 75.44 6.63 73.88 27.99 73.88 27.99 73.88 27.99 73.88 31.29 73.88 31.29 73.88 31.29 73.64 31.29 73.64 31.29 73.64 31.29 71.74 57.27 71.74 57.27 71.74 58.09 71.34 58.53 70.92 58.77 70.76 58.87 70.57 58.95 70.35 58.99 70.06 59.06 69.85 59.06 69.85 59.06 69.85 59.06 69.82 59.06 69.82 59.06 69.82 59.06 7.29 59.06 7.29 59.06 7.29 59.06 5.4 59.07 5.4 57.27 5.4 55.44 7.29 55.34 7.29 55.34 7.29 55.34 68.12 55.34 68.12 55.34 68.12 55.34 68.6 48.73 68.6 48.73 68.6 48.73 6.46 48.73 6.46 48.73 6.46 48.73 0 12.43 0 12.43 0 12.43 71.95 2.84 71.95 2.84 71.95 2.84 72.03 1.78 72.03 1.78 72.03 1.78 72.03 1.74 72.03 1.74 72.03 1.74 72.26-0.12 74.11 0.01 75.92 0.13 75.77 2 75.77 2 75.77 2 75.77 2.03 75.77 2.03 75.77 2.03 75.72 2.76 75.72 2.76 75.72 2.76 87.68 0.16 87.68 0.16 87.68 0.16 87.71 0.16 87.71 0.16 87.71 0.16 89.58-0.14 89.97 1.65 90.36 3.41 88.51 3.79 88.51 3.79ZM 59.46 45C 59.46 45 68.87 45.01 68.87 45.01 68.87 45.01 69.87 31.29 69.87 31.29 69.87 31.29 59.09 31.29 59.09 31.29 59.09 31.29 59.46 45 59.46 45ZM 13.98 14.33C 13.98 14.33 4.37 15.61 4.37 15.61 4.37 15.61 6.51 27.56 6.51 27.56 6.51 27.56 15.05 27.56 15.05 27.56 15.05 27.56 13.98 14.33 13.98 14.33ZM 15.34 31.29C 15.34 31.29 7.17 31.29 7.17 31.29 7.17 31.29 9.62 44.97 9.62 44.97 9.62 44.97 16.44 44.98 16.44 44.98 16.44 44.98 15.34 31.29 15.34 31.29ZM 31.71 11.97C 31.71 11.97 17.71 13.83 17.71 13.83 17.71 13.83 18.81 27.56 18.81 27.56 18.81 27.56 32.71 27.56 32.71 27.56 32.71 27.56 31.71 11.97 31.71 11.97ZM 32.95 31.29C 32.95 31.29 19.11 31.29 19.11 31.29 19.11 31.29 20.21 44.98 20.21 44.98 20.21 44.98 33.83 44.99 33.83 44.99 33.83 44.99 32.95 31.29 32.95 31.29ZM 54.72 8.9C 54.72 8.9 35.44 11.47 35.44 11.47 35.44 11.47 36.47 27.56 36.47 27.56 36.47 27.56 55.23 27.56 55.23 27.56 55.23 27.56 54.72 8.9 54.72 8.9ZM 55.33 31.29C 55.33 31.29 36.71 31.29 36.71 31.29 36.71 31.29 37.59 44.99 37.59 44.99 37.59 44.99 55.71 45 55.71 45 55.71 45 55.33 31.29 55.33 31.29ZM 58.46 8.4C 58.46 8.4 58.98 27.56 58.98 27.56 58.98 27.56 70.15 27.56 70.15 27.56 70.15 27.56 71.67 6.64 71.67 6.64 71.67 6.64 58.46 8.4 58.46 8.4ZM 19.06 64.4C 22.84 64.42 25.9 67.46 25.9 71.21 25.88 74.96 22.82 78 19.03 77.99 15.25 77.99 12.19 74.94 12.2 71.19 12.2 67.44 15.27 64.4 19.06 64.4ZM 64.74 60.36C 69.65 60.36 73.63 64.3 73.63 69.17 73.63 74.04 69.65 77.99 64.74 77.99 59.82 77.99 55.84 74.04 55.84 69.17 55.84 64.3 59.82 60.36 64.74 60.36Z" fill="rgb(101,101,101)"/><path fillRule="evenodd" d="M 64.74 76.99C 69.09 76.99 72.63 73.48 72.63 69.17 72.63 64.86 69.09 61.36 64.74 61.36 60.38 61.36 56.84 64.86 56.84 69.17 56.84 73.48 60.38 76.99 64.74 76.99M 19.05 76.99C 22.26 76.99 24.89 74.4 24.9 71.21 24.9 68.02 22.28 65.42 19.06 65.4 15.83 65.4 13.2 68 13.2 71.19 13.19 72.74 13.8 74.19 14.9 75.29 16 76.38 17.47 76.99 19.03 76.99 19.03 76.99 19.05 76.99 19.05 76.99M 69.82 59.06C 69.82 59.06 69.84 58.06 69.84 58.06 69.84 58.06 69.96 58.05 70.17 58.01 70.25 57.99 70.32 57.97 70.43 57.9 70.58 57.82 70.74 57.69 70.74 57.2 70.74 57.2 72.64 31.21 72.64 31.21 72.64 31.21 72.71 30.29 72.71 30.29 72.71 30.29 72.88 30.29 72.88 30.29 72.88 30.29 72.88 27.92 72.88 27.92 72.88 27.92 74.44 6.55 74.44 6.55 74.44 6.55 74.49 5.81 74.49 5.81 74.49 5.81 75.22 5.65 75.22 5.65 75.22 5.65 88.3 2.82 88.3 2.82 88.87 2.68 89.11 2.36 89 1.86 88.95 1.64 88.84 1.14 88.01 1.14 87.95 1.14 87.9 1.14 87.89 1.14 87.89 1.14 87.89 1.14 87.89 1.14 87.89 1.14 75.93 3.74 75.93 3.74 75.93 3.74 74.62 4.02 74.62 4.02 74.62 4.02 74.72 2.69 74.72 2.69 74.72 2.69 74.77 2.03 74.77 2.03 74.77 2.03 74.77 1.96 74.77 1.96 74.77 1.96 74.77 1.92 74.77 1.92 74.78 1.85 74.76 1.44 74.57 1.21 74.53 1.17 74.41 1.03 74.04 1 74.04 1 73.93 1 73.93 1 73.23 1 73.06 1.61 73.02 1.85 73.02 1.85 72.95 2.92 72.95 2.92 72.95 2.92 72.89 3.73 72.89 3.73 72.89 3.73 72.08 3.84 72.08 3.84 72.08 3.84 1.17 13.29 1.17 13.29 1.17 13.29 7.3 47.73 7.3 47.73 7.3 47.73 68.6 47.73 68.6 47.73 68.6 47.73 69.68 47.73 69.68 47.73 69.68 47.73 69.6 48.8 69.6 48.8 69.6 48.8 69.12 55.41 69.12 55.41 69.12 55.41 69.05 56.34 69.05 56.34 69.05 56.34 68.12 56.34 68.12 56.34 68.12 56.34 7.34 56.33 7.34 56.33 7.12 56.35 6.4 56.45 6.4 57.27 6.4 57.78 6.7 58.05 7.29 58.06 7.29 58.06 69.82 58.06 69.82 58.06 69.82 58.06 69.82 59.06 69.82 59.06M 58.06 30.29C 58.06 30.29 59.09 30.29 59.09 30.29 59.09 30.29 69.87 30.29 69.87 30.29 69.87 30.29 70.95 30.29 70.95 30.29 70.95 30.29 70.87 31.36 70.87 31.36 70.87 31.36 69.87 45.08 69.87 45.08 69.87 45.08 69.8 46.01 69.8 46.01 69.8 46.01 68.87 46.01 68.87 46.01 68.87 46.01 59.46 46 59.46 46 59.46 46 58.49 46 58.49 46 58.49 46 58.46 45.03 58.46 45.03 58.46 45.03 58.09 31.31 58.09 31.31 58.09 31.31 58.06 30.29 58.06 30.29M 35.64 30.29C 35.64 30.29 36.71 30.29 36.71 30.29 36.71 30.29 55.33 30.29 55.33 30.29 55.33 30.29 56.3 30.29 56.3 30.29 56.3 30.29 56.33 31.26 56.33 31.26 56.33 31.26 56.71 44.97 56.71 44.97 56.71 44.97 56.74 46 56.74 46 56.74 46 55.71 46 55.71 46 55.71 46 37.59 45.99 37.59 45.99 37.59 45.99 36.65 45.99 36.65 45.99 36.65 45.99 36.59 45.05 36.59 45.05 36.59 45.05 35.71 31.35 35.71 31.35 35.71 31.35 35.64 30.29 35.64 30.29M 18.03 30.29C 18.03 30.29 19.11 30.29 19.11 30.29 19.11 30.29 32.95 30.29 32.95 30.29 32.95 30.29 33.89 30.29 33.89 30.29 33.89 30.29 33.95 31.22 33.95 31.22 33.95 31.22 34.82 44.92 34.82 44.92 34.82 44.92 34.89 45.99 34.89 45.99 34.89 45.99 33.83 45.99 33.83 45.99 33.83 45.99 20.21 45.98 20.21 45.98 20.21 45.98 19.29 45.98 19.29 45.98 19.29 45.98 19.21 45.06 19.21 45.06 19.21 45.06 18.11 31.37 18.11 31.37 18.11 31.37 18.03 30.29 18.03 30.29M 5.98 30.29C 5.98 30.29 7.17 30.29 7.17 30.29 7.17 30.29 15.34 30.29 15.34 30.29 15.34 30.29 16.27 30.29 16.27 30.29 16.27 30.29 16.34 31.21 16.34 31.21 16.34 31.21 17.44 44.9 17.44 44.9 17.44 44.9 17.53 45.98 17.53 45.98 17.53 45.98 16.44 45.98 16.44 45.98 16.44 45.98 9.62 45.97 9.62 45.97 9.62 45.97 8.78 45.97 8.78 45.97 8.78 45.97 8.63 45.15 8.63 45.15 8.63 45.15 6.19 31.46 6.19 31.46 6.19 31.46 5.98 30.29 5.98 30.29M 72.76 5.48C 72.76 5.48 72.67 6.71 72.67 6.71 72.67 6.71 71.14 27.64 71.14 27.64 71.14 27.64 71.07 28.56 71.07 28.56 71.07 28.56 70.15 28.56 70.15 28.56 70.15 28.56 58.98 28.56 58.98 28.56 58.98 28.56 58.01 28.56 58.01 28.56 58.01 28.56 57.98 27.59 57.98 27.59 57.98 27.59 57.46 8.43 57.46 8.43 57.46 8.43 57.43 7.53 57.43 7.53 57.43 7.53 58.32 7.41 58.32 7.41 58.32 7.41 71.54 5.64 71.54 5.64 71.54 5.64 72.76 5.48 72.76 5.48M 55.68 7.76C 55.68 7.76 55.71 8.87 55.71 8.87 55.71 8.87 56.23 27.54 56.23 27.54 56.23 27.54 56.26 28.56 56.26 28.56 56.26 28.56 55.23 28.56 55.23 28.56 55.23 28.56 36.47 28.56 36.47 28.56 36.47 28.56 35.53 28.56 35.53 28.56 35.53 28.56 35.47 27.63 35.47 27.63 35.47 27.63 34.44 11.53 34.44 11.53 34.44 11.53 34.39 10.6 34.39 10.6 34.39 10.6 35.31 10.48 35.31 10.48 35.31 10.48 54.58 7.91 54.58 7.91 54.58 7.91 55.68 7.76 55.68 7.76M 32.64 10.83C 32.64 10.83 32.71 11.9 32.71 11.9 32.71 11.9 33.71 27.5 33.71 27.5 33.71 27.5 33.78 28.56 33.78 28.56 33.78 28.56 32.71 28.56 32.71 28.56 32.71 28.56 18.81 28.56 18.81 28.56 18.81 28.56 17.89 28.56 17.89 28.56 17.89 28.56 17.81 27.64 17.81 27.64 17.81 27.64 16.71 13.91 16.71 13.91 16.71 13.91 16.64 12.97 16.64 12.97 16.64 12.97 17.58 12.84 17.58 12.84 17.58 12.84 31.58 10.97 31.58 10.97 31.58 10.97 32.64 10.83 32.64 10.83M 14.9 13.2C 14.9 13.2 14.98 14.25 14.98 14.25 14.98 14.25 16.04 27.48 16.04 27.48 16.04 27.48 16.13 28.56 16.13 28.56 16.13 28.56 15.05 28.56 15.05 28.56 15.05 28.56 6.51 28.56 6.51 28.56 6.51 28.56 5.67 28.56 5.67 28.56 5.67 28.56 5.52 27.74 5.52 27.74 5.52 27.74 3.38 15.79 3.38 15.79 3.38 15.79 3.2 14.76 3.2 14.76 3.2 14.76 4.24 14.62 4.24 14.62 4.24 14.62 13.85 13.34 13.85 13.34 13.85 13.34 14.9 13.2 14.9 13.2M 19.05 77.99C 19.04 77.99 19.04 77.99 19.03 77.99 15.25 77.99 12.19 74.94 12.2 71.19 12.2 67.44 15.27 64.4 19.06 64.4 22.84 64.42 25.9 67.46 25.9 71.21 25.88 74.96 22.82 77.99 19.05 77.99 19.05 77.99 19.05 77.99 19.05 77.99ZM 64.74 77.99C 59.82 77.99 55.84 74.04 55.84 69.17 55.84 64.3 59.82 60.36 64.74 60.36 69.65 60.36 73.63 64.3 73.63 69.17 73.63 74.04 69.65 77.99 64.74 77.99 64.74 77.99 64.74 77.99 64.74 77.99ZM 7.28 59.06C 7.22 59.06 5.4 59.04 5.4 57.27 5.4 55.44 7.29 55.34 7.29 55.34 7.29 55.34 68.12 55.34 68.12 55.34 68.12 55.34 68.6 48.73 68.6 48.73 68.6 48.73 6.46 48.73 6.46 48.73 6.46 48.73 0 12.43 0 12.43 0 12.43 71.95 2.84 71.95 2.84 71.95 2.84 72.03 1.78 72.03 1.78 72.03 1.78 72.03 1.74 72.03 1.74 72.03 1.74 72.25 0 73.93 0 73.99 0 74.05 0 74.11 0.01 75.92 0.13 75.77 2 75.77 2 75.77 2 75.77 2.03 75.77 2.03 75.77 2.03 75.72 2.76 75.72 2.76 75.72 2.76 87.68 0.16 87.68 0.16 87.68 0.16 87.71 0.16 87.71 0.16 87.71 0.16 87.83 0.14 88.01 0.14 88.56 0.14 89.68 0.31 89.97 1.65 90.36 3.41 88.51 3.79 88.51 3.79 88.51 3.79 88.48 3.8 88.48 3.8 88.48 3.8 75.44 6.63 75.44 6.63 75.44 6.63 73.88 27.99 73.88 27.99 73.88 27.99 73.88 31.29 73.88 31.29 73.88 31.29 73.64 31.29 73.64 31.29 73.64 31.29 71.74 57.27 71.74 57.27 71.74 58.09 71.34 58.53 70.92 58.77 70.76 58.87 70.57 58.95 70.35 58.99 70.07 59.05 69.86 59.06 69.85 59.06 69.85 59.06 69.85 59.06 69.85 59.06 69.85 59.06 69.82 59.06 69.82 59.06 69.82 59.06 7.29 59.06 7.29 59.06 7.29 59.06 7.29 59.06 7.28 59.06 7.28 59.06 7.28 59.06 7.28 59.06ZM 59.09 31.29C 59.09 31.29 59.46 45 59.46 45 59.46 45 68.87 45.01 68.87 45.01 68.87 45.01 69.87 31.29 69.87 31.29 69.87 31.29 59.09 31.29 59.09 31.29 59.09 31.29 59.09 31.29 59.09 31.29ZM 36.71 31.29C 36.71 31.29 37.59 44.99 37.59 44.99 37.59 44.99 55.71 45 55.71 45 55.71 45 55.33 31.29 55.33 31.29 55.33 31.29 36.71 31.29 36.71 31.29 36.71 31.29 36.71 31.29 36.71 31.29ZM 19.11 31.29C 19.11 31.29 20.21 44.98 20.21 44.98 20.21 44.98 33.83 44.99 33.83 44.99 33.83 44.99 32.95 31.29 32.95 31.29 32.95 31.29 19.11 31.29 19.11 31.29 19.11 31.29 19.11 31.29 19.11 31.29ZM 7.17 31.29C 7.17 31.29 9.62 44.97 9.62 44.97 9.62 44.97 16.44 44.98 16.44 44.98 16.44 44.98 15.34 31.29 15.34 31.29 15.34 31.29 7.17 31.29 7.17 31.29 7.17 31.29 7.17 31.29 7.17 31.29ZM 71.67 6.64C 71.67 6.64 58.46 8.4 58.46 8.4 58.46 8.4 58.98 27.56 58.98 27.56 58.98 27.56 70.15 27.56 70.15 27.56 70.15 27.56 71.67 6.64 71.67 6.64 71.67 6.64 71.67 6.64 71.67 6.64ZM 54.72 8.9C 54.72 8.9 35.44 11.47 35.44 11.47 35.44 11.47 36.47 27.56 36.47 27.56 36.47 27.56 55.23 27.56 55.23 27.56 55.23 27.56 54.72 8.9 54.72 8.9 54.72 8.9 54.72 8.9 54.72 8.9ZM 31.71 11.97C 31.71 11.97 17.71 13.83 17.71 13.83 17.71 13.83 18.81 27.56 18.81 27.56 18.81 27.56 32.71 27.56 32.71 27.56 32.71 27.56 31.71 11.97 31.71 11.97 31.71 11.97 31.71 11.97 31.71 11.97ZM 13.98 14.33C 13.98 14.33 4.37 15.61 4.37 15.61 4.37 15.61 6.51 27.56 6.51 27.56 6.51 27.56 15.05 27.56 15.05 27.56 15.05 27.56 13.98 14.33 13.98 14.33 13.98 14.33 13.98 14.33 13.98 14.33Z" fill="rgb(101,101,101)"/></g></svg>