<?xml version="1.0" encoding="utf-8"?>
<svg xmlns="http://www.w3.org/2000/svg"
	xmlns:xlink="http://www.w3.org/1999/xlink"
	width="12px" height="12px" viewBox="0 0 12 12">
<path fillRule="evenodd" d="M 11.05 0.53C 11.54 1.03 11.54 1.84 11.05 2.35 11.05 2.35 2.13 11.42 2.13 11.42 1.64 11.92 0.84 11.92 0.35 11.42-0.14 10.92-0.14 10.11 0.35 9.61 0.35 9.61 9.26 0.53 9.26 0.53 9.76 0.03 10.55 0.03 11.05 0.53Z" fill="rgb(0,153,229)"/><path fillRule="evenodd" d="M 0.6 0.38C 1.1-0.14 1.93-0.14 2.43 0.38 2.43 0.38 11.61 9.73 11.61 9.73 12.12 10.25 12.12 11.08 11.61 11.6 11.1 12.12 10.28 12.12 9.78 11.6 9.78 11.6 0.6 2.25 0.6 2.25 0.09 1.73 0.09 0.9 0.6 0.38Z" fill="rgb(0,153,229)"/></svg>