<?xml version="1.0" encoding="utf-8"?>
<svg xmlns="http://www.w3.org/2000/svg"
	xmlns:xlink="http://www.w3.org/1999/xlink"
	width="71px" height="42px" viewBox="0 0 71 42">
<path fillRule="evenodd" d="M 35.5-0C 21.93-0 9.63 7.37 0.55 19.33-0.19 20.31-0.19 21.68 0.55 22.66 9.63 34.63 21.93 42 35.5 42 49.06 42 61.37 34.63 70.44 22.67 71.18 21.69 71.18 20.32 70.44 19.34 61.37 7.37 49.06-0 35.5-0ZM 36.47 35.79C 27.47 36.35 20.03 28.98 20.6 20.03 21.06 12.65 27.09 6.67 34.53 6.21 43.53 5.65 50.97 13.02 50.4 21.97 49.92 29.33 43.89 35.31 36.47 35.79ZM 36.02 28.96C 31.17 29.26 27.16 25.3 27.48 20.48 27.73 16.5 30.98 13.29 34.99 13.03 39.84 12.73 43.85 16.69 43.53 21.5 43.27 25.5 40.02 28.71 36.02 28.96Z" fill="rgb(51,51,51)"/></svg>