<?xml version="1.0" encoding="utf-8"?>
<svg xmlns="http://www.w3.org/2000/svg"
	xmlns:xlink="http://www.w3.org/1999/xlink"
	width="85px" height="79px" viewBox="0 0 85 79">
<path fillRule="evenodd" d="M 42.34 0C 42.34 0 56.15 24.83 56.15 24.83 56.15 24.83 84.23 30.18 84.23 30.18 84.23 30.18 64.68 50.87 64.68 50.87 64.68 50.87 68.23 79 68.23 79 68.23 79 42.34 66.96 42.34 66.96 42.34 66.96 16.45 79 16.45 79 16.45 79 20 50.87 20 50.87 20 50.87 0.45 30.18 0.45 30.18 0.45 30.18 28.53 24.83 28.53 24.83 28.53 24.83 42.34 0 42.34 0" fill="rgb(247,205,13)"/></svg>