<?xml version="1.0" encoding="utf-8"?>
<svg xmlns="http://www.w3.org/2000/svg"
	xmlns:xlink="http://www.w3.org/1999/xlink"
	width="26px" height="26px" viewBox="0 0 26 26">
<g><circle cx="13.00" cy="13.00" r="13.00" fill="rgb(255,255,255)"/><path fillRule="evenodd" d="M 13 24C 19.07 24 24 19.07 24 13 24 6.93 19.07 2 13 2 6.93 2 2 6.93 2 13 2 19.07 6.93 24 13 24M 13 26C 5.82 26 0 20.18 0 13 0 5.82 5.82-0 13-0 20.18-0 26 5.82 26 13 26 20.18 20.18 26 13 26 13 26 13 26 13 26Z" fill="rgb(51,51,51)"/></g></svg>