<svg xmlns="http://www.w3.org/2000/svg" viewBox="0 0 100 100">
<symbol id="v-clover" viewBox="0 0 1046 1024"><path class="path1" d="M675.22 721.66c-46.01-46.01-89.47-90.51-135.48-136.58-8.05-8-24.79-26.46-27.45-26.35-2.67-0.1-19.4 18.35-27.45 26.35-46.01 46.07-89.52 90.62-135.48 136.58-37.6 37.6-83.25 72.37-82.77 145.05 0.57 96.84 107.09 180.56 210.42 129.73 4.86-2.35 11.71-6.07 18.98-11.09 4.45-3.03 15.06-12.6 16.37-12.65 1.25 0.05 11.87 9.62 16.37 12.65 7.27 5.02 14.12 8.68 18.98 11.09 103.33 50.83 209.84-32.89 210.42-129.73 0.31-72.68-45.34-107.46-82.88-145.05z"/><path class="path2" d="M696.77 302.29c-46.01 46.02-89.47 90.51-135.48 136.58-8.05 8.05-24.79 26.51-27.5 26.41-2.67 0.11-19.4-18.35-27.4-26.35-46.01-46.07-89.52-90.62-135.48-136.58-37.6-37.6-83.3-72.37-82.83-145.05 0.57-96.84 107.04-180.56 210.42-129.73 4.86 2.35 11.71 6.07 18.98 11.09 4.45 3.03 15.06 12.6 16.37 12.65 1.25-0.05 11.87-9.62 16.37-12.65 7.27-5.02 14.12-8.68 18.98-11.09 103.33-50.83 209.84 32.89 210.42 129.73 0.42 72.68-45.28 107.46-82.83 145z"/><path class="path3" d="M302.55 674.96c46.02-46.01 90.51-89.47 136.58-135.48 8-8.05 26.46-24.79 26.35-27.45 0.16-2.72-18.3-19.45-26.3-27.5-46.07-46.01-90.62-89.52-136.58-135.48-37.6-37.54-72.37-83.25-145.05-82.77-96.84 0.57-180.56 107.04-129.73 210.42 2.35 4.86 6.07 11.71 11.09 18.98 3.03 4.45 12.6 15.06 12.65 16.37-0.05 1.25-9.62 11.87-12.65 16.37-5.02 7.27-8.68 14.12-11.09 18.98-50.83 103.33 32.89 209.84 129.73 210.42 72.68 0.37 107.46-45.28 145-82.83z"/><path class="path4" d="M743.46 674.96c-46.01-46.01-90.51-89.47-136.58-135.48-8-8.05-26.46-24.79-26.35-27.45-0.1-2.72 18.35-19.45 26.35-27.5 46.07-46.01 90.62-89.52 136.58-135.48 37.6-37.6 72.37-83.25 145.05-82.77 96.84 0.57 180.56 107.09 129.73 210.42-2.35 4.86-6.07 11.71-11.09 18.98-3.03 4.45-12.6 15.06-12.65 16.37 0.05 1.25 9.62 11.87 12.65 16.37 5.02 7.27 8.68 14.12 11.09 18.98 50.83 103.33-32.89 209.84-129.73 210.42-72.68 0.37-107.46-45.28-145.05-82.83z"/></symbol>
<symbol id="v-question-mark" viewBox="0 0 1024 1024"><path class="path1" d="M513.04 109.86c222.83 0 404.12 181.29 404.12 404.12s-181.29 404.12-404.12 404.12-404.11-181.29-404.11-404.12 181.29-404.12 404.11-404.12zM513.04 52.13c-255.07 0-461.84 206.78-461.84 461.84s206.78 461.84 461.84 461.84c255.07 0 461.84-206.78 461.84-461.84 0.01-255.07-206.77-461.84-461.84-461.84v0z"/><path class="path2" d="M385.4 372.36c6.31-18.29 15.67-33.84 28.08-46.68 12.4-12.83 27.44-22.8 45.11-29.96 17.66-7.15 37.86-10.73 60.57-10.73 17.66 0 34.16 2.63 49.54 7.89 15.33 5.27 28.9 12.93 40.67 23.02 11.78 10.11 21.04 22.3 27.77 36.59 6.73 14.31 10.08 30.72 10.08 49.22 0 23.56-5.14 43.53-15.44 59.94-10.3 16.39-23.44 32.17-39.43 47.32-13.05 13.05-23.47 23.24-31.21 30.6-7.81 7.36-13.58 14.62-17.37 21.78-3.8 7.16-6.31 15.88-7.58 26.18-1.26 10.3-2.11 25.11-2.53 44.45h-39.74c-0.43-19.34 0.63-35.53 3.14-48.56 2.53-13.05 6.63-24.83 12.32-35.35 5.67-10.51 13.23-20.6 22.7-30.28 9.47-9.67 20.92-20.6 34.39-32.81 11.78-10.93 21.57-23.12 29.33-36.59 7.79-13.45 11.69-28.4 11.69-44.79 0-12.62-2.43-24.18-7.27-34.7-4.82-10.51-11.35-19.46-19.55-26.82-8.22-7.34-17.78-13.14-28.71-17.35-10.94-4.2-22.51-6.31-34.7-6.31-16.83 0-31.76 2.94-44.79 8.83-13.05 5.91-23.77 13.99-32.18 24.29-8.42 10.31-14.72 22.41-18.92 36.28-4.2 13.89-6.09 29.03-5.67 45.43h-39.75c0.01-22.28 3.16-42.58 9.47-60.88zM540.6 678.04v66.86h-52.99v-66.86h52.99z"/></symbol>
<symbol id="v-star-out" viewBox="0 0 1069 1024"><path class="path1" d="M248.91 1024c-26.26 0-50.41-14.7-63.01-36.76-8.4-14.7-10.5-31.51-7.35-47.26l53.56-282.52-210.05-197.45c-13.65-13.65-21-31.51-22.05-50.41 0-18.9 6.3-36.76 19.95-51.46 11.55-11.55 26.26-18.9 43.06-21l285.67-35.71 120.78-260.46c11.55-25.21 37.81-40.96 65.12-40.96 10.5 0 21.01 2.1 30.46 6.3 14.7 7.35 26.26 18.91 34.66 33.61l121.83 260.46 284.62 35.71c38.86 5.25 67.22 40.96 61.97 79.82-2.1 17.85-10.5 34.66-25.21 46.21l-205.85 194.3 53.56 282.52c7.35 38.86-17.85 76.67-56.71 84.02-15.75 3.15-33.61 1.05-48.31-7.35l-251.01-139.68-252.06 138.63c-10.5 6.3-22.05 9.45-33.61 9.45zM534.58 42.01c-11.55 0-22.05 6.3-27.31 16.8l-131.28 281.47-307.73 37.81c-7.35 1.05-13.65 4.2-17.85 9.45-5.25 5.25-8.4 13.65-8.4 21.01s3.15 14.7 9.45 19.95l226.86 212.15-58.81 304.57c-1.05 4.2-1.05 11.55 3.15 19.95 5.25 9.45 14.7 15.75 26.26 15.75 5.25 0 9.45-1.05 13.65-3.15l272.02-150.19 272.02 150.19c6.3 3.15 12.6 4.2 19.95 3.15 15.75-3.15 26.26-18.9 24.16-34.66l-58.81-304.57 224.76-211.1c6.3-5.25 9.45-11.55 10.5-18.9 2.1-15.75-9.45-30.46-26.26-32.56l-307.73-38.86-132.33-281.47c-3.15-6.3-8.4-11.55-13.65-13.65-4.2-2.1-8.4-3.15-12.6-3.15z"/></symbol>
<symbol id="v-star" viewBox="0 0 1069 1024"><path class="path1" d="M580.79 50.41l127.08 270.97 295.12 35.71c28.36 3.15 47.26 28.36 44.11 55.66-2.1 13.65-8.4 25.21-17.85 32.56l-215.3 203.75 55.66 294.07c5.25 27.31-12.6 53.56-39.91 58.81-11.55 2.1-24.16 0-33.61-5.25l-261.51-144.93-261.51 144.94c-24.16 13.65-55.66 4.2-68.27-19.95-6.3-10.5-7.35-23.11-5.25-33.61l55.66-294.07-218.45-204.8c-19.95-18.9-21-51.46-2.1-71.42 8.4-8.4 18.91-13.65 30.46-15.75v0l296.17-36.76 127.08-269.92c11.55-25.21 42.01-35.71 67.22-24.16 11.55 4.2 19.95 13.65 25.21 24.16v0z"/></symbol>
<symbol id="v-m" viewBox="0 0 1239 1024"><path class="path1" d="M7.5 141.29c0-45.01 2.5-97.52 2.5-141.28 110.03 0 273.82 0 395.1 0 47.51 126.28 151.29 431.36 223.81 643.91h12.5c75.02-212.55 163.79-465.11 228.81-643.91 110.03 0 260.06 0 365.09 0 0 43.76-1.25 96.27-1.25 141.28l-78.77 5c-3.75 0-5 3.75-5 6.25 1.25 225.06 1.25 496.37 3.75 733.93l86.27 5c0 41.26 0 90.02-1.25 132.53-52.51 0-128.78 0-187.55 0-77.52 0-165.04 0-231.31 0 0-42.51 1.25-91.27 1.25-132.53l90.02-5c5 0 5-3.75 5-6.25-1.25-165.04-3.75-340.08-6.25-530.13h-12.5c-97.52 273.82-180.04 465.11-243.81 615.15-23.76 0-88.77 1.25-137.53 1.25-72.52-171.29-143.78-357.59-236.31-637.66h-13.75c-3.75 195.05-7.5 373.84-11.25 556.39l110.03 6.25c0 41.26 0 90.02-1.25 132.53-56.26 0-137.53 0-202.55 0-58.76 0-108.78 0-160.04 0 0-42.51 0-91.27 0-132.53l81.27-5c3.75-1.25 5-3.75 5-6.25 1.25-225.05 5-511.37 7.5-733.93l-87.52-5z"/></symbol>
<symbol id="v-email64" viewBox="0 0 1024 1024"><path class="path1" d="M896 128h-768c-70.69 0-128 57.31-128 128v512c0 70.69 57.31 128 128 128h768c70.69 0 128-57.31 128-128v-512c0-70.69-57.31-128-128-128zM928 192l-416 320-416-320h832zM64 768v-512l288 224-284.96 306.5c-1.79-5.89-3.04-12-3.04-18.5zM113.76 830.3l288.8-307.71 109.44 82.69 104.74-83.23 293.51 308.22c-4.61 1.06-791.87 1.06-796.48 0.03zM956.96 786.53l-284.96-306.53 288-224v512c0 6.5-1.25 12.61-3.04 18.53z"/></symbol>
<symbol id="v-opened25" viewBox="0 0 1024 1024"><path class="path1" d="M512 0l-512 288c0 72.99 0 608 0 608 0 70.69 57.31 128 128 128h768c70.69 0 128-57.31 128-128 0 0 0-537.98 0-608l-512-288zM64 896v-500l290.11 231.46-287.07 287.07c-1.79-5.92-3.04-12.03-3.04-18.53zM113.76 958.27l293.99-293.95 104.26 71.68 104.26-71.68 293.98 293.95c-4.61 1.06-791.87 1.06-796.48 0zM960 896c0 6.5-1.25 12.61-3.04 18.53l-287.07-287.07 290.11-231.46v500zM512 660.99l-448-340.99 447.36-245.41 448.64 245.41-448 340.99z"/></symbol>
<symbol id="v-multimedia" viewBox="0 0 1024 1024"><path class="path1" d="M642.49 412.53l-176.2-87.18c-8.98-4.37-17.78-6.61-26.13-6.61-22.15-0.02-44.52 16.55-44.52 53.62v162.91c0 37.07 22.62 53.65 45.03 53.65 8.4 0 17.25-2.23 26.44-6.7l174.13-87.04c19.64-9.59 30.91-24.85 30.91-41.91 0-16.69-10.85-31.56-29.65-40.73zM440.67 565.65l-0.02-23.27h0.02v23.27zM446.49 540.49c-1.51 0.72-2.72 1.19-3.63 1.44-0.35-1.44-0.67-3.63-0.67-6.65v-162.91c0-2.89 0.28-5.03 0.58-6.52 0.82 0.28 1.82 0.67 3 1.28l174.64 86.41-173.92 86.95zM954.18 93.09h-884.36c-38.49 0-69.82 31.32-69.82 69.82v558.54c0 38.49 31.33 69.82 69.82 69.82h349.09v93.09h-93.09v46.54h372.36v-46.54h-93.09v-93.09h349.09c38.49 0 69.82-31.33 69.82-69.82v-558.54c0-38.49-31.33-69.82-69.82-69.82zM558.54 884.37h-93.09v-93.09h93.09v93.09zM977.46 721.46c0 12.85-10.45 23.27-23.27 23.27h-884.36c-12.82 0-23.27-10.43-23.27-23.27v-558.54c0-12.85 10.45-23.27 23.27-23.27h884.36c12.82 0 23.27 10.43 23.27 23.27v558.54z"/></symbol>
<symbol id="v-lotto-ticket" viewBox="0 0 1024 1024"><path class="path1" d="M269.12 725.46h16.77v129.54h-16.77v-129.54z"/><path class="path2" d="M461.6 725.46h16.78v129.54h-16.78v-129.54z"/><path class="path3" d="M490.29 725.46h16.78v129.54h-16.78v-129.54z"/><path class="path4" d="M294.87 725.46h8.39v129.54h-8.39v-129.54z"/><path class="path5" d="M315.01 725.46h25.52v129.54h-25.52v-129.54z"/><path class="path6" d="M349.5 725.46h8.4v129.54h-8.4v-129.54z"/><path class="path7" d="M395.6 725.46h25.52v129.54h-25.52v-129.54z"/><path class="path8" d="M430.1 725.46h8.39v129.54h-8.39v-129.54z"/><path class="path9" d="M603.69 725.46h25.52v129.54h-25.52v-129.54z"/><path class="path10" d="M638.19 725.46h8.39v129.54h-8.39v-129.54z"/><path class="path11" d="M369.91 725.46h8.39v129.54h-8.39v-129.54z"/><path class="path12" d="M665.71 725.46h8.39v129.54h-8.39v-129.54z"/><path class="path13" d="M711.8 725.46h25.52v129.54h-25.52v-129.54z"/><path class="path14" d="M686.11 725.46h8.39v129.54h-8.39v-129.54z"/><path class="path15" d="M746.5 725.46h8.39v129.54h-8.39v-129.54z"/><path class="path16" d="M515.33 725.46h8.39v129.54h-8.39v-129.54z"/><path class="path17" d="M562.26 725.46h25.52v129.54h-25.52v-129.54z"/><path class="path18" d="M536.57 725.46h8.39v129.54h-8.39v-129.54z"/><path class="path19" d="M269.12 308.23v-118.05h25.03v97.37h42.97v20.68h-67.99z"/><path class="path20" d="M456.61 249.05c0 9.09-1.06 17.39-3.18 24.87-2.13 7.49-5.37 13.89-9.73 19.22-4.36 5.33-9.86 9.44-16.51 12.36-6.65 2.91-14.49 4.36-23.53 4.36s-16.89-1.45-23.54-4.36c-6.65-2.91-12.14-7.02-16.48-12.36s-7.56-11.74-9.69-19.26c-2.12-7.51-3.18-15.84-3.18-25 0-9.14 1.07-17.45 3.19-24.91 2.13-7.45 5.37-13.81 9.73-19.1 4.36-5.27 9.86-9.35 16.51-12.24 6.65-2.88 14.52-4.32 23.61-4.32 9.04 0 16.88 1.44 23.5 4.32s12.09 6.97 16.43 12.27c4.33 5.3 7.56 11.68 9.7 19.14 2.11 7.48 3.17 15.8 3.17 25.01zM376.5 249.05c0 6.2 0.53 11.75 1.62 16.67 1.08 4.93 2.73 9.09 4.97 12.51s5.05 6.05 8.44 7.88c3.39 1.82 7.43 2.74 12.11 2.74 4.79 0 8.9-0.91 12.32-2.74s6.22-4.45 8.4-7.87c2.18-3.42 3.8-7.59 4.84-12.51 1.06-4.92 1.58-10.49 1.58-16.67s-0.52-11.74-1.58-16.67c-1.04-4.92-2.66-9.11-4.84-12.55s-4.97-6.08-8.36-7.92c-3.39-1.83-7.45-2.74-12.2-2.74-4.69 0-8.74 0.92-12.19 2.74-3.45 1.83-6.29 4.47-8.52 7.92s-3.89 7.63-4.97 12.55c-1.08 4.93-1.63 10.48-1.63 16.67z"/><path class="path21" d="M519.11 308.23h-24.95v-97.22h-29.63v-20.83h84.14v20.83h-29.55v97.22z"/><path class="path22" d="M611.48 308.23h-24.95v-97.22h-29.63v-20.83h84.13v20.83h-29.55v97.22z"/><path class="path23" d="M754.88 249.05c0 9.09-1.06 17.39-3.19 24.87s-5.37 13.89-9.73 19.22c-4.36 5.33-9.87 9.44-16.52 12.36-6.65 2.91-14.49 4.36-23.53 4.36-9.05 0-16.9-1.45-23.54-4.36s-12.14-7.02-16.48-12.36c-4.34-5.33-7.57-11.74-9.69-19.26s-3.18-15.84-3.18-25c0-9.14 1.07-17.45 3.19-24.91s5.37-13.81 9.73-19.1c4.36-5.27 9.86-9.35 16.52-12.24 6.65-2.88 14.52-4.32 23.62-4.32 9.04 0 16.88 1.44 23.49 4.32 6.63 2.88 12.1 6.97 16.43 12.27 4.33 5.3 7.56 11.68 9.69 19.14 2.13 7.48 3.2 15.8 3.2 25.01zM674.79 249.05c0 6.2 0.53 11.75 1.61 16.67s2.73 9.09 4.97 12.51c2.23 3.42 5.04 6.05 8.44 7.88 3.39 1.82 7.43 2.74 12.11 2.74 4.78 0 8.89-0.91 12.31-2.74s6.22-4.45 8.41-7.87c2.18-3.42 3.8-7.59 4.84-12.51 1.06-4.92 1.58-10.49 1.58-16.67s-0.52-11.74-1.58-16.67c-1.04-4.92-2.65-9.11-4.84-12.55-2.18-3.44-4.97-6.08-8.36-7.92s-7.45-2.74-12.2-2.74c-4.69 0-8.74 0.92-12.19 2.74-3.45 1.83-6.29 4.47-8.52 7.92s-3.89 7.63-4.97 12.55c-1.08 4.93-1.62 10.48-1.62 16.67z"/><path class="path24" d="M295.73 512.63l-2.61-9.21h-13.18l-2.64 9.21h-8.17l12.41-38.82h9.91l12.46 38.82h-8.18zM291.24 496.54l-2.46-8.46c-0.1-0.32-0.27-0.84-0.47-1.56-0.2-0.73-0.43-1.53-0.67-2.4s-0.46-1.75-0.67-2.63c-0.21-0.88-0.37-1.63-0.45-2.24-0.07 0.39-0.16 0.85-0.28 1.37-0.1 0.53-0.25 1.1-0.39 1.68-0.15 0.59-0.3 1.19-0.46 1.78-0.15 0.6-0.31 1.17-0.44 1.69-0.14 0.53-0.28 0.99-0.38 1.4-0.11 0.41-0.19 0.71-0.25 0.9l-2.43 8.46h9.33z"/><path class="path25" d="M306.96 508.84c0-0.83 0.12-1.53 0.35-2.1 0.24-0.57 0.56-1.03 0.98-1.39s0.9-0.6 1.46-0.77c0.55-0.15 1.16-0.24 1.8-0.24 0.6 0 1.19 0.08 1.74 0.24s1.03 0.41 1.45 0.77c0.42 0.35 0.75 0.82 0.99 1.39s0.36 1.27 0.36 2.1c0 0.8-0.12 1.48-0.36 2.04-0.25 0.56-0.58 1.03-0.99 1.4-0.42 0.37-0.9 0.64-1.45 0.81-0.54 0.16-1.13 0.25-1.74 0.25-0.64 0-1.25-0.08-1.8-0.25-0.56-0.16-1.04-0.44-1.46-0.81s-0.75-0.84-0.98-1.4c-0.22-0.56-0.35-1.24-0.35-2.04z"/><path class="path26" d="M360.87 512.63h-25.64v-5.68l9-9.81c1.14-1.24 2.16-2.38 3.08-3.41s1.72-2.05 2.38-3.04c0.66-0.98 1.18-2 1.55-3.01 0.36-1.02 0.55-2.12 0.55-3.31 0-1.3-0.39-2.31-1.17-3.04-0.78-0.72-1.81-1.08-3.12-1.08-1.37 0-2.7 0.34-3.97 1.03-1.27 0.69-2.6 1.67-4 2.94l-4.39-5.26c0.79-0.72 1.61-1.41 2.46-2.08s1.79-1.25 2.83-1.76c1.03-0.51 2.16-0.92 3.4-1.23s2.62-0.46 4.16-0.46c1.83 0 3.47 0.26 4.94 0.77 1.45 0.51 2.69 1.24 3.73 2.18 1.02 0.94 1.81 2.09 2.37 3.42 0.55 1.34 0.82 2.85 0.82 4.53 0 1.52-0.26 2.97-0.79 4.35-0.52 1.38-1.24 2.74-2.14 4.08s-1.96 2.65-3.15 3.96c-1.2 1.31-2.47 2.65-3.83 4l-4.6 4.68v0.37h15.58v6.87z"/><path class="path27" d="M383.92 512.63h-8.08v-22.37c0-0.46 0-1 0.01-1.65s0.03-1.31 0.05-2.01c0.02-0.7 0.05-1.4 0.08-2.1 0.03-0.71 0.05-1.35 0.06-1.93-0.09 0.11-0.24 0.27-0.44 0.48s-0.45 0.44-0.71 0.7c-0.26 0.26-0.53 0.51-0.81 0.78-0.29 0.27-0.55 0.5-0.82 0.72l-4.39 3.57-3.92-4.92 12.31-9.91h6.64v38.66z"/><path class="path28" d="M433.8 493.29c0 3.12-0.24 5.91-0.72 8.36s-1.25 4.53-2.3 6.24c-1.05 1.71-2.42 3.01-4.08 3.91-1.67 0.9-3.68 1.35-6.03 1.35-2.21 0-4.14-0.45-5.77-1.35-1.63-0.9-2.99-2.2-4.08-3.91s-1.88-3.79-2.42-6.24c-0.53-2.45-0.8-5.23-0.8-8.36s0.25-5.92 0.72-8.39c0.48-2.47 1.24-4.56 2.28-6.27s2.4-3.02 4.06-3.92c1.66-0.91 3.67-1.36 6.01-1.36 2.19 0 4.12 0.45 5.76 1.35s3 2.2 4.11 3.91c1.1 1.71 1.92 3.8 2.46 6.27 0.53 2.47 0.81 5.27 0.81 8.41zM415.66 493.29c0 4.4 0.37 7.72 1.12 9.94s2.05 3.34 3.89 3.34c1.81 0 3.11-1.11 3.91-3.31s1.19-5.53 1.19-9.97c0-4.42-0.4-7.75-1.19-9.98s-2.09-3.35-3.91-3.35c-0.92 0-1.7 0.29-2.33 0.84-0.63 0.56-1.16 1.4-1.56 2.52-0.4 1.11-0.69 2.5-0.86 4.17s-0.26 3.6-0.26 5.81z"/><path class="path29" d="M461.74 482.61c0 1.34-0.21 2.54-0.64 3.6s-1.01 2-1.75 2.81c-0.75 0.8-1.61 1.48-2.62 2.01-0.99 0.54-2.09 0.95-3.25 1.23v0.15c3.08 0.39 5.42 1.33 7 2.84s2.38 3.54 2.38 6.09c0 1.69-0.3 3.26-0.9 4.69s-1.53 2.68-2.77 3.74c-1.25 1.06-2.82 1.88-4.71 2.47-1.88 0.59-4.12 0.89-6.68 0.89-2.06 0-3.99-0.17-5.81-0.51-1.81-0.35-3.5-0.87-5.07-1.58v-6.95c0.79 0.42 1.61 0.79 2.48 1.12 0.87 0.32 1.74 0.58 2.61 0.81s1.73 0.38 2.58 0.49c0.84 0.1 1.64 0.15 2.39 0.15 1.5 0 2.74-0.14 3.74-0.42 0.99-0.29 1.78-0.68 2.38-1.19s1.01-1.13 1.27-1.84c0.25-0.72 0.38-1.49 0.38-2.33 0-0.8-0.16-1.52-0.48-2.15-0.33-0.64-0.85-1.19-1.57-1.64-0.73-0.45-1.67-0.8-2.84-1.04s-2.6-0.37-4.32-0.37h-2.71v-5.73h2.66c1.61 0 2.94-0.14 4-0.44 1.07-0.29 1.91-0.69 2.54-1.19s1.09-1.08 1.35-1.76c0.26-0.67 0.39-1.38 0.39-2.14 0-1.37-0.42-2.45-1.27-3.23-0.84-0.78-2.18-1.17-4.01-1.17-0.84 0-1.62 0.08-2.33 0.26-0.73 0.16-1.39 0.38-2.02 0.64-0.61 0.26-1.19 0.54-1.7 0.85s-0.98 0.61-1.4 0.91l-4.08-5.45c0.74-0.54 1.53-1.04 2.4-1.5s1.8-0.86 2.82-1.21c1.01-0.35 2.1-0.61 3.27-0.81s2.42-0.29 3.74-0.29c1.88 0 3.59 0.21 5.14 0.63 1.55 0.41 2.87 1.01 3.96 1.8s1.95 1.74 2.55 2.88c0.61 1.14 0.92 2.44 0.92 3.9z"/><path class="path30" d="M506.61 512.63h-25.64v-5.68l8.99-9.81c1.13-1.24 2.16-2.38 3.08-3.41s1.72-2.05 2.38-3.04c0.67-0.98 1.18-2 1.55-3.01 0.36-1.02 0.54-2.12 0.54-3.31 0-1.3-0.39-2.31-1.16-3.04-0.78-0.72-1.81-1.08-3.12-1.08-1.38 0-2.7 0.34-3.97 1.03-1.28 0.69-2.6 1.67-4 2.94l-4.39-5.26c0.78-0.72 1.61-1.41 2.46-2.08s1.79-1.25 2.83-1.76c1.02-0.51 2.16-0.92 3.4-1.23s2.62-0.46 4.16-0.46c1.82 0 3.47 0.26 4.93 0.77s2.69 1.24 3.73 2.18c1.03 0.94 1.82 2.09 2.37 3.42 0.55 1.34 0.83 2.85 0.83 4.53 0 1.52-0.27 2.97-0.79 4.35s-1.24 2.74-2.15 4.08c-0.9 1.33-1.96 2.65-3.14 3.96-1.2 1.31-2.47 2.65-3.83 4l-4.6 4.68v0.37h15.58v6.87z"/><path class="path31" d="M523.95 487.93c1.64 0 3.16 0.26 4.58 0.77s2.64 1.26 3.69 2.24c1.04 0.99 1.86 2.22 2.46 3.69 0.59 1.48 0.89 3.16 0.89 5.07 0 2.1-0.32 3.98-0.96 5.64-0.64 1.67-1.6 3.07-2.85 4.23-1.26 1.16-2.82 2.04-4.67 2.66-1.85 0.61-3.98 0.92-6.39 0.92-0.96 0-1.91-0.04-2.85-0.13-0.94-0.09-1.84-0.21-2.7-0.38s-1.69-0.39-2.46-0.64c-0.78-0.27-1.47-0.57-2.11-0.92v-7.05c0.61 0.35 1.32 0.69 2.12 0.99s1.64 0.57 2.5 0.79c0.86 0.23 1.73 0.4 2.6 0.53s1.7 0.2 2.48 0.2c2.34 0 4.12-0.49 5.34-1.46 1.22-0.98 1.82-2.54 1.82-4.67 0-1.9-0.59-3.36-1.79-4.35-1.19-0.99-3.03-1.49-5.53-1.49-0.46 0-0.94 0.02-1.45 0.07s-1.02 0.12-1.52 0.22c-0.5 0.09-0.97 0.18-1.42 0.28-0.46 0.1-0.85 0.2-1.18 0.31l-3.21-1.74 1.43-19.7h20.18v6.93h-13.18l-0.62 7.59c0.56-0.12 1.21-0.25 1.95-0.37 0.75-0.13 1.7-0.19 2.87-0.19z"/><path class="path32" d="M573.06 512.63h-8.08v-22.37c0-0.46 0-1 0.01-1.65s0.02-1.31 0.05-2.01c0.02-0.7 0.05-1.4 0.08-2.1 0.02-0.71 0.04-1.35 0.06-1.93-0.08 0.11-0.24 0.27-0.44 0.48-0.21 0.22-0.44 0.44-0.71 0.7s-0.53 0.51-0.81 0.78c-0.28 0.27-0.54 0.5-0.81 0.72l-4.39 3.57-3.92-4.92 12.31-9.91h6.64v38.66z"/><path class="path33" d="M586.61 512.63l13.59-31.73h-17.56v-6.88h26.35v5.13l-13.93 33.49h-8.45z"/><path class="path34" d="M640.23 487.93c1.64 0 3.16 0.26 4.58 0.77s2.63 1.26 3.69 2.24c1.04 0.99 1.86 2.22 2.46 3.69 0.59 1.48 0.89 3.16 0.89 5.07 0 2.1-0.33 3.98-0.97 5.64-0.64 1.67-1.6 3.07-2.85 4.23-1.26 1.16-2.81 2.04-4.67 2.66-1.85 0.61-3.98 0.92-6.39 0.92-0.96 0-1.9-0.04-2.85-0.13s-1.84-0.21-2.7-0.38c-0.86-0.16-1.68-0.39-2.46-0.64-0.77-0.27-1.47-0.57-2.1-0.92v-7.05c0.61 0.35 1.32 0.69 2.12 0.99s1.63 0.57 2.5 0.79c0.86 0.23 1.73 0.4 2.6 0.53s1.7 0.2 2.48 0.2c2.34 0 4.12-0.49 5.34-1.46 1.22-0.98 1.83-2.54 1.83-4.67 0-1.9-0.59-3.36-1.79-4.35-1.19-0.99-3.03-1.49-5.53-1.49-0.45 0-0.93 0.02-1.45 0.07-0.51 0.05-1.02 0.12-1.52 0.22-0.5 0.09-0.97 0.18-1.42 0.28-0.46 0.1-0.84 0.2-1.18 0.31l-3.21-1.74 1.43-19.7h20.17v6.93h-13.17l-0.63 7.59c0.55-0.12 1.21-0.25 1.95-0.37 0.74-0.13 1.7-0.19 2.87-0.19z"/><path class="path35" d="M675.43 512.63h-8.08v-22.37c0-0.46 0-1 0.01-1.65s0.03-1.31 0.05-2.01c0.03-0.7 0.05-1.4 0.08-2.1 0.02-0.71 0.05-1.35 0.06-1.93-0.09 0.11-0.24 0.27-0.44 0.48s-0.45 0.44-0.71 0.7c-0.27 0.26-0.53 0.51-0.81 0.78s-0.54 0.5-0.81 0.72l-4.39 3.57-3.92-4.92 12.31-9.91h6.64v38.66z"/><path class="path36" d="M725.3 493.29c0 3.12-0.24 5.91-0.72 8.36s-1.25 4.53-2.29 6.24c-1.05 1.71-2.42 3.01-4.09 3.91-1.66 0.9-3.67 1.35-6.03 1.35-2.2 0-4.14-0.45-5.77-1.35s-3-2.2-4.08-3.91c-1.07-1.71-1.88-3.79-2.42-6.24s-0.8-5.23-0.8-8.36c0-3.12 0.25-5.92 0.72-8.39 0.48-2.47 1.24-4.56 2.28-6.27s2.4-3.02 4.06-3.92c1.65-0.91 3.66-1.36 6.01-1.36 2.2 0 4.12 0.45 5.76 1.35s3 2.2 4.11 3.91c1.1 1.71 1.92 3.8 2.46 6.27s0.81 5.27 0.81 8.41zM707.16 493.29c0 4.4 0.38 7.72 1.13 9.94s2.05 3.34 3.89 3.34c1.81 0 3.11-1.11 3.91-3.31 0.79-2.2 1.19-5.53 1.19-9.97 0-4.42-0.4-7.75-1.19-9.98-0.8-2.23-2.1-3.35-3.91-3.35-0.92 0-1.7 0.29-2.33 0.84-0.63 0.56-1.16 1.4-1.56 2.52-0.4 1.11-0.69 2.5-0.86 4.17s-0.27 3.6-0.27 5.81z"/><path class="path37" d="M754.74 512.63h-25.65v-5.68l8.99-9.81c1.14-1.24 2.16-2.38 3.08-3.41s1.72-2.05 2.39-3.04c0.67-0.98 1.18-2 1.55-3.01 0.36-1.02 0.54-2.12 0.54-3.31 0-1.3-0.39-2.31-1.17-3.04-0.77-0.72-1.81-1.08-3.12-1.08-1.38 0-2.7 0.34-3.97 1.03-1.28 0.69-2.61 1.67-4 2.94l-4.39-5.26c0.79-0.72 1.61-1.41 2.46-2.08s1.79-1.25 2.83-1.76c1.02-0.51 2.16-0.92 3.4-1.23s2.62-0.46 4.16-0.46c1.83 0 3.47 0.26 4.93 0.77s2.69 1.24 3.73 2.18c1.03 0.94 1.81 2.09 2.37 3.42 0.55 1.34 0.83 2.85 0.83 4.53 0 1.52-0.27 2.97-0.79 4.35s-1.24 2.74-2.14 4.08c-0.9 1.33-1.96 2.65-3.14 3.96-1.2 1.31-2.47 2.65-3.83 4l-4.6 4.68v0.37h15.59v6.87z"/><path class="path38" d="M273.91 542.26h11.19c2.4 0 4.52 0.17 6.33 0.51 1.81 0.35 3.33 0.9 4.55 1.67s2.14 1.77 2.76 3.01c0.63 1.24 0.92 2.78 0.92 4.59 0 1.1-0.13 2.11-0.39 3.07-0.26 0.95-0.64 1.79-1.15 2.51s-1.12 1.33-1.84 1.81c-0.72 0.48-1.55 0.81-2.49 0.96v0.27c0.96 0.21 1.85 0.51 2.67 0.91 0.83 0.4 1.56 0.94 2.17 1.64s1.11 1.57 1.46 2.63c0.36 1.06 0.53 2.35 0.53 3.86 0 1.76-0.31 3.34-0.91 4.72s-1.48 2.56-2.63 3.52c-1.14 0.96-2.53 1.7-4.16 2.21s-3.47 0.77-5.53 0.77h-13.49v-38.67zM282.02 557.57h4.21c1.01 0 1.85-0.09 2.54-0.28s1.23-0.46 1.64-0.84c0.42-0.37 0.73-0.83 0.91-1.39 0.18-0.55 0.28-1.2 0.28-1.95 0-1.48-0.46-2.54-1.37-3.18s-2.37-0.96-4.35-0.96h-3.84v8.6zM282.02 564.07v10.08h4.76c1.07 0 1.96-0.12 2.67-0.37 0.73-0.25 1.31-0.6 1.75-1.05 0.44-0.46 0.76-1.01 0.95-1.67s0.29-1.37 0.29-2.17c0-0.72-0.09-1.38-0.29-1.97s-0.51-1.1-0.97-1.53c-0.46-0.42-1.06-0.75-1.81-0.98-0.76-0.22-1.69-0.35-2.8-0.35h-4.56z"/><path class="path39" d="M306.53 577.14c0-0.83 0.12-1.53 0.35-2.1 0.24-0.57 0.56-1.03 0.98-1.39s0.9-0.6 1.46-0.77c0.56-0.15 1.16-0.24 1.8-0.24 0.61 0 1.19 0.08 1.74 0.24 0.54 0.15 1.02 0.41 1.44 0.77 0.42 0.35 0.75 0.82 0.99 1.39s0.37 1.27 0.37 2.1c0 0.8-0.12 1.48-0.37 2.04s-0.57 1.03-0.99 1.4c-0.42 0.37-0.9 0.65-1.44 0.81-0.55 0.16-1.13 0.26-1.74 0.26-0.64 0-1.25-0.08-1.8-0.26-0.55-0.16-1.04-0.43-1.46-0.81-0.42-0.37-0.75-0.84-0.98-1.4-0.22-0.56-0.35-1.25-0.35-2.04z"/><path class="path40" d="M358.94 550.9c0 1.34-0.21 2.54-0.64 3.62-0.43 1.07-1.01 2-1.75 2.81-0.74 0.8-1.61 1.48-2.61 2.01s-2.09 0.95-3.25 1.23v0.15c3.08 0.39 5.42 1.34 7 2.85s2.38 3.53 2.38 6.09c0 1.69-0.3 3.26-0.9 4.69s-1.53 2.68-2.77 3.74c-1.25 1.06-2.82 1.88-4.71 2.47-1.89 0.59-4.12 0.89-6.68 0.89-2.06 0-3.99-0.17-5.81-0.51-1.81-0.35-3.5-0.87-5.07-1.58v-6.95c0.79 0.43 1.62 0.8 2.49 1.12s1.74 0.58 2.61 0.81c0.87 0.23 1.73 0.39 2.58 0.49 0.84 0.1 1.64 0.15 2.4 0.15 1.5 0 2.74-0.14 3.74-0.42 0.99-0.29 1.78-0.69 2.38-1.19 0.59-0.51 1.01-1.13 1.27-1.83 0.26-0.72 0.39-1.49 0.39-2.35 0-0.8-0.16-1.52-0.48-2.15-0.33-0.64-0.85-1.19-1.57-1.64s-1.67-0.8-2.84-1.04c-1.17-0.25-2.6-0.37-4.31-0.37h-2.71v-5.73h2.66c1.6 0 2.93-0.14 4-0.43 1.07-0.3 1.91-0.69 2.54-1.19s1.09-1.08 1.35-1.76c0.26-0.68 0.39-1.38 0.39-2.14 0-1.38-0.43-2.45-1.27-3.23s-2.18-1.17-4.01-1.17c-0.84 0-1.62 0.08-2.33 0.26-0.73 0.16-1.39 0.38-2.02 0.64-0.61 0.26-1.19 0.54-1.7 0.85s-0.98 0.61-1.4 0.91l-4.08-5.45c0.74-0.54 1.53-1.04 2.4-1.5s1.8-0.86 2.82-1.2c1.01-0.34 2.1-0.61 3.27-0.81s2.42-0.29 3.74-0.29c1.87 0 3.59 0.21 5.13 0.61 1.55 0.42 2.87 1.01 3.96 1.8 1.1 0.78 1.95 1.74 2.55 2.88 0.58 1.11 0.88 2.41 0.88 3.87z"/><path class="path41" d="M388.43 550.9c0 1.34-0.21 2.54-0.63 3.62-0.43 1.07-1.01 2-1.75 2.81-0.75 0.8-1.62 1.48-2.62 2.01s-2.09 0.95-3.25 1.23v0.15c3.08 0.39 5.42 1.34 7 2.85s2.39 3.53 2.39 6.09c0 1.69-0.3 3.26-0.9 4.69s-1.53 2.68-2.77 3.74c-1.25 1.06-2.81 1.88-4.7 2.47-1.89 0.59-4.12 0.89-6.68 0.89-2.06 0-3.99-0.17-5.81-0.51-1.81-0.35-3.5-0.87-5.08-1.58v-6.95c0.79 0.43 1.62 0.8 2.49 1.12s1.74 0.58 2.61 0.81c0.87 0.23 1.73 0.39 2.58 0.49s1.64 0.15 2.4 0.15c1.5 0 2.74-0.14 3.74-0.42 0.99-0.29 1.78-0.69 2.38-1.19 0.59-0.51 1.01-1.13 1.27-1.83 0.26-0.72 0.38-1.49 0.38-2.35 0-0.8-0.16-1.52-0.48-2.15-0.33-0.64-0.85-1.19-1.57-1.64s-1.67-0.8-2.84-1.04c-1.17-0.25-2.6-0.37-4.31-0.37h-2.71v-5.73h2.66c1.61 0 2.94-0.14 4-0.43 1.06-0.3 1.91-0.69 2.55-1.19 0.64-0.5 1.09-1.08 1.35-1.76s0.39-1.38 0.39-2.14c0-1.38-0.42-2.45-1.27-3.23s-2.18-1.17-4.01-1.17c-0.84 0-1.62 0.08-2.35 0.26-0.72 0.16-1.39 0.38-2.01 0.64s-1.19 0.54-1.7 0.85c-0.51 0.31-0.98 0.61-1.4 0.91l-4.08-5.45c0.74-0.54 1.53-1.04 2.4-1.5 0.86-0.46 1.8-0.86 2.81-1.2 1.01-0.34 2.1-0.61 3.27-0.81s2.42-0.29 3.74-0.29c1.87 0 3.59 0.21 5.13 0.61 1.55 0.42 2.87 1.01 3.96 1.8 1.1 0.78 1.96 1.74 2.55 2.88 0.57 1.11 0.88 2.41 0.88 3.87z"/><path class="path42" d="M433.37 561.58c0 3.12-0.24 5.91-0.73 8.36-0.48 2.45-1.25 4.53-2.29 6.24-1.05 1.71-2.42 3.02-4.08 3.91-1.67 0.9-3.68 1.35-6.03 1.35-2.21 0-4.14-0.45-5.77-1.35s-3-2.2-4.09-3.91c-1.07-1.71-1.88-3.79-2.42-6.24s-0.8-5.23-0.8-8.36c0-3.12 0.24-5.92 0.72-8.39s1.24-4.56 2.28-6.27c1.04-1.71 2.4-3.02 4.06-3.93 1.65-0.91 3.66-1.36 6.01-1.36 2.2 0 4.12 0.45 5.76 1.35s3 2.2 4.11 3.91c1.1 1.71 1.92 3.8 2.46 6.27 0.54 2.48 0.82 5.28 0.82 8.42zM415.22 561.58c0 4.4 0.37 7.72 1.13 9.94 0.75 2.22 2.05 3.33 3.89 3.33 1.81 0 3.11-1.11 3.91-3.31s1.19-5.53 1.19-9.97c0-4.42-0.4-7.75-1.19-9.98s-2.09-3.35-3.91-3.35c-0.92 0-1.7 0.29-2.33 0.84-0.63 0.56-1.16 1.4-1.56 2.52s-0.69 2.5-0.86 4.17c-0.17 1.68-0.27 3.62-0.27 5.82z"/><path class="path43" d="M456.37 580.92h-8.08v-22.37c0-0.46 0-1 0.01-1.65s0.03-1.31 0.05-2.01c0.03-0.7 0.05-1.39 0.08-2.1 0.02-0.71 0.04-1.35 0.06-1.93-0.09 0.1-0.24 0.27-0.45 0.47-0.2 0.22-0.44 0.45-0.71 0.71-0.26 0.26-0.53 0.52-0.81 0.78-0.28 0.27-0.55 0.5-0.81 0.72l-4.39 3.57-3.92-4.92 12.31-9.91h6.65v38.66z"/><path class="path44" d="M506.77 572.91h-4.6v8.02h-7.86v-8.02h-15.79v-5.68l16.23-24.96h7.42v24.3h4.6v6.35zM494.3 566.56v-6.55c0-0.22 0-0.56 0.01-0.99s0.02-0.92 0.04-1.46c0.01-0.54 0.04-1.12 0.06-1.69 0.03-0.58 0.05-1.14 0.08-1.67s0.05-0.99 0.08-1.39c0.02-0.4 0.05-0.69 0.06-0.86h-0.24c-0.32 0.74-0.67 1.53-1.06 2.36-0.39 0.83-0.84 1.66-1.34 2.49l-6.38 9.79h8.68z"/><path class="path45" d="M522.66 541.76c1.59 0 3.08 0.2 4.5 0.57 1.41 0.39 2.64 0.97 3.72 1.75 1.07 0.78 1.91 1.74 2.53 2.91s0.94 2.53 0.94 4.1c0 1.17-0.17 2.22-0.52 3.16s-0.83 1.8-1.43 2.57c-0.6 0.77-1.33 1.45-2.17 2.05s-1.74 1.15-2.72 1.64c1.01 0.54 2 1.16 2.97 1.82 0.96 0.68 1.82 1.42 2.57 2.26s1.35 1.78 1.8 2.82c0.45 1.03 0.68 2.2 0.68 3.49 0 1.61-0.32 3.06-0.94 4.36-0.62 1.31-1.5 2.42-2.64 3.34-1.14 0.91-2.49 1.62-4.07 2.12-1.58 0.49-3.32 0.74-5.21 0.74-2.06 0-3.89-0.24-5.49-0.72-1.61-0.48-2.96-1.16-4.05-2.04-1.11-0.88-1.93-1.97-2.5-3.26s-0.85-2.73-0.85-4.34c0-1.32 0.2-2.51 0.57-3.57 0.38-1.05 0.9-2.01 1.57-2.86 0.67-0.84 1.44-1.6 2.32-2.24 0.89-0.65 1.83-1.23 2.85-1.72-0.85-0.54-1.66-1.14-2.41-1.78s-1.4-1.36-1.95-2.14c-0.55-0.79-0.99-1.65-1.31-2.6-0.33-0.95-0.48-2-0.48-3.14 0-1.54 0.32-2.88 0.95-4.03 0.65-1.16 1.5-2.12 2.58-2.91s2.32-1.37 3.74-1.76c1.43-0.39 2.91-0.58 4.47-0.58zM517.24 570.63c0 0.71 0.11 1.35 0.34 1.95s0.56 1.1 1 1.53c0.45 0.42 1 0.76 1.66 0.99 0.67 0.24 1.43 0.36 2.29 0.36 1.83 0 3.2-0.44 4.11-1.31s1.36-2.03 1.36-3.45c0-0.74-0.15-1.4-0.46-2s-0.7-1.14-1.18-1.64c-0.48-0.5-1.02-0.96-1.64-1.39-0.61-0.42-1.22-0.83-1.82-1.22l-0.57-0.37c-0.77 0.39-1.46 0.81-2.09 1.26s-1.17 0.94-1.61 1.49c-0.44 0.54-0.79 1.13-1.02 1.76-0.24 0.61-0.37 1.3-0.37 2.05zM522.61 547.73c-0.57 0-1.11 0.09-1.61 0.27s-0.92 0.43-1.28 0.77c-0.36 0.34-0.64 0.75-0.85 1.25-0.2 0.49-0.32 1.04-0.32 1.67 0 0.74 0.11 1.38 0.33 1.92 0.22 0.54 0.51 1.01 0.89 1.42 0.38 0.42 0.81 0.79 1.31 1.12s1.02 0.65 1.58 0.96c0.54-0.28 1.06-0.59 1.55-0.92 0.49-0.34 0.92-0.72 1.29-1.15s0.68-0.92 0.9-1.46c0.23-0.54 0.34-1.17 0.34-1.87 0-0.61-0.1-1.18-0.31-1.67s-0.49-0.91-0.86-1.25c-0.37-0.33-0.81-0.59-1.3-0.77-0.52-0.18-1.07-0.28-1.66-0.28z"/><path class="path46" d="M572.64 580.92h-8.08v-22.37c0-0.46 0-1 0.01-1.65s0.03-1.31 0.05-2.01c0.03-0.7 0.05-1.39 0.08-2.1 0.02-0.71 0.05-1.35 0.06-1.93-0.09 0.1-0.24 0.27-0.44 0.47-0.2 0.22-0.45 0.45-0.71 0.71s-0.53 0.52-0.81 0.78c-0.28 0.27-0.54 0.5-0.81 0.72l-4.39 3.57-3.92-4.92 12.32-9.91h6.64v38.66z"/><path class="path47" d="M608.6 561.58c0 3.12-0.24 5.91-0.72 8.36s-1.25 4.53-2.29 6.24c-1.05 1.71-2.42 3.02-4.09 3.91-1.66 0.9-3.67 1.35-6.02 1.35-2.21 0-4.14-0.45-5.79-1.35-1.63-0.9-2.99-2.2-4.08-3.91s-1.88-3.79-2.42-6.24c-0.53-2.45-0.8-5.23-0.8-8.36s0.24-5.92 0.72-8.39c0.48-2.47 1.24-4.56 2.29-6.27 1.04-1.71 2.4-3.02 4.06-3.93 1.65-0.91 3.66-1.36 6.01-1.36 2.19 0 4.12 0.45 5.76 1.35s3.01 2.2 4.11 3.91c1.1 1.71 1.92 3.8 2.46 6.27 0.52 2.48 0.8 5.28 0.8 8.42zM590.47 561.58c0 4.4 0.37 7.72 1.12 9.94s2.05 3.33 3.89 3.33c1.81 0 3.11-1.11 3.91-3.31 0.79-2.2 1.19-5.53 1.19-9.97 0-4.42-0.4-7.75-1.19-9.98-0.8-2.23-2.1-3.35-3.91-3.35-0.92 0-1.7 0.29-2.33 0.84-0.63 0.56-1.16 1.4-1.56 2.52s-0.69 2.5-0.86 4.17c-0.17 1.68-0.26 3.62-0.26 5.82z"/><path class="path48" d="M651.94 580.92h-25.64v-5.68l8.99-9.81c1.14-1.24 2.16-2.38 3.08-3.41 0.92-1.04 1.72-2.06 2.39-3.04s1.18-2 1.55-3.02c0.36-1.02 0.54-2.12 0.54-3.31 0-1.3-0.39-2.31-1.17-3.04-0.77-0.73-1.81-1.08-3.12-1.08-1.37 0-2.7 0.35-3.97 1.03s-2.6 1.67-4 2.94l-4.39-5.26c0.79-0.73 1.61-1.41 2.46-2.08s1.79-1.25 2.82-1.76c1.03-0.51 2.16-0.92 3.4-1.23s2.62-0.46 4.16-0.46c1.83 0 3.47 0.26 4.93 0.77s2.69 1.24 3.73 2.18c1.03 0.94 1.81 2.09 2.37 3.42 0.55 1.34 0.83 2.85 0.83 4.53 0 1.52-0.27 2.97-0.79 4.35s-1.24 2.74-2.14 4.08c-0.9 1.33-1.96 2.65-3.15 3.96-1.19 1.31-2.46 2.65-3.83 4l-4.61 4.68v0.37h15.58v6.88z"/><path class="path49" d="M681.43 580.92h-25.64v-5.68l8.99-9.81c1.14-1.24 2.16-2.38 3.08-3.41 0.92-1.04 1.72-2.06 2.38-3.04 0.67-0.98 1.18-2 1.55-3.02s0.54-2.12 0.54-3.31c0-1.3-0.39-2.31-1.17-3.04-0.77-0.73-1.81-1.08-3.12-1.08-1.38 0-2.7 0.35-3.97 1.03s-2.6 1.67-3.99 2.94l-4.39-5.26c0.78-0.73 1.61-1.41 2.46-2.08s1.79-1.25 2.83-1.76c1.02-0.51 2.16-0.92 3.4-1.23s2.62-0.46 4.16-0.46c1.83 0 3.47 0.26 4.93 0.77s2.69 1.24 3.73 2.18c1.02 0.94 1.81 2.09 2.37 3.42 0.55 1.34 0.83 2.85 0.83 4.53 0 1.52-0.27 2.97-0.79 4.35s-1.24 2.74-2.14 4.08c-0.9 1.33-1.96 2.65-3.15 3.96s-2.47 2.65-3.83 4l-4.6 4.68v0.37h15.59v6.88z"/><path class="path50" d="M724.87 561.58c0 3.12-0.24 5.91-0.72 8.36-0.47 2.45-1.24 4.53-2.29 6.24s-2.42 3.02-4.09 3.91c-1.66 0.9-3.67 1.35-6.02 1.35-2.21 0-4.15-0.45-5.77-1.35-1.64-0.9-3-2.2-4.08-3.91-1.08-1.71-1.88-3.79-2.42-6.24s-0.8-5.23-0.8-8.36c0-3.12 0.24-5.92 0.72-8.39s1.24-4.56 2.28-6.27c1.04-1.71 2.4-3.02 4.06-3.93 1.65-0.91 3.66-1.36 6.01-1.36 2.19 0 4.11 0.45 5.76 1.35 1.63 0.9 3 2.2 4.11 3.91 1.1 1.71 1.92 3.8 2.46 6.27 0.53 2.48 0.8 5.28 0.8 8.42zM706.73 561.58c0 4.4 0.38 7.72 1.13 9.94s2.05 3.33 3.9 3.33c1.81 0 3.11-1.11 3.9-3.31s1.19-5.53 1.19-9.97c0-4.42-0.4-7.75-1.19-9.98-0.8-2.23-2.1-3.35-3.9-3.35-0.92 0-1.71 0.29-2.35 0.84-0.63 0.56-1.15 1.4-1.56 2.52-0.4 1.12-0.69 2.5-0.86 4.17-0.18 1.68-0.27 3.62-0.27 5.82z"/><path class="path51" d="M754.88 572.91h-4.6v8.02h-7.86v-8.02h-15.79v-5.68l16.23-24.96h7.42v24.3h4.6v6.35zM742.42 566.56v-6.55c0-0.22 0-0.56 0.01-0.99s0.02-0.92 0.04-1.46c0.02-0.54 0.04-1.12 0.06-1.69 0.03-0.58 0.05-1.14 0.08-1.67 0.02-0.53 0.05-0.99 0.07-1.39 0.03-0.4 0.05-0.69 0.06-0.86h-0.24c-0.31 0.74-0.67 1.53-1.06 2.36-0.39 0.83-0.84 1.66-1.34 2.49l-6.38 9.79h8.69z"/><path class="path52" d="M269.12 377.47h485.77v32.53h-485.76v-32.53z"/><path class="path53" d="M269.12 644.98h485.77v32.53h-485.76v-32.53z"/><path class="path54" d="M186.26 81.41v861.18h651.5v-861.18h-651.5zM798.13 902.96h-572.25v-781.93h572.24v781.93z"/></symbol>
<symbol id="v-cart" viewBox="0 0 1024 1024"><path class="path1" d="M290.22 866.84c0 39.78-32.19 71.97-71.97 71.97s-71.97-32.19-71.97-71.97c0-39.71 32.2-71.97 71.97-71.97s71.97 32.25 71.97 71.97z"/><path class="path2" d="M866 866.84c0 39.78-32.19 71.97-71.97 71.97-39.78 0-71.97-32.19-71.97-71.97 0-39.71 32.2-71.97 71.97-71.97 39.77-0.01 71.97 32.25 71.97 71.97z"/><path class="path3" d="M506.13 363.03h71.97v71.97h-71.97v-71.97z"/><path class="path4" d="M650.08 506.97h71.97v71.97h-71.97v-71.97z"/><path class="path5" d="M362.19 506.97h71.97v71.97h-71.97v-71.97z"/><path class="path6" d="M362.19 363.03h71.97v71.97h-71.97v-71.97z"/><path class="path7" d="M506.13 506.97h71.97v71.97h-71.97v-71.97z"/><path class="path8" d="M236.18 219.09l-9.07-72.53c-8.86-71.41-25.02-71.41-44.84-71.41h-179.93v71.97h143.94l71.97 575.78h647.75l143.94-503.8h-773.76zM855.74 506.97h-61.71v71.97h41.11l-20.59 71.97h-532.34l-8.02-71.97h16.03v-71.97h-23.96l-8.01-71.97h31.98v-71.97h-40l-8.01-71.97h675.23l-61.72 215.9z"/><path class="path9" d="M650.08 363.03h71.97v71.97h-71.97v-71.97z"/><path class="path10" d="M794.02 363.03h71.97v71.97h-71.97v-71.97z"/></symbol>
<symbol id="v-hourglass" viewBox="0 0 1024 1024"><path class="path1" d="M816.76 207.34c0-153.87 0-164.48 0-164.48 0-22.53-18.43-40.96-40.96-40.96h-531.24c-22.53 0-40.96 18.43-40.96 40.96 0 0 0 12.43 0 165.52s187.05 227.07 187.05 306.43-187.05 153.6-187.05 306.37c0 152.76 0 163.76 0 163.76 0 22.52 18.43 40.96 40.96 40.96h531.24c22.53 0 40.96-18.44 40.96-40.96 0 0 0-11.9 0-163.78 0-151.87-182.19-218.03-182.19-306.35s182.19-153.6 182.19-307.47zM552.65 514.81c0 72.17 51.44 123.56 96.83 168.89 51.56 51.51 85.36 88.9 85.36 137.46v102.34h-22.6l-143.02-137.53c-32.48-31.22-85.62-31.22-118.1 0l-143.01 137.54h-22.59v-102.32c0-54.5 46.61-100.44 91.68-144.85 46.89-46.21 95.37-94 95.37-161.53s-48.46-115.25-95.32-161.4c-55.41-54.56-91.73-94.13-91.73-145.03v-103.17h449.32v102.13c0 49.84-33.96 87.47-85.77 139.18-45.19 45.11-96.41 96.24-96.41 168.28z"/></symbol>
<symbol id="v-arrow-right" viewBox="0 0 1024 1024"><path class="path1" d="M166.64 991.99l373.71-474.86-373.71-474.89h317l373.73 474.89-373.73 474.86h-317z"/></symbol>
<symbol id="v-triangle-down" viewBox="0 0 767.5 1024"><path class="path1" d="M0 384l383.75 383.75 383.75-383.75h-767.5z"/></symbol>
<symbol id="v-triangle-up" viewBox="0 0 767.5 1024"><path class="path1" d="M383.75 256l-383.75 383.75h767.5l-383.75-383.75z"/></symbol>
<symbol id="v-arrow-right3" viewBox="0 0 609 1024"><path class="path1" d="M77.08 1024c-22.02 0-40.37-7.34-55.05-25.69-29.36-29.36-29.36-80.75 3.67-110.11l396.39-378.04-396.39-378.04c-29.36-29.36-33.03-77.07-3.67-110.11 29.36-29.36 77.08-33.03 110.11-3.67l455.11 433.09c14.68 14.68 25.69 36.7 25.69 55.05s-7.34 40.37-25.69 55.05l-455.11 440.43c-14.68 14.68-36.7 22.02-55.05 22.02z"/></symbol>
<symbol id="v-pencil" viewBox="0 0 1024 1024"><path class="path1" d="M864 0c88.36 0 160 71.63 160 160 0 36.02-11.91 69.26-32 96l-64 64-224-224 64-64c26.74-20.09 59.98-32 96-32zM64 736l-64 288 288-64 592-592-224-224-592 592zM715.58 363.58l-448 448-55.16-55.16 448-448 55.16 55.16z"/></symbol>
<symbol id="v-clock" viewBox="0 0 1024 1024"><path class="path1" d="M658.74 749.26l-210.74-210.75v-282.51h128v229.49l173.26 173.25zM512 0c-282.77 0-512 229.23-512 512s229.23 512 512 512 512-229.23 512-512-229.23-512-512-512zM512 896c-212.08 0-384-171.92-384-384s171.92-384 384-384c212.08 0 384 171.92 384 384s-171.92 384-384 384z"/></symbol>
<symbol id="v-user" viewBox="0 0 1024 1024"><path class="path1" d="M576 706.61v-52.78c70.5-39.73 128-138.77 128-237.83 0-159.06 0-288-192-288s-192 128.94-192 288c0 99.06 57.5 198.1 128 237.83v52.78c-217.1 17.75-384 124.42-384 253.39h896c0-128.97-166.9-235.64-384-253.39z"/></symbol>
<symbol id="v-key" viewBox="0 0 1024 1024"><path class="path1" d="M704 0c-176.73 0-320 143.27-320 320 0 20.03 1.86 39.62 5.38 58.62l-389.38 389.38v192c0 35.35 28.65 64 64 64h64v-64h128v-128h128v-128h128l83.04-83.04c34.01 12.32 70.7 19.04 108.96 19.04 176.73 0 320-143.27 320-320s-143.27-320-320-320zM799.87 320.13c-53.02 0-96-42.98-96-96s42.98-96 96-96 96 42.98 96 96-42.98 96-96 96z"/></symbol>
<symbol id="v-bin" viewBox="0 0 1024 1024"><path class="path1" d="M128 320v640c0 35.2 28.8 64 64 64h576c35.2 0 64-28.8 64-64v-640h-704zM320 896h-64v-448h64v448zM448 896h-64v-448h64v448zM576 896h-64v-448h64v448zM704 896h-64v-448h64v448z"/><path class="path2" d="M848 128h-208v-80c0-26.4-21.6-48-48-48h-224c-26.4 0-48 21.6-48 48v80h-208c-26.4 0-48 21.6-48 48v80h832v-80c0-26.4-21.6-48-48-48zM576 128h-192v-63.2h192v63.2z"/></symbol>
<symbol id="v-plus" viewBox="0 0 1024 1024"><path class="path1" d="M992 384h-352v-352c0-17.67-14.33-32-32-32h-192c-17.67 0-32 14.33-32 32v352h-352c-17.67 0-32 14.33-32 32v192c0 17.67 14.33 32 32 32h352v352c0 17.67 14.33 32 32 32h192c17.67 0 32-14.33 32-32v-352h352c17.67 0 32-14.33 32-32v-192c0-17.67-14.33-32-32-32z"/></symbol>
<symbol id="v-info" viewBox="0 0 1024 1024"><path class="path1" d="M448 304c0-26.4 21.6-48 48-48h32c26.4 0 48 21.6 48 48v32c0 26.4-21.6 48-48 48h-32c-26.4 0-48-21.6-48-48v-32z"/><path class="path2" d="M640 768h-256v-64h64v-192h-64v-64h192v256h64z"/><path class="path3" d="M512 0c-282.77 0-512 229.23-512 512s229.23 512 512 512 512-229.23 512-512-229.23-512-512-512zM512 928c-229.75 0-416-186.25-416-416s186.25-416 416-416 416 186.25 416 416-186.25 416-416 416z"/></symbol>
<symbol id="v-cancel-circle" viewBox="0 0 1024 1024"><path class="path1" d="M512 0c-282.77 0-512 229.23-512 512s229.23 512 512 512 512-229.23 512-512-229.23-512-512-512zM512 928c-229.75 0-416-186.25-416-416s186.25-416 416-416 416 186.25 416 416-186.25 416-416 416z"/><path class="path2" d="M672 256l-160 160-160-160-96 96 160 160-160 160 96 96 160-160 160 160 96-96-160-160 160-160z"/></symbol>
<symbol id="v-cross" viewBox="0 0 1024 1024"><path class="path1" d="M1014.66 822.66c0 0-0.01-0.01-0.01-0.01l-310.64-310.65 310.64-310.65c0 0 0.01-0.01 0.01-0.01 3.34-3.35 5.76-7.25 7.31-11.42 4.25-11.38 1.82-24.68-7.32-33.83l-146.75-146.75c-9.15-9.15-22.45-11.57-33.83-7.32-4.16 1.55-8.07 3.97-11.42 7.31 0 0 0 0.01-0.01 0.01l-310.65 310.65-310.65-310.65c0 0-0.01-0.01-0.01-0.01-3.35-3.34-7.25-5.76-11.41-7.31-11.38-4.25-24.68-1.83-33.83 7.32l-146.75 146.75c-9.15 9.15-11.57 22.45-7.32 33.83 1.55 4.16 3.97 8.07 7.31 11.42 0 0 0.01 0.01 0.01 0.01l310.65 310.65-310.65 310.65c0 0-0.01 0.01-0.01 0.01-3.34 3.35-5.76 7.25-7.31 11.41-4.25 11.38-1.83 24.68 7.32 33.83l146.75 146.75c9.15 9.15 22.45 11.57 33.83 7.32 4.16-1.55 8.07-3.97 11.42-7.31 0 0 0.01-0.01 0.01-0.01l310.65-310.65 310.65 310.65c0 0 0.01 0.01 0.01 0.01 3.35 3.34 7.25 5.76 11.41 7.31 11.38 4.25 24.68 1.83 33.83-7.32l146.75-146.75c9.15-9.15 11.57-22.45 7.32-33.83-1.55-4.16-3.97-8.07-7.31-11.41z"/></symbol>
<symbol id="v-checkmark" viewBox="0 0 1024 1024"><path class="path1" d="M864 128l-480 480-224-224-160 160 384 384 640-640z"/></symbol>
<symbol id="v-exit" viewBox="0 0 1024 1024"><path class="path1" d="M768 640v-128h-320v-128h320v-128l192 192zM704 576v256h-320v192l-384-192v-832h704v320h-64v-256h-512l256 128v576h256v-192z"/></symbol>
<symbol id="v-shuffle" viewBox="0 0 1024 1024"><path class="path1" d="M768 704h-101.49l-160-160 160-160h101.49v160l224-224-224-224v160h-128c-16.97 0-33.25 6.74-45.25 18.75l-178.75 178.74-178.75-178.75c-12-12-28.28-18.74-45.25-18.74h-192v128h165.49l160 160-160 160h-165.49v128h192c16.97 0 33.25-6.74 45.25-18.75l178.75-178.74 178.75 178.74c12 12 28.28 18.75 45.25 18.75h128v160l224-224-224-224v160z"/></symbol>
<symbol id="v-arrow-up2" viewBox="0 0 1024 1024"><path class="path1" d="M877.25 402.75l-320-320c-24.99-24.99-65.51-24.99-90.51 0l-320 320c-24.99 24.99-24.99 65.52 0 90.51 24.99 25 65.52 25 90.51 0l210.74-210.75v613.49c0 35.35 28.65 64 64 64s64-28.65 64-64v-613.49l210.75 210.75c12.5 12.5 28.88 18.74 45.25 18.74s32.76-6.25 45.25-18.75c24.99-24.99 24.99-65.51 0-90.51z"/></symbol>
<symbol id="v-arrow-right2" viewBox="0 0 1024 1024"><path class="path1" d="M621.25 877.25l320-320c24.99-24.99 24.99-65.52 0-90.51l-320-320c-24.99-24.99-65.52-24.99-90.51 0-24.99 24.99-24.99 65.52 0 90.51l210.75 210.75h-613.49c-35.35 0-64 28.65-64 64s28.65 64 64 64h613.49l-210.75 210.75c-12.5 12.5-18.74 28.88-18.74 45.25s6.25 32.76 18.74 45.25c24.99 24.99 65.52 24.99 90.51 0z"/></symbol>
<symbol id="v-arrow-down2" viewBox="0 0 1024 1024"><path class="path1" d="M877.25 621.25l-320 320c-24.99 24.99-65.51 24.99-90.51 0l-320-320c-24.99-24.99-24.99-65.52 0-90.51 24.99-25 65.52-25 90.51 0l210.74 210.75v-613.49c0-35.35 28.65-64 64-64s64 28.65 64 64v613.49l210.75-210.75c12.5-12.5 28.88-18.74 45.25-18.74s32.76 6.25 45.25 18.75c24.99 24.99 24.99 65.51 0 90.51z"/></symbol>
<symbol id="v-arrow-left2" viewBox="0 0 1024 1024"><path class="path1" d="M402.75 877.25l-320-320c-24.99-24.99-24.99-65.52 0-90.51l320-320c24.99-24.99 65.52-24.99 90.51 0 24.99 24.99 24.99 65.52 0 90.51l-210.75 210.75h613.49c35.35 0 64 28.65 64 64s-28.65 64-64 64h-613.49l210.75 210.75c12.5 12.5 18.74 28.88 18.74 45.25s-6.25 32.76-18.74 45.25c-24.99 24.99-65.52 24.99-90.51 0z"/></symbol>
<symbol id="v-google-plus" viewBox="0 0 1024 1024"><path class="path1" d="M559.07 64c0 0-200.96 0-267.94 0-120.12 0-233.17 91.01-233.17 196.42 0 107.73 81.88 194.67 204.09 194.67 8.5 0 16.76-0.17 24.84-0.75-7.93 15.19-13.6 32.29-13.6 50.04 0 29.94 16.1 54.21 36.47 74.02-15.39 0-30.24 0.45-46.45 0.45-148.78 0-263.3 94.76-263.3 193.02 0 96.78 125.54 157.31 274.33 157.31 169.62 0 263.31-96.24 263.31-193.03 0-77.6-22.9-124.07-93.69-174.13-24.22-17.14-70.53-58.84-70.53-83.34 0-28.72 8.2-42.87 51.43-76.65 44.31-34.62 75.67-83.3 75.67-139.92 0-67.41-30.02-133.1-86.37-154.77h84.95l59.96-43.34zM465.48 719.46c2.13 8.97 3.28 18.21 3.28 27.63 0 78.2-50.39 139.31-194.97 139.31-102.84 0-177.12-65.1-177.12-143.3 0-76.64 92.13-140.44 194.96-139.33 24 0.25 46.37 4.12 66.67 10.69 55.83 38.83 95.88 60.76 107.17 105zM300.82 427.78c-69.04-2.06-134.64-77.23-146.55-167.86-11.92-90.67 34.37-160.04 103.39-157.99 69.01 2.07 134.64 74.81 146.56 165.46 11.91 90.66-34.39 162.46-103.39 160.39zM832 256v-192h-64v192h-192v64h192v192h64v-192h192v-64z"/></symbol>
<symbol id="v-facebook" viewBox="0 0 1024 1024"><path class="path1" d="M672 192c-88.37 0-160 71.63-160 160v96h-128v128h128v448h128v-448h144l32-128h-176v-96c0-17.67 14.33-32 32-32h160v-128h-160z"/></symbol>
<symbol id="v-twitter" viewBox="0 0 1024 1024"><path class="path1" d="M1024 194.42c-37.68 16.71-78.16 28-120.66 33.08 43.37-26 76.69-67.17 92.37-116.23-40.6 24.08-85.56 41.56-133.41 50.98-38.32-40.83-92.92-66.34-153.35-66.34-116.02 0-210.09 94.06-210.09 210.08 0 16.47 1.86 32.5 5.44 47.88-174.6-8.76-329.4-92.4-433.02-219.51-18.08 31.03-28.45 67.12-28.45 105.62 0 72.89 37.09 137.19 93.46 174.87-34.44-1.09-66.83-10.54-95.15-26.28-0.02 0.88-0.02 1.76-0.02 2.64 0 101.79 72.42 186.7 168.52 206-17.63 4.8-36.19 7.37-55.35 7.37-13.54 0-26.7-1.32-39.53-3.77 26.74 83.46 104.32 144.21 196.25 145.9-71.9 56.35-162.49 89.93-260.92 89.93-16.96 0-33.68-0.99-50.12-2.94 92.97 59.61 203.4 94.39 322.04 94.39 386.42 0 597.74-320.12 597.74-597.74 0-9.11-0.21-18.17-0.61-27.18 41.06-29.62 76.67-66.62 104.84-108.75z"/></symbol>
<symbol id="v-wordpress" viewBox="0 0 1024 1024"><path class="path1" d="M128 511.99c0 148.03 88.32 275.97 216.43 336.58l-183.18-488.78c-21.31 46.51-33.25 97.98-33.25 152.21zM771.23 493.13c0-46.23-17.05-78.24-31.65-103.14-19.46-30.82-37.72-56.89-37.72-87.72 0-34.37 26.77-66.38 64.49-66.38 1.7 0 3.32 0.2 4.98 0.3-68.32-60.97-159.34-98.2-259.31-98.2-134.16 0-252.19 67.05-320.84 168.57 9.01 0.28 17.51 0.45 24.71 0.45 40.15 0 102.34-4.75 102.34-4.75 20.69-1.18 23.13 28.43 2.46 30.82 0 0-20.81 2.37-43.95 3.55l139.83 405.11 84.04-245.46-59.82-159.65c-20.69-1.18-40.28-3.55-40.28-3.55-20.7-1.19-18.27-32 2.44-30.82 0 0 63.4 4.75 101.13 4.75 40.15 0 102.35-4.75 102.35-4.75 20.7-1.18 23.14 28.43 2.45 30.82 0 0-20.83 2.37-43.95 3.55l138.78 402.02 38.31-124.63c16.58-51.75 29.22-88.9 29.22-120.9zM518.74 544.7l-115.23 326.06c34.42 9.86 70.79 15.24 108.49 15.24 44.72 0 87.6-7.52 127.52-21.2-1.02-1.6-1.97-3.3-2.75-5.15l-118.03-314.94zM848.96 332.57c1.65 11.91 2.59 24.69 2.59 38.46 0 37.93-7.29 80.6-29.2 133.95l-117.29 330.27c114.16-64.83 190.94-185.29 190.94-323.26 0-65.03-17.06-126.16-47.04-179.42zM512 0c-282.77 0-512 229.23-512 512s229.23 512 512 512 512-229.23 512-512-229.23-512-512-512zM512 960c-247.42 0-448-200.58-448-448s200.58-448 448-448 448 200.58 448 448-200.58 448-448 448z"/></symbol>
<symbol id="v-warning" viewBox="0 0 1024 1024"><path class="path1" d="M512 92.77l429.1 855.23h-858.21l429.1-855.23zM512 0c-22.07 0-44.14 14.88-60.88 44.65l-437.07 871.11c-33.49 59.53-5 108.24 63.3 108.24h869.31c68.3 0 96.79-48.71 63.3-108.24h0l-437.07-871.11c-16.74-29.77-38.81-44.65-60.88-44.65v0z"/><path class="path2" d="M576 832c0 35.35-28.65 64-64 64s-64-28.65-64-64c0-35.35 28.65-64 64-64s64 28.65 64 64z"/><path class="path3" d="M512 704c-35.35 0-64-28.65-64-64v-192c0-35.35 28.65-64 64-64s64 28.65 64 64v192c0 35.35-28.65 64-64 64z"/></symbol>
<symbol id="logo-shadow" viewBox="0 0 47.67 47.67"><circle cx="23.835" cy="23.835" r="21.345" fill="#EFC204" filter="url(#a)"/><circle cx="23.833" cy="23.913" r="21.248" fill="#EFC208"/><circle cx="23.831" cy="23.992" r="21.15" fill="#EFC20C"/><circle cx="23.828" cy="24.07" r="21.052" fill="#F0C20F"/><ellipse cx="23.826" cy="24.149" fill="#F0C312" transform="translate(-.053 .052)" rx="20.955" ry="20.949"/><ellipse cx="23.824" cy="24.227" fill="#F0C314" transform="translate(-.053 .052)" rx="20.857" ry="20.85"/><ellipse cx="23.821" cy="24.306" fill="#F0C317" transform="translate(-.053 .052)" rx="20.76" ry="20.751"/><ellipse cx="23.819" cy="24.384" fill="#F0C319" transform="translate(-.053 .052)" rx="20.662" ry="20.652"/><ellipse cx="23.817" cy="24.462" fill="#F0C41B" transform="translate(-.053 .052)" rx="20.564" ry="20.553"/><ellipse cx="23.815" cy="24.541" fill="#F0C41D" transform="translate(-.053 .052)" rx="20.467" ry="20.454"/><ellipse cx="23.812" cy="24.619" fill="#F0C41F" transform="translate(-.053 .052)" rx="20.369" ry="20.355"/><ellipse cx="23.81" cy="24.698" fill="#F0C521" transform="translate(-.054 .052)" rx="20.271" ry="20.256"/><ellipse cx="23.808" cy="24.776" fill="#F1C522" transform="translate(-.054 .052)" rx="20.174" ry="20.157"/><ellipse cx="23.806" cy="24.854" fill="#F1C524" transform="translate(-.054 .052)" rx="20.076" ry="20.058"/><ellipse cx="23.803" cy="24.933" fill="#F1C526" transform="translate(-.054 .052)" rx="19.979" ry="19.959"/><ellipse cx="23.801" cy="25.011" fill="#F1C627" transform="translate(-.054 .052)" rx="19.881" ry="19.86"/><ellipse cx="23.799" cy="25.09" fill="#F1C629" transform="translate(-.054 .05)" rx="19.783" ry="19.761"/><ellipse cx="23.796" cy="25.168" fill="#F1C62A" transform="translate(-.054 .05)" rx="19.686" ry="19.662"/><ellipse cx="23.794" cy="25.247" fill="#F1C62C" transform="translate(-.054 .05)" rx="19.588" ry="19.563"/><ellipse cx="23.792" cy="25.325" fill="#F1C72D" transform="translate(-.055 .05)" rx="19.491" ry="19.464"/><ellipse cx="23.79" cy="25.403" fill="#F1C72E" transform="translate(-.055 .05)" rx="19.393" ry="19.366"/><ellipse cx="23.787" cy="25.482" fill="#F2C730" transform="translate(-.055 .05)" rx="19.295" ry="19.267"/><ellipse cx="23.785" cy="25.56" fill="#F2C831" transform="translate(-.055 .05)" rx="19.198" ry="19.168"/><ellipse cx="23.783" cy="25.639" fill="#F2C833" transform="translate(-.055 .05)" rx="19.1" ry="19.069"/><ellipse cx="23.781" cy="25.717" fill="#F2C834" transform="translate(-.055 .05)" rx="19.002" ry="18.97"/><ellipse cx="23.778" cy="25.796" fill="#F2C835" transform="translate(-.055 .05)" rx="18.905" ry="18.871"/><ellipse cx="23.776" cy="25.874" fill="#F2C936" transform="translate(-.055 .05)" rx="18.807" ry="18.772"/><ellipse cx="23.774" cy="25.952" fill="#F2C938" transform="translate(-.055 .05)" rx="18.71" ry="18.673"/><ellipse cx="23.771" cy="26.031" fill="#F2C939" transform="translate(-.056 .05)" rx="18.612" ry="18.574"/><ellipse cx="23.769" cy="26.109" fill="#F2CA3A" transform="translate(-.056 .05)" rx="18.514" ry="18.475"/><ellipse cx="23.767" cy="26.188" fill="#F3CA3C" transform="translate(-.056 .05)" rx="18.417" ry="18.376"/><ellipse cx="23.765" cy="26.266" fill="#F3CA3D" transform="translate(-.056 .05)" rx="18.319" ry="18.277"/><ellipse cx="23.762" cy="26.344" fill="#F3CA3E" transform="translate(-.056 .05)" rx="18.221" ry="18.178"/><ellipse cx="23.76" cy="26.423" fill="#F3CB3F" transform="translate(-.056 .05)" rx="18.124" ry="18.079"/><ellipse cx="23.758" cy="26.501" fill="#F3CB40" transform="translate(-.056 .05)" rx="18.026" ry="17.98"/><ellipse cx="23.756" cy="26.58" fill="#F3CB42" transform="translate(-.056 .05)" rx="17.929" ry="17.881"/><ellipse cx="23.753" cy="26.658" fill="#F3CB43" transform="translate(-.056 .05)" rx="17.831" ry="17.782"/><ellipse cx="23.751" cy="26.737" fill="#F3CC44" transform="translate(-.056 .05)" rx="17.733" ry="17.683"/><ellipse cx="23.749" cy="26.815" fill="#F3CC45" transform="translate(-.057 .05)" rx="17.636" ry="17.584"/><ellipse cx="23.746" cy="26.893" fill="#F3CC47" transform="translate(-.057 .05)" rx="17.538" ry="17.485"/><ellipse cx="23.744" cy="26.972" fill="#F4CD48" transform="translate(-.057 .05)" rx="17.441" ry="17.386"/><ellipse cx="23.742" cy="27.05" fill="#F4CD49" transform="translate(-.057 .05)" rx="17.343" ry="17.287"/><ellipse cx="23.74" cy="27.129" fill="#F4CD4A" transform="translate(-.057 .05)" rx="17.245" ry="17.188"/><ellipse cx="23.737" cy="27.207" fill="#F4CD4B" transform="translate(-.057 .05)" rx="17.148" ry="17.089"/><ellipse cx="23.735" cy="27.286" fill="#F4CE4D" transform="translate(-.057 .05)" rx="17.05" ry="16.99"/><ellipse cx="23.733" cy="27.364" fill="#F4CE4E" transform="translate(-.057 .05)" rx="16.952" ry="16.891"/><ellipse cx="23.731" cy="27.442" fill="#F4CE4F" transform="translate(-.057 .05)" rx="16.855" ry="16.792"/><ellipse cx="23.728" cy="27.521" fill="#F4CF50" transform="translate(-.057 .05)" rx="16.757" ry="16.693"/><ellipse cx="23.726" cy="27.599" fill="#F4CF51" transform="translate(-.057 .05)" rx="16.66" ry="16.594"/><ellipse cx="23.724" cy="27.678" fill="#F4CF52" transform="translate(-.058 .05)" rx="16.562" ry="16.496"/><ellipse cx="23.721" cy="27.756" fill="#F5CF53" transform="translate(-.058 .05)" rx="16.464" ry="16.397"/><ellipse cx="23.719" cy="27.834" fill="#F5D055" transform="translate(-.058 .05)" rx="16.367" ry="16.298"/><ellipse cx="23.717" cy="27.913" fill="#F5D056" transform="translate(-.058 .05)" rx="16.269" ry="16.199"/><ellipse cx="23.715" cy="27.991" fill="#F5D057" transform="translate(-.058 .05)" rx="16.172" ry="16.1"/><ellipse cx="23.712" cy="28.07" fill="#F5D158" transform="translate(-.058 .05)" rx="16.074" ry="16.001"/><ellipse cx="23.71" cy="28.148" fill="#F5D159" transform="translate(-.058 .05)" rx="15.976" ry="15.902"/><ellipse cx="23.708" cy="28.227" fill="#F5D15A" transform="translate(-.058 .05)" rx="15.879" ry="15.803"/><ellipse cx="23.706" cy="28.305" fill="#F5D15B" transform="translate(-.058 .05)" rx="15.781" ry="15.704"/><ellipse cx="23.703" cy="28.383" fill="#F5D25C" transform="translate(-.058 .05)" rx="15.683" ry="15.605"/><ellipse cx="23.701" cy="28.462" fill="#F5D25D" transform="translate(-.058 .05)" rx="15.586" ry="15.506"/><ellipse cx="23.699" cy="28.54" fill="#F5D25F" transform="translate(-.058 .05)" rx="15.488" ry="15.407"/><ellipse cx="23.697" cy="28.619" fill="#F6D360" transform="translate(-.058 .048)" rx="15.391" ry="15.308"/><ellipse cx="23.694" cy="28.697" fill="#F6D361" transform="translate(-.058 .048)" rx="15.293" ry="15.209"/><ellipse cx="23.692" cy="28.775" fill="#F6D362" transform="translate(-.058 .048)" rx="15.195" ry="15.11"/><ellipse cx="23.69" cy="28.854" fill="#F6D363" transform="translate(-.06 .048)" rx="15.098" ry="15.011"/><ellipse cx="23.687" cy="28.932" fill="#F6D464" transform="translate(-.06 .048)" rx="15" ry="14.912"/><ellipse cx="23.685" cy="29.011" fill="#F6D465" transform="translate(-.06 .048)" rx="14.903" ry="14.813"/><ellipse cx="23.683" cy="29.089" fill="#F6D466" transform="translate(-.06 .048)" rx="14.805" ry="14.714"/><ellipse cx="23.681" cy="29.168" fill="#F6D567" transform="translate(-.06 .048)" rx="14.707" ry="14.615"/><ellipse cx="23.678" cy="29.246" fill="#F6D568" transform="translate(-.06 .048)" rx="14.61" ry="14.516"/><ellipse cx="23.676" cy="29.324" fill="#F6D569" transform="translate(-.06 .048)" rx="14.512" ry="14.417"/><ellipse cx="23.674" cy="29.403" fill="#F7D66A" transform="translate(-.06 .048)" rx="14.414" ry="14.318"/><ellipse cx="23.672" cy="29.481" fill="#F7D66B" transform="translate(-.06 .047)" rx="14.317" ry="14.219"/><ellipse cx="23.669" cy="29.56" fill="#F7D66C" transform="translate(-.06 .047)" rx="14.219" ry="14.12"/><ellipse cx="23.667" cy="29.638" fill="#F7D66D" transform="translate(-.06 .047)" rx="14.122" ry="14.021"/><ellipse cx="23.665" cy="29.717" fill="#F7D76E" transform="translate(-.06 .047)" rx="14.024" ry="13.922"/><ellipse cx="23.662" cy="29.795" fill="#F7D76F" transform="translate(-.06 .047)" rx="13.926" ry="13.823"/><ellipse cx="23.66" cy="29.873" fill="#F7D770" transform="translate(-.06 .047)" rx="13.829" ry="13.724"/><ellipse cx="23.658" cy="29.952" fill="#F7D871" transform="translate(-.06 .047)" rx="13.731" ry="13.625"/><ellipse cx="23.656" cy="30.03" fill="#F7D872" transform="translate(-.06 .047)" rx="13.634" ry="13.527"/><ellipse cx="23.653" cy="30.109" fill="#F7D874" transform="translate(-.06 .046)" rx="13.536" ry="13.428"/><ellipse cx="23.651" cy="30.187" fill="#F7D875" transform="translate(-.06 .046)" rx="13.438" ry="13.329"/><ellipse cx="23.649" cy="30.265" fill="#F7D976" transform="translate(-.06 .046)" rx="13.341" ry="13.23"/><ellipse cx="23.647" cy="30.344" fill="#F7D977" transform="translate(-.06 .046)" rx="13.243" ry="13.131"/><ellipse cx="23.644" cy="30.422" fill="#F8D978" transform="translate(-.06 .046)" rx="13.145" ry="13.032"/><ellipse cx="23.642" cy="30.501" fill="#F8DA79" transform="translate(-.06 .046)" rx="13.048" ry="12.933"/><ellipse cx="23.64" cy="30.579" fill="#F8DA7A" transform="translate(-.06 .046)" rx="12.95" ry="12.834"/><ellipse cx="23.637" cy="30.658" fill="#F8DA7B" transform="translate(-.06 .046)" rx="12.853" ry="12.735"/><ellipse cx="23.635" cy="30.736" fill="#F8DA7C" transform="translate(-.06 .046)" rx="12.755" ry="12.636"/><ellipse cx="23.633" cy="30.814" fill="#F8DB7D" transform="translate(-.06 .045)" rx="12.657" ry="12.537"/><ellipse cx="23.631" cy="30.893" fill="#F8DB7E" transform="translate(-.06 .045)" rx="12.56" ry="12.438"/><ellipse cx="23.628" cy="30.971" fill="#F8DB7F" transform="translate(-.06 .045)" rx="12.462" ry="12.339"/><ellipse cx="23.626" cy="31.05" fill="#F8DC80" transform="translate(-.06 .045)" rx="12.365" ry="12.24"/><ellipse cx="23.624" cy="31.128" fill="#F8DC81" transform="translate(-.06 .045)" rx="12.267" ry="12.141"/><ellipse cx="23.622" cy="31.206" fill="#F8DC82" transform="translate(-.06 .045)" rx="12.169" ry="12.042"/><ellipse cx="23.619" cy="31.285" fill="#F8DD83" transform="translate(-.06 .045)" rx="12.072" ry="11.943"/><ellipse cx="23.617" cy="31.363" fill="#F9DD84" transform="translate(-.06 .044)" rx="11.974" ry="11.844"/><ellipse cx="23.615" cy="31.442" fill="#F9DD85" transform="translate(-.06 .044)" rx="11.876" ry="11.745"/><ellipse cx="23.612" cy="31.52" fill="#F9DD86" transform="translate(-.06 .044)" rx="11.779" ry="11.646"/><ellipse cx="23.61" cy="31.599" fill="#F9DE87" transform="translate(-.06 .044)" rx="11.681" ry="11.547"/><ellipse cx="23.608" cy="31.677" fill="#F9DE88" transform="translate(-.06 .044)" rx="11.584" ry="11.448"/><ellipse cx="23.606" cy="31.755" fill="#F9DE89" transform="translate(-.06 .044)" rx="11.486" ry="11.349"/><ellipse cx="23.603" cy="31.834" fill="#F9DF8A" transform="translate(-.06 .044)" rx="11.388" ry="11.25"/><ellipse cx="23.601" cy="31.912" fill="#F9DF8B" transform="translate(-.06 .043)" rx="11.291" ry="11.151"/><ellipse cx="23.599" cy="31.991" fill="#F9DF8C" transform="translate(-.06 .043)" rx="11.193" ry="11.052"/><ellipse cx="23.597" cy="32.069" fill="#F9DF8D" transform="translate(-.06 .043)" rx="11.096" ry="10.953"/><ellipse cx="23.594" cy="32.148" fill="#F9E08E" transform="translate(-.058 .043)" rx="10.998" ry="10.854"/><ellipse cx="23.592" cy="32.226" fill="#F9E08E" transform="translate(-.058 .043)" rx="10.9" ry="10.755"/><ellipse cx="23.59" cy="32.304" fill="#F9E08F" transform="translate(-.058 .043)" rx="10.803" ry="10.657"/><ellipse cx="23.587" cy="32.383" fill="#FAE190" transform="translate(-.058 .042)" rx="10.705" ry="10.558"/><ellipse cx="23.585" cy="32.461" fill="#FAE191" transform="translate(-.058 .042)" rx="10.607" ry="10.459"/><ellipse cx="23.583" cy="32.54" fill="#FAE192" transform="translate(-.058 .042)" rx="10.51" ry="10.36"/><ellipse cx="23.581" cy="32.618" fill="#FAE193" transform="translate(-.058 .042)" rx="10.412" ry="10.261"/><ellipse cx="23.578" cy="32.696" fill="#FAE294" transform="translate(-.058 .042)" rx="10.315" ry="10.162"/><ellipse cx="23.576" cy="32.775" fill="#FAE295" transform="translate(-.058 .042)" rx="10.217" ry="10.063"/><ellipse cx="23.574" cy="32.853" fill="#FAE296" transform="translate(-.058 .04)" rx="10.119" ry="9.964"/><ellipse cx="23.572" cy="32.932" fill="#FAE397" transform="translate(-.057 .04)" rx="10.022" ry="9.865"/><ellipse cx="23.569" cy="33.01" fill="#FAE398" transform="translate(-.057 .04)" rx="9.924" ry="9.766"/><ellipse cx="23.567" cy="33.089" fill="#FAE399" transform="translate(-.057 .04)" rx="9.827" ry="9.667"/><ellipse cx="23.565" cy="33.167" fill="#FAE39A" transform="translate(-.057 .04)" rx="9.729" ry="9.568"/><ellipse cx="23.562" cy="33.245" fill="#FAE49B" transform="translate(-.057 .04)" rx="9.631" ry="9.469"/><ellipse cx="23.56" cy="33.324" fill="#FBE49C" transform="translate(-.057 .04)" rx="9.534" ry="9.37"/><ellipse cx="23.558" cy="33.402" fill="#FBE49D" transform="translate(-.056 .04)" rx="9.436" ry="9.271"/><ellipse cx="23.556" cy="33.481" fill="#FBE59D" transform="translate(-.056 .04)" rx="9.338" ry="9.172"/><ellipse cx="23.553" cy="33.559" fill="#FBE59E" transform="translate(-.056 .04)" rx="9.241" ry="9.073"/><ellipse cx="23.551" cy="33.638" fill="#FBE59F" transform="translate(-.056 .04)" rx="9.143" ry="8.974"/><ellipse cx="23.549" cy="33.716" fill="#FBE6A0" transform="translate(-.056 .04)" rx="9.046" ry="8.875"/><ellipse cx="23.547" cy="33.794" fill="#FBE6A1" transform="translate(-.055 .04)" rx="8.948" ry="8.776"/><ellipse cx="23.544" cy="33.873" fill="#FBE6A2" transform="translate(-.055 .038)" rx="8.85" ry="8.677"/><ellipse cx="23.542" cy="33.951" fill="#FBE6A3" transform="translate(-.055 .038)" rx="8.753" ry="8.578"/><ellipse cx="23.54" cy="34.03" fill="#FBE7A4" transform="translate(-.055 .038)" rx="8.655" ry="8.479"/><ellipse cx="23.538" cy="34.108" fill="#FBE7A5" transform="translate(-.054 .038)" rx="8.557" ry="8.38"/><ellipse cx="23.535" cy="34.186" fill="#FBE7A6" transform="translate(-.054 .037)" rx="8.46" ry="8.281"/><ellipse cx="23.533" cy="34.265" fill="#FCE8A7" transform="translate(-.054 .037)" rx="8.362" ry="8.182"/><ellipse cx="23.531" cy="34.343" fill="#FCE8A8" transform="translate(-.054 .037)" rx="8.265" ry="8.083"/><ellipse cx="23.528" cy="34.422" fill="#FCE8A9" transform="translate(-.053 .036)" rx="8.167" ry="7.984"/><ellipse cx="23.526" cy="34.5" fill="#FCE9A9" transform="translate(-.053 .036)" rx="8.069" ry="7.885"/><ellipse cx="23.524" cy="34.579" fill="#FCE9AA" transform="translate(-.053 .036)" rx="7.972" ry="7.787"/><ellipse cx="23.522" cy="34.657" fill="#FCE9AB" transform="translate(-.052 .036)" rx="7.874" ry="7.688"/><ellipse cx="23.519" cy="34.735" fill="#FCE9AC" transform="translate(-.052 .035)" rx="7.777" ry="7.589"/><ellipse cx="23.517" cy="34.814" fill="#FCEAAD" transform="translate(-.052 .035)" rx="7.679" ry="7.49"/><ellipse cx="23.515" cy="34.892" fill="#FCEAAE" transform="translate(-.05 .035)" rx="7.581" ry="7.391"/><ellipse cx="23.513" cy="34.971" fill="#FCEAAF" transform="translate(-.05 .034)" rx="7.484" ry="7.292"/><ellipse cx="23.51" cy="35.049" fill="#FCEBB0" transform="translate(-.05 .034)" rx="7.386" ry="7.193"/><ellipse cx="23.508" cy="35.127" fill="#FCEBB1" transform="translate(-.05 .034)" rx="7.288" ry="7.094"/><ellipse cx="23.506" cy="35.206" fill="#FCEBB2" transform="translate(-.05 .033)" rx="7.191" ry="6.995"/><ellipse cx="23.503" cy="35.284" fill="#FDECB3" transform="translate(-.05 .033)" rx="7.093" ry="6.896"/><ellipse cx="23.501" cy="35.363" fill="#FDECB3" transform="translate(-.05 .032)" rx="6.996" ry="6.797"/><ellipse cx="23.499" cy="35.441" fill="#FDECB4" transform="translate(-.048 .032)" rx="6.898" ry="6.698"/><ellipse cx="23.497" cy="35.52" fill="#FDECB5" transform="translate(-.048 .032)" rx="6.8" ry="6.599"/><ellipse cx="23.494" cy="35.598" fill="#FDEDB6" transform="translate(-.047 .03)" rx="6.703" ry="6.5"/><ellipse cx="23.492" cy="35.676" fill="#FDEDB7" transform="translate(-.046 .03)" rx="6.605" ry="6.401"/><ellipse cx="23.49" cy="35.755" fill="#FDEDB8" transform="translate(-.046 .03)" rx="6.508" ry="6.302"/><ellipse cx="23.488" cy="35.833" fill="#FDEEB9" transform="translate(-.045 .03)" rx="6.41" ry="6.203"/><ellipse cx="23.485" cy="35.912" fill="#FDEEBA" transform="translate(-.045 .03)" rx="6.312" ry="6.104"/><ellipse cx="23.483" cy="35.99" fill="#FDEEBB" transform="translate(-.044 .03)" rx="6.215" ry="6.005"/><ellipse cx="23.481" cy="36.069" fill="#FDEEBB" transform="translate(-.043 .028)" rx="6.117" ry="5.906"/><ellipse cx="23.478" cy="36.147" fill="#FDEFBC" transform="translate(-.043 .028)" rx="6.019" ry="5.807"/><ellipse cx="23.476" cy="36.225" fill="#FDEFBD" transform="translate(-.042 .027)" rx="5.922" ry="5.708"/><ellipse cx="23.474" cy="36.304" fill="#FEEFBE" transform="translate(-.04 .027)" rx="5.824" ry="5.609"/><ellipse cx="23.472" cy="36.382" fill="#FEF0BF" transform="translate(-.04 .026)" rx="5.727" ry="5.51"/><ellipse cx="23.469" cy="36.461" fill="#FEF0C0" transform="translate(-.04 .025)" rx="5.629" ry="5.411"/><ellipse cx="23.467" cy="36.539" fill="#FEF0C1" transform="translate(-.038 .025)" rx="5.531" ry="5.312"/><ellipse cx="23.465" cy="36.617" fill="#FEF1C2" transform="translate(-.037 .024)" rx="5.434" ry="5.213"/><ellipse cx="23.463" cy="36.696" fill="#FEF1C2" transform="translate(-.037 .023)" rx="5.336" ry="5.114"/><ellipse cx="23.46" cy="36.774" fill="#FEF1C3" transform="translate(-.035 .023)" rx="5.239" ry="5.015"/><ellipse cx="23.458" cy="36.853" fill="#FEF1C4" rx="5.141" ry="4.917"/><ellipse cx="23.456" cy="36.931" fill="#FEF2C5" rx="5.043" ry="4.818"/><ellipse cx="23.453" cy="37.01" fill="#FEF2C6" rx="4.946" ry="4.719"/><ellipse cx="23.451" cy="37.088" fill="#FEF2C7" rx="4.848" ry="4.62"/><ellipse cx="23.449" cy="37.166" fill="#FEF3C8" rx="4.75" ry="4.521"/><ellipse cx="23.447" cy="37.245" fill="#FEF3C9" rx="4.653" ry="4.422"/><ellipse cx="23.444" cy="37.323" fill="#FFF3C9" rx="4.555" ry="4.323"/><ellipse cx="23.442" cy="37.402" fill="#FFF4CA" rx="4.458" ry="4.224"/><ellipse cx="23.44" cy="37.48" fill="#FFF4CB" rx="4.36" ry="4.125"/><ellipse cx="23.438" cy="37.559" fill="#FFF4CC" rx="4.262" ry="4.026"/><ellipse cx="23.435" cy="37.637" fill="#FFF4CD" rx="4.165" ry="3.927"/><ellipse cx="23.433" cy="37.715" fill="#FFF5CE" rx="4.067" ry="3.828"/><ellipse cx="23.431" cy="37.794" fill="#FFF5CF" rx="3.97" ry="3.729"/><ellipse cx="23.428" cy="37.872" fill="#FFF5D0" rx="3.872" ry="3.63"/><ellipse cx="23.426" cy="37.951" fill="#FFF6D0" rx="3.774" ry="3.531"/><ellipse cx="23.424" cy="38.029" fill="#FFF6D1" rx="3.677" ry="3.432"/><ellipse cx="23.422" cy="38.107" fill="#FFF6D2" rx="3.579" ry="3.333"/><ellipse cx="23.419" cy="38.186" fill="#FFF7D3" rx="3.481" ry="3.234"/><ellipse cx="23.417" cy="38.264" fill="#FFF7D4" rx="3.384" ry="3.135"/><ellipse cx="23.415" cy="38.343" fill="#FFF7D5" rx="3.286" ry="3.036"/><ellipse cx="23.986" cy="17.178" fill="url(#b)" rx="17.359" ry="13.708"/><circle cx="23.675" cy="23.605" r="14.336" fill="#FFF"/><path fill="#9F4978" d="M26.952 28.13c-.942-.942-1.833-1.854-2.776-2.798-.165-.164-.507-.542-.562-.54-.055-.002-.398.376-.562.54-.943.944-1.833 1.856-2.776 2.798-.77.77-1.705 1.482-1.696 2.97.012 1.984 2.193 3.7 4.31 2.658.1-.05.24-.124.39-.227.09-.06.308-.254.334-.255.026 0 .244.197.335.26.145.102.285.177.385.226 2.117 1.04 4.298-.674 4.31-2.657.01-1.488-.926-2.2-1.696-2.97zm.442-8.59c-.942.942-1.833 1.854-2.776 2.798-.165.164-.507.542-.562.54-.055.002-.398-.376-.562-.54-.943-.944-1.833-1.856-2.776-2.798-.77-.77-1.705-1.482-1.696-2.97.012-1.984 2.193-3.7 4.31-2.658.1.05.24.124.39.227.09.06.308.254.334.255.026 0 .244-.197.335-.26.15-.102.29-.177.39-.226 2.12-1.04 4.3.674 4.31 2.657.01 1.488-.924 2.2-1.693 2.97zm-8.074 7.633c.94-.942 1.853-1.833 2.797-2.776.164-.165.542-.507.54-.562.002-.055-.376-.398-.54-.562-.944-.943-1.856-1.833-2.798-2.776-.77-.77-1.486-1.705-2.975-1.696-1.983.016-3.698 2.197-2.657 4.31.05.1.124.24.227.39.063.09.258.31.26.338-.002.026-.198.244-.26.335-.103.15-.178.29-.227.39-1.04 2.117.676 4.298 2.66 4.31 1.49.01 2.2-.927 2.97-1.696zm9.03 0c-.94-.942-1.853-1.833-2.797-2.776-.164-.165-.542-.507-.54-.562-.002-.055.376-.398.54-.562.944-.943 1.856-1.833 2.798-2.776.77-.77 1.486-1.705 2.975-1.696 1.983.016 3.698 2.197 2.657 4.31-.05.1-.124.24-.227.39-.063.09-.258.31-.26.338.002.026.198.244.26.335.103.15.178.29.227.39 1.04 2.117-.676 4.298-2.66 4.31-1.49.01-2.2-.927-2.97-1.696z"/></symbol>
<filter id="a" height="130%"><feGaussianBlur in="SourceAlpha" stdDeviation="1"/><feOffset dx="2" dy="2" result="offsetblur"/><feComponentTransfer><feFuncA type="linear" slope=".5"/></feComponentTransfer><feMerge><feMergeNode/><feMergeNode in="SourceGraphic"/></feMerge></filter>
<linearGradient id="b" x1="23.986" x2="23.986" y1="30.885" y2="3.47" gradientUnits="userSpaceOnUse"><stop offset="0" stop-color="#FFD936"/><stop offset="1" stop-color="#FFF"/></linearGradient>
</svg>

