<svg xmlns="http://www.w3.org/2000/svg" viewBox="0 0 100 100">


<symbol id="emblem" viewBox="18.6 15.9 790.6 922.4"><path fill="#FFB000" d="M754.4 615.6c-3.5 12.6-8.2 25.3-13.1 37.4-5.2 12.1-11.2 24.1-17.6 35.7-13.1 22.8-29.2 44.4-48.9 61.7-19.5 17.6-42.6 31-67.9 37.9-25.1 6.9-51.8 7.4-77.6 3l-1.5 8.7c26.7 4.2 54.8 3.3 81-4.4s50.3-22.1 70.2-40.4c20-18.6 35.9-40.4 49.1-64 6.4-11.6 12.4-24.1 17.4-36.4 4.9-12.4 9.4-25.1 12.9-38.2l-4-1z"/><path fill="#FFC923" d="M774.3 549.6l-24.6 88.7c13.9-8.9 24.3-22.6 29-39.7 4.7-17 2.8-34-4.4-49z"/><path fill="#FFDF65" d="M745 589.3c-4.7 17.1-2.8 34.2 4.4 48.9l24.6-88.7c-13.6 9-24.2 22.9-29 39.8z"/><path fill="#FFC923" d="M773.3 708.6l-85 34.9c15.4 5.4 33 5.4 49.1-1.5 16.5-6.4 28.7-18.8 35.9-33.4z"/><path fill="#FFDF65" d="M724.2 710c-16.4 6.7-28.7 18.9-35.7 33.8l85-34.9c-15.5-5.8-32.9-5.8-49.3 1.1z"/><path fill="#FFC923" d="M675.2 819.9l-89.5-20.8c9.4 13.4 23.6 23.3 40.9 27.2 17.1 4.2 34.2 1.5 48.6-6.4z"/><path fill="#FFDF65" d="M634.2 792.6c-17.1-3.9-34.4-1.3-48.6 6.7l89.5 20.8c-9.4-13.6-23.5-23.6-40.9-27.5z"/><path fill="#FFC923" d="M690.8 676.6l-29.5 87.1c14.4-8.2 25.8-21.3 31.2-37.9 5.7-17 4.5-34.3-1.7-49.2z"/><path fill="#FFDF65" d="M659.5 714.5c-5.7 16.9-4.4 34.2 1.8 49.1l29.5-87.3c-14.2 8.2-25.6 21.3-31.3 38.2z"/><path fill="#FFB000" d="M721 617.8l-9.2 91.5c11.9-11.2 20-26.6 21.8-44.1 2-17.3-3-34-12.6-47.4z"/><path fill="#FFC923" d="M699.2 662c-1.8 17.6 3.3 34.2 12.9 47.4l9.2-91.5c-12.2 11.1-20.4 26.4-22.1 44.1z"/><path fill="#FFB000" d="M647.1 713.3l-46.9 79.1c15.6-4.9 29.5-15.6 38.4-30.7 9.2-14.9 11.8-32.3 8.5-48.4z"/><path fill="#FFC923" d="M608.7 744c-8.9 15.1-11.4 32.5-8.4 48.6l46.9-79.1c-15.7 4.9-29.6 15.4-38.5 30.5z"/><path fill="#FFB000" d="M732.9 773.5l-91.7 6.9c12.9 9.9 29.5 15.4 47.1 13.9 17.9-1.3 33.2-9.1 44.6-20.8z"/><path fill="#FFC923" d="M685.8 759.6c-17.6 1.5-33.3 9.2-44.4 20.8l91.7-6.9c-13.3-10-29.7-15.4-47.3-13.9z"/><path fill="#FFB000" d="M804.1 629.2l-72.8 56.1c16.4 1.3 33-3.5 47.1-14.1s22.7-25.9 25.7-42z"/><path fill="#FFC923" d="M756.9 643.3c-14.1 10.7-22.8 25.8-25.8 41.8l72.8-56.1c-16.2-.8-32.8 3.7-47 14.3z"/><path fill="#FFB000" d="M73.3 615.6c3.5 12.6 8.2 25.3 13.1 37.4 5.2 12.1 11.2 24.1 17.6 35.7 13.1 22.8 29.2 44.4 48.9 61.7 19.5 17.6 42.6 31 67.9 37.9 25.1 6.9 51.8 7.4 77.6 3l1.5 8.7c-26.7 4.2-54.8 3.3-81-4.4s-50.3-22.1-70.2-40.4c-20-18.6-35.9-40.4-49.1-64-6.4-11.6-12.4-24.1-17.4-36.4-4.9-12.3-9.4-25.1-12.9-38.2l4-1z"/><path fill="#FFC923" d="M53.7 549.6l24.6 88.7c-13.9-8.9-24.3-22.6-29-39.7-4.7-17-2.8-34 4.4-49z"/><path fill="#FFDF65" d="M83 589.3c4.7 17.1 2.8 34.2-4.4 48.9L54 549.5c13.6 9 24 22.9 29 39.8z"/><path fill="#FFC923" d="M54.4 708.6l85 34.9c-15.4 5.4-33 5.4-49.1-1.5-16.2-6.4-28.7-18.8-35.9-33.4z"/><path fill="#FFDF65" d="M103.8 710c16.4 6.7 28.7 18.9 35.7 33.8l-85.1-35.2c15.4-5.5 33-5.5 49.4 1.4z"/><path fill="#FFC923" d="M152.6 819.9l89.5-20.8c-9.4 13.4-23.6 23.3-40.9 27.2-17.1 4.2-34.3 1.5-48.6-6.4z"/><path fill="#FFDF65" d="M193.5 792.6c17.1-3.9 34.4-1.3 48.9 6.7l-89.7 20.8c9.6-13.6 23.7-23.6 40.8-27.5z"/><path fill="#FFC923" d="M137.2 676.6l29.5 87.3c-14.4-8.2-25.8-21.3-31.2-37.9-6-17.2-4.7-34.5 1.7-49.4z"/><path fill="#FFDF65" d="M168.4 714.5c5.7 16.9 4.4 34.2-1.8 49.1l-29.5-87.3c14.3 8.2 25.7 21.3 31.3 38.2z"/><path fill="#FFB000" d="M106.7 617.8l9.2 91.5c-11.9-11.2-20-26.6-21.8-44.1-1.8-17.3 3.3-34 12.6-47.4z"/><path fill="#FFC923" d="M128.8 662c1.8 17.6-3.3 34.2-12.9 47.4l-9.2-91.5c12.2 11.1 20.4 26.4 22.1 44.1z"/><path fill="#FFB000" d="M180.9 713.3l46.9 79.1c-15.6-4.9-29.5-15.6-38.4-30.7-9.3-14.9-11.8-32.3-8.5-48.4z"/><path fill="#FFC923" d="M219.3 744c8.9 15.1 11.4 32.5 8.4 48.6l-46.8-79.1c15.6 4.9 29.2 15.4 38.4 30.5z"/><path fill="#FFB000" d="M95.1 773.5l91.7 6.9c-12.9 9.9-29.5 15.4-47.1 13.9-17.9-1.3-33.5-9.1-44.6-20.8z"/><path fill="#FFC923" d="M142.2 759.6c17.6 1.5 33.3 9.2 44.4 20.8l-91.7-6.9c13.1-10 29.7-15.4 47.3-13.9z"/><path fill="#FFB000" d="M23.7 629.2l72.8 56.1c-16.4 1.3-33-3.5-47.1-14.1-13.8-10.7-22.5-25.9-25.7-42z"/><path fill="#FFC923" d="M70.8 643.3c14.1 10.7 22.8 25.8 25.8 41.8L23.8 629c16.2-.8 33.1 3.7 47 14.3z"/><path fill="#DC3F16" d="M688 620.5c-51.5 0-102.2-11.9-147.5-34.4l-34.9 85c45.4 22.8 95.9 34.7 147.5 34.4-3.5-14.1-6.7-28.7-9.9-43.6 14.8-13.4 29.7-27.3 44.8-41.4z"/><path fill="#931700" d="M578.2 588.3c-22.8 0-37.7-2.3-37.7-2.3l-34.9 85s14.4 3.8 40.2 3c25.8-.8 38.9-5.9 38.9-5.9l34.9-83.3c0-.2-18.4 3.2-41.4 3.5z"/><path fill="#DC3F16" d="M140 620.5c51.5 0 102.2-11.9 147.5-34.4l34.9 85c-45.4 22.8-95.6 34.7-147.5 34.4 3.5-14.1 6.7-28.7 9.9-43.6-14.9-13.4-29.7-27.3-44.8-41.4z"/><path fill="#931700" d="M249.8 588.3c22.8 0 37.7-2.3 37.7-2.3l34.9 85s-14.4 3.8-40.2 3-39.7-5.9-39.7-5.9l-34.9-83.5s18.9 3.4 42.2 3.7z"/><path fill="#FF5418" d="M413.4 508.3c-75.1-.3-149.7 28.2-206 76.6 11.6 27.7 23.3 55.6 34.9 83.3 45.6-42.8 108.1-68.2 171.1-67.7 63-.3 125.5 25.1 171.1 67.7 11.6-27.7 23.3-55.6 34.9-83.3-56.1-48.7-130.7-76.9-206-76.6z"/><path fill="#931700" d="M538.8 533.1s19.5 4.9 54.3 3.9c34.7-1.3 52.8-8.2 52.8-8.2-24.3-22.8-52-41.8-82-56.8l-25.1 61.1zm-303 3.9c34.7 1.3 54.3-3.9 54.3-3.9l-25.3-61.2c-30.2 14.9-58.5 34.2-83 57.2.2-.3 19.4 6.9 54 7.9z"/><path fill="#FF5418" d="M413.9 351.1c-96.1-.5-191.6 37.2-264 101.7l32 76.4c24.6-23.1 52.5-42.3 83-57.2 46.1-22.6 97.4-34.9 148.9-34.7 51.8-.3 103.3 12.4 149.9 35.2 30 14.9 57.7 34 82 56.8l32-76.4C605.5 388.3 510 350.6 413.9 351.1z"/><path fill="#FFC923" d="M413.9 242.5c-107.8 0-186.2 32.8-189.4 34l-3.8 1.5v4.2c3 157.9 20 320.5 190.1 419.4l3 1.8 3-1.8c169.8-98.9 186.9-261.3 190.1-419.4V278l-3.8-1.5c-3-1.5-81.1-34-189.2-34z"/><path fill="#EE8610" d="M413.9 686.3C342.2 643.4 294.4 585.4 267.1 509c-24.6-69.2-30-147-31.5-221.1 19.3-7.2 87.7-30.7 178.3-30.7s159.1 23.3 178.3 30.7c-1.5 74.1-6.9 152-31.5 221.1-27.1 76.6-75.2 134.3-146.8 177.3z"/><path fill="#186E73" d="M313 561.1c24.6 40.9 58 74.6 100.9 102.2 62-39.7 104.1-92.5 128.4-160.6 22.6-63 28-133.1 30-200.6L313 561.1z"/><path fill="#2B9FA5" d="M572.2 301.8c-27.7-9.2-85.8-24.8-158.4-24.8s-130.4 15.6-158.4 24.8c2 67.4 7.4 137.8 30 200.8 7.4 21 16.6 40.4 27.5 58.5l259.3-259.3z"/><path fill="#EE8610" d="M450.5 413.3l-1.2-.8 52.3-21 14.7 6.2-41.5 29.8"/><path fill="#FFB000" d="M448.8 412.5l46.1-29 15.9 6.7-43.9 33.3"/><path fill="#EE8610" d="M444.9 410.9l44.8-34.5 14.9 6.4-46.6 35.8"/><path fill="#FFB000" d="M441.3 410.9l47.4-47.4 9.7 11.6-49.4 40.2"/><path fill="#FFC923" d="M438.9 401.7l.8 1.2 21-52.3-6.1-14.6-29.8 41.1"/><path fill="#FFDF65" d="M439.7 403.4l29-46.3-6.7-15.7-33.3 43.6"/><path fill="#FFC923" d="M441.3 407.6l34.6-45.1-6.5-14.9-35.7 46.4"/><path fill="#FFDF65" d="M441.3 410.9l47.4-47.4-11.6-9.9-40.2 49.6"/><path fill="#EE8610" d="M389.1 474.8l-.8-1.3-21 52.4 6.1 14.6 29.8-41.2"/><path fill="#FFB000" d="M388.3 473.1l-29.2 46.3L366 535l33.2-43.9"/><path fill="#EE8610" d="M386.6 468.8l-34.5 45.1 6.5 14.9 35.7-46.4"/><path fill="#FFB000" d="M386.4 465.7L339 512.9l11.9 9.7 40.2-49.3"/><path fill="#FFC923" d="M377.4 463.2l1.3.7-52.3 21.1-15-6.2 41.5-29.8"/><path fill="#FFDF65" d="M379.2 463.9l-46.4 29-15.6-6.7 43.6-33.2"/><path fill="#FFC923" d="M383.1 465.7l-44.8 34.4-14.9-6.5 46.4-35.6"/><path fill="#FFDF65" d="M386.4 465.7L339 512.9l-9.7-11.6 49.7-40.2"/><path fill="#EE8610" d="M438.9 474.8l.8-1.3 21 52.4-6.1 14.6-29.8-41.2"/><path fill="#FFB000" d="M439.7 473.1l29 46.3L462 535l-33.3-43.9"/><path fill="#EE8610" d="M441.3 468.8l34.6 45.1-6.5 14.9-35.7-46.4"/><path fill="#FFB000" d="M441.3 465.7l47.4 47.2-11.6 9.7-40.2-49.3"/><path fill="#FFC923" d="M450.5 463.2l-1.2.7 52.3 21.1 14.7-6.2-41.5-29.8"/><path fill="#FFDF65" d="M448.8 463.9l46.1 29 15.9-6.7-43.9-33.2"/><path fill="#FFC923" d="M444.6 465.7l45.1 34.4 14.9-6.5L458 458"/><path fill="#FFDF65" d="M441.3 465.7l47.4 47.2 9.7-11.6-49.4-40.2"/><path fill="#EE8610" d="M377.4 413.3l1.3-.8-52.3-21-15 6.2 41.5 29.8"/><path fill="#FFB000" d="M379.2 412.5l-46.4-29-15.6 6.7 43.6 33.3"/><path fill="#EE8610" d="M383.1 410.9l-44.8-34.5-14.9 6.4 46.4 35.8"/><path fill="#FFB000" d="M386.4 410.9L339 363.5l-9.7 11.6 49.7 40.2"/><path fill="#FFC923" d="M389.1 401.7l-.8 1.2-21-52.3 6.1-14.6 29.8 41.1"/><path fill="#FFDF65" d="M388.3 403.4l-29.2-46.3 6.9-15.7 33.2 43.6"/><path fill="#FFC923" d="M386.6 407.6l-34.5-45.1 6.5-14.9 35.7 46.4"/><path fill="#FFDF65" d="M386.4 410.9L339 363.5l11.9-9.9 40.2 49.6"/><path fill="#FFC923" d="M460.2 327.6l-8.9-15.6s-16.1 6.2-37.2 6.2c-21 0-37.2-6.2-37.2-6.2l-8.9 15.6 46.1 80 46.1-80z"/><path fill="#FF7938" d="M413.9 324.8c-14.9 0-27.2-3-34.2-4.7l-4.2 7.2 18.6 32.5 35.9-35.9c-4.5.7-10.2.9-16.1.9z"/><path fill="#FF5418" d="M452.3 327.6l-4.2-7.2c-4.2 1.3-10.2 2.8-17.6 3.8L394.6 360l19.5 34 38.2-66.4z"/><path fill="#FFC923" d="M367.8 549l8.9 15.6s16.1-6.2 37.2-6.2c21.3 0 37.2 6.2 37.2 6.2L460 549l-46.1-80-46.1 80z"/><path fill="#FF7938" d="M413.9 482.4l-38.5 66.2 4.2 7.2c3.5-1 8.7-2.3 14.6-3.3l37.9-37.9-18.2-32.2z"/><path fill="#FF5418" d="M432.8 514.9l-37.9 37.9c5.7-1 12.1-1.5 19.3-1.5 14.9 0 27.2 3 34.2 4.7l4.2-7.2-19.8-33.9z"/><path fill="#FFC923" d="M303.4 392l-15.6 8.9s6.2 16.1 6.2 37.2-6.2 37.2-6.2 37.2l15.6 8.9 80-46.1-80-46.1z"/><path fill="#FF7938" d="M303.4 399.9l-7.2 4.2c2 6.9 4.7 19.3 4.7 34.2 0 8.2-1 15.6-2 21.8l39.9-39.9-35.4-20.3z"/><path fill="#FF5418" d="M338.5 420.2l-39.9 39.9c-1 4.9-2 9.2-3 12.1l7.2 4.2 66.4-38.4-30.7-17.8z"/><path fill="#FFC923" d="M524.6 484.5l15.6-8.9s-6.2-16.1-6.2-37.2c0-21.3 6.2-37.2 6.2-37.2l-15.6-8.9-80 45.8 80 46.4z"/><path fill="#FF7938" d="M532.1 404.2l-7.2-4.2-66.4 38.4 34.2 19.8 35.7-35.7c1-8 2.5-14.1 3.7-18.3z"/><path fill="#FF5418" d="M528.1 422.2L492.4 458l32.2 18.6 7.2-4.2c-2-6.9-4.7-19.3-4.7-34.2 0-5.8.5-11.2 1-16z"/><path fill="#FFDF65" d="M413.9 505c-36.9 0-66.9-30-66.9-66.9s30-66.9 66.9-66.9 66.9 30 66.9 66.9-30 66.9-66.9 66.9z"/><circle fill="#FFC923" cx="413.9" cy="438.1" r="60.2"/><path fill="#931700" d="M375.9 476c9.7 9.7 23.1 15.9 37.9 15.9 29.5 0 53.5-24.1 53.5-53.5 0-14.9-5.9-28.2-15.9-37.9L375.9 476z"/><path fill="#DC3F16" d="M413.9 384.5c-29.5 0-53.5 24.1-53.5 53.5 0 14.9 5.9 28.2 15.9 37.9l75.8-75.8c-10-9.4-23.4-15.6-38.2-15.6z"/><path fill="#FFDF65" d="M682.9 163.7l-43.2-6.5-19.3 26.9"/><path fill="#FFB000" d="M620.4 184.1l19.3-26.9-19.3-38.9"/><path fill="#FFC923" d="M620.4 184.1l31.2 10.1 31.3-30.5"/><path fill="#FFDF65" d="M620.4 217l38.6 20.4-38.6-53.3"/><path fill="#FFB000" d="M620.4 184.1l38.6 53.3-7.4-43.2"/><path fill="#FFB000" d="M581.7 237.4l38.7-20.4v-32.9"/><path fill="#FFDF65" d="M601 157.2l-43.4 6.5 62.8 20.4"/><path fill="#FFC923" d="M620.4 184.1v-65.8L601 157.2m19.4 26.9l-62.8-20.4 31.5 30.5"/><path fill="#FFDF65" d="M620.4 184.1l-31.3 10.1-7.4 43.2m-311.6-73.7l-43.1-6.5-19.4 26.9"/><path fill="#FFB000" d="M207.6 184.1l19.4-26.9-19.4-38.9"/><path fill="#FFC923" d="M207.6 184.1l31.3 10.1 31.2-30.5"/><path fill="#FFDF65" d="M207.6 217l38.7 20.4-38.7-53.3"/><path fill="#FFB000" d="M207.6 184.1l38.7 53.3-7.4-43.2"/><path fill="#FFB000" d="M168.9 237.4l38.7-20.4v-32.9"/><path fill="#FFDF65" d="M188.3 157.2l-43.4 6.5 62.7 20.4"/><path fill="#FFC923" d="M207.6 184.1v-65.8l-19.3 38.9m19.3 26.9l-62.7-20.4 31.5 30.5"/><path fill="#FFDF65" d="M207.6 184.1l-31.2 10.1-7.5 43.2m585.3 130.3l-30.3-4.5-13.8 18.8"/><path fill="#FFB000" d="M710.1 382l13.8-18.8-13.8-27.7"/><path fill="#FFC923" d="M710.1 382l22 7.3 22.1-21.6"/><path fill="#FFDF65" d="M710.1 405.1l27.2 14.5-27.2-37.6"/><path fill="#FFB000" d="M710.1 382l27.2 37.6-5.2-30.3m-49.2 30.3l27.2-14.5V382"/><path fill="#FFDF65" d="M696.5 363.2l-30.5 4.5 44.1 14.3"/><path fill="#FFC923" d="M710.1 382v-46.5l-13.6 27.7m13.6 18.8L666 367.7l22.3 21.6"/><path fill="#FFDF65" d="M710.1 382l-21.8 7.3-5.4 30.3m-521.1-51.9l-30.5-4.5-13.6 18.8"/><path fill="#FFB000" d="M117.7 382l13.6-18.8-13.6-27.7"/><path fill="#FFC923" d="M117.7 382l22 7.3 22.1-21.6"/><path fill="#FFDF65" d="M117.7 405.1l27.2 14.5-27.2-37.6"/><path fill="#FFB000" d="M117.7 382l27.2 37.6-5.2-30.3m-49.3 30.3l27.3-14.5V382"/><path fill="#FFDF65" d="M104 363.2l-30.5 4.5 44.2 14.3"/><path fill="#FFC923" d="M117.7 382v-46.5L104 363.2m13.7 18.8l-44.2-14.3 22.1 21.6"/><path fill="#FFDF65" d="M117.7 382l-22.1 7.3-5.2 30.3"/><path fill="#FF5418" d="M413.9 83.4c-56.8 0-102.8 30.2-102.8 67.7 0 15.9 8.2 30.2 21.8 41.7l107-107.1c-8.2-1.5-16.8-2.3-26-2.3z"/><path fill="#DC3F16" d="M440.2 85.6L333.1 192.7c18.9 15.9 48.1 25.8 80.8 25.8 56.8 0 102.8-30.2 102.8-67.7 0-31.2-32.4-57.8-76.5-65.2z"/><path fill="#FFC923" d="M491.5 155.2l-3.5-44.6-2.7-34.6-42.4 74.6-29-113.3-29 113.3L342.7 76l-6.2 79.2-59.7-59.4 38.7 115.7h196.8l38.6-115.7"/><path fill="#FFDF65" d="M485.3 76l-42.4 74.6-29-113.3-29 113.3L342.7 76l-6.2 79.2-59.7-59.4 38.7 115.7h71.6L488 110.6"/><path fill="#EE8610" d="M315.5 211.5h196.8v17.9H315.5z"/><circle fill="#EE8610" cx="413.9" cy="37.3" r="15.4"/><path fill="#EE8610" d="M352.9 77.7c0 5.4-4.4 9.9-9.9 9.9-5.4 0-9.9-4.4-9.9-9.9s4.4-9.9 9.9-9.9 9.9 4.4 9.9 9.9zm-66.2 19.6c0 5.4-4.4 9.9-9.9 9.9-5.4 0-9.9-4.4-9.9-9.9 0-5.4 4.4-9.9 9.9-9.9 5.4-.1 9.9 4.4 9.9 9.9z"/><circle fill="#EE8610" cx="485" cy="77.7" r="9.9"/><path fill="#EE8610" d="M541 97.3c0 5.4 4.4 9.9 9.9 9.9s9.9-4.4 9.9-9.9c0-5.4-4.4-9.9-9.9-9.9-5.4-.1-9.9 4.4-9.9 9.9z"/><circle fill="#EE8610" cx="413.9" cy="175.1" r="24.6"/><path fill="#44CDD0" d="M413.9 156.5c-10.2 0-18.6 8.4-18.6 18.6 0 4.9 2 9.7 5.2 12.9l26.3-26.3c-3.2-3.2-7.8-5.2-12.9-5.2z"/><path fill="#2B9FA5" d="M426.7 161.7L400.5 188c3.5 3.5 8.2 5.7 13.1 5.7 10.2 0 18.6-8.4 18.6-18.6.3-5.2-1.7-9.9-5.5-13.4z"/><circle fill="#EE8610" cx="471.3" cy="181.6" r="18.1"/><path fill="#44CDD0" d="M471.3 169.1c-6.9 0-12.4 5.7-12.4 12.4 0 3.3 1.5 6.4 3.5 8.7l17.4-17.4c-1.9-2.4-5.2-3.7-8.5-3.7z"/><path fill="#2B9FA5" d="M480 172.6L462.7 190c2.3 2.3 5.4 3.8 8.9 3.8 6.9 0 12.4-5.7 12.4-12.4-.5-3.4-1.7-6.5-4-8.8z"/><circle fill="#EE8610" cx="356.7" cy="181.6" r="18.1"/><path fill="#44CDD0" d="M356.7 169.1c-6.9 0-12.4 5.7-12.4 12.4 0 3.3 1.5 6.4 3.5 8.7l17.4-17.4c-2.1-2.4-5.1-3.7-8.5-3.7z"/><path fill="#2B9FA5" d="M365.2 172.6L347.9 190c2.3 2.3 5.4 3.8 8.9 3.8 6.9 0 12.4-5.7 12.4-12.4-.2-3.4-1.7-6.5-4-8.8z"/><path fill="#186E73" d="M428.5 816.6H247.3l-14.9 41.2h196.1"/><path fill="#44CDD0" d="M428.5 734.8H232.4l14.9 40.9h181.2"/><path fill="#2B9FA5" d="M428.5 775.7H247.3l7.7 20.6-7.7 20.3h181.2"/><path fill="#186E73" d="M399.5 816.6h180.9l14.9 41.2H399.5"/><path fill="#44CDD0" d="M399.5 734.8h195.8l-14.9 40.9H399.5"/><path fill="#2B9FA5" d="M399.5 775.7h180.9l-7.4 20.6 7.4 20.3H399.5"/><path fill="#FFDF65" d="M528.9 789.6c0 63.5-51.5 114.8-114.8 114.8s-114.8-51.5-114.8-114.8c0-63.5 51.5-114.8 114.8-114.8 63.5-.2 114.8 51.1 114.8 114.8z"/><circle fill="#EE8610" cx="413.9" cy="789.6" r="107.1"/><path fill="#FFDF65" d="M482.5 789.6l54.8-71.4-89 11.6-34.4-83-34.3 83-89-11.6 54.8 71.4-55 71.4 89-11.6 34.4 83 34.4-83 89 11.6-54.7-71.4zm-41.7 46.9h-54l-13.5-23.3-13.4-23.6 13.6-23.3 13.6-23.3h54l13.6 23.3 13.6 23.3-13.6 23.3-13.9 23.6z"/><path fill="#FFB000" d="M359.8 799.3l-56.2-73.4 74.1 42.7"/><path fill="#FFC923" d="M377.7 768.6l-74.1-42.7 91.6 11.9"/><path fill="#FFB000" d="M432.5 841.1l91.9 12.3-74.1-43"/><path fill="#FFC923" d="M450.3 810.4l74.1 43-56.5-73.5"/><path fill="#FFB000" d="M395.2 841.1l-91.6 12.3 74.1-43"/><path fill="#FFC923" d="M377.7 810.4l-74.1 43 56.2-73.5"/><path fill="#FFB000" d="M467.9 799.3l56.5-73.4-74.1 42.7"/><path fill="#FFC923" d="M450.3 768.6l74.1-42.7-91.9 11.9"/><path fill="#FFB000" d="M449.3 747.4L413.9 662v85.4"/><path fill="#FFC923" d="M413.9 747.4V662l-35.2 85.4"/><path fill="#FFB000" d="M449.3 831.5L413.9 917v-85.5"/><path fill="#FFC923" d="M413.9 831.5V917l-35.2-85.5"/><path fill="#FFB000" d="M463.6 818.3l69.7-28.7-69.7-28.7 9.9-74.6-59.7 45.9-59.7-45.9 9.9 74.6-69.7 28.7 69.7 28.7-9.9 74.6 59.7-45.9 59.7 45.9-9.9-74.6zM413.9 835l-19.6-11.4-19.5-11.4v-45.6l19.5-11.4 19.5-11.4 19.5 11.4 19.5 11.4V812l-19.5 11.4-19.4 11.6z"/><path fill="#FFC923" d="M379.7 818.6l-69.9-29h69.9"/><path fill="#FFDF65" d="M379.7 789.6h-69.9l69.9-29"/><path fill="#FFC923" d="M448.3 818.6l69.9-29h-69.9"/><path fill="#FFDF65" d="M448.3 789.6h69.9l-69.9-29"/><path fill="#FFC923" d="M421.8 833.7l-60 46.1 34.9-60.7"/><path fill="#FFDF65" d="M396.7 819.1l-34.9 60.7 10-75.1"/><path fill="#FFC923" d="M456.2 774.5l10-75.1-35.2 60.5"/><path fill="#FFDF65" d="M431 759.9l35.2-60.5-60 46.1"/><path fill="#FFC923" d="M421.8 745.5l-60-46.1 34.9 60.5"/><path fill="#FFDF65" d="M396.7 759.9l-34.9-60.5 10 75.1"/><path fill="#FFC923" d="M456.2 804.7l10 75.1-35.2-60.7"/><path fill="#FFDF65" d="M431 819.1l35.2 60.7-60-46.1"/><circle fill="#FFC923" cx="413.9" cy="789.6" r="65.4"/><circle fill="#EE8610" cx="413.9" cy="789.6" r="57.2"/><path fill="#FFDF65" d="M413.9 739.5c-27.5 0-49.8 22.3-49.8 49.8 0 13.6 5.4 25.8 14.1 34.7l70.4-70.4c-8.9-8.6-21.1-14.1-34.7-14.1z"/><path fill="#FFC923" d="M448.8 753.9l-70.4 70.5c9.2 9.4 21.8 15.1 35.7 15.1 27.5 0 50-22.3 50-49.8-.2-14.2-6.1-26.9-15.3-35.8z"/></symbol>

<symbol id="emblem-bg" viewBox="0 0 829 977.5"><path fill="#FFF" d="M806.5 615.7c-5.7-.5-11.7-.3-17.4.5 2-4.3 3.5-8.7 4.8-13.2 5.4-19.9 3.5-40.8-5.4-59.2l-7.2-14.5-13.5 8.8c-17.1 11.2-29.8 28.1-35.4 48.1-1.5 5.9-2.8 12-3 18.1l-16 2.8h-25.7c-19.9 0-39.5-1.8-59-5.7l8.4-20.1-7.9-6.7c-9.4-8.2-19.4-16-30.1-22.9 33.6-1.8 51.5-8.7 52.2-8.9l5.7-2.3 38.5-91.5-7.7-6.7c-2-1.8-4.3-3.8-6.2-5.4l29.1-15.5 46.3 24.4-8.7-51.7 37.5-36.6-51.7-7.4-23-47.2-23.1 46.9-51.7 7.4 37.5 36.6-5.4 31.3c-16.4-13-33.9-24.7-52.2-34.9 4.3-39.3 5.4-78.4 5.9-108.5l.3-14-12.7-5.4c-1.3-.5-11-4.5-27.6-9.9l39-20.6 57.8 30.3-11-64.4 46.8-45.6-64.7-9.4L621.2 85l-28.8 58.8-43.8 6.4 9.9-30.1c9.9-3 17.4-12.2 17.4-23.2 0-13.5-11-24.4-24.4-24.4-13.4 0-24.4 11-24.4 24.4v2.3l-11 11c-4.3-5.3-9.2-10.2-15-14.7V95c5-4.5 7.9-11 7.9-17.9.1-13.5-10.9-24.4-24.4-24.4-12.7 0-23.2 9.9-24.2 22.4-5.9-1.8-12-3.3-18.4-4.3-1.8-.3-3.5-.5-5.4-.8l-2.9-11.4c5.7-5.4 9.4-13.2 9.4-21.6 0-16.4-13.5-29.8-29.8-29.8-16.4 0-29.8 13.5-29.8 29.8 0 8.4 3.5 16.1 9.4 21.6l-3 11.5c-8.2 1.3-16.1 3-23.7 5.3-1-12.5-11.5-22.4-24.2-22.4-13.5 0-24.4 11-24.4 24.4 0 7.2 3 13.5 7.9 17.9V95c-5.7 4.5-10.7 9.4-15 14.7l-11-11v-2.3c0-13.5-11-24.4-24.4-24.4-13.2 0-24.1 11-24.1 24.4 0 11 7.2 20.4 17.4 23.2l9.9 30.1-43.8-6.4L206.4 85l-28.8 58.3-64.7 9.4 46.8 45.6-11 64.4 58-30.3 39 20.6c-16.6 5.3-26.4 9.4-27.6 9.9l-12.7 5.4.3 14c.5 30.1 1.8 69.2 5.9 108.5-18.4 10.4-35.9 22.2-52.2 34.9l-5.4-31.3 37.5-36.6-51.7-7.4-23-47.1-23.2 47.1-51.7 7.4 37.5 36.6-8.7 51.6 46.3-24.4 29.1 15.5c-2 1.8-4.3 3.5-6.2 5.4l-7.7 6.7 38.5 91.8 5.7 2.3c.8.3 18.9 6.9 51.5 8.7-10.4 7.2-20.6 14.7-30.1 22.9l-7.9 6.7 8.4 20.1c-19.1 3.8-38.8 5.4-58.3 5.4h-25.7l-16-2.8c-.3-5.9-1.3-12.2-3-18.1-5.4-19.9-17.9-36.9-35.4-48.1l-13.5-8.7-7.2 14.5c-8.9 18.4-11 39.5-5.4 59.2 1.3 4.5 3 8.9 4.8 13.2-5.7-.8-11.7-1-17.4-.5l-16 1.3 3 16c4 20.1 15 38 31.3 50.7 5.4 4.3 11.2 7.4 17.1 10.2-2.8.8-5.7 1.5-8.4 2.5L33 701.8l7.2 14.5c8.9 18.4 24.4 33.1 43.3 40.8 2.5 1 4.8 1.8 7.2 2.8-2 1.3-4 2.8-5.7 4.3l-13 9.7 11.2 11.5c14.5 14.7 33.4 23.9 54 25.4 1.5 0 3.3.3 4.8.3-.8 1-1.5 1.8-2 3l-9.2 13.2L145 835c12.2 6.7 26.2 10.2 40 10.2 6.2 0 12.7-.8 18.9-2.3 3.8-1 13-4 13-4 3.3-1.3 6.2-3 9.4-4.5l-14.7 40.3h52l-5.7 7.4 56.5-7.4c7.2 8.7 15.7 16.6 25.2 23.2l-4 30.3 24.4-18.6c10.4 4.8 21.4 8.2 32.9 10.2l21.6 52.7 21.6-52.7c11.5-2 22.2-5.3 32.6-10.2l24.4 18.6-4-30.3c9.4-6.7 17.6-14.5 25.2-23.2l56.5 7.4-5.7-7.4h52l-14.7-40.3c3 1.8 11.2 5.3 11.2 5.3 3.5 1.5 7.2 2.5 11.2 3.5 6.2 1.5 12.7 2.3 18.9 2.3 14 0 27.8-3.5 40-10.2l14.2-7.7-9.2-13.2c-.8-1-1.5-2-2-3 1.5 0 3.3 0 4.8-.3 20.4-1.5 39.5-10.4 54-25.4l11.2-11.5-13-9.7c-2-1.5-4-3-5.7-4.3 2.5-.8 5-1.5 7.2-2.8 18.9-7.7 34.6-22.4 43.3-40.8l7.2-14.5-15.2-5.3c-2.8-1-5.4-1.8-8.4-2.5 5.9-2.8 11.7-5.9 17.1-10.2 16.1-12.5 27.3-30.6 31.3-50.7l3-16-17-1.7zM574.4 198.2l-8.7 49.7c-11.2-3-24.2-6.2-38.8-9.2v-25.6l15.5-46.1 32 31.2zm-320.8 0l31.8-31.1 15.5 46.1v25.7c-14.5 3-27.3 6.2-38.5 9.2l-8.8-49.9z"/></symbol>

<symbol id="lottery-ticket" viewBox="7.5 5.5 953 818"><path fill="#00ADEE" d="M51.2 107.2h22.1v79.1h39v17.9H51.2v-97zm156 47.4c0 31.6-19 50.6-47.4 50.6s-45.3-22.1-45.3-49.6c0-29.5 19-50.6 47.4-50.6 29.5.1 45.3 22.2 45.3 49.6zm-69.6 1.1c0 19 8.4 32.7 24.3 32.7 14.8 0 23.2-13.7 23.2-32.7 0-17.9-8.4-32.7-23.2-32.7-15.8 0-24.3 13.7-24.3 32.7zm99.1-30.6h-26.4v-17.9h74.9v17.9h-26.4v78h-22.1v-78zm82.3 0h-26.4v-17.9h74.9v17.9h-26.4v78H319v-78zM437.1 163h-35.8v23.2h40.1v17.9h-62.2v-97h60.1V125h-38v20h35.8v18zm19-54.8c7.4-1.1 17.9-2.1 29.5-2.1 14.8 0 24.3 2.1 31.6 7.4 6.3 4.2 8.4 11.6 8.4 20 0 12.7-8.4 21.1-16.9 24.3 6.3 3.2 10.5 9.5 12.7 17.9 3.2 10.5 6.3 24.3 7.4 27.4h-22.1c-1.1-3.2-4.2-10.5-6.3-22.1-2.1-11.6-6.3-14.8-15.8-15.8h-6.3v38h-22.1l-.1-95zm21 41.1h8.4c10.5 0 17.9-5.3 17.9-13.7s-6.3-13.7-15.8-13.7c-5.3 0-8.4 0-9.5 1.1l-1 26.3zm83.3 54.9v-40.1l-30.6-56.9h25.3l9.5 23.2c3.2 7.4 5.3 11.6 7.4 19 2.1-6.3 4.2-11.6 7.4-19l9.5-23.2h24.3l-31.6 56.9v40.1h-21.2zM49.1 284.3h23.2V337H49.1zm0 70.6h23.2v52.7H49.1zm0 71.7h23.2v52.7H49.1zm0 71.7h23.2V551H49.1zm0 71.7h23.2v52.7H49.1zm0 71.7h23.2v52.7H49.1zm0 71.7h23.2v52.7H49.1zm34.8-429.1v38h724.4v191.9h74.9V284.3H83.9zm152.8 94.9h42.2V336h-42.2v43.2zm6.4-36.9h30.6v30.6h-30.6v-30.6zm64.3 36.9h43.2V336h-43.2v43.2zm6.3-36.9h30.6v30.6h-30.6v-30.6zm-147.6 36.9h43.2V336h-43.2v43.2zm6.3-36.9H203v30.6h-30.6v-30.6zm-76.9 36.9h42.2V336H95.5v43.2zm6.3-36.9h30.6v30.6h-30.6v-30.6zM378 379.2h43.2V336H378v43.2zm5.3-36.9h30.6v30.6h-30.6v-30.6zm135 36.9h42.2V336h-42.2v43.2zm6.3-36.9h30.6v30.6h-30.6v-30.6zm135 36.9h43.2V336h-43.2v43.2zm6.3-36.9h30.6v30.6h-30.6v-30.6zm-77 36.9h42.2V336h-42.2v43.2zm6.3-36.9h30.6v30.6h-30.6v-30.6zm-147.6 36.9h42.2V336h-42.2v43.2zm6.4-36.9h30.6v30.6H454v-30.6zm276.2 36.9h42.2V336h-42.2v43.2zm6.3-36.9h30.6v30.6h-30.6v-30.6zm-147.6 98.1h42.2v-43.2h-42.2v43.2zm6.3-37h30.6V434h-30.6v-30.6zm64.4 37h43.2v-43.2h-43.2v43.2zm6.3-37h30.6V434h-30.6v-30.6zm-570.4 37h42.2v-43.2H95.5v43.2zm6.3-37h30.6V434h-30.6v-30.6zm64.3 37h43.2v-43.2h-43.2v43.2zm6.3-37H203V434h-30.6v-30.6zm557.8 37h42.2v-43.2h-42.2v43.2zm6.3-37h30.6V434h-30.6v-30.6zm-218.2 37h42.2v-43.2h-42.2v43.2zm6.3-37h30.6V434h-30.6v-30.6zm-146.6 37h43.2v-43.2H378v43.2zm5.3-37h30.6V434h-30.6v-30.6zm-75.9 37h43.2v-43.2h-43.2v43.2zm6.3-37h30.6V434h-30.6v-30.6zm133.9 37h42.2v-43.2h-42.2v43.2zm6.4-37h30.6V434H454v-30.6zm-217.3 37h42.2v-43.2h-42.2v43.2zm6.4-37h30.6V434h-30.6v-30.6zm204.5 98.1h42.2v-42.2h-42.2v42.2zm6.4-36.9h30.6v30.6H454v-30.6zM95.5 501.5h42.2v-42.2H95.5v42.2zm6.3-36.9h30.6v30.6h-30.6v-30.6zm487.1 36.9h42.2v-42.2h-42.2v42.2zm6.3-36.9h30.6v30.6h-30.6v-30.6zm135 36.9h42.2v-42.2h-42.2v42.2zm6.3-36.9h30.6v30.6h-30.6v-30.6zm-499.8 36.9h42.2v-42.2h-42.2v42.2zm6.4-36.9h30.6v30.6h-30.6v-30.6zM378 501.5h43.2v-42.2H378v42.2zm5.3-36.9h30.6v30.6h-30.6v-30.6zm276.3 36.9h43.2v-42.2h-43.2v42.2zm6.3-36.9h30.6v30.6h-30.6v-30.6zm-147.6 36.9h42.2v-42.2h-42.2v42.2zm6.3-36.9h30.6v30.6h-30.6v-30.6zm-217.2 36.9h43.2v-42.2h-43.2v42.2zm6.3-36.9h30.6v30.6h-30.6v-30.6zm-147.6 36.9h43.2v-42.2h-43.2v42.2zm6.3-36.9H203v30.6h-30.6v-30.6zm-88.5 70.6v38h724.4v191.9h74.9V535.2H83.9zm152.8 94.9h42.2V588h-42.2v42.1zm6.4-35.8h30.6v30.6h-30.6v-30.6zm64.3 35.8h43.2V588h-43.2v42.1zm6.3-35.8h30.6v30.6h-30.6v-30.6zm-147.6 35.8h43.2V588h-43.2v42.1zm6.3-35.8H203v30.6h-30.6v-30.6zm-76.9 35.8h42.2V588H95.5v42.1zm6.3-35.8h30.6v30.6h-30.6v-30.6zM378 630.1h43.2V588H378v42.1zm5.3-35.8h30.6v30.6h-30.6v-30.6zm135 35.8h42.2V588h-42.2v42.1zm6.3-35.8h30.6v30.6h-30.6v-30.6zm135 35.8h43.2V588h-43.2v42.1zm6.3-35.8h30.6v30.6h-30.6v-30.6zm-77 35.8h42.2V588h-42.2v42.1zm6.3-35.8h30.6v30.6h-30.6v-30.6zm-147.6 35.8h42.2V588h-42.2v42.1zm6.4-35.8h30.6v30.6H454v-30.6zm276.2 35.8h42.2V588h-42.2v42.1zm6.3-35.8h30.6v30.6h-30.6v-30.6zm-147.6 97h42.2v-42.2h-42.2v42.2zm6.3-36.9h30.6V685h-30.6v-30.6zm64.4 36.9h43.2v-42.2h-43.2v42.2zm6.3-36.9h30.6V685h-30.6v-30.6zM95.5 691.3h42.2v-42.2H95.5v42.2zm6.3-36.9h30.6V685h-30.6v-30.6zm64.3 36.9h43.2v-42.2h-43.2v42.2zm6.3-36.9H203V685h-30.6v-30.6zm557.8 36.9h42.2v-42.2h-42.2v42.2zm6.3-36.9h30.6V685h-30.6v-30.6zm-218.2 36.9h42.2v-42.2h-42.2v42.2zm6.3-36.9h30.6V685h-30.6v-30.6zM378 691.3h43.2v-42.2H378v42.2zm5.3-36.9h30.6V685h-30.6v-30.6zm-75.9 36.9h43.2v-42.2h-43.2v42.2zm6.3-36.9h30.6V685h-30.6v-30.6zm133.9 36.9h42.2v-42.2h-42.2v42.2zm6.4-36.9h30.6V685H454v-30.6zm-217.3 36.9h42.2v-42.2h-42.2v42.2zm6.4-36.9h30.6V685h-30.6v-30.6zm204.5 98h42.2v-43.2h-42.2v43.2zm6.4-36.9h30.6v30.6H454v-30.6zM95.5 752.4h42.2v-43.2H95.5v43.2zm6.3-36.9h30.6v30.6h-30.6v-30.6zm487.1 36.9h42.2v-43.2h-42.2v43.2zm6.3-36.9h30.6v30.6h-30.6v-30.6zm135 36.9h42.2v-43.2h-42.2v43.2zm6.3-36.9h30.6v30.6h-30.6v-30.6zm-499.8 36.9h42.2v-43.2h-42.2v43.2zm6.4-36.9h30.6v30.6h-30.6v-30.6zM378 752.4h43.2v-43.2H378v43.2zm5.3-36.9h30.6v30.6h-30.6v-30.6zm276.3 36.9h43.2v-43.2h-43.2v43.2zm6.3-36.9h30.6v30.6h-30.6v-30.6zm-147.6 36.9h42.2v-43.2h-42.2v43.2zm6.3-36.9h30.6v30.6h-30.6v-30.6zm-217.2 36.9h43.2v-43.2h-43.2v43.2zm6.3-36.9h30.6v30.6h-30.6v-30.6zm-147.6 36.9h43.2v-43.2h-43.2v43.2zm6.3-36.9H203v30.6h-30.6v-30.6z"/><path d="M202.01 338.413l5.233 5.232-35.068 35.077-5.233-5.232z"/><path d="M207.546 373.065l-5.235 5.232-35.06-35.088 5.24-5.24zM342 398.453l5.235 5.232-35.063 35.087-5.234-5.23z"/><path d="M347.227 434.172l-5.234 5.23-35.058-35.086 5.235-5.23zm276.106-94.548l5.23 5.236-35.092 35.052-5.23-5.235z"/><path d="M628.223 375.16l-5.23 5.235-35.09-35.053 5.228-5.235zm67.43-37.036l5.234 5.23-35.062 35.083-5.234-5.23z"/><path d="M700.52 372.57l-5.234 5.23-35.057-35.087 5.23-5.23zm-74.1 278.174l5.233 5.23-35.062 35.083-5.23-5.23z"/><path d="M630.657 685.95l-5.234 5.233-35.067-35.077 5.233-5.232zm-145.55-97.797l5.234 5.232-35.06 35.077-5.232-5.232z"/><path d="M490.754 622.87l-5.233 5.233-35.06-35.077 5.235-5.232zm-78.56 27.347l5.236 5.23-35.053 35.092-5.235-5.23z"/><path d="M417.616 684.845l-5.236 5.23-35.052-35.093 5.235-5.23zm65.27 28.068l5.233 5.23-35.06 35.087-5.24-5.23z"/><path d="M487.86 747.28l-5.235 5.23-35.052-35.093 5.236-5.23zm137.263-36.456l5.23 5.235-35.086 35.06-5.23-5.24z"/><path d="M629.85 746.083l-5.23 5.235-35.086-35.057 5.23-5.23zM200.234 460.63l5.235 5.23-35.06 35.088-5.24-5.23z"/><path d="M205.033 495.494l-5.234 5.23-35.07-35.076 5.23-5.232z"/><path fill="#00ADEE" d="M823 59.7c-129.3 0-119.9 191.8 8.4 191.8v-15.8c-14.8-1.1-28.5-4.2-35.8-8.4l6.3-25.3c37.9 23.9 79.3-7.9 33.7-23.2-43.1-11.2-57.4-65.7-4.3-76v-20h21.1v19c14.8 1.1 24.3 3.2 30.6 7.4l-6.3 24.3c-35-13.9-71 5.3-23.2 22.1 43.5 14.4 49 70.2-2.2 79.1v13.7c39-12.7 67.5-48.5 67.5-91.7.1-53.8-43.1-97-95.8-97zm86 224.6h3v481.9h-3z"/><path fill="#00ADEE" d="M933.6 823.5H33.3c-14 0-25.8-15.2-25.8-33.1V38.6c0-18.9 11.1-33.1 25.8-33.1h901.5c13.9 0 25.7 15.2 25.7 33.1v751.8c0 .2 0 .4-.1.5-.2 18.3-11.9 32.6-26.8 32.6zM33.3 8.5c-13 0-22.8 12.9-22.8 30.1v751.8c0 16.3 10.4 30.1 22.8 30.1h900.3c13.1 0 23.8-13.5 23.8-30.1 0-.2 0-.4.1-.5V38.6c0-16.3-10.4-30.1-22.7-30.1H33.3z"/></symbol>

<symbol id="monitor" viewBox="147.116 8.334 554.801 577.422"><path fill="#30363D" d="M696.515 449.715v-315.87c0-8.188-6.434-14.623-14.624-14.623H168.32c-8.19 0-14.624 6.434-14.624 14.624v315.868H696.52z"/><path fill="#E4E7EB" d="M151.934 450.3v45.624c0 8.774 7.02 15.793 15.793 15.793h513.58c8.773 0 15.792-7.02 15.792-15.793V450.3H151.93zm366.758 128.687s-4.095-1.755-8.774-3.51c-4.68-1.755-10.53-4.095-14.04-5.85-5.848-2.924-6.433-4.68-8.773-14.623-2.34-10.53-4.68-33.342-5.85-43.286H367.778c-1.17 9.944-3.51 32.757-5.85 43.286-2.34 9.944-2.924 11.7-8.773 14.624-3.51 1.755-9.36 4.095-14.04 5.85-4.68 1.754-8.188 2.924-8.188 2.924s-3.51 1.755 2.34 2.34h183.087c5.264 0 2.34-1.755 2.34-1.755z"/><path fill="#CCD4D6" d="M483.01 523.417c-.584-4.68-1.17-8.774-1.17-11.7H367.778c0 2.926-.585 7.02-1.17 11.7H483.01z"/><path fill="#484F59" d="M250.79 449.715h112.893l206.484-331.077H457.273m-61.418 331.077h41.53L643.87 118.638h-40.946"/><path fill="#F7F8FC" d="M178.256 143.79h492.52v277.262h-492.52z"/><path fill="#F7F8FC" d="M268.337 421.637H381.23L554.375 143.79H441.48m13.454 277.847L628.076 143.79h-41.53L413.403 421.637"/><circle cx="372.457" cy="120.977" r="93.006" fill="#FFF"/><circle cx="364.853" cy="120.977" r="47.965" fill="#FFDD3E"/><path fill="#FFDD3E" d="M364.853 13.348c-59.08 0-107.63 47.965-107.63 107.63s47.966 107.628 107.63 107.628 107.63-47.965 107.63-107.63S424.516 13.35 364.853 13.35zm0 166.708c-32.757 0-59.08-26.322-59.08-59.08S332.097 61.9 364.853 61.9s59.08 26.322 59.08 59.08c.585 32.756-26.323 59.078-59.08 59.078zm82.476-51.474c-4.1 0-7.61-3.51-7.61-7.604 0-40.946-33.34-74.288-74.29-74.288-4.1 0-7.61-3.51-7.61-7.604 0-4.095 3.51-7.604 7.6-7.604 49.72 0 90.08 40.36 90.08 90.08-.59 3.51-4.1 7.02-8.19 7.02z"/><path fill="#1D1D1B" d="M352.57 131.506c1.754 1.17 5.848 2.34 9.943 2.34 5.264 0 7.604-2.34 7.604-5.85 0-4.094-4.095-5.848-8.19-5.848h-4.094v-7.02h4.095c3.51 0 7.604-1.17 7.604-4.68 0-2.34-2.34-4.68-6.434-4.68-3.51 0-7.02 1.756-8.774 2.34l-1.755-7.018c2.34-1.755 7.6-2.925 12.86-2.925 8.77 0 14.04 4.68 14.04 10.53 0 4.68-2.34 8.188-7.61 9.943 5.26 1.17 9.36 4.68 9.36 9.944 0 7.604-6.44 12.87-16.97 12.87-5.27 0-9.95-1.17-12.29-2.926l.582-7.02z"/><circle cx="547.939" cy="293.535" r="47.965" fill="#EF846E"/><path fill="#EF846E" d="M547.94 185.906c-59.08 0-107.63 47.965-107.63 107.63s47.965 107.628 107.63 107.628c59.663 0 107.043-48.55 107.043-107.63S607.018 185.907 547.94 185.907zm0 166.708c-32.758 0-59.08-26.322-59.08-59.08s26.322-59.078 59.08-59.078c32.756 0 59.078 26.322 59.078 59.08s-26.322 59.078-59.08 59.078zm81.89-51.475c-4.094 0-7.603-3.51-7.603-7.61 0-40.95-33.342-74.29-74.288-74.29-4.1 0-7.61-3.51-7.61-7.61s3.51-7.61 7.6-7.61c49.72 0 90.08 40.36 90.08 90.08 0 3.51-3.51 7.02-8.19 7.02z"/><path fill="#FFF" d="M533.316 314.008v-9.944h-18.718v-6.434l15.793-25.737h12.29v24.568h5.27v7.61h-5.26v9.95h-9.36zm0-17.548v-9.36c0-2.34 0-5.263.585-7.603-1.17 2.925-2.34 5.264-4.09 7.604l-5.85 9.36h9.36zm18.718 17.548v-5.85l5.264-4.68c9.36-8.188 13.454-12.868 14.04-17.547 0-3.51-2.34-5.84-7.02-5.84-3.51 0-7.02 1.76-8.774 3.51l-2.925-7.02c2.92-2.34 8.18-4.09 14.03-4.09 9.36 0 14.62 5.27 14.62 13.46 0 7.02-5.27 12.87-11.12 18.14l-4.1 3.51h15.79v8.19h-29.83v-1.756z"/><path fill="#30363D" d="M521.032 211.643l-44.455-14.038-45.04-14.624 14.623 44.46 14.623 44.46 15.794-30.41 23.397 23.99 14.04-14.04-23.4-23.98"/><path fill="#484F59" d="M476.577 197.605l-45.04-14.624.584 1.17L507 259.03l7.02-7.606-23.398-23.982 30.416-15.793"/><path fill="#333" d="M421.007 163.678c-1.17 0-1.755-1.17-1.755-2.34V134.43c0-1.17 1.17-2.34 1.755-2.34 1.17 0 2.34 1.17 2.34 2.34v26.908c-.585 1.17-1.17 2.34-2.34 2.34zm-13.454 7.604h-1.17l-23.398-13.454c-1.17-.585-1.17-1.755-.585-2.925s1.755-1.17 2.925-.585l23.398 13.454c1.17.585 1.17 1.755.585 2.925-.585 0-1.17.585-1.755.585zm-23.397 29.248c-.585 0-1.17-.586-1.755-1.17-.58-1.17 0-2.34.59-2.926l23.4-13.454c1.17-.585 2.34 0 2.93.585.59 1.17 0 2.34-.58 2.925l-23.4 13.454c-.58 0-.58.585-1.17.585zm36.85 21.057c-1.17 0-1.754-1.17-1.754-2.34V192.34c0-1.17 1.17-2.34 1.755-2.34 1.17 0 2.34 1.17 2.34 2.34v26.907c-.585 1.17-1.17 2.34-2.34 2.34zm13.454-50.305c-.584 0-1.17-.585-1.754-1.17-.585-1.17 0-2.34.585-2.925l23.4-13.454c1.17-.585 2.34 0 2.93.585.59 1.17 0 2.34-.58 2.925l-23.4 13.454c-.58.585-1.17.585-1.17.585z"/><circle cx="298.169" cy="349.105" r="59.079" fill="none"/><path fill="none" d="M380.646 356.71c4.095 0 7.604-3.51 7.604-7.605 0-49.72-40.36-90.08-90.08-90.08-4.096 0-7.605 3.51-7.605 7.603s3.51 7.604 7.604 7.604c40.94 0 74.28 33.342 74.28 74.288 0 4.68 3.51 8.19 8.19 8.19z"/><circle cx="311.038" cy="349.105" r="47.965" fill="#EF846E"/><path fill="#FFF" d="M291.735 336.236l-8.19 4.095-1.754-7.6 11.12-5.26h8.19v42.12h-9.36v-33.35zm51.475-.586h-16.378l-1.17 6.435h2.925c4.095 0 8.19 1.17 11.114 2.925 2.93 2.34 5.27 5.85 5.27 10.53 0 7.603-6.43 14.623-18.13 14.623-5.26 0-9.36-1.17-11.7-2.34l1.76-7.604c1.76 1.17 5.85 2.34 9.36 2.34 4.1 0 8.19-1.76 8.19-6.44 0-4.1-3.51-7.02-11.7-7.02-2.34 0-4.09 0-5.84.58l2.928-22.23h23.398v8.18z"/><path fill="#EF846E" d="M418.082 349.105c0-59.08-47.965-107.63-107.63-107.63s-107.628 47.965-107.628 107.63c0 28.077 10.53 53.23 28.077 72.533h158.52c18.14-19.304 28.67-44.456 28.67-72.533zm-107.044 59.08c-32.757 0-59.08-26.323-59.08-59.08s26.323-59.08 59.08-59.08 59.08 26.323 59.08 59.08c0 32.756-26.323 59.08-59.08 59.08zm0-133.368c-4.095 0-7.604-3.51-7.604-7.604s3.51-7.604 7.604-7.604c49.72 0 90.08 40.36 90.08 90.08 0 4.09-3.51 7.6-7.603 7.6s-7.604-3.51-7.604-7.61c-.58-41.53-33.92-74.88-74.87-74.88z"/></symbol>

<symbol id="winner-cup" viewBox="141.163 57.904 567.302 492.135"><path fill="#EE8610" d="M435.232 416.696c0-16.668 8.334-30.955 21.43-39.288h-63.1c12.5 8.334 21.43 22.62 21.43 39.288 0 26.192-21.43 47.027-47.027 47.027h113.698c-26.192 0-46.43-20.835-46.43-47.027z"/><path fill="#FFC923" d="M368.56 463.723h113.7v14.882h-113.7z"/><path fill="#00ADEE" d="M330.462 478.01h188.704v43.455H330.462z"/><path fill="#005499" d="M539.406 550.04H310.223l8.93-27.98H527.5"/><path fill="#EE8610" d="M582.86 67.267H266.768c0 8.334 0 16.668.595 25.597H582.86V67.267zM699.536 83.34c-3.572-5.954-9.524-11.907-15.477-16.074-23.22-16.073-60.128-10.12-80.368 7.74-8.334 7.142-15.477 16.667-19.644 26.787-4.167 10.12-7.143 19.05-7.143 29.764l10.12 2.38c4.166-26.19 20.834-50.003 48.812-54.765 25.596-3.572 45.836 17.263 46.43 40.48 1.787 58.932-52.98 94.65-97.625 120.84-14.882 8.93-32.145 19.645-41.67 34.527-2.38 4.76-5.358 10.12-6.548 16.663-1.19 5.953-.595 12.5 2.38 19.05 2.382 6.547 7.74 11.31 13.692 13.69 5.952 2.38 11.905 2.976 18.453 2.38 2.975-.594 9.523-3.57 10.714-6.547v-8.93c-8.335 2.38-16.67 2.38-22.026-1.19-5.953-2.977-8.93-9.525-7.143-16.67 5.953-29.763 47.622-51.193 70.243-66.67 25.597-16.67 51.79-35.717 69.052-60.72 9.524-14.286 15.477-30.954 16.668-47.62-.596-10.715-2.382-23.81-8.93-35.12z"/><circle cx="597.148" cy="131.557" r="21.43" fill="#FFC923"/><circle cx="567.979" cy="308.355" r="18.454" fill="#FFC923"/><path fill="#EE8610" d="M150.093 83.34c3.572-5.954 9.524-11.907 15.477-16.074 23.216-16.073 60.123-10.12 80.363 7.74 8.334 7.142 15.477 16.667 19.644 26.787s7.143 19.05 7.143 29.764l-10.12 2.38c-4.167-26.19-20.835-50.003-48.813-54.765-25.597-3.572-45.837 17.263-46.432 40.48-1.786 58.932 52.98 94.65 97.626 120.84 14.887 8.93 32.15 19.645 41.67 34.527 2.386 4.76 5.36 10.12 6.55 16.663 1.19 5.953.598 12.5-2.38 19.05-2.38 6.547-7.74 11.31-13.69 13.69s-11.905 2.976-18.453 2.38c-2.976-.594-9.525-3.57-10.715-6.547v-8.93c8.334 2.38 16.668 2.38 22.025-1.19 5.953-2.977 8.93-9.525 7.143-16.67-5.953-29.763-47.622-51.193-70.243-66.67-25.597-16.67-51.79-35.717-69.052-60.72-9.523-14.286-15.476-30.954-16.667-47.62 1.19-10.715 2.382-23.81 8.93-35.12z"/><circle cx="252.481" cy="131.557" r="21.43" fill="#FFC923"/><circle cx="281.65" cy="308.355" r="18.454" fill="#FFC923"/><path fill="#FFC923" d="M540 92.864H270.935C273.91 179.18 294.15 255.97 324.51 308.95c26.787 47.623 62.503 76.792 100.6 76.792 81.554 0 147.63-128.58 154.18-292.283H540v-.6z"/><path fill="#FFDF65" d="M270.934 92.864C273.91 179.18 294.15 255.97 324.51 308.95L540 92.865H270.935z"/></symbol>
</svg>