<svg xmlns="http://www.w3.org/2000/svg" viewBox="7.4 215.5 826.5 164.2"><path fill="#EFC204" d="M89.5 215.5c44.3 0 82.1 37.8 82.1 82.1s-37.8 82.1-82.1 82.1S7.4 342 7.4 297.6s37.8-82.1 82.1-82.1z"/><path fill="#EFC208" d="M89.5 216.2c44.1 0 81.7 37.6 81.7 81.7s-37.6 81.7-81.7 81.7S7.8 342 7.8 297.9s37.6-81.7 81.7-81.7z"/><path fill="#EFC20C" d="M89.5 216.9c104.7 0 104.7 162.7 0 162.7s-104.7-162.7 0-162.7z"/><path fill="#F0C20F" d="M89.5 217.6c104.2 0 104.2 162 0 162s-104.2-162 0-162z"/><path fill="#F0C312" d="M89.3 218.5c103.8 0 103.8 161.2 0 161.2s-103.8-161.2 0-161.2z"/><path fill="#F0C314" d="M89.3 219.1c103.3 0 103.3 160.4 0 160.4s-103.3-160.4 0-160.4z"/><path fill="#F0C317" d="M89.3 219.8c102.8 0 102.8 159.6 0 159.6s-102.8-159.6 0-159.6z"/><path fill="#F0C319" d="M89.3 220.5c102.3 0 102.3 158.9 0 158.9s-102.3-158.9 0-158.9z"/><path fill="#F0C41B" d="M89.3 221.2c101.8 0 101.8 158.1 0 158.1s-101.9-158.1 0-158.1z"/><path fill="#F0C41D" d="M89.3 221.9c101.5 0 101.5 157.4 0 157.4s-101.6-157.4 0-157.4z"/><path fill="#F0C41F" d="M89.2 222.5c101 0 101 156.6 0 156.6s-101-156.6 0-156.6z"/><path fill="#F0C521" d="M89.2 223.2c100.6 0 100.6 155.8 0 155.8s-100.5-155.8 0-155.8z"/><path fill="#F1C522" d="M89.2 223.9c100.1 0 100.1 155.1 0 155.1s-100-155.1 0-155.1z"/><path fill="#F1C524" d="M89.2 224.6c99.6 0 99.6 154.3 0 154.3s-99.6-154.3 0-154.3z"/><path fill="#F1C526" d="M89.2 225.3c99.1 0 99.1 153.6 0 153.6s-99.1-153.6 0-153.6z"/><path fill="#F1C627" d="M89.2 226c98.6 0 98.6 152.8 0 152.8S-9.4 226 89.2 226z"/><path fill="#F1C629" d="M89.2 226.6c98.1 0 98.1 152 0 152s-98.1-152 0-152z"/><path fill="#F1C62A" d="M89.2 227.3c97.6 0 97.6 151.3 0 151.3s-97.7-151.3 0-151.3z"/><path fill="#F1C62C" d="M89.2 228c97.2 0 97.2 150.5 0 150.5S-8 228 89.2 228z"/><path fill="#F1C72D" d="M89.2 228.7c96.7 0 96.7 149.7 0 149.7s-96.7-149.7 0-149.7z"/><path fill="#F1C72E" d="M89.2 229.4c96.2 0 96.2 149 0 149s-96.2-149 0-149z"/><path fill="#F2C730" d="M89.1 230.1c95.7 0 95.7 148.2 0 148.2s-95.7-148.2 0-148.2z"/><path fill="#F2C831" d="M89.1 230.7c95.2 0 95.2 147.5 0 147.5s-95.2-147.5 0-147.5z"/><path fill="#F2C833" d="M89.1 231.4c94.7 0 94.7 146.7 0 146.7s-94.7-146.7 0-146.7z"/><path fill="#F2C834" d="M89.1 232.1c94.3 0 94.3 145.9 0 145.9s-94.2-145.9 0-145.9z"/><path fill="#F2C835" d="M89.1 232.8c93.8 0 93.8 145.2 0 145.2s-93.8-145.2 0-145.2z"/><path fill="#F2C936" d="M89.1 233.5c93.3 0 93.3 144.4 0 144.4s-93.3-144.4 0-144.4z"/><path fill="#F2C938" d="M89.1 234.1c92.8 0 92.8 143.7 0 143.7s-92.8-143.7 0-143.7z"/><path fill="#F2C939" d="M89.1 234.8c92.3 0 92.3 142.9 0 142.9s-92.3-142.9 0-142.9z"/><path fill="#F2CA3A" d="M89.1 235.5c91.8 0 91.8 142.1 0 142.1s-91.9-142.1 0-142.1z"/><path fill="#F3CA3C" d="M89.1 236.2c91.3 0 91.3 141.4 0 141.4s-91.4-141.4 0-141.4z"/><path fill="#F3CA3D" d="M89.1 236.9c90.9 0 90.9 140.6 0 140.6s-90.9-140.6 0-140.6z"/><path fill="#F3CA3E" d="M89 237.6c90.4 0 90.4 139.9 0 139.9s-90.3-139.9 0-139.9z"/><path fill="#F3CB3F" d="M89 238.2c89.9 0 89.9 139.1 0 139.1S-.8 238.2 89 238.2z"/><path fill="#F3CB40" d="M89 238.9c89.4 0 89.4 138.3 0 138.3S-.4 238.9 89 238.9z"/><path fill="#F3CB42" d="M89 239.6c88.9 0 88.9 137.6 0 137.6S.1 239.6 89 239.6z"/><path fill="#F3CB43" d="M89 240.3c88.4 0 88.4 136.8 0 136.8S.6 240.3 89 240.3z"/><path fill="#F3CC44" d="M89 241c87.9 0 87.9 136 0 136S1 241 89 241z"/><path fill="#F3CC45" d="M89 241.7c87.5 0 87.5 135.3 0 135.3S1.5 241.7 89 241.7z"/><path fill="#F3CC47" d="M89 242.3c87 0 87 134.5 0 134.5S2 242.3 89 242.3z"/><path fill="#F4CD48" d="M89 243c86.5 0 86.5 133.8 0 133.8S2.5 243 89 243z"/><path fill="#F4CD49" d="M89 243.7c86 0 86 133 0 133s-86-133 0-133z"/><path fill="#F4CD4A" d="M88.9 244.4c85.5 0 85.5 132.2 0 132.2s-85.5-132.2 0-132.2z"/><path fill="#F4CD4B" d="M88.9 245.1c85 0 85 131.5 0 131.5s-85-131.5 0-131.5z"/><path fill="#F4CE4D" d="M88.9 245.7c84.6 0 84.6 130.7 0 130.7s-84.5-130.7 0-130.7z"/><path fill="#F4CE4E" d="M88.9 246.4c84.1 0 84.1 130 0 130s-84-130 0-130z"/><path fill="#F4CE4F" d="M88.9 247.1c83.6 0 83.6 129.2 0 129.2s-83.6-129.2 0-129.2z"/><path fill="#F4CF50" d="M88.9 247.8c83.1 0 83.1 128.4 0 128.4s-83.1-128.4 0-128.4z"/><path fill="#F4CF51" d="M88.9 248.5c82.6 0 82.6 127.7 0 127.7s-82.6-127.7 0-127.7z"/><path fill="#F4CF52" d="M88.9 249.2c82.1 0 82.1 126.9 0 126.9s-82.1-126.9 0-126.9z"/><path fill="#F5CF53" d="M88.9 249.8c81.6 0 81.6 126.1 0 126.1s-81.7-126.1 0-126.1z"/><path fill="#F5D055" d="M88.9 250.5c81.2 0 81.2 125.4 0 125.4s-81.2-125.4 0-125.4z"/><path fill="#F5D056" d="M88.9 251.2c80.7 0 80.7 124.6 0 124.6s-80.7-124.6 0-124.6z"/><path fill="#F5D057" d="M88.9 251.9c80.2 0 80.2 123.9 0 123.9s-80.2-123.9 0-123.9z"/><path fill="#F5D158" d="M88.8 252.6c79.7 0 79.7 123.1 0 123.1s-79.7-123.1 0-123.1z"/><path fill="#F5D159" d="M88.8 253.2c79.2 0 79.2 122.3 0 122.3s-79.2-122.3 0-122.3z"/><path fill="#F5D15A" d="M88.8 253.9c78.7 0 78.7 121.6 0 121.6s-78.7-121.6 0-121.6z"/><path fill="#F5D15B" d="M88.8 254.6c78.2 0 78.2 120.8 0 120.8s-78.2-120.8 0-120.8z"/><path fill="#F5D25C" d="M88.8 255.3c77.8 0 77.8 120.1 0 120.1s-77.8-120.1 0-120.1z"/><path fill="#F5D25D" d="M88.8 256c77.3 0 77.3 119.3 0 119.3S11.5 256 88.8 256z"/><path fill="#F5D25F" d="M88.8 256.7c76.8 0 76.8 118.5 0 118.5s-76.8-118.5 0-118.5z"/><path fill="#F6D360" d="M88.8 257.3c76.3 0 76.3 117.8 0 117.8s-76.3-117.8 0-117.8z"/><path fill="#F6D361" d="M88.8 258c75.8 0 75.8 117 0 117s-75.8-117 0-117z"/><path fill="#F6D362" d="M88.8 258.7c75.3 0 75.3 116.2 0 116.2s-75.4-116.2 0-116.2z"/><path fill="#F6D363" d="M88.8 259.4c74.8 0 74.8 115.5 0 115.5s-74.9-115.5 0-115.5z"/><path fill="#F6D464" d="M88.8 260.1c74.4 0 74.4 114.7 0 114.7s-74.4-114.7 0-114.7z"/><path fill="#F6D465" d="M88.7 260.7c73.9 0 73.9 114 0 114s-73.8-114 0-114z"/><path fill="#F6D466" d="M88.7 261.4c73.4 0 73.4 113.2 0 113.2s-73.4-113.2 0-113.2z"/><path fill="#F6D567" d="M88.7 262.1c72.9 0 72.9 112.4 0 112.4s-72.9-112.4 0-112.4z"/><path fill="#F6D568" d="M88.7 262.8c72.4 0 72.4 111.7 0 111.7s-72.4-111.7 0-111.7z"/><path fill="#F6D569" d="M88.7 263.5c71.9 0 71.9 110.9 0 110.9s-71.9-110.9 0-110.9z"/><path fill="#F7D66A" d="M88.7 264.2c71.5 0 71.5 110.2 0 110.2s-71.5-110.2 0-110.2z"/><path fill="#F7D66B" d="M88.7 264.8c71 0 71 109.4 0 109.4s-71-109.4 0-109.4z"/><path fill="#F7D66C" d="M88.7 265.5c70.5 0 70.5 108.6 0 108.6s-70.5-108.6 0-108.6z"/><path fill="#F7D66D" d="M88.7 266.2c70 0 70 107.9 0 107.9s-70-107.9 0-107.9z"/><path fill="#F7D76E" d="M88.7 266.9c69.5 0 69.5 107.1 0 107.1s-69.6-107.1 0-107.1z"/><path fill="#F7D76F" d="M88.7 267.6c69 0 69 106.4 0 106.4s-69.1-106.4 0-106.4z"/><path fill="#F7D770" d="M88.6 268.3c68.5 0 68.5 105.6 0 105.6s-68.5-105.6 0-105.6z"/><path fill="#F7D871" d="M88.6 268.9c68.1 0 68.1 104.8 0 104.8s-68-104.8 0-104.8z"/><path fill="#F7D872" d="M88.6 269.6c67.6 0 67.6 104.1 0 104.1s-67.6-104.1 0-104.1z"/><path fill="#F7D874" d="M88.6 270.3c67.1 0 67.1 103.3 0 103.3s-67.1-103.3 0-103.3z"/><path fill="#F7D875" d="M88.6 271c66.6 0 66.6 102.5 0 102.5S22 271 88.6 271z"/><path fill="#F7D976" d="M88.6 271.7c66.1 0 66.1 101.8 0 101.8s-66.1-101.8 0-101.8z"/><path fill="#F7D977" d="M88.6 272.3c65.6 0 65.6 101 0 101s-65.7-101 0-101z"/><path fill="#F8D978" d="M88.6 273c65.1 0 65.1 100.3 0 100.3S23.4 273 88.6 273z"/><path fill="#F8DA79" d="M88.6 273.7c64.7 0 64.7 99.5 0 99.5s-64.7-99.5 0-99.5z"/><path fill="#F8DA7A" d="M88.6 274.4c64.2 0 64.2 98.7 0 98.7s-64.2-98.7 0-98.7z"/><path fill="#F8DA7B" d="M88.5 275.1c63.7 0 63.7 98 0 98s-63.6-98 0-98z"/><path fill="#F8DA7C" d="M88.5 275.8c63.2 0 63.2 97.2 0 97.2s-63.2-97.2 0-97.2z"/><path fill="#F8DB7D" d="M88.5 276.4c62.7 0 62.7 96.5 0 96.5s-62.7-96.5 0-96.5z"/><path fill="#F8DB7E" d="M88.5 277.1c62.2 0 62.2 95.7 0 95.7s-62.2-95.7 0-95.7z"/><path fill="#F8DB7F" d="M88.5 277.8c61.8 0 61.8 94.9 0 94.9s-61.7-94.9 0-94.9z"/><path fill="#F8DC80" d="M88.5 278.5c61.3 0 61.3 94.2 0 94.2s-61.3-94.2 0-94.2z"/><path fill="#F8DC81" d="M88.5 279.2c60.8 0 60.8 93.4 0 93.4s-60.8-93.4 0-93.4z"/><path fill="#F8DC82" d="M88.5 279.8c60.3 0 60.3 92.6 0 92.6s-60.3-92.6 0-92.6z"/><path fill="#F8DD83" d="M88.5 280.5c59.8 0 59.8 91.9 0 91.9s-59.8-91.9 0-91.9z"/><path fill="#F9DD84" d="M88.5 281.2c59.3 0 59.3 91.1 0 91.1s-59.4-91.1 0-91.1z"/><path fill="#F9DD85" d="M88.5 281.9c58.8 0 58.8 90.4 0 90.4s-58.9-90.4 0-90.4z"/><path fill="#F9DD86" d="M88.5 282.6c58.4 0 58.4 89.6 0 89.6s-58.4-89.6 0-89.6z"/><path fill="#F9DE87" d="M88.4 283.3c57.9 0 57.9 88.8 0 88.8s-57.8-88.8 0-88.8z"/><path fill="#F9DE88" d="M88.4 283.9c57.4 0 57.4 88.1 0 88.1s-57.3-88.1 0-88.1z"/><path fill="#F9DE89" d="M88.4 284.6c56.9 0 56.9 87.3 0 87.3s-56.9-87.3 0-87.3z"/><path fill="#F9DF8A" d="M88.4 285.3c56.4 0 56.4 86.6 0 86.6s-56.4-86.6 0-86.6z"/><path fill="#F9DF8B" d="M88.4 286c55.9 0 55.9 85.8 0 85.8s-55.9-85.8 0-85.8z"/><path fill="#F9DF8C" d="M88.4 286.7c55.4 0 55.4 85 0 85s-55.4-85 0-85z"/><path fill="#F9DF8D" d="M88.4 287.3c55 0 55 84.3 0 84.3s-55-84.3 0-84.3z"/><path fill="#F9E08E" d="M88.4 288c54.5 0 54.5 83.5 0 83.5s-54.5-83.5 0-83.5z"/><path fill="#F9E08E" d="M88.4 288.7c54 0 54 82.7 0 82.7s-54-82.7 0-82.7z"/><path fill="#F9E08F" d="M88.4 289.4c53.5 0 53.5 82 0 82s-53.5-82 0-82z"/><path fill="#FAE190" d="M88.4 290.1c53 0 53 81.2 0 81.2s-53.1-81.2 0-81.2z"/><path fill="#FAE191" d="M88.4 290.8c52.5 0 52.5 80.5 0 80.5s-52.6-80.5 0-80.5z"/><path fill="#FAE192" d="M88.3 291.4c52 0 52 79.7 0 79.7s-52-79.7 0-79.7z"/><path fill="#FAE193" d="M88.3 292.1c51.6 0 51.6 78.9 0 78.9s-51.5-78.9 0-78.9z"/><path fill="#FAE294" d="M88.3 292.8c51.1 0 51.1 78.2 0 78.2s-51.1-78.2 0-78.2z"/><path fill="#FAE295" d="M88.3 293.5c50.6 0 50.6 77.4 0 77.4s-50.6-77.4 0-77.4z"/><path fill="#FAE296" d="M88.3 294.2c50.1 0 50.1 76.7 0 76.7s-50.1-76.7 0-76.7z"/><path fill="#FAE397" d="M88.3 294.8c49.6 0 49.6 75.9 0 75.9s-49.6-75.9 0-75.9z"/><path fill="#FAE398" d="M88.3 295.5c49.1 0 49.1 75.1 0 75.1s-49.1-75.1 0-75.1z"/><path fill="#FAE399" d="M88.3 296.2c48.7 0 48.7 74.4 0 74.4s-48.7-74.4 0-74.4z"/><path fill="#FAE39A" d="M88.3 296.9c48.2 0 48.2 73.6 0 73.6s-48.2-73.6 0-73.6z"/><path fill="#FAE49B" d="M88.3 297.6c47.7 0 47.7 72.8 0 72.8s-47.7-72.8 0-72.8z"/><path fill="#FBE49C" d="M88.3 298.3c47.2 0 47.2 72.1 0 72.1s-47.2-72.1 0-72.1z"/><path fill="#FBE49D" d="M88.3 298.9c46.7 0 46.7 71.3 0 71.3s-46.8-71.3 0-71.3z"/><path fill="#FBE59D" d="M88.2 299.6c46.2 0 46.2 70.6 0 70.6s-46.2-70.6 0-70.6z"/><path fill="#FBE59E" d="M88.2 300.3c45.7 0 45.7 69.8 0 69.8s-45.7-69.8 0-69.8z"/><path fill="#FBE59F" d="M88.2 301c45.3 0 45.3 69 0 69s-45.2-69 0-69z"/><path fill="#FBE6A0" d="M88.2 301.7c44.8 0 44.8 68.3 0 68.3s-44.8-68.3 0-68.3z"/><path fill="#FBE6A1" d="M88.2 302.3c44.3 0 44.3 67.5 0 67.5s-44.3-67.5 0-67.5z"/><path fill="#FBE6A2" d="M88.2 303c43.8 0 43.8 66.8 0 66.8s-43.8-66.8 0-66.8z"/><path fill="#FBE6A3" d="M88.2 303.7c43.3 0 43.3 66 0 66s-43.3-66 0-66z"/><path fill="#FBE7A4" d="M88.2 304.4c42.8 0 42.8 65.2 0 65.2s-42.8-65.2 0-65.2z"/><path fill="#FBE7A5" d="M88.2 305.1c42.3 0 42.3 64.5 0 64.5s-42.4-64.5 0-64.5z"/><path fill="#FBE7A6" d="M88.2 305.7c41.9 0 41.9 63.7 0 63.7s-41.9-63.7 0-63.7z"/><path fill="#FCE8A7" d="M88.2 306.4c41.4 0 41.4 62.9 0 62.9s-41.4-62.9 0-62.9z"/><path fill="#FCE8A8" d="M88.2 307.1c40.9 0 40.9 62.2 0 62.2s-40.9-62.2 0-62.2z"/><path fill="#FCE8A9" d="M88.1 307.8c40.4 0 40.4 61.4 0 61.4s-40.4-61.4 0-61.4z"/><path fill="#FCE9A9" d="M88.1 308.5c39.9 0 39.9 60.7 0 60.7s-39.9-60.7 0-60.7z"/><path fill="#FCE9AA" d="M88.1 309.2c39.4 0 39.4 59.9 0 59.9s-39.4-59.9 0-59.9z"/><path fill="#FCE9AB" d="M88.1 309.8c38.9 0 38.9 59.1 0 59.1s-38.9-59.1 0-59.1z"/><path fill="#FCE9AC" d="M88.1 310.5c38.5 0 38.5 58.4 0 58.4s-38.4-58.4 0-58.4z"/><path fill="#FCEAAD" d="M88.1 311.2c38 0 38 57.6 0 57.6s-38-57.6 0-57.6z"/><path fill="#FCEAAE" d="M88.1 311.9c37.5 0 37.5 56.9 0 56.9s-37.5-56.9 0-56.9z"/><path fill="#FCEAAF" d="M88.1 312.6c37 0 37 56.1 0 56.1s-37-56.1 0-56.1z"/><path fill="#FCEBB0" d="M88.1 313.2c36.5 0 36.5 55.3 0 55.3s-36.5-55.3 0-55.3z"/><path fill="#FCEBB1" d="M88.1 313.9c36 0 36 54.6 0 54.6s-36.1-54.6 0-54.6z"/><path fill="#FCEBB2" d="M88.1 314.6c35.6 0 35.6 53.8 0 53.8s-35.6-53.8 0-53.8z"/><path fill="#FDECB3" d="M88.1 315.3c35.1 0 35.1 53 0 53s-35.1-53 0-53z"/><path fill="#FDECB3" d="M88.1 316c34.6 0 34.6 52.3 0 52.3s-34.6-52.3 0-52.3z"/><path fill="#FDECB4" d="M88.1 316.6c34.1 0 34.1 51.5 0 51.5s-34.1-51.5 0-51.5z"/><path fill="#FDECB5" d="M88 317.3c33.6 0 33.6 50.8 0 50.8s-33.6-50.8 0-50.8z"/><path fill="#FDEDB6" d="M88 318c33.1 0 33.1 50 0 50s-33.1-50 0-50z"/><path fill="#FDEDB7" d="M88 318.7c32.6 0 32.6 49.2 0 49.2s-32.6-49.2 0-49.2z"/><path fill="#FDEDB8" d="M88 319.4c32.2 0 32.2 48.5 0 48.5s-32.1-48.5 0-48.5z"/><path fill="#FDEEB9" d="M88 320c31.7 0 31.7 47.7 0 47.7S56.3 320 88 320z"/><path fill="#FDEEBA" d="M88 320.7c31.2 0 31.2 47 0 47s-31.2-47 0-47z"/><path fill="#FDEEBB" d="M88 321.4c30.7 0 30.7 46.2 0 46.2s-30.7-46.2 0-46.2z"/><path fill="#FDEEBB" d="M88 322.1c30.2 0 30.2 45.4 0 45.4s-30.2-45.4 0-45.4z"/><path fill="#FDEFBC" d="M88 322.8c29.7 0 29.7 44.7 0 44.7s-29.7-44.7 0-44.7z"/><path fill="#FDEFBD" d="M88 323.4c29.3 0 29.3 43.9 0 43.9s-29.3-43.9 0-43.9z"/><path fill="#FEEFBE" d="M88 324.1c28.8 0 28.8 43.2 0 43.2s-28.8-43.2 0-43.2z"/><path fill="#FEF0BF" d="M88 324.8c28.3 0 28.3 42.4 0 42.4s-28.3-42.4 0-42.4z"/><path fill="#FEF0C0" d="M88 325.5c27.8 0 27.8 41.6 0 41.6s-27.8-41.6 0-41.6z"/><path fill="#FEF0C1" d="M88 326.2c27.3 0 27.3 40.9 0 40.9s-27.3-40.9 0-40.9z"/><path fill="#FEF1C2" d="M88 326.8c26.8 0 26.8 40.1 0 40.1s-26.9-40.1 0-40.1z"/><path fill="#FEF1C2" d="M88.1 327.4c26.3 0 26.3 39.3 0 39.3s-26.3-39.3 0-39.3z"/><path fill="#FEF1C3" d="M88.1 328.1c25.9 0 25.9 38.6 0 38.6s-25.9-38.6 0-38.6z"/><path fill="#FEF1C4" d="M88.1 328.8c25.4 0 25.4 37.8 0 37.8s-25.4-37.8 0-37.8z"/><path fill="#FEF2C5" d="M88.1 329.5c24.9 0 24.9 37.1 0 37.1s-24.9-37.1 0-37.1z"/><path fill="#FEF2C6" d="M88.1 330.2c24.4 0 24.4 36.3 0 36.3s-24.4-36.3 0-36.3z"/><path fill="#FEF2C7" d="M88 330.9c23.9 0 23.9 35.5 0 35.5s-23.9-35.5 0-35.5z"/><path fill="#FEF3C8" d="M88 331.5c23.4 0 23.4 34.8 0 34.8s-23.4-34.8 0-34.8z"/><path fill="#FEF3C9" d="M88 332.2c22.9 0 22.9 34 0 34s-22.9-34 0-34z"/><path fill="#FFF3C9" d="M88 332.9c22.5 0 22.5 33.3 0 33.3s-22.4-33.3 0-33.3z"/><path fill="#FFF4CA" d="M88 333.6c22 0 22 32.5 0 32.5s-22-32.5 0-32.5z"/><path fill="#FFF4CB" d="M88 334.3c21.5 0 21.5 31.7 0 31.7s-21.5-31.7 0-31.7z"/><path fill="#FFF4CC" d="M88 334.9c21 0 21 31 0 31s-21-31 0-31z"/><path fill="#FFF4CD" d="M88 335.6c20.5 0 20.5 30.2 0 30.2s-20.5-30.2 0-30.2z"/><path fill="#FFF5CE" d="M88 336.3c20 0 20 29.5 0 29.5s-20.1-29.5 0-29.5z"/><path fill="#FFF5CF" d="M88 337c19.5 0 19.5 28.7 0 28.7S68.4 337 88 337z"/><path fill="#FFF5D0" d="M88 337.7c19.1 0 19.1 27.9 0 27.9s-19.1-27.9 0-27.9z"/><path fill="#FFF6D0" d="M88 338.4c18.6 0 18.6 27.2 0 27.2s-18.6-27.2 0-27.2z"/><path fill="#FFF6D1" d="M87.9 339c18.1 0 18.1 26.4 0 26.4s-18-26.4 0-26.4z"/><path fill="#FFF6D2" d="M87.9 339.7c17.6 0 17.6 25.6 0 25.6s-17.6-25.6 0-25.6z"/><path fill="#FFF7D3" d="M87.9 340.4c17.1 0 17.1 24.9 0 24.9s-17.1-24.9 0-24.9z"/><path fill="#FFF7D4" d="M87.9 341.1c16.6 0 16.6 24.1 0 24.1s-16.6-24.1 0-24.1z"/><path fill="#FFF7D5" d="M87.9 341.8c16.2 0 16.2 23.4 0 23.4s-16.1-23.4 0-23.4z"/><ellipse fill="url(#d)" cx="90.1" cy="272" rx="66.8" ry="52.7"/><circle fill="#FFF" cx="88.9" cy="296.8" r="55.1"/><path fill="#9F4978" d="M218.7 317.8h29.4c0 1.8 0 3.7-.3 5.5-.8 5-4.1 7.4-9.8 7.4h-25.7c-2.8 0-4.9-.8-6.5-2.4s-2.4-3.8-2.4-6.6v-56.6l.7-.7h41.6c.9 4.3.8 8.8-.8 12.9h-26.3l.1 13.7c1.7-.1 3.8-.1 6.5-.1h14.7c1.3 4 1.2 8.6 0 12.5h-21.2v14.4zm37.1-4.2v-19.8c0-4.2-.8-7.4-2.3-9.7 2.3-2.1 5.3-3.1 8.4-3.2 2.5 0 5.6.2 7.3 2.3 1.2 1.5 1.8 3.9 1.8 7v20.5c0 2.3 0 5.6 2.7 6.3 3.3.8 6.2-.8 8.5-3.1v-32.2c4.9-.9 10.2-.8 15.1 0v34.4c0 3.5.9 5.8 2.7 7-.3 1.3-.9 2.7-1.8 4.2s-1.8 2.6-2.8 3.3c-5.3-.2-9.1-2.4-11.4-6.8-3.6 3.3-8.1 6.3-13.1 6.8-4.4.4-8.9-1-11.6-4.6-2.4-3-3.5-7.2-3.5-12.4zm50.4-24.9c.3-1.3.9-2.7 1.8-4.3.9-1.6 1.8-2.7 2.7-3.4 5.9.5 10 3.4 12.4 8.8 1.4-3.2 3.6-6.2 6.8-7.7 3.7-1.6 7.8-1 11.6-.3 0 2-.3 4.4-1 7.1s-1.6 5.1-2.7 7c-1.1-.4-2.7-.7-4.9-1-3.2 0-5.9 1.6-7.9 4.9v30c-4.9.9-10.2.9-15.1 0v-31.2c-.1-4.7-1.3-8-3.7-9.9zm74.5-2.7c3.4 3.4 5.5 8 6.3 12.7 1.1 5.8.9 12.1-.9 17.7-1 3.2-2.4 5.8-4.4 8.1-1.9 2.2-4.2 3.9-7 5.1-5.8 2.5-13.3 2.5-19.1 0-5.6-2.5-9.5-7.4-11.2-13.2-1.8-5.7-1.9-12.1-.8-17.9.8-4 2.2-8 5-11 7.4-9.4 23.8-9.4 32.1-1.5zm-15.4 5.6c-1.7 0-3.3.5-4.4 1.8-1.5 1.8-2 4.5-2.3 6.8-.3 3-.3 6-.1 9 .2 2.3.3 4.8 1.1 7 .5 1.4 1.3 2.7 2.6 3.3 1.5.7 3.5.8 5 .3 3.6-1 4.2-5.2 4.6-8.4.5-4.4.5-9.1-.3-13.4-.3-1.6-.7-3.3-1.8-4.6-1.1-1.3-2.7-1.8-4.4-1.8zm263.4-5.6c3.4 3.4 5.5 8 6.3 12.7 1.1 5.8.9 12.1-.9 17.7-1 3.2-2.4 5.8-4.4 8.1-1.9 2.2-4.2 3.9-7 5.1-5.8 2.5-13.3 2.5-19.1 0-5.6-2.5-9.5-7.4-11.2-13.2-1.8-5.7-1.9-12.1-.8-17.9.8-4 2.2-8 5-11 7.4-9.4 23.8-9.4 32.1-1.5zm-15.4 5.6c-1.7 0-3.3.5-4.4 1.8-1.5 1.8-2 4.5-2.3 6.8-.3 3-.3 6-.1 9 .2 2.3.3 4.8 1.1 7 .5 1.4 1.3 2.7 2.6 3.3 1.5.7 3.5.8 5 .3 3.6-1 4.2-5.2 4.6-8.4.5-4.4.5-9.1-.3-13.4-.3-1.6-.7-3.3-1.8-4.6-1.1-1.3-2.7-1.8-4.4-1.8zm-217.5 38.1l5.1-65.6c6.5-1.2 13.6-1.2 20.2 0 0 0 9.1 40.2 9.3 41.1h.7c.3-1.6 9.4-41.1 9.4-41.1 6.5-1.2 13.7-1.2 20.2 0l5.1 65.6c-2.4.6-4.9.8-7.4.8-2.4 0-4.8-.1-7.2-.5 0 0-2.3-45-2.3-49.1h-.6l-9.6 39.3c-5.2.9-10.7.9-15.9 0l-9.5-39.3h-.7c0 5.7-2.2 49.1-2.2 49.1-2.4.4-4.8.5-7.2.5-2.5 0-5-.1-7.4-.8zm98.3-36.8V330c-4.9.9-10.3.8-15.2 0v-32c0-3.7-1.5-5.6-4.5-5.6H473c-.5-1.6-.6-3.4-.6-5.1 0-1.8.1-3.6.6-5.4 1.7-.1 3.2-.2 4.6-.3 3.5-.3 6-.1 6-.1 3.3 0 5.9 1 7.7 3.1 1.9 1.9 2.8 4.7 2.8 8.3zm-16.9-30.5c2.2-1.2 4.8-1.5 7.2-1.5 2.4 0 5 .3 7 1.5 1.6 3.5 1.6 7.7 0 11.2-2.2 1.2-4.8 1.4-7.3 1.4-2.3 0-4.9-.2-7-1.4-1.4-3.5-1.4-7.7.1-11.2zm105.4 30.5V330c-4.9.9-10.3.8-15.2 0v-32c0-3.7-1.5-5.6-4.5-5.6h-1.4c-.5-1.6-.6-3.4-.6-5.1 0-1.8.1-3.6.6-5.4 1.7-.1 3.2-.2 4.6-.3 3.5-.3 6-.1 6-.1 3.3 0 5.9 1 7.7 3.1 1.9 1.9 2.8 4.7 2.8 8.3zm-16.9-30.5c2.2-1.2 4.8-1.5 7.2-1.5s5 .3 7 1.5c1.6 3.5 1.6 7.7 0 11.2-2.2 1.2-4.8 1.4-7.3 1.4-2.3 0-4.9-.2-7-1.4-1.4-3.5-1.4-7.7.1-11.2zm-41.4 56.4h2.6c.7 1.9 1.1 4 1.2 6.1 0 1.4.1 3.1-.3 4.5-3.7.6-7.6 1.1-11.4 1-3-.1-6.3-.8-8.3-3.2-1.8-2.2-2.7-5.6-2.7-10.2v-57.4l.6-.7h5.9c2.3 0 5 .3 6.5 2.2 1.5 1.8 1.7 4.6 1.7 6.9v46.4c0 2.9 1.4 4.4 4.2 4.4zm29.3 0h2.6c.7 1.9 1.1 4 1.2 6.1 0 1.4.1 3.1-.3 4.5-3.7.6-7.6 1.1-11.4 1-3-.1-6.3-.8-8.3-3.2-1.8-2.2-2.7-5.6-2.7-10.2v-57.4l.6-.7h5.9c2.3 0 5 .3 6.5 2.2 1.5 1.8 1.7 4.6 1.7 6.9v46.4c-.1 2.9 1.3 4.4 4.2 4.4zm132-20.7v19.8c0 4.3.8 7.4 2.3 9.6-2.3 2-5.1 3.1-8.1 3.3-2.5.1-5.8-.2-7.5-2.3-1.2-1.5-1.8-3.9-1.8-7.1v-20.6c0-2.2-.3-3.8-.9-4.8-1.3-2.3-4.7-1.6-6.7-.8-1.2.5-2.5 1.4-3.8 2.5v32.2c-4.8.9-10.2.8-15.1 0v-48.1l.7-.7h5.7c3.9 0 6.6 1.9 7.9 5.8 5.1-4.5 12.1-7.7 18.9-5 6.4 2.5 8.4 9.9 8.4 16.2zm7.4 28.6c.1-1.7.5-3.5 1.3-5.5s1.8-3.6 2.8-4.7c2.9 1.5 6 2.9 9.3 3.6 2.5.6 6 1 8.3-.5 1.4-.9 1.8-2.6 1.1-4.1-.8-1.5-2.5-2.3-4.1-2.8l-5.3-2c-4.1-1.5-8.2-3.9-10.4-7.9-2.1-3.8-2.1-8.8-.5-12.8 4.2-10.6 17.6-10.7 27-8.5 3.4.8 6.2 1.8 8.4 2.8.1 1.8-.2 3.8-1.1 5.9-.8 2.2-1.9 3.7-3.1 4.6-2.9-1.3-5.9-2.5-9-3.1-2.1-.5-5.6-1.2-7.4.4-1 .8-1.3 2.3-.7 3.4.6 1.3 2.1 2 3.4 2.5l6 2.1c5.3 1.9 10.4 5.2 12.1 10.7 1.9 5.8.2 12.5-4.6 16.3-4.2 3.4-9.9 4.2-15.2 4.2-6.4.1-12.7-1.5-18.3-4.6zm-591.5-12.5c-3.6-3.6-12.6-12.8-12.8-12.8-4.4 4.2-8.7 8.5-12.8 12.8-3 3-6.6 5.7-6.5 11.4 0 7.6 8.4 14.2 16.6 10.2.4-.2.9-.5 1.5-.9.4-.2 1.2-1 1.3-1 .1 0 .9.8 1.3 1 .6.4 1.1.7 1.5.9 8.1 4 16.5-2.6 16.6-10.2-.1-5.7-3.7-8.5-6.7-11.4zm1.7-33.1c-3.6 3.6-12.6 12.8-12.8 12.8-.2 0-9.2-9.2-12.8-12.8-3-3-6.6-5.7-6.5-11.4 0-7.6 8.4-14.2 16.6-10.2.4.2.9.5 1.5.9.3.2 1.2 1 1.3 1 .1 0 .9-.8 1.3-1 .6-.4 1.1-.7 1.5-.9 8.1-4 16.5 2.6 16.6 10.2-.1 5.7-3.7 8.4-6.7 11.4zm-31.1 29.4c3.6-3.6 12.8-12.6 12.8-12.8 0-.2-9.2-9.2-12.8-12.8-3-3-5.7-6.6-11.4-6.5-7.6 0-14.2 8.4-10.2 16.6.2.4.5.9.9 1.5.2.3 1 1.2 1 1.3 0 .1-.8.9-1 1.3-.4.6-.7 1.1-.9 1.5-4 8.1 2.6 16.5 10.2 16.6 5.7-.2 8.5-3.8 11.4-6.7zm34.8 0c-3.6-3.6-12.8-12.6-12.8-12.8 0-.2 9.2-9.2 12.8-12.8 3-3 5.7-6.6 11.4-6.5 7.6 0 14.2 8.4 10.2 16.6-.2.4-.5.9-.9 1.5-.2.3-1 1.2-1 1.3 0 .1.8.9 1 1.3.4.6.7 1.1.9 1.5 4 8.1-2.6 16.5-10.2 16.6-5.7-.2-8.4-3.8-11.4-6.7zm655.2 5.7v-.6c0-1.8-.2-3.2-.6-4-1-2-3.9-1.4-4.6.4-.6 1.5-.7 3.3-.7 4.9 0 2-.1 4.4 1.1 6.2.3.5.8.9 1.3 1.2 2.4 1.1 5.4-.3 7.3-1.7.7.4 1.1.9 1.8 1.8.6.9 1 1.7 1.1 2.5-1.1 1.1-2.5 2.1-4.2 2.8-4.4 1.8-10.2 1.5-13.4-2.4-1.6-1.9-2.3-4.3-2.6-6.7-.4-2.9-.3-6 .7-8.7 1.1-2.8 3-5.2 5.9-6.3 2.5-1 5.5-1 8-.2 3.2 1.1 5.7 3.7 5.8 7.2.1 1.5-.3 2.9-1.7 3.6-1.5.6-3.5.4-5.2 0zm28.5-8.7c2.4 2.4 3.5 5.7 3.5 10.1 0 2-.3 3.8-.8 5.4s-1.2 3-2.2 4.1-2.2 2-3.6 2.6c-1.4.6-3 .9-4.9.9s-3.5-.3-4.9-.9-2.6-1.5-3.5-2.6c-1-1.1-1.7-2.5-2.2-4.1s-.7-3.4-.7-5.3c0-2 .2-3.8.7-5.3.5-1.6 1.2-3 2.2-4.1.9-1.1 2.1-2 3.5-2.7 1.4-.6 3-.9 4.9-.9 3.4-.1 6 .9 8 2.8zm-7.8 2.9c-.7 0-1.3.2-1.8.5-.4.3-.8.8-1.1 1.4s-.4 1.3-.5 2c-.1.8-.1 1.6-.1 2.5 0 1.4 0 2.6.1 3.6s.2 1.8.5 2.5.6 1.2 1 1.5 1 .5 1.8.5c1.5 0 2.4-.6 2.9-1.9s.7-3.1.7-5.4c0-2.4-.2-4.2-.7-5.4-.5-1.2-1.5-1.8-2.8-1.8zm28.9 4.7c0-1.1-.1-2.6-1.2-3.1-1.5-.7-3.2.5-4.2 1.5v16.4c-.6.1-1.2.2-1.8.2-1.3.1-2.7.1-4 0-.7-.1-1.3-.1-1.8-.2v-24.6l.3-.3h2.9c2.1 0 3.5 1 4.1 3.1 1.9-1.8 4.4-3.3 7.1-3.2 2.4.1 4.4 1.3 5.5 3.4 3.2-2.8 9.1-5.4 12.4-1.3 1.1 1.4 1.7 3.3 1.7 5.7v11c0 2.1.4 3.8 1.2 4.9-1.2 1-2.6 1.6-4.2 1.7-1.3.1-3-.1-3.8-1.2-.6-.8-.9-2-.9-3.6V315c0-1.2-.2-2.7-1.5-3.1-1.5-.5-3 .6-4 1.6v16.4c-.6.1-1.2.2-1.8.2-1.4.1-2.7.1-4.1 0-.7-.1-1.3-.1-1.8-.2l-.1-14.8zm-75.7 8.4c1-.5 2.3-.8 3.9-.8s2.9.3 3.8.8c.4.9.6 1.9.6 3s-.2 2.1-.6 3c-1 .5-2.3.8-3.9.8s-2.9-.3-3.7-.8c-.4-.9-.6-1.9-.6-3s.1-2.1.5-3z"/>
<linearGradient id="d" gradientUnits="userSpaceOnUse" x1="16.777" y1="-135.945" x2="16.777" y2="-161.627" gradientTransform="translate(21.248 882.618) scale(4.104)"><stop offset="0" stop-color="#FFD936"/><stop offset="1" stop-color="#FFF"/></linearGradient>
</svg>

