<svg xmlns="http://www.w3.org/2000/svg" viewBox="0 0 180.622 40.83"><circle cx="21.813" cy="20.415" r="20.007" fill="#EFC204"/><circle cx="21.811" cy="20.488" r="19.915" fill="#EFC208"/><circle cx="21.809" cy="20.562" r="19.824" fill="#EFC20C"/><circle cx="21.806" cy="20.635" r="19.732" fill="#F0C20F"/><ellipse transform="translate(-.045 .048)" cx="21.804" cy="20.709" rx="19.641" ry="19.635" fill="#F0C312"/><ellipse transform="translate(-.045 .048)" cx="21.802" cy="20.782" rx="19.549" ry="19.542" fill="#F0C314"/><ellipse transform="translate(-.045 .048)" cx="21.8" cy="20.856" rx="19.458" ry="19.45" fill="#F0C317"/><ellipse transform="translate(-.046 .048)" cx="21.798" cy="20.929" rx="19.366" ry="19.357" fill="#F0C319"/><ellipse transform="translate(-.046 .048)" cx="21.796" cy="21.003" rx="19.275" ry="19.264" fill="#F0C41B"/><ellipse transform="translate(-.046 .048)" cx="21.794" cy="21.076" rx="19.183" ry="19.171" fill="#F0C41D"/><ellipse transform="translate(-.046 .047)" cx="21.792" cy="21.15" rx="19.092" ry="19.079" fill="#F0C41F"/><ellipse transform="translate(-.046 .047)" cx="21.789" cy="21.223" rx="19" ry="18.986" fill="#F0C521"/><ellipse transform="translate(-.046 .047)" cx="21.787" cy="21.297" rx="18.909" ry="18.893" fill="#F1C522"/><ellipse transform="translate(-.046 .047)" cx="21.785" cy="21.37" rx="18.817" ry="18.8" fill="#F1C524"/><ellipse transform="translate(-.046 .047)" cx="21.783" cy="21.444" rx="18.726" ry="18.708" fill="#F1C526"/><ellipse transform="translate(-.046 .047)" cx="21.781" cy="21.517" rx="18.634" ry="18.615" fill="#F1C627"/><ellipse transform="translate(-.047 .047)" cx="21.779" cy="21.591" rx="18.543" ry="18.522" fill="#F1C629"/><ellipse transform="translate(-.047 .047)" cx="21.777" cy="21.664" rx="18.451" ry="18.429" fill="#F1C62A"/><ellipse transform="translate(-.047 .047)" cx="21.775" cy="21.738" rx="18.36" ry="18.337" fill="#F1C62C"/><ellipse transform="translate(-.047 .047)" cx="21.772" cy="21.812" rx="18.268" ry="18.244" fill="#F1C72D"/><ellipse transform="translate(-.047 .047)" cx="21.77" cy="21.885" rx="18.177" ry="18.151" fill="#F1C72E"/><ellipse transform="translate(-.047 .047)" cx="21.768" cy="21.959" rx="18.085" ry="18.058" fill="#F2C730"/><ellipse transform="translate(-.047 .047)" cx="21.766" cy="22.032" rx="17.994" ry="17.966" fill="#F2C831"/><ellipse transform="translate(-.047 .047)" cx="21.764" cy="22.106" rx="17.902" ry="17.873" fill="#F2C833"/><ellipse transform="translate(-.048 .047)" cx="21.762" cy="22.179" rx="17.811" ry="17.78" fill="#F2C834"/><ellipse transform="translate(-.048 .047)" cx="21.76" cy="22.253" rx="17.719" ry="17.687" fill="#F2C835"/><ellipse transform="translate(-.048 .047)" cx="21.758" cy="22.326" rx="17.628" ry="17.595" fill="#F2C936"/><ellipse transform="translate(-.048 .047)" cx="21.755" cy="22.4" rx="17.536" ry="17.502" fill="#F2C938"/><ellipse transform="translate(-.048 .046)" cx="21.753" cy="22.473" rx="17.445" ry="17.409" fill="#F2C939"/><ellipse transform="translate(-.048 .046)" cx="21.751" cy="22.547" rx="17.353" ry="17.316" fill="#F2CA3A"/><ellipse transform="translate(-.048 .046)" cx="21.749" cy="22.62" rx="17.262" ry="17.223" fill="#F3CA3C"/><ellipse transform="translate(-.048 .046)" cx="21.747" cy="22.694" rx="17.17" ry="17.131" fill="#F3CA3D"/><ellipse transform="translate(-.048 .046)" cx="21.745" cy="22.767" rx="17.079" ry="17.038" fill="#F3CA3E"/><ellipse transform="translate(-.048 .046)" cx="21.743" cy="22.841" rx="16.987" ry="16.945" fill="#F3CB3F"/><ellipse transform="translate(-.05 .046)" cx="21.74" cy="22.914" rx="16.896" ry="16.852" fill="#F3CB40"/><ellipse transform="translate(-.05 .046)" cx="21.738" cy="22.988" rx="16.804" ry="16.76" fill="#F3CB42"/><ellipse transform="translate(-.05 .046)" cx="21.736" cy="23.061" rx="16.713" ry="16.667" fill="#F3CB43"/><ellipse transform="translate(-.05 .046)" cx="21.734" cy="23.135" rx="16.621" ry="16.574" fill="#F3CC44"/><ellipse transform="translate(-.05 .046)" cx="21.732" cy="23.208" rx="16.53" ry="16.481" fill="#F3CC45"/><ellipse transform="translate(-.05 .046)" cx="21.73" cy="23.282" rx="16.438" ry="16.389" fill="#F3CC47"/><ellipse transform="translate(-.05 .046)" cx="21.728" cy="23.355" rx="16.347" ry="16.296" fill="#F4CD48"/><ellipse transform="translate(-.05 .046)" cx="21.726" cy="23.429" rx="16.255" ry="16.203" fill="#F4CD49"/><ellipse transform="translate(-.05 .046)" cx="21.723" cy="23.502" rx="16.164" ry="16.11" fill="#F4CD4A"/><ellipse transform="translate(-.05 .046)" cx="21.721" cy="23.576" rx="16.072" ry="16.018" fill="#F4CD4B"/><ellipse transform="translate(-.05 .045)" cx="21.719" cy="23.649" rx="15.981" ry="15.925" fill="#F4CE4D"/><ellipse transform="translate(-.05 .045)" cx="21.717" cy="23.723" rx="15.889" ry="15.832" fill="#F4CE4E"/><ellipse transform="translate(-.05 .045)" cx="21.715" cy="23.796" rx="15.798" ry="15.739" fill="#F4CE4F"/><ellipse transform="translate(-.05 .045)" cx="21.713" cy="23.87" rx="15.706" ry="15.647" fill="#F4CF50"/><ellipse transform="translate(-.05 .045)" cx="21.711" cy="23.943" rx="15.615" ry="15.554" fill="#F4CF51"/><ellipse transform="translate(-.05 .045)" cx="21.709" cy="24.017" rx="15.523" ry="15.461" fill="#F4CF52"/><ellipse transform="translate(-.05 .045)" cx="21.706" cy="24.09" rx="15.432" ry="15.368" fill="#F5CF53"/><ellipse transform="translate(-.05 .045)" cx="21.704" cy="24.164" rx="15.34" ry="15.276" fill="#F5D055"/><ellipse transform="translate(-.05 .045)" cx="21.702" cy="24.237" rx="15.249" ry="15.183" fill="#F5D056"/><ellipse transform="translate(-.05 .045)" cx="21.7" cy="24.311" rx="15.157" ry="15.09" fill="#F5D057"/><ellipse transform="translate(-.05 .045)" cx="21.698" cy="24.384" rx="15.066" ry="14.997" fill="#F5D158"/><ellipse transform="translate(-.05 .045)" cx="21.696" cy="24.458" rx="14.974" ry="14.905" fill="#F5D159"/><ellipse transform="translate(-.05 .045)" cx="21.694" cy="24.531" rx="14.883" ry="14.812" fill="#F5D15A"/><ellipse transform="translate(-.05 .045)" cx="21.692" cy="24.605" rx="14.791" ry="14.719" fill="#F5D15B"/><ellipse transform="translate(-.05 .044)" cx="21.689" cy="24.678" rx="14.7" ry="14.626" fill="#F5D25C"/><ellipse transform="translate(-.05 .044)" cx="21.687" cy="24.752" rx="14.608" ry="14.533" fill="#F5D25D"/><ellipse transform="translate(-.05 .044)" cx="21.685" cy="24.825" rx="14.517" ry="14.441" fill="#F5D25F"/><ellipse transform="translate(-.05 .044)" cx="21.683" cy="24.899" rx="14.425" ry="14.348" fill="#F6D360"/><ellipse transform="translate(-.05 .044)" cx="21.681" cy="24.972" rx="14.334" ry="14.255" fill="#F6D361"/><ellipse transform="translate(-.05 .044)" cx="21.679" cy="25.046" rx="14.242" ry="14.162" fill="#F6D362"/><ellipse transform="translate(-.05 .044)" cx="21.677" cy="25.119" rx="14.151" ry="14.07" fill="#F6D363"/><ellipse transform="translate(-.05 .044)" cx="21.675" cy="25.193" rx="14.06" ry="13.977" fill="#F6D464"/><ellipse transform="translate(-.05 .044)" cx="21.672" cy="25.266" rx="13.968" ry="13.884" fill="#F6D465"/><ellipse transform="translate(-.05 .044)" cx="21.67" cy="25.34" rx="13.877" ry="13.791" fill="#F6D466"/><ellipse transform="translate(-.05 .044)" cx="21.668" cy="25.413" rx="13.785" ry="13.699" fill="#F6D567"/><ellipse transform="translate(-.05 .044)" cx="21.666" cy="25.487" rx="13.694" ry="13.606" fill="#F6D568"/><ellipse transform="translate(-.05 .043)" cx="21.664" cy="25.56" rx="13.602" ry="13.513" fill="#F6D569"/><ellipse transform="translate(-.05 .043)" cx="21.662" cy="25.634" rx="13.511" ry="13.42" fill="#F7D66A"/><ellipse transform="translate(-.05 .043)" cx="21.66" cy="25.707" rx="13.419" ry="13.328" fill="#F7D66B"/><ellipse transform="translate(-.05 .043)" cx="21.657" cy="25.781" rx="13.328" ry="13.235" fill="#F7D66C"/><ellipse transform="translate(-.05 .043)" cx="21.655" cy="25.854" rx="13.236" ry="13.142" fill="#F7D66D"/><ellipse transform="translate(-.05 .043)" cx="21.653" cy="25.928" rx="13.145" ry="13.049" fill="#F7D76E"/><ellipse transform="translate(-.05 .043)" cx="21.651" cy="26.001" rx="13.053" ry="12.957" fill="#F7D76F"/><ellipse transform="translate(-.05 .043)" cx="21.649" cy="26.075" rx="12.962" ry="12.864" fill="#F7D770"/><ellipse transform="translate(-.05 .043)" cx="21.647" cy="26.148" rx="12.87" ry="12.771" fill="#F7D871"/><ellipse transform="translate(-.052 .043)" cx="21.645" cy="26.222" rx="12.779" ry="12.678" fill="#F7D872"/><ellipse transform="translate(-.052 .043)" cx="21.643" cy="26.295" rx="12.687" ry="12.586" fill="#F7D874"/><ellipse transform="translate(-.052 .043)" cx="21.64" cy="26.369" rx="12.596" ry="12.493" fill="#F7D875"/><ellipse transform="translate(-.052 .042)" cx="21.638" cy="26.442" rx="12.504" ry="12.4" fill="#F7D976"/><ellipse transform="translate(-.052 .042)" cx="21.636" cy="26.516" rx="12.413" ry="12.307" fill="#F7D977"/><ellipse transform="translate(-.052 .042)" cx="21.634" cy="26.589" rx="12.321" ry="12.214" fill="#F8D978"/><ellipse transform="translate(-.052 .042)" cx="21.632" cy="26.663" rx="12.23" ry="12.122" fill="#F8DA79"/><ellipse transform="translate(-.052 .042)" cx="21.63" cy="26.736" rx="12.138" ry="12.029" fill="#F8DA7A"/><ellipse transform="translate(-.052 .042)" cx="21.628" cy="26.81" rx="12.047" ry="11.936" fill="#F8DA7B"/><ellipse transform="translate(-.052 .042)" cx="21.626" cy="26.883" rx="11.955" ry="11.843" fill="#F8DA7C"/><ellipse transform="translate(-.052 .042)" cx="21.623" cy="26.957" rx="11.864" ry="11.751" fill="#F8DB7D"/><ellipse transform="translate(-.052 .042)" cx="21.621" cy="27.03" rx="11.772" ry="11.658" fill="#F8DB7E"/><ellipse transform="translate(-.052 .04)" cx="21.619" cy="27.104" rx="11.681" ry="11.565" fill="#F8DB7F"/><ellipse transform="translate(-.052 .04)" cx="21.617" cy="27.177" rx="11.589" ry="11.472" fill="#F8DC80"/><ellipse transform="translate(-.052 .04)" cx="21.615" cy="27.251" rx="11.498" ry="11.38" fill="#F8DC81"/><ellipse transform="translate(-.052 .04)" cx="21.613" cy="27.324" rx="11.406" ry="11.287" fill="#F8DC82"/><ellipse transform="translate(-.052 .04)" cx="21.611" cy="27.398" rx="11.315" ry="11.194" fill="#F8DD83"/><ellipse transform="translate(-.052 .04)" cx="21.608" cy="27.471" rx="11.223" ry="11.101" fill="#F9DD84"/><ellipse transform="translate(-.052 .04)" cx="21.606" cy="27.545" rx="11.132" ry="11.009" fill="#F9DD85"/><ellipse transform="translate(-.052 .04)" cx="21.604" cy="27.618" rx="11.04" ry="10.916" fill="#F9DD86"/><ellipse transform="translate(-.052 .04)" cx="21.602" cy="27.692" rx="10.949" ry="10.823" fill="#F9DE87"/><ellipse transform="translate(-.05 .04)" cx="21.6" cy="27.765" rx="10.857" ry="10.73" fill="#F9DE88"/><ellipse transform="translate(-.05 .04)" cx="21.598" cy="27.839" rx="10.766" ry="10.638" fill="#F9DE89"/><ellipse transform="translate(-.05 .04)" cx="21.596" cy="27.912" rx="10.674" ry="10.545" fill="#F9DF8A"/><ellipse transform="translate(-.05 .04)" cx="21.594" cy="27.986" rx="10.583" ry="10.452" fill="#F9DF8B"/><ellipse transform="translate(-.05 .04)" cx="21.591" cy="28.059" rx="10.491" ry="10.359" fill="#F9DF8C"/><ellipse transform="translate(-.05 .04)" cx="21.589" cy="28.133" rx="10.4" ry="10.267" fill="#F9DF8D"/><ellipse transform="translate(-.05 .04)" cx="21.587" cy="28.206" rx="10.308" ry="10.174" fill="#F9E08E"/><ellipse transform="translate(-.05 .04)" cx="21.585" cy="28.28" rx="10.217" ry="10.081" fill="#F9E08E"/><ellipse transform="translate(-.05 .04)" cx="21.583" cy="28.353" rx="10.125" ry="9.988" fill="#F9E08F"/><ellipse transform="translate(-.05 .04)" cx="21.581" cy="28.427" rx="10.034" ry="9.895" fill="#FAE190"/><ellipse transform="translate(-.05 .04)" cx="21.579" cy="28.5" rx="9.942" ry="9.803" fill="#FAE191"/><ellipse transform="translate(-.05 .038)" cx="21.577" cy="28.574" rx="9.851" ry="9.71" fill="#FAE192"/><ellipse transform="translate(-.05 .038)" cx="21.574" cy="28.647" rx="9.759" ry="9.617" fill="#FAE193"/><ellipse transform="translate(-.05 .038)" cx="21.572" cy="28.721" rx="9.668" ry="9.524" fill="#FAE294"/><ellipse transform="translate(-.05 .038)" cx="21.57" cy="28.794" rx="9.576" ry="9.432" fill="#FAE295"/><ellipse transform="translate(-.05 .038)" cx="21.568" cy="28.868" rx="9.485" ry="9.339" fill="#FAE296"/><ellipse transform="translate(-.05 .038)" cx="21.566" cy="28.941" rx="9.393" ry="9.246" fill="#FAE397"/><ellipse transform="translate(-.05 .037)" cx="21.564" cy="29.015" rx="9.302" ry="9.153" fill="#FAE398"/><ellipse transform="translate(-.05 .037)" cx="21.562" cy="29.088" rx="9.21" ry="9.061" fill="#FAE399"/><ellipse transform="translate(-.05 .037)" cx="21.56" cy="29.162" rx="9.119" ry="8.968" fill="#FAE39A"/><ellipse transform="translate(-.05 .037)" cx="21.557" cy="29.235" rx="9.027" ry="8.875" fill="#FAE49B"/><ellipse transform="translate(-.05 .037)" cx="21.555" cy="29.309" rx="8.936" ry="8.782" fill="#FBE49C"/><ellipse transform="translate(-.05 .036)" cx="21.553" cy="29.382" rx="8.844" ry="8.69" fill="#FBE49D"/><ellipse transform="translate(-.05 .036)" cx="21.551" cy="29.456" rx="8.753" ry="8.597" fill="#FBE59D"/><ellipse transform="translate(-.05 .036)" cx="21.549" cy="29.529" rx="8.661" ry="8.504" fill="#FBE59E"/><ellipse transform="translate(-.05 .036)" cx="21.547" cy="29.603" rx="8.57" ry="8.411" fill="#FBE59F"/><ellipse transform="translate(-.05 .036)" cx="21.545" cy="29.676" rx="8.478" ry="8.319" fill="#FBE6A0"/><ellipse transform="translate(-.05 .035)" cx="21.542" cy="29.75" rx="8.387" ry="8.226" fill="#FBE6A1"/><ellipse transform="translate(-.05 .035)" cx="21.54" cy="29.823" rx="8.295" ry="8.133" fill="#FBE6A2"/><ellipse transform="translate(-.048 .035)" cx="21.538" cy="29.897" rx="8.204" ry="8.04" fill="#FBE6A3"/><ellipse transform="translate(-.048 .035)" cx="21.536" cy="29.97" rx="8.112" ry="7.948" fill="#FBE7A4"/><ellipse transform="translate(-.048 .034)" cx="21.534" cy="30.044" rx="8.021" ry="7.855" fill="#FBE7A5"/><ellipse transform="translate(-.048 .034)" cx="21.532" cy="30.117" rx="7.929" ry="7.762" fill="#FBE7A6"/><ellipse transform="translate(-.048 .034)" cx="21.53" cy="30.191" rx="7.838" ry="7.669" fill="#FCE8A7"/><ellipse transform="translate(-.047 .034)" cx="21.528" cy="30.264" rx="7.746" ry="7.577" fill="#FCE8A8"/><ellipse transform="translate(-.047 .033)" cx="21.525" cy="30.338" rx="7.655" ry="7.484" fill="#FCE8A9"/><ellipse transform="translate(-.047 .033)" cx="21.523" cy="30.411" rx="7.563" ry="7.391" fill="#FCE9A9"/><ellipse transform="translate(-.046 .033)" cx="21.521" cy="30.485" rx="7.472" ry="7.298" fill="#FCE9AA"/><ellipse transform="translate(-.046 .033)" cx="21.519" cy="30.558" rx="7.38" ry="7.205" fill="#FCE9AB"/><ellipse transform="translate(-.046 .032)" cx="21.517" cy="30.632" rx="7.289" ry="7.113" fill="#FCE9AC"/><ellipse transform="translate(-.045 .032)" cx="21.515" cy="30.705" rx="7.197" ry="7.02" fill="#FCEAAD"/><ellipse transform="translate(-.045 .032)" cx="21.513" cy="30.779" rx="7.106" ry="6.927" fill="#FCEAAE"/><ellipse transform="translate(-.045 .03)" cx="21.511" cy="30.852" rx="7.014" ry="6.834" fill="#FCEAAF"/><ellipse transform="translate(-.044 .03)" cx="21.508" cy="30.926" rx="6.923" ry="6.742" fill="#FCEBB0"/><ellipse transform="translate(-.044 .03)" cx="21.506" cy="30.999" rx="6.831" ry="6.649" fill="#FCEBB1"/><ellipse transform="translate(-.044 .03)" cx="21.504" cy="31.073" rx="6.74" ry="6.556" fill="#FCEBB2"/><ellipse transform="translate(-.043 .03)" cx="21.502" cy="31.146" rx="6.648" ry="6.463" fill="#FDECB3"/><ellipse transform="translate(-.043 .03)" cx="21.5" cy="31.22" rx="6.557" ry="6.371" fill="#FDECB3"/><ellipse transform="translate(-.043 .03)" cx="21.498" cy="31.293" rx="6.465" ry="6.278" fill="#FDECB4"/><ellipse transform="translate(-.042 .03)" cx="21.496" cy="31.367" rx="6.374" ry="6.185" fill="#FDECB5"/><ellipse transform="translate(-.042 .028)" cx="21.494" cy="31.44" rx="6.282" ry="6.092" fill="#FDEDB6"/><ellipse transform="translate(-.04 .028)" cx="21.491" cy="31.514" rx="6.191" ry="6" fill="#FDEDB7"/><ellipse transform="translate(-.04 .028)" cx="21.489" cy="31.587" rx="6.099" ry="5.907" fill="#FDEDB8"/><ellipse transform="translate(-.04 .027)" cx="21.487" cy="31.661" rx="6.008" ry="5.814" fill="#FDEEB9"/><ellipse transform="translate(-.04 .027)" cx="21.485" cy="31.734" rx="5.916" ry="5.721" fill="#FDEEBA"/><ellipse transform="translate(-.04 .026)" cx="21.483" cy="31.808" rx="5.825" ry="5.629" fill="#FDEEBB"/><ellipse transform="translate(-.038 .026)" cx="21.481" cy="31.881" rx="5.733" ry="5.536" fill="#FDEEBB"/><ellipse transform="translate(-.038 .025)" cx="21.479" cy="31.955" rx="5.642" ry="5.443" fill="#FDEFBC"/><ellipse transform="translate(-.037 .025)" cx="21.477" cy="32.028" rx="5.551" ry="5.35" fill="#FDEFBD"/><ellipse transform="translate(-.036 .024)" cx="21.474" cy="32.102" rx="5.459" ry="5.258" fill="#FEEFBE"/><ellipse transform="translate(-.035 .024)" cx="21.472" cy="32.175" rx="5.368" ry="5.165" fill="#FEF0BF"/><ellipse transform="translate(-.035 .023)" cx="21.47" cy="32.249" rx="5.276" ry="5.072" fill="#FEF0C0"/><ellipse transform="translate(-.034 .023)" cx="21.468" cy="32.322" rx="5.185" ry="4.979" fill="#FEF0C1"/><ellipse transform="translate(-.033 .022)" cx="21.466" cy="32.396" rx="5.093" ry="4.886" fill="#FEF1C2"/><ellipse cx="21.464" cy="32.469" rx="5.002" ry="4.794" fill="#FEF1C2"/><ellipse cx="21.462" cy="32.543" rx="4.91" ry="4.701" fill="#FEF1C3"/><ellipse cx="21.459" cy="32.616" rx="4.819" ry="4.608" fill="#FEF1C4"/><ellipse cx="21.457" cy="32.69" rx="4.727" ry="4.515" fill="#FEF2C5"/><ellipse cx="21.455" cy="32.763" rx="4.636" ry="4.423" fill="#FEF2C6"/><ellipse cx="21.453" cy="32.837" rx="4.544" ry="4.33" fill="#FEF2C7"/><ellipse cx="21.451" cy="32.91" rx="4.453" ry="4.237" fill="#FEF3C8"/><ellipse cx="21.449" cy="32.984" rx="4.361" ry="4.144" fill="#FEF3C9"/><ellipse cx="21.447" cy="33.057" rx="4.27" ry="4.052" fill="#FFF3C9"/><ellipse cx="21.445" cy="33.131" rx="4.178" ry="3.959" fill="#FFF4CA"/><ellipse cx="21.442" cy="33.204" rx="4.087" ry="3.866" fill="#FFF4CB"/><ellipse cx="21.44" cy="33.278" rx="3.995" ry="3.773" fill="#FFF4CC"/><ellipse cx="21.438" cy="33.351" rx="3.904" ry="3.681" fill="#FFF4CD"/><ellipse cx="21.436" cy="33.425" rx="3.812" ry="3.588" fill="#FFF5CE"/><ellipse cx="21.434" cy="33.498" rx="3.721" ry="3.495" fill="#FFF5CF"/><ellipse cx="21.432" cy="33.572" rx="3.629" ry="3.402" fill="#FFF5D0"/><ellipse cx="21.43" cy="33.645" rx="3.538" ry="3.31" fill="#FFF6D0"/><ellipse cx="21.428" cy="33.719" rx="3.446" ry="3.217" fill="#FFF6D1"/><ellipse cx="21.425" cy="33.792" rx="3.355" ry="3.124" fill="#FFF6D2"/><ellipse cx="21.423" cy="33.866" rx="3.263" ry="3.031" fill="#FFF7D3"/><ellipse cx="21.421" cy="33.939" rx="3.172" ry="2.939" fill="#FFF7D4"/><ellipse cx="21.419" cy="34.013" rx="3.08" ry="2.846" fill="#FFF7D5"/><linearGradient id="a" gradientUnits="userSpaceOnUse" x1="21.955" y1="27.023" x2="21.955" y2="1.327"><stop offset="0" stop-color="#FFD936"/><stop offset="1" stop-color="#FFF"/></linearGradient><ellipse cx="21.955" cy="14.175" rx="16.27" ry="12.848" fill="url(#a)"/><circle cx="21.663" cy="20.199" r="13.437" fill="#FFF"/><g fill="#9F4978"><path d="M53.316 23.533l-.024 1.693v.023c.72-.032 1.297-.048 1.735-.048h5.438c0 .58-.023 1.027-.07 1.34-.19 1.208-.99 1.812-2.4 1.812H51.74c-.674 0-1.204-.195-1.587-.588-.384-.392-.576-.925-.576-1.6v-13.78l.165-.166H59.88c.093.455.14.95.14 1.48 0 .534-.11 1.09-.33 1.67h-6.397l.024 1.694v1.646c.405-.015.936-.023 1.592-.023h3.582c.14.44.21.94.21 1.505s-.07 1.082-.21 1.552h-5.174v1.79zM62.324 24.31v-4.823c0-1.02-.188-1.803-.564-2.352.58-.518 1.285-.776 2.117-.776.83 0 1.396.187 1.693.563.298.376.447.95.447 1.717v4.986c0 .55.063.95.188 1.2s.455.376.988.376c.517 0 1.042-.267 1.576-.8v-7.855c.517-.094 1.12-.14 1.81-.14s1.31.046 1.858.14v8.373c0 .847.22 1.42.66 1.717-.08.313-.23.655-.448 1.023-.22.368-.447.64-.682.812-1.286-.047-2.21-.596-2.775-1.646-1.24 1.113-2.407 1.67-3.504 1.67-1.1 0-1.934-.38-2.506-1.14-.574-.76-.86-1.777-.86-3.047zM74.6 18.24c.08-.312.228-.66.448-1.046.22-.384.44-.662.66-.835 1.44.11 2.445.822 3.01 2.14.596-1.41 1.576-2.117 2.94-2.117.407 0 .925.063 1.552.188 0 .487-.083 1.064-.247 1.73-.165.667-.388 1.235-.67 1.706-.267-.094-.667-.172-1.2-.235-.783 0-1.426.4-1.928 1.2v7.315c-.518.094-1.125.142-1.823.142s-1.313-.048-1.847-.142v-7.597c0-1.177-.298-1.992-.894-2.447zM92.76 17.582c1.128 1.13 1.692 2.744 1.692 4.845 0 .94-.122 1.796-.364 2.563-.244.77-.596 1.423-1.06 1.964-.462.54-1.03.957-1.704 1.247-.674.29-1.45.436-2.33.436-.877 0-1.65-.15-2.316-.446-.667-.298-1.23-.718-1.693-1.26s-.812-1.194-1.046-1.963c-.236-.768-.354-1.614-.354-2.54 0-.94.118-1.79.353-2.552.234-.76.58-1.415 1.034-1.964.455-.547 1.02-.97 1.693-1.27.674-.296 1.45-.446 2.33-.446 1.55 0 2.805.464 3.762 1.388zm-3.753 1.365c-.348 0-.627.083-.84.247s-.384.388-.51.67c-.126.282-.213.607-.26.976-.048.368-.072.764-.072 1.188 0 .658.02 1.227.06 1.705s.117.878.236 1.2c.12.32.285.56.5.717.212.156.492.234.84.234.694 0 1.152-.302 1.374-.905s.332-1.463.332-2.576c0-1.13-.11-1.988-.332-2.576s-.664-.88-1.327-.88zM96.45 28.237L97.7 12.243c.69-.125 1.506-.188 2.445-.188.94 0 1.764.063 2.47.188L104 18.006c.55 2.603.84 4.022.87 4.257h.165c.063-.392.354-1.81.87-4.257l1.41-5.762c.69-.125 1.507-.188 2.446-.188.942 0 1.767.063 2.472.188l1.246 15.994c-.486.125-1.086.188-1.8.188s-1.296-.04-1.75-.118l-.378-6.54c-.11-2.602-.172-4.413-.188-5.432h-.14l-2.33 9.572c-.565.095-1.212.142-1.94.142s-1.377-.047-1.94-.142l-2.306-9.572h-.164c0 1.396-.063 3.207-.188 5.433L100 28.307c-.455.078-1.04.118-1.752.118s-1.312-.064-1.797-.19zM120.394 19.252v9.032c-.267.047-.557.082-.87.105s-.635.035-.964.035-.655-.013-.977-.036-.615-.06-.882-.106V20.5c0-.91-.367-1.365-1.104-1.365h-.353c-.095-.297-.142-.713-.142-1.247 0-.517.048-.956.143-1.317.407-.03.783-.058 1.13-.082.344-.023.657-.035.94-.035h.517c.8 0 1.427.25 1.882.752.454.503.682 1.185.682 2.047zm-4.116-7.432c.455-.25 1.043-.376 1.765-.376.736 0 1.31.125 1.717.376.188.423.282.878.282 1.364s-.094.94-.282 1.364c-.455.235-1.05.353-1.787.353-.737 0-1.302-.117-1.694-.352-.19-.423-.283-.878-.283-1.364s.093-.94.28-1.364zM127.756 25.58h.635c.19.52.283 1.043.283 1.564 0 .522-.023.862-.07 1.02-.94.16-1.78.237-2.517.237-1.067 0-1.823-.26-2.27-.786-.447-.525-.67-1.353-.67-2.48V11.137l.14-.165h1.436c.736 0 1.254.165 1.552.493s.447.9.447 1.714v11.295c0 .737.346 1.104 1.036 1.104zM134.882 25.58h.635c.188.52.282 1.043.282 1.564 0 .522-.024.862-.07 1.02-.942.16-1.78.237-2.518.237-1.067 0-1.823-.26-2.27-.786-.447-.525-.67-1.353-.67-2.48V11.137l.14-.165h1.436c.736 0 1.254.165 1.552.493s.447.9.447 1.714v11.295c0 .737.345 1.104 1.035 1.104zM141.89 19.252v9.032c-.267.047-.557.082-.87.105s-.635.035-.964.035-.655-.013-.977-.036-.616-.06-.883-.106V20.5c0-.91-.368-1.365-1.105-1.365h-.353c-.096-.297-.143-.713-.143-1.247 0-.517.047-.956.142-1.317.406-.03.782-.058 1.128-.082.345-.023.658-.035.94-.035h.518c.8 0 1.427.25 1.882.752.455.503.682 1.185.682 2.047zm-4.116-7.432c.455-.25 1.043-.376 1.765-.376.735 0 1.308.125 1.716.376.188.423.282.878.282 1.364s-.094.94-.282 1.364c-.455.235-1.05.353-1.787.353-.738 0-1.303-.117-1.695-.352-.188-.423-.282-.878-.282-1.364s.093-.94.28-1.364zM153.132 17.582c1.13 1.13 1.694 2.744 1.694 4.845 0 .94-.122 1.796-.365 2.563-.242.77-.595 1.423-1.058 1.964-.462.54-1.03.957-1.705 1.247s-1.45.436-2.328.436-1.65-.15-2.317-.446c-.667-.298-1.23-.718-1.693-1.26-.463-.54-.812-1.194-1.047-1.963-.235-.768-.353-1.614-.353-2.54 0-.94.117-1.79.353-2.552s.58-1.415 1.035-1.964c.454-.547 1.02-.97 1.693-1.27.675-.296 1.45-.446 2.33-.446 1.552 0 2.806.464 3.762 1.388zm-3.75 1.365c-.35 0-.63.083-.842.247s-.383.388-.51.67c-.126.282-.213.607-.26.976-.048.368-.07.764-.07 1.188 0 .658.02 1.227.06 1.705.038.48.117.878.235 1.2s.284.56.497.717c.214.156.493.234.84.234.696 0 1.154-.302 1.375-.905.222-.605.332-1.463.332-2.576 0-1.13-.11-1.988-.333-2.576-.22-.587-.663-.88-1.326-.88zM167.056 20.522v4.82c0 1.036.188 1.813.564 2.33-.596.533-1.31.8-2.14.8-.815 0-1.372-.188-1.67-.564-.298-.377-.447-.95-.447-1.718v-5.01c0-.532-.07-.924-.212-1.175-.14-.25-.414-.376-.822-.376-.234 0-.502.062-.8.187-.298.126-.603.33-.917.612v7.854c-.266.047-.556.082-.87.105s-.634.035-.963.035c-.33 0-.65-.013-.965-.036s-.604-.06-.87-.106V16.548l.165-.165h1.388c.956 0 1.6.47 1.93 1.41 1.096-.97 2.186-1.457 3.268-1.457 1.098 0 1.933.38 2.505 1.14.572.76.858 1.776.858 3.046zM168.868 27.484c.015-.407.12-.854.317-1.34.195-.486.427-.87.693-1.153 1.255.66 2.344.99 3.27.99.438 0 .776-.075 1.012-.225.235-.148.353-.35.353-.6 0-.47-.36-.823-1.082-1.06l-1.293-.493c-1.96-.72-2.94-1.897-2.94-3.528 0-1.19.412-2.136 1.235-2.834s1.933-1.047 3.328-1.047c.69 0 1.45.098 2.28.294.832.196 1.515.428 2.048.694.03.44-.056.922-.26 1.448-.203.525-.454.897-.752 1.117-1.317-.596-2.415-.894-3.293-.894-.313 0-.553.072-.717.213-.165.14-.247.32-.247.54 0 .377.297.675.893.895l1.458.518c2.087.737 3.13 2 3.13 3.786 0 1.177-.432 2.11-1.294 2.8-.862.69-2.094 1.034-3.692 1.034-1.6 0-3.082-.383-4.446-1.152z"/></g><g><path d="M24.735 24.44c-.883-.882-1.718-1.737-2.602-2.622-.154-.154-.476-.508-.527-.506-.05-.002-.373.352-.527.506-.885.885-1.72 1.74-2.603 2.623-.72.722-1.598 1.39-1.59 2.786.01 1.86 2.056 3.466 4.04 2.49.094-.045.225-.116.364-.212.086-.06.29-.242.315-.243.025.002.228.185.314.244.14.096.27.167.363.213 1.984.976 4.03-.632 4.04-2.49.01-1.397-.867-2.065-1.588-2.786zM25.148 16.39c-.883.882-1.718 1.737-2.602 2.622-.154.154-.476.508-.527.506-.052.002-.374-.352-.528-.506-.884-.885-1.718-1.74-2.602-2.623-.72-.722-1.598-1.39-1.59-2.786.01-1.86 2.056-3.466 4.04-2.49.094.045.225.116.364.212.085.06.29.242.314.243.025-.002.228-.185.314-.244.14-.096.27-.167.364-.213 1.984-.976 4.03.632 4.04 2.49.01 1.397-.866 2.065-1.588 2.786zM17.58 23.543c.883-.883 1.738-1.718 2.623-2.602.154-.153.508-.475.506-.526 0-.05-.353-.373-.507-.527-.885-.884-1.74-1.718-2.623-2.602-.72-.72-1.39-1.598-2.785-1.59-1.86.01-3.466 2.056-2.49 4.04.045.094.116.225.212.364.06.084.242.288.243.313 0 .025-.184.228-.243.314-.096.14-.167.27-.213.364-.976 1.985.632 4.03 2.49 4.04 1.397.01 2.065-.865 2.786-1.587zM26.045 23.543c-.883-.883-1.738-1.718-2.623-2.602-.154-.153-.508-.475-.506-.526-.002-.05.352-.373.506-.527.885-.884 1.74-1.718 2.623-2.602.72-.72 1.39-1.598 2.785-1.59 1.86.01 3.466 2.056 2.49 4.04-.045.094-.116.225-.212.364-.06.084-.242.288-.243.313 0 .025.184.228.243.314.096.14.167.27.213.364.977 1.985-.63 4.03-2.49 4.04-1.395.01-2.063-.865-2.785-1.587z" fill="#9F4978"/></g></svg>

