<svg xmlns="http://www.w3.org/2000/svg" viewBox="0 0 100 100">
 <symbol id="crown" viewBox="0 0 90 63.571">
  <path fill="#EA5628" d="M45 18.77c-17.388 0-31.484 9.265-31.484 20.693 0 4.818 2.512 9.247 6.713 12.763l32.777-32.778c-2.557-.44-5.24-.677-8.007-.677z"/><path fill="#DC3F18" d="M53.007 19.45L20.23 52.225c5.763 4.825 14.713 7.93 24.77 7.93 17.388 0 31.484-9.266 31.484-20.694 0-9.608-9.968-17.686-23.477-20.013z"/><path fill="#FEC926" d="M68.717 40.76l-1.06-13.594-.826-10.637-12.957 22.816L45 4.718l-8.873 34.628L23.17 16.53l-1.887 24.23L3.028 22.584l11.83 35.493H75.14l11.832-35.493"/><path fill="#FFDF66" d="M66.83 16.53L53.874 39.345 45 4.718l-8.873 34.628L23.17 16.53l-1.887 24.23L3.028 22.584l11.83 35.493h21.89l30.91-30.912"/><path fill="#EE8611" d="M14.86 58.078h60.28v5.493H14.86z"/><g fill="#EE8611"><circle cx="45" cy="4.718" r="4.718"/><circle cx="23.283" cy="17.019" r="3.028"/><circle cx="3.028" cy="23.074" r="3.028"/><circle cx="66.717" cy="17.019" r="3.028"/><circle cx="86.971" cy="23.074" r="3.029"/></g><g><circle fill="#EE8611" cx="45" cy="46.875" r="7.537"/><path fill="#58BFC7" d="M45 41.196c-3.132 0-5.68 2.547-5.68 5.68 0 1.537.617 2.934 1.612 3.958l8.026-8.026c-1.024-.996-2.42-1.612-3.958-1.612z"/><path fill="#2C9FA5" d="M48.958 42.808l-8.026 8.026c1.032 1.06 2.475 1.72 4.067 1.72 3.13 0 5.678-2.547 5.678-5.68 0-1.592-.66-3.033-1.72-4.066z"/><g><circle fill="#EE8611" cx="62.556" cy="48.852" r="5.561"/><path fill="#58BFC7" d="M62.556 45.06c-2.09 0-3.792 1.7-3.792 3.792 0 1.027.41 1.96 1.077 2.643l5.36-5.36c-.684-.665-1.617-1.076-2.644-1.076z"/><path fill="#2C9FA5" d="M65.2 46.135l-5.36 5.36c.69.708 1.652 1.15 2.715 1.15 2.092 0 3.794-1.702 3.794-3.793 0-1.064-.442-2.027-1.15-2.717z"/></g><g><circle fill="#EE8611" cx="27.444" cy="48.852" r="5.561"/><path fill="#58BFC7" d="M27.444 45.06c-2.092 0-3.793 1.7-3.793 3.792 0 1.027.413 1.96 1.078 2.643l5.36-5.36c-.685-.665-1.617-1.076-2.644-1.076z"/><path fill="#2C9FA5" d="M30.086 46.135l-5.36 5.36c.69.708 1.653 1.15 2.718 1.15 2.09 0 3.792-1.702 3.792-3.793 0-1.064-.44-2.027-1.15-2.717z"/></g></g>
 </symbol>
</svg>