<svg xmlns="http://www.w3.org/2000/svg" viewBox="0 0 100 100">
 <symbol id="crown" viewBox="0 0 90 63.571">
  <path fill="#EA5628" d="M45 18.77c-17.388 0-31.484 9.265-31.484 20.693 0 4.818 2.512 9.247 6.713 12.763l32.777-32.778c-2.557-.44-5.24-.677-8.007-.677z"/><path fill="#DC3F18" d="M53.007 19.45L20.23 52.225c5.763 4.825 14.713 7.93 24.77 7.93 17.388 0 31.484-9.266 31.484-20.694 0-9.608-9.968-17.686-23.477-20.013z"/><path fill="#FEC926" d="M68.717 40.76l-1.06-13.594-.826-10.637-12.957 22.816L45 4.718l-8.873 34.628L23.17 16.53l-1.887 24.23L3.028 22.584l11.83 35.493H75.14l11.832-35.493"/><path fill="#FFDF66" d="M66.83 16.53L53.874 39.345 45 4.718l-8.873 34.628L23.17 16.53l-1.887 24.23L3.028 22.584l11.83 35.493h21.89l30.91-30.912"/><path fill="#EE8611" d="M14.86 58.078h60.28v5.493H14.86z"/><g fill="#EE8611"><circle cx="45" cy="4.718" r="4.718"/><circle cx="23.283" cy="17.019" r="3.028"/><circle cx="3.028" cy="23.074" r="3.028"/><circle cx="66.717" cy="17.019" r="3.028"/><circle cx="86.971" cy="23.074" r="3.029"/></g><g><circle fill="#EE8611" cx="45" cy="46.875" r="7.537"/><path fill="#58BFC7" d="M45 41.196c-3.132 0-5.68 2.547-5.68 5.68 0 1.537.617 2.934 1.612 3.958l8.026-8.026c-1.024-.996-2.42-1.612-3.958-1.612z"/><path fill="#2C9FA5" d="M48.958 42.808l-8.026 8.026c1.032 1.06 2.475 1.72 4.067 1.72 3.13 0 5.678-2.547 5.678-5.68 0-1.592-.66-3.033-1.72-4.066z"/><g><circle fill="#EE8611" cx="62.556" cy="48.852" r="5.561"/><path fill="#58BFC7" d="M62.556 45.06c-2.09 0-3.792 1.7-3.792 3.792 0 1.027.41 1.96 1.077 2.643l5.36-5.36c-.684-.665-1.617-1.076-2.644-1.076z"/><path fill="#2C9FA5" d="M65.2 46.135l-5.36 5.36c.69.708 1.652 1.15 2.715 1.15 2.092 0 3.794-1.702 3.794-3.793 0-1.064-.442-2.027-1.15-2.717z"/></g><g><circle fill="#EE8611" cx="27.444" cy="48.852" r="5.561"/><path fill="#58BFC7" d="M27.444 45.06c-2.092 0-3.793 1.7-3.793 3.792 0 1.027.413 1.96 1.078 2.643l5.36-5.36c-.685-.665-1.617-1.076-2.644-1.076z"/><path fill="#2C9FA5" d="M30.086 46.135l-5.36 5.36c.69.708 1.653 1.15 2.718 1.15 2.09 0 3.792-1.702 3.792-3.793 0-1.064-.44-2.027-1.15-2.717z"/></g></g>
 </symbol>
 <symbol id="laurel" viewBox="0 0 53.276 85.834">
  <path fill="#F9AF15" d="M13.48 11.86c2.63 2.213 5.095 4.682 7.42 7.24 2.324 2.567 4.503 5.266 6.5 8.087 3.99 5.637 7.29 11.797 9.308 18.365 2.032 6.547 2.686 13.523 1.56 20.248-1.093 6.733-2.01 10.124-5.873 15.754l.025 4.28c3.933-5.913 6.8-12.643 7.84-19.723 1.078-7.07.275-14.346-1.922-21.073-2.187-6.752-5.66-12.993-9.8-18.668-2.076-2.84-4.325-5.546-6.72-8.114-2.404-2.564-4.912-5.008-7.652-7.248l-.685.85z"/><path fill="#FEC926" d="M0 .005L18.32 15.55c-.598-4.234-2.688-8.273-6.204-11.256C8.6 1.31 4.276-.094 0 .004z"/><path fill="#FFDF66" d="M6.204 11.26c3.516 2.983 7.84 4.387 12.116 4.29L0 .004C.6 4.237 2.69 8.277 6.204 11.26z"/><path fill="#FEC926" d="M37.593 17.592L36.57 41.596c2.973-3.073 4.878-7.2 5.075-11.81.197-4.605-1.35-8.882-4.052-12.194z"/><path fill="#FFDF66" d="M32.516 29.4c-.197 4.606 1.352 8.883 4.053 12.196l1.023-24.004c-2.974 3.07-4.88 7.2-5.077 11.807z"/><path fill="#FEC926" d="M53.235 53.092l-14.73 18.98c4.202-.783 8.146-3.045 10.974-6.69 2.826-3.642 4.04-8.024 3.755-12.29z"/><path fill="#FFDF66" d="M42.26 59.782c-2.827 3.643-4.04 8.025-3.755 12.29l14.73-18.98c-4.204.783-8.147 3.046-10.975 6.69z"/><path fill="#FEC926" d="M20.91 33.682l17.443 16.524c-.365-4.26-2.23-8.407-5.58-11.578-3.347-3.172-7.588-4.81-11.862-4.946z"/><path fill="#FFDF66" d="M26.49 45.26c3.35 3.172 7.59 4.81 11.863 4.946L20.91 33.682c.367 4.26 2.232 8.407 5.58 11.578z"/><g><path fill="#F9AF15" d="M10.328 20.06l20.71 12.18c-1.315-4.067-4.064-7.69-8.038-10.028-3.976-2.337-8.477-2.98-12.672-2.15z"/><path fill="#FEC926" d="M18.367 30.09c3.976 2.336 8.476 2.98 12.67 2.152l-20.71-12.18c1.315 4.067 4.065 7.688 8.04 10.028z"/></g><g><path fill="#F9AF15" d="M24.887 48.077L38.55 67.84c.518-4.243-.452-8.687-3.075-12.48-2.623-3.792-6.437-6.27-10.588-7.283z"/><path fill="#FEC926" d="M27.96 60.556c2.622 3.794 6.435 6.27 10.588 7.284l-13.66-19.763c-.52 4.244.45 8.686 3.07 12.48z"/></g><g><path fill="#F9AF15" d="M48.55 34.3l-8.386 22.516c3.778-2.003 6.865-5.34 8.474-9.663 1.61-4.32 1.46-8.865-.088-12.852z"/><path fill="#FEC926" d="M40.077 43.965c-1.61 4.323-1.46 8.867.087 12.852l8.386-22.515c-3.777 2.003-6.864 5.34-8.473 9.663z"/></g><g><path fill="#F9AF15" d="M22.148 1.623l5.3 23.434c2.066-3.743 2.824-8.228 1.807-12.725-1.018-4.498-3.632-8.22-7.107-10.71z"/><path fill="#FEC926" d="M20.344 14.35c1.016 4.496 3.63 8.217 7.105 10.708L22.147 1.623c-2.066 3.744-2.823 8.227-1.804 12.726z"/></g>
 </symbol>
</svg>