<svg xmlns="http://www.w3.org/2000/svg" viewBox="0 0 142.999 111.997">
  <defs>
    <style>
      .cls-1 {
        fill: #fff;
      }
    </style>
  </defs>
  <g id="Group_1" data-name="Group 1" transform="translate(-889.005 -485.996)">
    <path id="star" class="cls-1" d="M193.353,570.956l12.223,9.376,14.963-3.447-5.063,14.577,15.91,14.062-23.352-1.172L197.96,615.994l-4.425-14.8L173,595.931l19.017-9.586,1.337-15.389" transform="translate(800 -18)"/>
    <path id="star-2" data-name="star" class="cls-1" d="M212.614,504l4.424,16.074L232,526.788l-13.646,9.37L216.619,552.8,203.761,542.52l-24.041,11.613,13.7-23.768-8.175-14.439,16.38.564L212.614,504" transform="translate(800 -18)"/>
    <path id="star-3" data-name="star" class="cls-1" d="M127.4,519.484,139,540.716l23.593,4.574-16.423,17.7,3.781,32.1L127.4,576.747l-21.751,10.3,2.981-24.058L89,550.116l26.792-9.4,11.6-21.231" transform="translate(800 -18)"/>
  </g>
</svg>
