<?xml version="1.0" encoding="UTF-8"?>
<svg viewBox="0 0 100 100" id="icon" class="icon" version="1.1" xmlns="http://www.w3.org/2000/svg" xmlns:xlink="http://www.w3.org/1999/xlink">
  <defs>
    <style>
    	<![CDATA[
	    svg .icon{display:none;}
	    svg .icon:target{display:inline-block;}

		#lottery-ticket .st0{fill:#00ADEE;}

		#winner-cup .st0{fill:#EE8610;}
		#winner-cup .st1{fill:#FFC923;}
		#winner-cup .st2{fill:#00ADEE;}
		#winner-cup .st3{fill:#005499;}
		#winner-cup .st4{fill:#FFDF65;}

		#monitor-number .st0{fill:#30363D;}
		#monitor-number	.st1{fill:#E4E7EB;}
		#monitor-number	.st2{fill:#CCD4D6;}
		#monitor-number	.st3{fill:#484F59;}
		#monitor-number	.st4{fill:#F7F8FC;}
		#monitor-number	.st5{fill:#FFFFFF;}
		#monitor-number	.st6{fill:#FFDD3E;}
		#monitor-number	.st7{fill:#1D1D1B;}
		#monitor-number	.st8{fill:#EF846E;}
		#monitor-number	.st9{fill:#333333;}
		#monitor-number	.st10{fill:none;}

		#emblem .st0{fill:#FFFFFF;}
		#emblem .st1{fill:#D0A000;}
		#emblem .st2{fill:#FFB000;}
		#emblem .st3{fill:#FFC923;}
		#emblem .st4{fill:#FFDF65;}
		#emblem .st5{fill:#DC3F16;}
		#emblem .st6{fill:#931700;}
		#emblem .st7{fill:#FF5418;}
		#emblem .st8{fill:#EE8610;}
		#emblem .st9{fill:#186E73;}
		#emblem .st10{fill:#2B9FA5;}
		#emblem .st11{fill:#FF7938;}
		#emblem .st12{fill:#44CDD0;}
        ]]>
    </style>
  </defs>
    <svg viewBox="0 0 829 977.5">
		<g id="emblem" class="icon">
<g>
	<g>
		<path class="st0" d="M810.2,616.9c-5.8-0.5-11.8-0.3-17.6,0.5c2-4.3,3.5-8.8,4.8-13.3c5.5-20.1,3.5-41.2-5.5-59.8l-7.3-14.6
			l-13.6,8.9c-17.3,11.3-30.1,28.4-35.7,48.5c-1.5,6-2.8,12.1-3,18.3l-16.1,2.8h-25.9c-20.1,0-39.9-1.8-59.5-5.8l8.5-20.3l-8-6.8
			c-9.5-8.3-19.6-16.1-30.4-23.1c33.9-1.8,52-8.8,52.7-9l5.8-2.3l38.9-92.4l-7.8-6.8c-2-1.8-4.3-3.8-6.3-5.5l29.4-15.6l46.7,24.6
			l-8.8-52.2l37.9-36.9l-52.2-7.5L714,301l-23.4,47.5l-52.2,7.5l37.9,36.9l-5.5,31.6c-16.6-13.1-34.2-24.9-52.7-35.2
			c4.3-39.7,5.5-79.1,6-109.5l0.3-14.1l-12.8-5.5c-1.3-0.5-11.1-4.5-27.9-10l39.4-20.8l58.3,30.6l-11.1-65l47.2-46l-65.3-9.5
			l-29.1-58.3L594,140.5l-44.2,6.5l10-30.4c10-3,17.6-12.3,17.6-23.4c0-13.6-11.1-24.6-24.6-24.6s-24.6,11.1-24.6,24.6
			c0,0.8,0,1.5,0,2.3l-11.1,11.1c-4.3-5.3-9.3-10.3-15.1-14.8v-0.5c5-4.5,8-11.1,8-18.1c0.1-13.6-11-24.6-24.6-24.6
			c-12.8,0-23.4,10-24.4,22.6c-6-1.8-12.1-3.3-18.6-4.3c-1.8-0.3-3.5-0.5-5.5-0.8L434,54.6c5.8-5.5,9.5-13.3,9.5-21.8
			c0-16.6-13.6-30.1-30.1-30.1c-16.6,0-30.1,13.6-30.1,30.1c0,8.5,3.5,16.3,9.5,21.8l-3,11.6c-8.3,1.3-16.3,3-23.9,5.3
			c-1-12.6-11.6-22.6-24.4-22.6c-13.6,0-24.6,11.1-24.6,24.6c0,7.3,3,13.6,8,18.1v-0.3c-5.8,4.5-10.8,9.5-15.1,14.8L298.7,95
			c0-0.8,0-1.5,0-2.3c0-13.6-11.1-24.6-24.6-24.6c-13.6,0-24.6,11.1-24.6,24.6c0,11.1,7.3,20.6,17.6,23.4l10,30.4l-44.2-6.5
			l-28.4-58.8L175.4,140l-65.3,9.5l47.2,46l-11.1,65l58.5-30.6l39.4,20.8c-16.8,5.3-26.6,9.5-27.9,10l-12.8,5.5l0.3,14.1
			c0.5,30.4,1.8,69.8,6,109.5c-18.6,10.5-36.2,22.4-52.7,35.2l-5.5-31.6l37.9-36.9l-52.2-7.5L114,301.5L90.6,349l-52.2,7.5
			l37.9,36.9l-8.8,52.2l46.7-24.6l29.4,15.6c-2,1.8-4.3,3.5-6.3,5.5l-7.8,6.8l38.9,92.7l5.8,2.3c0.8,0.3,19.1,7,52,8.8
			c-10.5,7.3-20.8,14.8-30.4,23.1l-8,6.8l8.5,20.3c-19.3,3.8-39.2,5.5-58.8,5.5h-25.9l-16.1-2.8c-0.3-6-1.3-12.3-3-18.3
			c-5.5-20.1-18.1-37.2-35.7-48.5L43.2,530l-7.3,14.6c-9,18.6-11.1,39.9-5.5,59.8c1.3,4.5,3,9,4.8,13.3c-5.8-0.8-11.8-1-17.6-0.5
			l-16.1,1.3l3,16.1c4,20.3,15.1,38.4,31.6,51.2c5.5,4.3,11.3,7.5,17.3,10.3c-2.8,0.8-5.8,1.5-8.5,2.5l-15.3,5.3l7.3,14.6
			c9,18.6,24.6,33.4,43.7,41.2c2.5,1,4.8,1.8,7.3,2.8c-2,1.3-4,2.8-5.8,4.3L69,776.6l11.3,11.6c14.6,14.8,33.7,24.1,54.5,25.6
			c1.5,0,3.3,0.3,4.8,0.3c-0.8,1-1.5,1.8-2,3l-9.3,13.3l14.3,7.8c12.3,6.8,26.4,10.3,40.4,10.3c6.3,0,12.8-0.8,19.1-2.3
			c3.8-1,13.1-4,13.1-4c3.3-1.3,6.3-3,9.5-4.5l-14.8,40.7h52.5l-5.8,7.5l57-7.5c7.3,8.8,15.8,16.8,25.4,23.4l-4,30.6l24.6-18.8
			c10.5,4.8,21.6,8.3,33.2,10.3l21.8,53.2l21.8-53.2c11.6-2,22.4-5.3,32.9-10.3l24.6,18.8l-4-30.6c9.5-6.8,17.8-14.6,25.4-23.4
			l57,7.5l-5.8-7.5H619l-14.8-40.7c3,1.8,11.3,5.3,11.3,5.3c3.5,1.5,7.3,2.5,11.3,3.5c6.3,1.5,12.8,2.3,19.1,2.3
			c14.1,0,28.1-3.5,40.4-10.3l14.3-7.8l-9.3-13.3c-0.8-1-1.5-2-2-3c1.5,0,3.3,0,4.8-0.3c20.6-1.5,39.9-10.5,54.5-25.6l11.3-11.6
			l-13.1-9.8c-2-1.5-4-3-5.8-4.3c2.5-0.8,5-1.5,7.3-2.8c19.1-7.8,34.9-22.6,43.7-41.2l7.3-14.6l-15.3-5.3c-2.8-1-5.5-1.8-8.5-2.5
			c6-2.8,11.8-6,17.3-10.3c16.3-12.6,27.6-30.9,31.6-51.2l3-16.1L810.2,616.9z M575.9,195.5l-8.8,50.2c-11.3-3-24.4-6.3-39.2-9.3
			v-25.8l15.6-46.5L575.9,195.5z M252.1,195.5l32.1-31.4l15.6,46.5v25.9c-14.6,3-27.6,6.3-38.9,9.3L252.1,195.5z"/>
		<path class="st1" d="M414.1,977.5c-0.8,0-1.3-0.5-1.5-1L391,924.3c-10.8-2-21.6-5.3-31.6-9.8l-23.9,18.1c-0.5,0.5-1.3,0.5-2,0
			c-0.5-0.3-1-1-0.8-1.8l4-29.6c-8.8-6.3-17.1-13.8-24.1-22.4l-56,7.3c-0.8,0-1.3-0.3-1.8-0.8c-0.3-0.5-0.3-1.3,0-2l3.8-4.8h-49
			c-0.5,0-1-0.3-1.5-0.8c-0.3-0.5-0.5-1-0.3-1.5l13.3-36.4c-1.8,1-3.8,1.8-5.8,2.5c-0.5,0.3-9.3,3.3-13.1,4
			c-6.3,1.5-12.8,2.3-19.6,2.3c-14.3,0-28.6-3.8-41.2-10.5l-14.3-7.8c-0.5-0.3-0.8-0.8-0.8-1s0-1,0.3-1.5l9.3-13.3
			c0,0,0-0.3,0.3-0.3c-0.5,0-1,0-1.5,0c-21.1-1.5-40.7-10.8-55.5-26.1L68,776.6c-0.3-0.3-0.5-0.8-0.5-1.3s0.3-1,0.8-1.3l13.1-9.8
			c1-0.8,2-1.5,3-2.3c-1.3-0.5-2.8-1-4-1.5c-19.3-8-35.4-22.9-44.7-41.9l-7.3-14.6c-0.3-0.5-0.3-1,0-1.5s0.5-0.8,1-1l15.3-5.3
			c1.3-0.5,2.8-0.8,4-1.3c-4.8-2.5-9.3-5.3-13.6-8.5C18.3,673.4,7,654.8,3,634.2l-3-16.1c0-0.5,0-1,0.3-1.3c0.3-0.5,0.8-0.8,1.3-0.8
			l16.1-1.3c4.8-0.5,10-0.3,15.1,0.3c-1.5-3.5-2.8-7-3.8-10.8c-5.8-20.3-3.8-42.2,5.8-61l7.3-14.6c0.3-0.5,0.5-0.8,1-1s1,0,1.5,0.3
			l13.6,8.8C76,548,88.8,565.6,94.6,586.2c1.5,5.3,2.5,11.1,3,17.3l14.6,2.5h25.9c18.8,0,37.9-1.8,56.5-5l-7.8-18.6
			c-0.3-0.8,0-1.5,0.5-2l8-6.8c8.3-7,17.1-14.1,26.4-20.6c-30.6-2.3-47.2-8.5-47.5-8.5l-5.8-2.3c-0.5-0.3-0.8-0.5-1-1l-39.1-92.6
			c-0.3-0.8,0-1.5,0.5-2l7.8-6.8c1-1,2-1.8,3.3-2.8c0.5-0.3,0.8-0.8,1.3-1l-26.4-13.8l-46,24.1c-0.5,0.3-1.3,0.3-1.8-0.3
			c-0.5-0.5-0.8-1-0.8-1.8L75,393l-38.4-35.9c-0.5-0.5-0.8-1.3-0.5-1.8c0.3-0.8,0.8-1,1.5-1.3l51.5-7.5l23.1-46.5c0.3-0.5,1-1,1.5-1
			s1.3,0.3,1.5,1l23.1,46.5l51.5,7.5c0.8,0,1.3,0.5,1.5,1.3c0.3,0.8,0,1.3-0.5,1.8l-37.2,36.2l4.8,27.9
			c15.8-12.1,32.4-23.4,49.7-33.2c-4.3-40.7-5.3-81.4-6-108.5l-0.3-14.1c0-0.8,0.5-1.3,1-1.5l13.3-5.5c8.3-3.3,16.8-6.3,23.6-8.5
			l-34.9-18.3L147.3,262c-0.5,0.3-1.3,0.3-1.8-0.3c-0.5-0.5-0.8-1-0.8-1.8l11.1-64.3l-46.7-45c-0.5-0.5-0.8-1.3-0.5-1.8
			c0.3-0.8,0.8-1,1.5-1.3l64.3-9.3l28.6-58c0.3-0.5,1-1,1.5-1c0.8,0,1.3,0.3,1.5,1l28.9,58.5l40.7,6l-9-26.9
			c-10.5-3.5-17.8-13.6-17.8-24.9c0-14.6,11.8-26.1,26.1-26.1c14.6,0,26.1,11.8,26.1,26.1c0,0.5,0,1,0,1.5l9,9
			c3.8-4.5,8-8.8,12.8-12.6c-4.8-4.8-7.5-11.6-7.5-18.3c0-14.6,11.8-26.1,26.1-26.1c12.8,0,23.9,9.5,25.9,22.1
			c6.8-2,13.8-3.5,21.1-4.5l2.5-9.5c-6-6-9.3-14.1-9.3-22.6c0-17.6,14.3-31.9,31.9-31.9s31.9,14.3,31.9,31.9
			c0,8.5-3.3,16.6-9.3,22.6l2.5,9.5c1.5,0.3,3,0.5,4.3,0.8c6,1,11.6,2.3,16.6,3.8c2-12.6,13.1-22.1,25.9-22.1
			c14.6,0,26.1,11.8,26.1,26.1c0,6.8-2.8,13.3-7.5,18.3c4.8,3.8,9,8,12.8,12.6l9-9c0-0.5,0-1,0-1.8c0-14.6,11.8-26.1,26.1-26.1
			c14.6,0,26.1,11.8,26.1,26.1c0,11.3-7.3,21.3-17.8,24.9l-9,27.1l40.7-6l28.9-58.3c0.3-0.5,1-1,1.5-1s1.3,0.3,1.5,1l28.9,58.3
			L717,148c0.8,0,1.3,0.5,1.5,1.3s0,1.3-0.5,1.8l-46,45.2l10.8,63.8c0,0.3,0,0.3,0,0.5c0,1-0.8,1.8-1.8,1.8l0,0
			c-0.3,0-0.5,0-0.8-0.3l-57.5-30.4L587.5,250c8.8,2.8,16.8,5.8,23.6,8.5l0.3,0.3l12.8,5.5c0.8,0.3,1,1,1,1.5l-0.3,14.1
			c-0.5,27.1-1.8,67.8-5.8,108.5c16.6,9.5,33.4,20.6,49.7,33.2l4.8-27.9l-36.9-36.2c-0.5-0.5-0.8-1.3-0.5-1.8c0.3-0.8,0.8-1,1.5-1.3
			l51.5-7.5l23.1-46.5c0.3-0.5,1-1,1.5-1s1.3,0.3,1.5,1l23.1,46.5l51.5,7.5c0.8,0,1.3,0.5,1.5,1.3c0.3,0.8,0,1.3-0.5,1.8l-37.2,36.2
			l8.8,51c0,0.3,0,0.3,0,0.5c0,1-0.8,1.8-1.8,1.8l0,0c-0.3,0-0.5,0-0.8-0.3l-46-24.1l-26,14c1.5,1.3,3,2.5,4.3,3.8l7.8,6.8
			c0.5,0.5,0.8,1.3,0.5,2l-39,92.4c-0.3,0.5-0.5,0.8-1,1l-5.8,2.3c0,0-16.8,6.5-48.2,8.8c8.8,6.3,17.6,13.1,26.4,20.3l8,6.8
			c0.5,0.5,0.8,1.3,0.5,2l-7.8,18.3c18.6,3.5,37.9,5.3,57.3,5.3h25.6l14.6-2.5c0.5-5.5,1.5-11.6,3-17.3
			c5.8-20.6,18.6-37.9,36.4-49.5l13.6-8.8c0.5-0.3,1-0.3,1.5-0.3c0.5,0.3,0.8,0.5,1,1l7.3,14.6c9.3,19.1,11.3,40.7,5.8,61
			c-1,3.8-2.3,7.3-3.8,10.8c5-0.5,10-0.5,15.1-0.3l16.3,1c0.5,0,1,0.3,1.3,0.8s0.5,1,0.3,1.5l-3,16.1c-4,20.8-15.6,39.4-32.1,52.2
			c-4.3,3.3-8.8,6.3-13.3,8.5c1.3,0.5,2.5,0.8,4,1.3l15.3,5.3c0.5,0.3,0.8,0.5,1,1c0.3,0.5,0.3,1,0,1.5l-7.3,14.6
			c-9.3,19.1-25.1,33.9-44.7,41.9c-1.3,0.5-2.8,1-4.3,1.5c1,0.8,2,1.5,3,2.3l13.1,9.8c0.5,0.3,0.8,0.8,0.8,1.3s-0.3,1-0.5,1.3
			l-11.3,11.6c-14.6,15.1-34.4,24.4-55.5,26.1c-0.5,0-1,0-1.8,0c0,0,0,0.3,0.3,0.3l9.3,13.3c0.3,0.5,0.5,1,0.3,1.5
			c0,0.5-0.5,1-0.8,1l-14.3,7.8c-12.6,7-26.9,10.5-41.2,10.5c-6.8,0-13.3-0.8-19.6-2.3c-4-1-8-2.3-11.6-3.5c-0.3,0-4-1.8-7.5-3.3
			l13.3,36.2c0.3,0.3,0.3,0.5,0.3,0.8c0,1-0.8,1.8-1.8,1.8l0,0h-49l3.5,4.8c0.3,0.3,0.5,0.8,0.5,1.3c0,1-0.8,1.8-1.8,1.8l0,0h-0.3
			l-56-7.3c-7.3,8.5-15.3,16.1-24.1,22.4l3.8,29.4c0,0.3,0,0.3,0,0.5c0,1-0.8,1.8-1.8,1.8l0,0c-0.3,0-0.8,0-1-0.3l-23.6-18.1
			c-9.8,4.5-20.3,7.8-31.4,9.8l-21.6,52.2C415.4,977.3,414.9,977.5,414.1,977.5z M359.1,910.7c0.3,0,0.5,0,0.8,0.3
			c10.3,4.8,21.3,8.3,32.6,10c0.5,0,1,0.5,1.3,1l20.3,49.2l20.3-49.2c0.3-0.5,0.8-1,1.3-1c11.6-2,22.4-5.3,32.4-10
			c0.5-0.3,1.3-0.3,1.8,0.3l21.1,16.3l-3.5-26.4c0-0.8,0.3-1.3,0.8-1.8c9.3-6.5,17.6-14.3,24.9-23.1c0.5-0.5,1-0.8,1.5-0.5l52.7,7
			l-3.4-4.2c-0.5-0.5-0.5-1.3-0.3-1.8s1-1,1.5-1h50.2l-14.1-38.2c-0.3-0.8,0-1.5,0.5-2s1.3-0.5,2-0.3c2.8,1.8,11.1,5,11.1,5
			c3.3,1.3,7,2.5,11.1,3.3c6,1.5,12.3,2.3,18.6,2.3c13.8,0,27.6-3.5,39.7-10.3l12.6-6.8l-8.3-11.8c-0.3-0.5-0.8-1-1-1.5
			s-0.8-1-1-1.5c-0.5-0.5-0.5-1.3-0.3-1.8c0.3-0.5,1-1,1.5-1c1.5,0,3.3,0,4.8-0.3c20.3-1.5,39.2-10.5,53.2-25.1l10-10.3l-11.3-8.5
			c-2-1.5-3.8-2.8-5.8-4c-0.5-0.3-0.8-1-0.8-1.8s0.5-1.3,1.3-1.5l1-0.3c2-0.8,4.3-1.5,6.3-2.3c18.8-7.8,34.2-22.1,42.9-40.2
			l6.3-12.8l-13.6-4.8c-2.8-1-5.5-1.8-8.3-2.3c-0.8-0.3-1.3-0.8-1.3-1.5s0.3-1.5,1-1.8c6-2.5,11.6-6,17.1-10.3
			c16.1-12.3,27.1-30.1,30.9-50.2l2.8-14.1l-14.3-0.8c-5.8-0.5-11.6-0.3-17.3,0.5c-0.8,0-1.3-0.3-1.5-0.8c-0.5-0.5-0.5-1.3-0.3-1.8
			c2-4.3,3.5-8.5,4.8-13.1c5.5-19.6,3.5-40.4-5.5-58.8l-6.3-12.8l-12.1,7.8c-17.1,11.1-29.4,27.9-34.9,47.5c-1.5,6-2.5,12.1-3,17.8
			c0,0.8-0.8,1.5-1.5,1.5l-16.1,2.8H716h-25.9c-20.3,0-40.4-2-60-5.8c-0.5,0-1-0.5-1.3-1s-0.3-1,0-1.5l8-19.1l-7-6
			c-9.8-8.5-20.1-16.1-30.1-23.1c-0.5-0.5-1-1.3-0.8-2s0.8-1.3,1.5-1.3c34.2-1.8,52-8.8,52.2-8.8l5-2l38.2-90.7l-6.8-6
			c-2-1.8-4-3.8-6.3-5.3c-0.5-0.3-0.8-1-0.8-1.5s0.5-1,1-1.3l29.4-15.6c0.5-0.3,1-0.3,1.5,0l43.7,23.1l-8.3-48.7
			c0-0.5,0-1.3,0.5-1.5l35.4-34.4l-49-7c-0.5,0-1-0.5-1.3-1L713,304.2l-21.8,44.2c-0.3,0.5-0.8,0.8-1.3,1l-49,7l35.4,34.4
			c0.5,0.5,0.5,1,0.5,1.5l-5.5,31.6c0,0.5-0.5,1-1,1.3s-1.3,0.3-1.8-0.3c-17.3-13.3-34.9-25.1-52.5-35.2c-0.5-0.3-1-1-0.8-1.8
			c4.3-40.9,5.5-81.9,6-109.2l0.3-12.8l-12.1-5c-7.8-3.3-17.1-6.5-27.4-9.8c-0.8-0.3-1.3-0.8-1.3-1.5s0.3-1.3,1-1.8l39.4-20.8
			c0.5-0.3,1-0.3,1.5,0l55.3,29.1l-9.9-60.9c0-0.5,0-1.3,0.5-1.5l44.7-43.4l-61.3-8.3c-0.5,0-1-0.5-1.3-1L623,85l-27.6,56
			c-0.3,0.5-0.8,0.8-1.3,1l-44.2,6.5c-0.5,0-1.3-0.3-1.5-0.5c-0.5-0.5-0.5-1-0.3-1.8l10-30.4c0.3-0.5,0.5-1,1.3-1
			c9.5-2.8,16.3-11.8,16.3-21.8c0-12.6-10.3-22.9-22.9-22.9S529.9,80.4,529.9,93c0,0.8,0,1.3,0,2c0,0.5,0,1-0.5,1.5l-10.8,11.1
			c-0.3,0.3-0.8,0.5-1.3,0.5s-1-0.3-1.3-0.8c-4.3-5.3-9.3-10-14.8-14.6c-0.5-0.3-0.8-0.8-0.8-1.3v-0.5c0-0.5,0.3-1,0.5-1.3
			c4.8-4.3,7.5-10.5,7.5-16.8c0-12.6-10.3-22.9-22.9-22.9c-11.8,0-21.8,9.3-22.6,21.1c0,0.5-0.3,1-0.8,1.3s-1,0.5-1.5,0.3
			c-5.5-1.8-11.3-3-18.3-4.3c-1.8-0.3-3.5-0.5-5.3-0.8c-0.8,0-1.3-0.5-1.5-1.3l-3-11.6c-0.3-0.5,0-1.3,0.5-1.8
			c5.8-5.3,9-12.8,9-20.6c0-15.6-12.8-28.4-28.4-28.4s-28.4,12.8-28.4,28.4c0,7.8,3.3,15.3,9,20.6c0.5,0.5,0.8,1,0.5,1.8l-3,11.6
			c-0.3,0.8-0.8,1.3-1.5,1.3c-8.3,1.3-16.3,3-23.6,5c-0.5,0.3-1,0-1.5-0.3s-0.8-0.8-0.8-1.3c-0.8-11.8-10.8-21.1-22.6-21.1
			c-12.6,0-22.9,10.3-22.9,22.9c0,6.3,2.8,12.6,7.5,16.8c0.3,0.3,0.5,0.8,0.5,1.3v0.3c0,0.5-0.3,1-0.8,1.3
			c-5.8,4.5-10.5,9.3-14.8,14.6c-0.3,0.5-0.8,0.5-1.3,0.8c-0.5,0-1-0.3-1.3-0.5l-11.1-11.1c-0.5-0.5-0.5-1-0.5-1.5s0-1.3,0-2
			c0-12.6-10.3-22.9-22.9-22.9s-22.9,10.3-22.9,22.9c0,10,6.8,19.1,16.3,21.8c0.5,0.3,1,0.5,1.3,1l10,30.4c0.3,0.5,0,1.3-0.3,1.8
			c-0.5,0.5-1,0.8-1.5,0.5l-44.2-6.5c-0.5,0-1-0.5-1.3-1l-27.6-56l-27.4,56c-0.3,0.5-0.8,0.8-1.3,1l-61.8,9l44.5,43.4
			c0.5,0.5,0.5,1,0.5,1.5l-10.5,61.5l55.3-29.1c0.5-0.3,1-0.3,1.5,0l39.4,20.8c0.5,0.3,1,1,1,1.8s-0.5,1.3-1.3,1.5
			c-7,2.3-17.6,5.8-27.4,9.8l-0.5,0.3l-11.8,5l0.3,12.8c0.5,27.4,1.8,68.3,6,109.2c0,0.8-0.3,1.3-0.8,1.8
			c-18.1,10.3-35.9,22.1-52.5,35.2c-0.5,0.3-1,0.5-1.8,0.3c-0.5-0.3-1-0.8-1-1.3l-5.5-31.6c0-0.5,0-1.3,0.5-1.5l35.4-34.4l-48.5-7.5
			c-0.5,0-1-0.5-1.3-1L114,305l-22.1,44.2c-0.3,0.5-0.8,0.8-1.3,1l-49,7L77,391.6c0.5,0.5,0.5,1,0.5,1.5l-8.3,48.7l43.7-23.1
			c0.5-0.3,1-0.3,1.5,0l29.4,15.6c0.5,0.3,0.8,0.8,1,1.3c0,0.5-0.3,1-0.5,1.5c-1,1-2,1.8-3.3,2.8c-1,1-2,1.8-3.3,2.8l-6.8,6
			l38.2,90.7l5.3,2c0.3,0,18.1,6.8,51.5,8.8c0.8,0,1.3,0.5,1.5,1.3s0,1.5-0.8,2c-10.8,7.3-20.8,15.1-30.1,23.1l-7,6l8,19.3
			c0.3,0.5,0.3,1,0,1.5s-0.8,0.8-1.3,1c-19.3,3.8-39.4,5.5-59.3,5.5H111h0l-16.1-2.8c-0.8-0.3-1.5-0.8-1.5-1.5
			c-0.3-6.3-1.3-12.3-3-17.8c-5.5-19.6-17.8-36.4-34.9-47.5l-12.1-7.8l-6.3,12.8c-9,18.3-10.8,38.9-5.5,58.5
			c1.3,4.5,2.8,8.8,4.8,13.1c0.3,0.5,0.3,1.3-0.3,1.8c-0.5,0.5-1,0.8-1.5,0.8c-5.8-0.8-11.8-1-17.3-0.5L3,620l2.8,14.1
			c3.8,19.8,14.8,37.7,30.9,50.2c5.3,4,11.1,7.5,17.1,10.3c0.8,0.3,1,1,1,1.8s-0.5,1.3-1.3,1.5c-3,0.8-5.8,1.5-8.3,2.5l-13.6,4.8
			l6.3,12.8c9,18.3,24.4,32.6,42.9,40.2c2.5,1,5,2,7.3,2.5c0.8,0.3,1,0.8,1.3,1.5c0,0.8-0.3,1.3-0.8,1.8c-2,1.3-4,2.5-5.8,4
			l-11.6,8.8l10,10.3c14.3,14.6,33.2,23.6,53.2,25.1c1.8,0,3.3,0.3,4.8,0.3c0.8,0,1.3,0.3,1.5,1c0.3,0.5,0.3,1.3-0.3,1.8
			c-0.8,1-1.3,1.8-2,2.8l-8.3,11.8l12.6,6.8c12.1,6.8,25.9,10.3,39.7,10.3c6.5,0,12.8-0.8,18.6-2.3c3.8-1,12.8-4,12.8-4
			c3.3-1.3,6.5-3,9.3-4.5c0.8-0.3,1.5-0.3,2,0.3s0.8,1.3,0.5,2l-14.1,38.2h50.2c0.8,0,1.3,0.3,1.5,1c0.3,0.5,0.3,1.3-0.3,1.8l-3,3.3
			l52.7-7c0.5,0,1.3,0.3,1.5,0.5c7.3,8.8,15.8,16.6,24.9,23.1c0.5,0.3,0.8,1,0.8,1.8l-3.5,26.4l21.1-16.1
			C358.4,910.7,358.6,910.7,359.1,910.7z M567.1,247.5c-0.3,0-0.3,0-0.5,0c-12.6-3.5-25.6-6.5-38.9-9.3c-0.8-0.3-1.5-0.8-1.5-1.8
			v-25.8c0-0.3,0-0.3,0-0.5l15.6-46.5c0.3-0.5,0.8-1,1.3-1.3s1.3,0,1.5,0.5l32.4,31.4c0.5,0.5,0.5,1,0.5,1.5l-8.8,50.2
			c0,0.5-0.3,1-0.8,1.3C567.8,247.5,567.3,247.5,567.1,247.5z M529.6,235.2c12.3,2.5,24.4,5.5,35.9,8.5l8.3-47.5l-29.6-28.9
			l-14.6,43.4L529.6,235.2L529.6,235.2z M260.9,247.5c-0.3,0-0.8,0-1-0.3c-0.5-0.3-0.8-0.8-0.8-1.3l-8.8-50.2c0-0.5,0-1.3,0.5-1.5
			l32.1-31.4c0.5-0.5,1-0.5,1.5-0.5c0.5,0.3,1,0.5,1.3,1.3l15.6,46.5c0,0.3,0,0.3,0,0.5v25.9c0,0.8-0.5,1.5-1.5,1.8
			C286.5,240.9,273.5,244,260.9,247.5C261.2,247.5,260.9,247.5,260.9,247.5z M253.9,196.2l8.3,47.5c11.6-3.3,23.6-6,35.9-8.5v-24.1
			l-14.6-43.5L253.9,196.2z"/>
	</g>
</g>
<g>
	<g>
		<g>
			<g>
				<g>
					<g>
						<path class="st2" d="M758.9,617.4c-3.5,12.8-8.3,25.6-13.3,37.9c-5.3,12.3-11.3,24.4-17.8,36.2c-13.3,23.1-29.6,45-49.5,62.5
							c-19.8,17.8-43.2,31.4-68.8,38.4c-25.4,7-52.5,7.5-78.6,3l-1.5,8.8c27.1,4.3,55.5,3.3,82.1-4.5s51-22.4,71.1-40.9
							c20.3-18.8,36.4-40.9,49.7-64.8c6.5-11.8,12.6-24.4,17.6-36.9c5-12.6,9.5-25.4,13.1-38.7L758.9,617.4z"/>
					</g>
					<g>
						<g>
							<path class="st3" d="M779,550.6l-24.9,89.9c14.1-9,24.6-22.9,29.4-40.2C788.3,583,786.3,565.7,779,550.6z"/>
						</g>
						<g>
							<path class="st4" d="M749.4,590.8c-4.8,17.3-2.8,34.7,4.5,49.5l24.9-89.9C765,559.6,754.2,573.7,749.4,590.8z"/>
						</g>
					</g>
					<g>
						<g>
							<path class="st3" d="M778,711.6L691.9,747c15.6,5.5,33.4,5.5,49.7-1.5C758.4,739,770.7,726.4,778,711.6z"/>
						</g>
						<g>
							<path class="st4" d="M728.3,713.1c-16.6,6.8-29.1,19.1-36.2,34.2l86.1-35.4C762.5,706.1,744.9,706.1,728.3,713.1z"/>
						</g>
					</g>
					<g>
						<g>
							<path class="st3" d="M678.6,824.4l-90.7-21.1c9.5,13.6,23.9,23.6,41.4,27.6C646.7,835.1,664,832.4,678.6,824.4z"/>
						</g>
						<g>
							<path class="st4" d="M637.1,796.7c-17.3-4-34.9-1.3-49.2,6.8l90.7,21.1C669,810.8,654.7,800.7,637.1,796.7z"/>
						</g>
					</g>
					<g>
						<g>
							<path class="st3" d="M694.4,679.2l-29.9,88.2c14.6-8.3,26.1-21.6,31.6-38.4C701.9,711.8,700.7,694.3,694.4,679.2z"/>
						</g>
						<g>
							<path class="st4" d="M662.7,717.6c-5.8,17.1-4.5,34.7,1.8,49.7l29.9-88.4C680.1,687.2,668.5,700.5,662.7,717.6z"/>
						</g>
					</g>
					<g>
						<g>
							<path class="st2" d="M725,619.7l-9.3,92.7c12.1-11.3,20.3-26.9,22.1-44.7C739.8,650.1,734.8,633.2,725,619.7z"/>
						</g>
						<g>
							<path class="st3" d="M702.9,664.4c-1.8,17.8,3.3,34.7,13.1,48l9.3-92.7C713,631,704.7,646.5,702.9,664.4z"/>
						</g>
					</g>
					<g>
						<g>
							<path class="st2" d="M650.2,716.4l-47.5,80.1c15.8-5,29.9-15.8,38.9-31.1C650.9,750.3,653.5,732.7,650.2,716.4z"/>
						</g>
						<g>
							<path class="st3" d="M611.3,747.5c-9,15.3-11.6,32.9-8.5,49.2l47.5-80.1C634.4,721.6,620.3,732.2,611.3,747.5z"/>
						</g>
					</g>
					<g>
						<g>
							<path class="st2" d="M737.1,777.4l-92.9,7c13.1,10,29.9,15.6,47.7,14.1C710,797.2,725.5,789.2,737.1,777.4z"/>
						</g>
						<g>
							<path class="st3" d="M689.4,763.3c-17.8,1.5-33.7,9.3-45,21.1l92.9-7C723.8,767.3,707.2,761.8,689.4,763.3z"/>
						</g>
					</g>
					<g>
						<g>
							<path class="st2" d="M809.2,631.2L735.4,688c16.6,1.3,33.4-3.5,47.7-14.3S806.2,647.5,809.2,631.2z"/>
						</g>
						<g>
							<path class="st3" d="M761.4,645.5c-14.3,10.8-23.1,26.1-26.1,42.4l73.8-56.8C792.6,630.2,775.8,634.7,761.4,645.5z"/>
						</g>
					</g>
				</g>
			</g>
			<g>
				<g>
					<g>
						<path class="st2" d="M68.8,617.4c3.5,12.8,8.3,25.6,13.3,37.9c5.3,12.3,11.3,24.4,17.8,36.2c13.3,23.1,29.6,45,49.5,62.5
							c19.8,17.8,43.2,31.4,68.8,38.4c25.4,7,52.5,7.5,78.6,3l1.5,8.8c-27.1,4.3-55.5,3.3-82.1-4.5s-51-22.4-71.1-40.9
							c-20.3-18.8-36.4-40.9-49.7-64.8c-6.5-11.8-12.6-24.4-17.6-36.9s-9.5-25.4-13.1-38.7L68.8,617.4z"/>
					</g>
					<g>
						<g>
							<path class="st3" d="M49,550.6l24.9,89.9c-14.1-9-24.6-22.9-29.4-40.2C39.7,583,41.7,565.7,49,550.6z"/>
						</g>
						<g>
							<path class="st4" d="M78.6,590.8c4.8,17.3,2.8,34.7-4.5,49.5l-24.9-89.9C63,559.6,73.6,573.7,78.6,590.8z"/>
						</g>
					</g>
					<g>
						<g>
							<path class="st3" d="M49.7,711.6l86.1,35.4c-15.6,5.5-33.4,5.5-49.7-1.5C69.6,739,57,726.4,49.7,711.6z"/>
						</g>
						<g>
							<path class="st4" d="M99.7,713.1c16.6,6.8,29.1,19.1,36.2,34.2l-86.2-35.7C65.3,706.1,83.1,706.1,99.7,713.1z"/>
						</g>
					</g>
					<g>
						<g>
							<path class="st3" d="M149.2,824.4l90.7-21.1c-9.5,13.6-23.9,23.6-41.4,27.6C181.1,835.1,163.7,832.4,149.2,824.4z"/>
						</g>
						<g>
							<path class="st4" d="M190.6,796.7c17.3-4,34.9-1.3,49.5,6.8l-90.9,21.1C159,810.8,173.3,800.7,190.6,796.7z"/>
						</g>
					</g>
					<g>
						<g>
							<path class="st3" d="M133.6,679.2l29.9,88.4c-14.6-8.3-26.1-21.6-31.6-38.4C125.8,711.8,127.1,694.3,133.6,679.2z"/>
						</g>
						<g>
							<path class="st4" d="M165.2,717.6c5.8,17.1,4.5,34.7-1.8,49.7l-29.9-88.4C147.9,687.2,159.5,700.5,165.2,717.6z"/>
						</g>
					</g>
					<g>
						<g>
							<path class="st2" d="M102.7,619.7l9.3,92.7c-12.1-11.3-20.3-26.9-22.1-44.7C88.1,650.1,93.2,633.2,102.7,619.7z"/>
						</g>
						<g>
							<path class="st3" d="M125.1,664.4c1.8,17.8-3.3,34.7-13.1,48l-9.3-92.7C115,631,123.3,646.5,125.1,664.4z"/>
						</g>
					</g>
					<g>
						<g>
							<path class="st2" d="M177.8,716.4l47.5,80.1c-15.8-5-29.9-15.8-38.9-31.1C177,750.3,174.5,732.7,177.8,716.4z"/>
						</g>
						<g>
							<path class="st3" d="M216.7,747.5c9,15.3,11.6,32.9,8.5,49.2l-47.4-80.1C193.6,721.6,207.4,732.2,216.7,747.5z"/>
						</g>
					</g>
					<g>
						<g>
							<path class="st2" d="M90.9,777.4l92.9,7c-13.1,10-29.9,15.6-47.7,14.1C118,797.2,102.2,789.2,90.9,777.4z"/>
						</g>
						<g>
							<path class="st3" d="M138.6,763.3c17.8,1.5,33.7,9.3,45,21.1l-92.9-7C104,767.3,120.8,761.8,138.6,763.3z"/>
						</g>
					</g>
					<g>
						<g>
							<path class="st2" d="M18.6,631.2L92.4,688c-16.6,1.3-33.4-3.5-47.7-14.3C30.6,662.9,21.8,647.5,18.6,631.2z"/>
						</g>
						<g>
							<path class="st3" d="M66.3,645.5c14.3,10.8,23.1,26.1,26.1,42.4l-73.8-56.8C35.1,630.2,52.2,634.7,66.3,645.5z"/>
						</g>
					</g>
				</g>
			</g>
		</g>
		<g>
			<g>
				<g>
					<path class="st5" d="M691.6,622.4c-52.2,0-103.5-12.1-149.4-34.9l-35.4,86.1c46,23.1,97.2,35.2,149.4,34.9
						c-3.5-14.3-6.8-29.1-10-44.2C661.2,650.8,676.3,636.7,691.6,622.4z"/>
				</g>
				<g>
					<path class="st6" d="M580.4,589.8c-23.1,0-38.2-2.3-38.2-2.3l-35.4,86.1c0,0,14.6,3.8,40.7,3c26.1-0.8,39.4-6,39.4-6l35.4-84.4
						C622.3,586,603.7,589.5,580.4,589.8z"/>
				</g>
				<g>
					<path class="st5" d="M136.4,622.4c52.2,0,103.5-12.1,149.4-34.9l35.4,86.1c-46,23.1-96.9,35.2-149.4,34.9
						c3.5-14.3,6.8-29.1,10-44.2C166.7,650.8,151.7,636.7,136.4,622.4z"/>
				</g>
				<g>
					<path class="st6" d="M247.6,589.8c23.1,0,38.2-2.3,38.2-2.3l35.4,86.1c0,0-14.6,3.8-40.7,3s-40.2-6-40.2-6L204.9,586
						C204.9,586,224,589.5,247.6,589.8z"/>
				</g>
				<g>
					<path class="st7" d="M413.4,508.7c-76.1-0.3-151.7,28.6-208.7,77.6c11.8,28.1,23.6,56.3,35.4,84.4
						c46.2-43.4,109.5-69.1,173.3-68.6c63.8-0.3,127.1,25.4,173.3,68.6c11.8-28.1,23.6-56.3,35.4-84.4
						C565.3,537,489.7,508.4,413.4,508.7z"/>
				</g>
			</g>
			<g>
				<g>
					<path class="st6" d="M540.4,533.8c0,0,19.8,5,55,4c35.2-1.3,53.5-8.3,53.5-8.3c-24.6-23.1-52.7-42.4-83.1-57.5L540.4,533.8z"/>
				</g>
				<g>
					<path class="st6" d="M233.5,537.8c35.2,1.3,55-4,55-4l-25.6-62c-30.6,15.1-59.3,34.7-84.1,58
						C179,529.5,198.4,536.8,233.5,537.8z"/>
				</g>
				<g>
					<path class="st7" d="M413.9,349.4c-97.4-0.5-194.1,37.7-267.5,103l32.4,77.4c24.9-23.4,53.2-42.9,84.1-58
						c46.7-22.9,98.7-35.4,150.9-35.2c52.5-0.3,104.7,12.6,151.9,35.7c30.4,15.1,58.5,34.4,83.1,57.5l32.4-77.4
						C608,387.1,511.3,348.9,413.9,349.4z"/>
				</g>
			</g>
			<g>
				<path class="st3" d="M413.9,239.4c-109.2,0-188.6,33.2-191.9,34.4l-3.8,1.5v4.3c3,160,20.3,324.7,192.6,424.9l3,1.8l3-1.8
					c172-100.2,189.4-264.7,192.6-424.9v-4.3l-3.8-1.5C602.5,272.3,523.4,239.4,413.9,239.4z"/>
			</g>
			<g>
				<path class="st8" d="M413.9,689c-72.6-43.4-121.1-102.2-148.7-179.6c-24.9-70.1-30.4-148.9-31.9-224
					c19.6-7.3,88.9-31.1,180.6-31.1s161.2,23.6,180.6,31.1c-1.5,75.1-7,154-31.9,224C535.2,587,486.4,645.5,413.9,689z"/>
			</g>
			<g>
				<g>
					<path class="st9" d="M311.7,562.2c24.9,41.4,58.8,75.6,102.2,103.5C476.7,625.5,519.4,572,544,503
						c22.9-63.8,28.4-134.9,30.4-203.2L311.7,562.2z"/>
				</g>
				<g>
					<path class="st10" d="M574.3,299.5c-28.1-9.3-86.9-25.1-160.5-25.1s-132.1,15.8-160.5,25.1c2,68.3,7.5,139.6,30.4,203.4
						c7.5,21.3,16.8,40.9,27.9,59.3L574.3,299.5L574.3,299.5z"/>
				</g>
			</g>
		</g>
		<g>
			<g>
				<g>
					<g>
						<g>
							<polygon class="st8" points="451,412.5 449.8,411.7 502.8,390.4 517.6,396.7 475.6,426.8"/>
						</g>
						<g>
							<polygon class="st2" points="449.3,411.7 496,382.3 512.1,389.1 467.6,422.8"/>
						</g>
						<g>
							<polygon class="st8" points="445.3,410 490.7,375.1 505.8,381.6 458.6,417.8"/>
						</g>
						<g>
							<polygon class="st2" points="441.7,410 489.7,362 499.5,373.8 449.5,414.5"/>
						</g>
					</g>
					<g>
						<g>
							<polygon class="st3" points="439.2,400.7 440,401.9 461.3,348.9 455.1,334.1 424.9,375.8"/>
						</g>
						<g>
							<polygon class="st4" points="440,402.4 469.4,355.5 462.6,339.6 428.9,383.8"/>
						</g>
						<g>
							<polygon class="st3" points="441.7,406.7 476.7,361 470.1,345.9 434,392.9"/>
						</g>
						<g>
							<polygon class="st4" points="441.7,410 489.7,362 477.9,352 437.2,402.2"/>
						</g>
					</g>
				</g>
				<g>
					<g>
						<g>
							<polygon class="st8" points="388.8,474.8 388,473.5 366.7,526.5 372.9,541.3 403.1,499.6"/>
						</g>
						<g>
							<polygon class="st2" points="388,473 358.4,520 365.4,535.8 399,491.3"/>
						</g>
						<g>
							<polygon class="st8" points="386.2,468.7 351.3,514.4 357.9,529.5 394,482.5"/>
						</g>
						<g>
							<polygon class="st2" points="386,465.5 338,513.4 350.1,523.2 390.8,473.3"/>
						</g>
					</g>
					<g>
						<g>
							<polygon class="st3" points="376.9,463 378.2,463.7 325.2,485.1 310.1,478.8 352.1,448.6"/>
						</g>
						<g>
							<polygon class="st4" points="378.7,463.7 331.7,493.1 315.9,486.3 360.1,452.7"/>
						</g>
						<g>
							<polygon class="st3" points="382.7,465.5 337.3,500.4 322.2,493.8 369.2,457.7"/>
						</g>
						<g>
							<polygon class="st4" points="386,465.5 338,513.4 328.2,501.6 378.5,460.9"/>
						</g>
					</g>
				</g>
			</g>
			<g>
				<g>
					<g>
						<g>
							<polygon class="st8" points="439.2,474.8 440,473.5 461.3,526.5 455.1,541.3 424.9,499.6"/>
						</g>
						<g>
							<polygon class="st2" points="440,473 469.4,520 462.6,535.8 428.9,491.3"/>
						</g>
						<g>
							<polygon class="st8" points="441.7,468.7 476.7,514.4 470.1,529.5 434,482.5"/>
						</g>
						<g>
							<polygon class="st2" points="441.7,465.5 489.7,513.4 477.9,523.2 437.2,473.3"/>
						</g>
					</g>
					<g>
						<g>
							<polygon class="st3" points="451,463 449.8,463.7 502.8,485.1 517.6,478.8 475.6,448.6"/>
						</g>
						<g>
							<polygon class="st4" points="449.3,463.7 496,493.1 512.1,486.3 467.6,452.7"/>
						</g>
						<g>
							<polygon class="st3" points="445,465.5 490.7,500.4 505.8,493.8 458.6,457.7"/>
						</g>
						<g>
							<polygon class="st4" points="441.7,465.5 489.7,513.4 499.5,501.6 449.5,460.9"/>
						</g>
					</g>
				</g>
				<g>
					<g>
						<g>
							<polygon class="st8" points="376.9,412.5 378.2,411.7 325.2,390.4 310.1,396.7 352.1,426.8"/>
						</g>
						<g>
							<polygon class="st2" points="378.7,411.7 331.7,382.3 315.9,389.1 360.1,422.8"/>
						</g>
						<g>
							<polygon class="st8" points="382.7,410 337.3,375.1 322.2,381.6 369.2,417.8"/>
						</g>
						<g>
							<polygon class="st2" points="386,410 338,362 328.2,373.8 378.5,414.5"/>
						</g>
					</g>
					<g>
						<g>
							<polygon class="st3" points="388.8,400.7 388,401.9 366.7,348.9 372.9,334.1 403.1,375.8"/>
						</g>
						<g>
							<polygon class="st4" points="388,402.4 358.4,355.5 365.4,339.6 399,383.8"/>
						</g>
						<g>
							<polygon class="st3" points="386.2,406.7 351.3,361 357.9,345.9 394,392.9"/>
						</g>
						<g>
							<polygon class="st4" points="386,410 338,362 350.1,352 390.8,402.2"/>
						</g>
					</g>
				</g>
			</g>
			<g>
				<g>
					<path class="st3" d="M460.8,325.6l-9-15.8c0,0-16.3,6.3-37.7,6.3c-21.3,0-37.7-6.3-37.7-6.3l-9,15.8l46.7,81.1L460.8,325.6z"/>
				</g>
				<g>
					<path class="st11" d="M413.9,322.8c-15.1,0-27.6-3-34.7-4.8l-4.3,7.3l18.8,32.9l36.4-36.4C425.7,322.6,419.9,322.8,413.9,322.8
						z"/>
				</g>
				<g>
					<path class="st7" d="M452.8,325.6l-4.3-7.3c-4.3,1.3-10.3,2.8-17.8,3.8l-36.4,36.4l19.8,34.4L452.8,325.6z"/>
				</g>
				<g>
					<path class="st3" d="M367.2,549.9l9,15.8c0,0,16.3-6.3,37.7-6.3c21.6,0,37.7,6.3,37.7,6.3l9-15.8l-46.7-81.1L367.2,549.9z"/>
				</g>
				<g>
					<path class="st11" d="M413.9,482.5l-39,67.1l4.3,7.3c3.5-1,8.8-2.3,14.8-3.3l38.4-38.4L413.9,482.5z"/>
				</g>
				<g>
					<path class="st7" d="M433,515.4l-38.4,38.4c5.8-1,12.3-1.5,19.6-1.5c15.1,0,27.6,3,34.7,4.8l4.3-7.3L433,515.4z"/>
				</g>
			</g>
			<g>
				<g>
					<path class="st3" d="M301.9,390.9l-15.8,9c0,0,6.3,16.3,6.3,37.7s-6.3,37.7-6.3,37.7l15.8,9l81.1-46.7L301.9,390.9z"/>
				</g>
				<g>
					<path class="st11" d="M301.9,398.9l-7.3,4.3c2,7,4.8,19.6,4.8,34.7c0,8.3-1,15.8-2,22.1l40.4-40.4L301.9,398.9z"/>
				</g>
				<g>
					<path class="st7" d="M337.5,419.5l-40.4,40.4c-1,5-2,9.3-3,12.3l7.3,4.3l67.3-38.9L337.5,419.5z"/>
				</g>
				<g>
					<path class="st3" d="M526.1,484.6l15.8-9c0,0-6.3-16.3-6.3-37.7c0-21.6,6.3-37.7,6.3-37.7l-15.8-9L445,437.6L526.1,484.6z"/>
				</g>
				<g>
					<path class="st11" d="M533.7,403.2l-7.3-4.3l-67.3,38.9l34.7,20.1l36.2-36.2C530.9,413.7,532.4,407.5,533.7,403.2z"/>
				</g>
				<g>
					<path class="st7" d="M529.6,421.5l-36.2,36.2l32.6,18.8l7.3-4.3c-2-7-4.8-19.6-4.8-34.7C528.6,431.8,529.1,426.3,529.6,421.5z"
						/>
				</g>
			</g>
			<g>
				<g>
					<path class="st4" d="M413.9,505.4c-37.4,0-67.8-30.4-67.8-67.8s30.4-67.8,67.8-67.8s67.8,30.4,67.8,67.8
						S451.3,505.4,413.9,505.4z"/>
				</g>
				<g>
					<circle class="st3" cx="413.9" cy="437.6" r="61"/>
				</g>
				<g>
					<path class="st6" d="M375.4,476c9.8,9.8,23.4,16.1,38.4,16.1c29.9,0,54.2-24.4,54.2-54.2c0-15.1-6-28.6-16.1-38.4L375.4,476z"
						/>
				</g>
				<g>
					<path class="st5" d="M413.9,383.3c-29.9,0-54.2,24.4-54.2,54.2c0,15.1,6,28.6,16.1,38.4l76.8-76.8
						C442.5,389.6,428.9,383.3,413.9,383.3z"/>
				</g>
			</g>
		</g>
		<g>
			<g>
				<g>
					<polygon class="st4" points="686.4,159.6 642.7,153 623.1,180.2"/>
				</g>
				<g>
					<polygon class="st2" points="623.1,180.2 642.7,153 623.1,113.6"/>
				</g>
				<g>
					<polygon class="st3" points="623.1,180.2 654.7,190.5 686.4,159.6"/>
				</g>
				<g>
					<polygon class="st4" points="623.1,213.6 662.2,234.2 623.1,180.2"/>
				</g>
				<g>
					<polygon class="st2" points="623.1,180.2 623.1,180.2 662.2,234.2 654.7,190.5"/>
				</g>
				<g>
					<polygon class="st2" points="583.9,234.2 623.1,213.6 623.1,180.2"/>
				</g>
				<g>
					<polygon class="st4" points="603.5,153 559.5,159.6 623.1,180.2"/>
				</g>
				<g>
					<polygon class="st3" points="623.1,180.2 623.1,113.6 603.5,153"/>
				</g>
				<g>
					<polygon class="st3" points="623.1,180.2 559.5,159.6 591.4,190.5"/>
				</g>
				<g>
					<polygon class="st4" points="623.1,180.2 591.4,190.5 583.9,234.2"/>
				</g>
			</g>
			<g>
				<g>
					<polygon class="st4" points="268.2,159.6 224.5,153 204.9,180.2"/>
				</g>
				<g>
					<polygon class="st2" points="204.9,180.2 224.5,153 204.9,113.6"/>
				</g>
				<g>
					<polygon class="st3" points="204.9,180.2 236.6,190.5 268.2,159.6"/>
				</g>
				<g>
					<polygon class="st4" points="204.9,213.6 244.1,234.2 204.9,180.2"/>
				</g>
				<g>
					<polygon class="st2" points="204.9,180.2 204.9,180.2 244.1,234.2 236.6,190.5"/>
				</g>
				<g>
					<polygon class="st2" points="165.7,234.2 204.9,213.6 204.9,180.2"/>
				</g>
				<g>
					<polygon class="st4" points="185.3,153 141.4,159.6 204.9,180.2"/>
				</g>
				<g>
					<polygon class="st3" points="204.9,180.2 204.9,113.6 185.3,153"/>
				</g>
				<g>
					<polygon class="st3" points="204.9,180.2 141.4,159.6 173.3,190.5"/>
				</g>
				<g>
					<polygon class="st4" points="204.9,180.2 173.3,190.5 165.7,234.2"/>
				</g>
			</g>
		</g>
		<g>
			<g>
				<g>
					<polygon class="st4" points="758.7,366.3 728,361.7 714,380.8"/>
				</g>
				<g>
					<polygon class="st2" points="714,380.8 728,361.7 714,333.6"/>
				</g>
				<g>
					<polygon class="st3" points="714,380.8 736.3,388.1 758.7,366.3"/>
				</g>
				<g>
					<polygon class="st4" points="714,404.2 741.6,418.8 714,380.8"/>
				</g>
				<g>
					<polygon class="st2" points="714,380.8 714,380.8 741.6,418.8 736.3,388.1"/>
				</g>
				<g>
					<polygon class="st2" points="686.4,418.8 714,404.2 714,380.8"/>
				</g>
				<g>
					<polygon class="st4" points="700.2,361.7 669.3,366.3 714,380.8"/>
				</g>
				<g>
					<polygon class="st3" points="714,380.8 714,333.6 700.2,361.7"/>
				</g>
				<g>
					<polygon class="st3" points="714,380.8 669.3,366.3 691.9,388.1"/>
				</g>
				<g>
					<polygon class="st4" points="714,380.8 691.9,388.1 686.4,418.8"/>
				</g>
			</g>
			<g>
				<g>
					<polygon class="st4" points="158.5,366.3 127.6,361.7 113.8,380.8"/>
				</g>
				<g>
					<polygon class="st2" points="113.8,380.8 127.6,361.7 113.8,333.6"/>
				</g>
				<g>
					<polygon class="st3" points="113.8,380.8 136.1,388.1 158.5,366.3"/>
				</g>
				<g>
					<polygon class="st4" points="113.8,404.2 141.4,418.8 113.8,380.8"/>
				</g>
				<g>
					<polygon class="st2" points="113.8,380.8 113.8,380.8 141.4,418.8 136.1,388.1"/>
				</g>
				<g>
					<polygon class="st2" points="86.1,418.8 113.8,404.2 113.8,380.8"/>
				</g>
				<g>
					<polygon class="st4" points="99.9,361.7 69,366.3 113.8,380.8"/>
				</g>
				<g>
					<polygon class="st3" points="113.8,380.8 113.8,333.6 99.9,361.7"/>
				</g>
				<g>
					<polygon class="st3" points="113.8,380.8 69,366.3 91.4,388.1"/>
				</g>
				<g>
					<polygon class="st4" points="113.8,380.8 91.4,388.1 86.1,418.8"/>
				</g>
			</g>
		</g>
		<g>
			<g>
				<path class="st7" d="M413.9,78.2c-57.5,0-104.2,30.6-104.2,68.6c0,16.1,8.3,30.6,22.1,42.2L440.2,80.5
					C431.9,79,423.2,78.2,413.9,78.2z"/>
			</g>
			<g>
				<path class="st5" d="M440.5,80.5L332,189c19.1,16.1,48.7,26.1,81.9,26.1c57.5,0,104.2-30.6,104.2-68.6
					C518.1,114.9,485.2,88,440.5,80.5z"/>
			</g>
			<g>
				<g>
					<polygon class="st3" points="492.5,151 489,105.8 486.2,70.7 443.3,146.3 413.9,31.5 384.5,146.3 341.8,70.7 335.5,151 
						275,90.8 314.2,208 386.7,208 413.9,208 513.6,208 552.7,90.8"/>
				</g>
				<g>
					<g>
						<polygon class="st4" points="486.2,70.7 443.3,146.3 413.9,31.5 384.5,146.3 341.8,70.7 335.5,151 275,90.8 314.2,208 
							386.7,208 489,105.8 						"/>
					</g>
				</g>
				<g>
					<rect x="314.2" y="208" class="st8" width="199.4" height="18.1"/>
				</g>
				<g>
					<g>
						<circle class="st8" cx="413.9" cy="31.5" r="15.6"/>
					</g>
					<g>
						<path class="st8" d="M352.1,72.4c0,5.5-4.5,10-10,10s-10-4.5-10-10s4.5-10,10-10S352.1,66.9,352.1,72.4z"/>
					</g>
					<g>
						<path class="st8" d="M285,92.3c0,5.5-4.5,10-10,10s-10-4.5-10-10s4.5-10,10-10C280.5,82.2,285,86.7,285,92.3z"/>
					</g>
					<g>
						<circle class="st8" cx="485.9" cy="72.4" r="10"/>
					</g>
					<g>
						<path class="st8" d="M542.7,92.3c0,5.5,4.5,10,10,10s10-4.5,10-10s-4.5-10-10-10C547.2,82.2,542.7,86.7,542.7,92.3z"/>
					</g>
				</g>
			</g>
			<g>
				<g>
					<g>
						<circle class="st8" cx="413.9" cy="171.1" r="24.9"/>
					</g>
					<g>
						<path class="st12" d="M413.9,152.3c-10.3,0-18.8,8.5-18.8,18.8c0,5,2,9.8,5.3,13.1l26.6-26.6
							C423.7,154.3,419.1,152.3,413.9,152.3z"/>
					</g>
					<g>
						<path class="st10" d="M426.9,157.6l-26.6,26.6c3.5,3.5,8.3,5.8,13.3,5.8c10.3,0,18.8-8.5,18.8-18.8
							C432.7,165.9,430.7,161.1,426.9,157.6z"/>
					</g>
				</g>
				<g>
					<g>
						<circle class="st8" cx="472.1" cy="177.7" r="18.3"/>
					</g>
					<g>
						<path class="st12" d="M472.1,165.1c-7,0-12.6,5.8-12.6,12.6c0,3.3,1.5,6.5,3.5,8.8l17.6-17.6
							C478.7,166.4,475.4,165.1,472.1,165.1z"/>
					</g>
					<g>
						<path class="st10" d="M480.9,168.6l-17.6,17.6c2.3,2.3,5.5,3.8,9,3.8c7,0,12.6-5.8,12.6-12.6
							C484.4,174.1,483.2,170.9,480.9,168.6z"/>
					</g>
				</g>
				<g>
					<g>
						<circle class="st8" cx="355.9" cy="177.7" r="18.3"/>
					</g>
					<g>
						<path class="st12" d="M355.9,165.1c-7,0-12.6,5.8-12.6,12.6c0,3.3,1.5,6.5,3.5,8.8l17.6-17.6
							C362.4,166.4,359.4,165.1,355.9,165.1z"/>
					</g>
					<g>
						<path class="st10" d="M364.6,168.6L347,186.2c2.3,2.3,5.5,3.8,9,3.8c7,0,12.6-5.8,12.6-12.6
							C368.4,174.1,366.9,170.9,364.6,168.6z"/>
					</g>
				</g>
			</g>
		</g>
		<g>
			<g>
				<g>
					<polygon class="st9" points="428.7,821.1 245.1,821.1 230,862.8 428.7,862.8"/>
				</g>
				<g>
					<polygon class="st12" points="428.7,738.2 230,738.2 245.1,779.6 428.7,779.6"/>
				</g>
				<g>
					<polygon class="st10" points="428.7,779.6 245.1,779.6 252.9,800.5 245.1,821.1 428.7,821.1"/>
				</g>
			</g>
			<g>
				<g>
					<polygon class="st9" points="399.3,821.1 582.6,821.1 597.7,862.8 399.3,862.8"/>
				</g>
				<g>
					<polygon class="st12" points="399.3,738.2 597.7,738.2 582.6,779.6 399.3,779.6"/>
				</g>
				<g>
					<polygon class="st10" points="399.3,779.6 582.6,779.6 575.1,800.5 582.6,821.1 399.3,821.1"/>
				</g>
			</g>
		</g>
		<g>
			<g>
				<path class="st4" d="M530.4,793.7c0,64.3-52.2,116.3-116.3,116.3s-116.3-52.2-116.3-116.3c0-64.3,52.2-116.3,116.3-116.3
					C478.4,677.2,530.4,729.2,530.4,793.7z"/>
			</g>
			<g>
				<circle class="st8" cx="413.9" cy="793.7" r="108.5"/>
			</g>
			<g>
				<path class="st4" d="M483.4,793.7l55.5-72.3l-90.2,11.8l-34.9-84.1L379,733.2l-90.2-11.8l55.5,72.3L288.8,866l90.2-11.8
					l34.9,84.1l34.9-84.1L539,866L483.4,793.7z M441.2,841.2h-27.4h-27.4l-13.7-23.6l-13.6-23.9l13.8-23.6l13.8-23.6h27.4h27.4
					l13.8,23.6l13.8,23.6l-13.8,23.6L441.2,841.2z"/>
			</g>
			<g>
				<g>
					<g>
						<g>
							<polygon class="st2" points="359.1,803.5 302.1,729.2 377.2,772.4"/>
						</g>
						<g>
							<polygon class="st3" points="377.2,772.4 302.1,729.2 395,741.2"/>
						</g>
					</g>
					<g>
						<g>
							<polygon class="st2" points="432.7,845.9 525.9,858.3 450.8,814.8"/>
						</g>
						<g>
							<polygon class="st3" points="450.8,814.8 525.9,858.3 468.6,783.9"/>
						</g>
					</g>
				</g>
				<g>
					<g>
						<g>
							<polygon class="st2" points="395,845.9 302.1,858.3 377.2,814.8"/>
						</g>
						<g>
							<polygon class="st3" points="377.2,814.8 302.1,858.3 359.1,783.9"/>
						</g>
					</g>
					<g>
						<g>
							<polygon class="st2" points="468.6,803.5 525.9,729.2 450.8,772.4"/>
						</g>
						<g>
							<polygon class="st3" points="450.8,772.4 525.9,729.2 432.7,741.2"/>
						</g>
					</g>
				</g>
				<g>
					<g>
						<g>
							<polygon class="st2" points="449.8,751 413.9,664.4 413.9,751"/>
						</g>
						<g>
							<polygon class="st3" points="413.9,751 413.9,664.4 378.2,751"/>
						</g>
					</g>
					<g>
						<g>
							<polygon class="st2" points="449.8,836.2 413.9,922.8 413.9,836.2"/>
						</g>
						<g>
							<polygon class="st3" points="413.9,836.2 413.9,922.8 378.2,836.2"/>
						</g>
					</g>
				</g>
			</g>
			<g>
				<path class="st2" d="M464.3,822.8l70.6-29.1l-70.6-29.1l10-75.6l-60.5,46.5L353.3,689l10,75.6l-70.6,29.1l70.6,29.1l-10,75.6
					l60.5-46.5l60.5,46.5L464.3,822.8z M413.9,839.7L394,828.1l-19.8-11.5v-23.1v-23.1l19.8-11.6l19.8-11.6l19.8,11.6l19.8,11.6
					v22.9v23.1L433.6,828L413.9,839.7z"/>
			</g>
			<g>
				<g>
					<g>
						<g>
							<polygon class="st3" points="379.2,823.1 308.4,793.7 379.2,793.7"/>
						</g>
						<g>
							<polygon class="st4" points="379.2,793.7 308.4,793.7 379.2,764.3"/>
						</g>
					</g>
					<g>
						<g>
							<polygon class="st3" points="448.8,823.1 519.6,793.7 448.8,793.7"/>
						</g>
						<g>
							<polygon class="st4" points="448.8,793.7 519.6,793.7 448.8,764.3"/>
						</g>
					</g>
				</g>
				<g>
					<g>
						<g>
							<polygon class="st3" points="421.9,838.4 361.1,885.1 396.5,823.6"/>
						</g>
						<g>
							<polygon class="st4" points="396.5,823.6 361.1,885.1 371.2,809"/>
						</g>
					</g>
					<g>
						<g>
							<polygon class="st3" points="456.8,778.4 466.9,702.3 431.2,763.6"/>
						</g>
						<g>
							<polygon class="st4" points="431.2,763.6 466.9,702.3 406.1,749"/>
						</g>
					</g>
				</g>
				<g>
					<g>
						<g>
							<polygon class="st3" points="421.9,749 361.1,702.3 396.5,763.6"/>
						</g>
						<g>
							<polygon class="st4" points="396.5,763.6 361.1,702.3 371.2,778.4"/>
						</g>
					</g>
					<g>
						<g>
							<polygon class="st3" points="456.8,809 466.9,885.1 431.2,823.6"/>
						</g>
						<g>
							<polygon class="st4" points="431.2,823.6 466.9,885.1 406.1,838.4"/>
						</g>
					</g>
				</g>
			</g>
			<g>
				<g>
					<circle class="st3" cx="413.9" cy="793.7" r="66.3"/>
				</g>
				<g>
					<circle class="st8" cx="413.9" cy="793.7" r="58"/>
				</g>
				<g>
					<path class="st4" d="M413.9,743c-27.9,0-50.5,22.6-50.5,50.5c0,13.8,5.5,26.1,14.3,35.2l71.3-71.3
						C440,748.5,427.7,743,413.9,743z"/>
				</g>
				<g>
					<path class="st3" d="M449.3,757.5L378,828.9c9.3,9.5,22.1,15.3,36.2,15.3c27.9,0,50.7-22.6,50.7-50.5
						C464.6,779.4,458.6,766.6,449.3,757.5z"/>
				</g>
			</g>
		</g>
	</g>
</g>
		</g>
    </svg>

	<svg viewBox="5 3 933.2 971.3">
		<g id="monitor-number" class="icon">
			<g>
				<g>
					<path class="st0" d="M937.3,750V209.3c0-14-11-25-25-25H33c-14,0-25,11-25,25V750H937.3z"/>
					<path class="st1" d="M5,751v78.1c0,15,12,27,27,27h879.2c15,0,27-12,27-27V751H5z"/>
					<path class="st1" d="M632.9,971.3c0,0-7-3-15-6s-18-7-24-10c-10-5-11-8-15-25c-4-18-8-57.1-10-74.1H374.5c-2,17-6,56.1-10,74.1
						c-4,17-5,20-15,25c-6,3-16,7-24,10l0,0c-8,3-14,5-14,5s-6,3,4,4h313.4C637.9,974.3,632.9,971.3,632.9,971.3z"/>
					<path class="st2" d="M571.8,876.2c-1-8-2-15-2-20H374.5c0,5-1,12-2,20H571.8z"/>
					<polygon class="st3" points="174.2,750 367.5,750 721,183.2 527.7,183.2 		"/>
					<polygon class="st3" points="422.6,750 493.7,750 847.2,183.2 777.1,183.2 		"/>
					<rect x="50.1" y="226.3" class="st4" width="843.2" height="474.7"/>
					<polygon class="st4" points="204.3,702 397.5,702 693.9,226.3 500.7,226.3 		"/>
					<polygon class="st4" points="523.7,702 820.1,226.3 749,226.3 452.6,702 		"/>
				</g>
				<circle class="st5" cx="382.5" cy="187.3" r="159.2"/>
				<circle class="st6" cx="369.5" cy="187.3" r="82.1"/>
				<path class="st6" d="M369.5,3C268.4,3,185.2,85.1,185.2,187.3s82.1,184.3,184.3,184.3s184.3-82.1,184.3-184.3S471.6,3,369.5,3z
					 M369.5,288.4c-56.1,0-101.1-45.1-101.1-101.1s45-101.2,101.1-101.2s101.1,45.1,101.1,101.1C471.6,243.3,425.6,288.4,369.5,288.4z
					 M510.7,200.3c-7,0-13-6-13-13c0-70.1-57.1-127.2-127.2-127.2c-7,0-13-6-13-13s6-13,13-13c85.1,0,154.2,69.1,154.2,154.2
					C523.7,194.3,517.7,200.3,510.7,200.3z"/>
				<g>
					<path class="st7" d="M348.5,205.3c3,2,10,4,17,4c9,0,13-4,13-10c0-7-7-10-14-10h-7v-12h7c6,0,13-2,13-8c0-4-4-8-11-8
						c-6,0-12,3-15,4l-3-12c4-3,13-5,22-5c15,0,24,8,24,18c0,8-4,14-13,17l0,0c9,2,16,8,16,17c0,13-11,22-29,22c-9,0-17-2-21-5
						L348.5,205.3z"/>
				</g>
				<circle class="st8" cx="682.9" cy="482.7" r="82.1"/>
				<path class="st8" d="M682.9,298.4c-101.1,0-184.3,82.1-184.3,184.3S580.7,667,682.9,667s183.3-83.1,183.3-184.3
					S784.1,298.4,682.9,298.4z M682.9,583.8c-56.1,0-101.1-45.1-101.1-101.1s45.1-101.1,101.1-101.1S784,426.7,784,482.7
					C784.1,538.7,739,583.8,682.9,583.8z M823.1,495.7c-7,0-13-6-13-13c0-70.1-57.1-127.2-127.2-127.2c-7,0-13-6-13-13s6-13,13-13
					c85.1,0,154.2,69.1,154.2,154.2C837.1,489.7,831.1,495.7,823.1,495.7z"/>
				<g>
					<path class="st5" d="M657.9,517.7v-17h-32v-11l27-44.1h21v42.1h9v13h-9v17H657.9z M657.9,487.7v-16c0-4,0-9,1-13l0,0
						c-2,5-4,9-7,13l-10,16l0,0H657.9z"/>
					<path class="st5" d="M689.9,517.7v-10l9-8c16-14,23-22,24-30c0-6-4-10-12-10c-6,0-12,3-15,6l-5-12c5-4,14-7,24-7c16,0,25,9,25,23
						c0,12-9,22-19,31l-7,6l0,0h27v14h-51.1L689.9,517.7L689.9,517.7z"/>
				</g>
				<g>
					<g>
						<g>
							<polygon class="st0" points="636.9,342.5 560.8,318.4 483.7,293.4 508.7,369.5 533.7,445.6 560.8,393.5 600.8,434.6 
								624.9,410.6 584.8,369.5 				"/>
							<polygon class="st3" points="560.8,318.4 483.7,293.4 484.7,295.4 612.8,423.6 624.9,410.6 584.8,369.5 636.9,342.5"/>
						</g>
					</g>
					<g>
						<g>
							<g>
								<path class="st9" d="M465.6,260.4c-2,0-3-2-3-4v-46.1c0-2,2-4,3-4c2,0,4,2,4,4v46.1C468.6,258.4,467.6,260.4,465.6,260.4z"/>
							</g>
							<g>
								<path class="st9" d="M442.6,273.4c-1,0-1,0-2,0l-40.1-23c-2-1-2-3-1-5s3-2,5-1l40.1,23c2,1,2,3,1,5
									C444.6,272.4,443.6,273.4,442.6,273.4z"/>
							</g>
							<g>
								<path class="st9" d="M402.5,323.4c-1,0-2-1-3-2c-1-2,0-4,1-5l40.1-23c2-1,4,0,5,1c1,2,0,4-1,5l-40.1,23
									C403.5,322.4,403.5,323.4,402.5,323.4z"/>
							</g>
							<g>
								<path class="st9" d="M465.6,359.5c-2,0-3-2-3-4v-46.1c0-2,2-4,3-4c2,0,4,2,4,4v46.1C468.6,357.5,467.6,359.5,465.6,359.5z"/>
							</g>
							<g>
								<path class="st9" d="M488.7,273.4c-1,0-2-1-3-2c-1-2,0-4,1-5l40.1-23c2-1,4,0,5,1c1,2,0,4-1,5l-40.1,23
									C489.7,273.4,488.7,273.4,488.7,273.4z"/>
							</g>
						</g>
					</g>
				</g>
				<circle class="st10" cx="255.3" cy="577.8" r="101.1"/>
				<path class="st10" d="M396.5,590.8c7,0,13-6,13-13c0-85.1-69.1-154.2-154.2-154.2c-7,0-13,6-13,13s6,13,13,13
					c70.1,0,127.2,57.1,127.2,127.2C382.5,584.8,388.5,590.8,396.5,590.8z"/>
				<circle class="st8" cx="277.4" cy="577.8" r="82.1"/>
				<g>
					<path class="st5" d="M244.3,555.8L244.3,555.8l-14,7l-3-13l19-9h14v72.1h-16V555.8z"/>
					<path class="st5" d="M332.4,554.8h-28l-2,11c2,0,3,0,5,0c7,0,14,2,19,5c5,4,9,10,9,18c0,13-11,25-31,25c-9,0-16-2-20-4l3-13
						c3,2,10,4,16,4c7,0,14-3,14-11c0-7-6-12-20-12c-4,0-7,0-10,1l5-38.1h40.1L332.4,554.8L332.4,554.8z"/>
				</g>
				<path class="st8" d="M460.6,577.8c0-101.1-82.1-184.3-184.3-184.3S92.1,475.6,92.1,577.8c0,48.1,18,91.1,48.1,124.2h271.4
					C442.6,668.9,460.6,625.9,460.6,577.8z M277.4,678.9c-56.1,0-101.1-45.1-101.1-101.1c0-56.1,45.1-101.1,101.1-101.1
					c56.1,0,101.1,45.1,101.1,101.1C378.5,633.9,333.5,678.9,277.4,678.9z M277.4,450.6c-7,0-13-6-13-13s6-13,13-13
					c85.1,0,154.2,69.1,154.2,154.2c0,7-6,13-13,13s-13-6-13-13C404.5,507.7,347.5,450.6,277.4,450.6z"/>
			</g>
		</g>
    </svg>



    <svg viewBox="7.5 5.5 953 818">
		<g id="lottery-ticket" class="icon">
			<path class="st0" d="M51.2,107.2h22.1v79.1h39v17.9H51.2V107.2z"/>
			<path class="st0" d="M207.2,154.6c0,31.6-19,50.6-47.4,50.6s-45.3-22.1-45.3-49.6c0-29.5,19-50.6,47.4-50.6
				C191.4,105.1,207.2,127.2,207.2,154.6z M137.6,155.7c0,19,8.4,32.7,24.3,32.7c14.8,0,23.2-13.7,23.2-32.7c0-17.9-8.4-32.7-23.2-32.7
				C146.1,123,137.6,136.7,137.6,155.7z"/>
			<path class="st0" d="M236.7,125.1h-26.4v-17.9h74.9v17.9h-26.4v78h-22.1L236.7,125.1L236.7,125.1z"/>
			<path class="st0" d="M319,125.1h-26.4v-17.9h74.9v17.9h-26.4v78H319V125.1z"/>
			<path class="st0" d="M437.1,163h-35.8v23.2h40.1v17.9h-62.2v-97h60.1V125h-38v20h35.8V163L437.1,163z"/>
			<path class="st0" d="M456.1,108.2c7.4-1.1,17.9-2.1,29.5-2.1c14.8,0,24.3,2.1,31.6,7.4c6.3,4.2,8.4,11.6,8.4,20
				c0,12.7-8.4,21.1-16.9,24.3l0,0c6.3,3.2,10.5,9.5,12.7,17.9c3.2,10.5,6.3,24.3,7.4,27.4h-22.1c-1.1-3.2-4.2-10.5-6.3-22.1
				c-2.1-11.6-6.3-14.8-15.8-15.8h-6.3v38h-22.1L456.1,108.2L456.1,108.2z M477.1,149.3h8.4c10.5,0,17.9-5.3,17.9-13.7
				s-6.3-13.7-15.8-13.7c-5.3,0-8.4,0-9.5,1.1L477.1,149.3L477.1,149.3L477.1,149.3z"/>
			<path class="st0" d="M560.4,204.2v-40.1l-30.6-56.9h25.3l9.5,23.2c3.2,7.4,5.3,11.6,7.4,19l0,0c2.1-6.3,4.2-11.6,7.4-19l9.5-23.2
				h24.3l-31.6,56.9v40.1L560.4,204.2L560.4,204.2z"/>
			<g>
				<rect x="49.1" y="284.3" class="st0" width="23.2" height="52.7"/>
				<rect x="49.1" y="354.9" class="st0" width="23.2" height="52.7"/>
				<rect x="49.1" y="426.6" class="st0" width="23.2" height="52.7"/>
				<rect x="49.1" y="498.3" class="st0" width="23.2" height="52.7"/>
			</g>
			<rect x="49.1" y="570" class="st0" width="23.2" height="52.7"/>
			<rect x="49.1" y="641.7" class="st0" width="23.2" height="52.7"/>
			<rect x="49.1" y="713.4" class="st0" width="23.2" height="52.7"/>
			<g>
				<path class="st0" d="M83.9,284.3v38h724.4v191.9h74.9V284.3H83.9L83.9,284.3z M236.7,379.2h42.2V336h-42.2V379.2z M243.1,342.3
					h30.6v30.6h-30.6V342.3z M307.4,379.2h43.2V336h-43.2V379.2z M313.7,342.3h30.6v30.6h-30.6V342.3z M166.1,379.2h43.2V336h-43.2
					V379.2z M172.4,342.3H203v30.6h-30.6V342.3z M95.5,379.2h42.2V336H95.5V379.2z M101.8,342.3h30.6v30.6h-30.6
					C101.8,372.9,101.8,342.3,101.8,342.3z M378,379.2h43.2V336H378V379.2z M383.3,342.3h30.6v30.6h-30.6V342.3z M518.3,379.2h42.2V336
					h-42.2V379.2z M524.6,342.3h30.6v30.6h-30.6V342.3z M659.6,379.2h43.2V336h-43.2V379.2z M665.9,342.3h30.6v30.6h-30.6V342.3z
					 M588.9,379.2h42.2V336h-42.2V379.2L588.9,379.2z M595.2,342.3h30.6v30.6h-30.6V342.3z M447.6,379.2h42.2V336h-42.2V379.2z
					 M454,342.3h30.6v30.6H454V342.3z M730.2,379.2h42.2V336h-42.2V379.2z M736.5,342.3h30.6v30.6h-30.6V342.3z M588.9,440.4h42.2
					v-43.2h-42.2V440.4L588.9,440.4z M595.2,403.4h30.6V434h-30.6V403.4z M659.6,440.4h43.2v-43.2h-43.2V440.4z M665.9,403.4h30.6V434
					h-30.6V403.4z M95.5,440.4h42.2v-43.2H95.5V440.4z M101.8,403.4h30.6V434h-30.6C101.8,434,101.8,403.4,101.8,403.4z M166.1,440.4
					h43.2v-43.2h-43.2V440.4z M172.4,403.4H203V434h-30.6V403.4z M730.2,440.4h42.2v-43.2h-42.2V440.4z M736.5,403.4h30.6V434h-30.6
					V403.4z M518.3,440.4h42.2v-43.2h-42.2V440.4z M524.6,403.4h30.6V434h-30.6V403.4z M378,440.4h43.2v-43.2H378V440.4z M383.3,403.4
					h30.6V434h-30.6V403.4z M307.4,440.4h43.2v-43.2h-43.2V440.4z M313.7,403.4h30.6V434h-30.6V403.4z M447.6,440.4h42.2v-43.2h-42.2
					V440.4z M454,403.4h30.6V434H454V403.4z M236.7,440.4h42.2v-43.2h-42.2V440.4z M243.1,403.4h30.6V434h-30.6V403.4z M447.6,501.5
					h42.2v-42.2h-42.2V501.5z M454,464.6h30.6v30.6H454V464.6z M95.5,501.5h42.2v-42.2H95.5V501.5z M101.8,464.6h30.6v30.6h-30.6
					C101.8,495.2,101.8,464.6,101.8,464.6z M588.9,501.5h42.2v-42.2h-42.2V501.5L588.9,501.5z M595.2,464.6h30.6v30.6h-30.6V464.6z
					 M730.2,501.5h42.2v-42.2h-42.2V501.5z M736.5,464.6h30.6v30.6h-30.6V464.6z M236.7,501.5h42.2v-42.2h-42.2V501.5z M243.1,464.6
					h30.6v30.6h-30.6V464.6z M378,501.5h43.2v-42.2H378V501.5z M383.3,464.6h30.6v30.6h-30.6V464.6z M659.6,501.5h43.2v-42.2h-43.2
					V501.5z M665.9,464.6h30.6v30.6h-30.6V464.6z M518.3,501.5h42.2v-42.2h-42.2V501.5z M524.6,464.6h30.6v30.6h-30.6V464.6z
					 M307.4,501.5h43.2v-42.2h-43.2V501.5z M313.7,464.6h30.6v30.6h-30.6V464.6z M166.1,501.5h43.2v-42.2h-43.2V501.5z M172.4,464.6
					H203v30.6h-30.6V464.6z"/>
			</g>
			<g>
				<path class="st0" d="M83.9,535.2v38h724.4v191.9h74.9V535.2H83.9z M236.7,630.1h42.2V588h-42.2V630.1z M243.1,594.3h30.6v30.6
					h-30.6V594.3z M307.4,630.1h43.2V588h-43.2V630.1z M313.7,594.3h30.6v30.6h-30.6V594.3z M166.1,630.1h43.2V588h-43.2V630.1z
					 M172.4,594.3H203v30.6h-30.6V594.3z M95.5,630.1h42.2V588H95.5V630.1z M101.8,594.3h30.6v30.6h-30.6
					C101.8,624.9,101.8,594.3,101.8,594.3z M378,630.1h43.2V588H378V630.1z M383.3,594.3h30.6v30.6h-30.6V594.3z M518.3,630.1h42.2V588
					h-42.2V630.1z M524.6,594.3h30.6v30.6h-30.6V594.3z M659.6,630.1h43.2V588h-43.2V630.1z M665.9,594.3h30.6v30.6h-30.6V594.3z
					 M588.9,630.1h42.2V588h-42.2V630.1L588.9,630.1z M595.2,594.3h30.6v30.6h-30.6V594.3z M447.6,630.1h42.2V588h-42.2V630.1z
					 M454,594.3h30.6v30.6H454V594.3z M730.2,630.1h42.2V588h-42.2V630.1z M736.5,594.3h30.6v30.6h-30.6V594.3z M588.9,691.3h42.2
					v-42.2h-42.2V691.3L588.9,691.3z M595.2,654.4h30.6V685h-30.6V654.4z M659.6,691.3h43.2v-42.2h-43.2V691.3z M665.9,654.4h30.6V685
					h-30.6V654.4z M95.5,691.3h42.2v-42.2H95.5V691.3z M101.8,654.4h30.6V685h-30.6C101.8,685,101.8,654.4,101.8,654.4z M166.1,691.3
					h43.2v-42.2h-43.2V691.3z M172.4,654.4H203V685h-30.6V654.4z M730.2,691.3h42.2v-42.2h-42.2V691.3z M736.5,654.4h30.6V685h-30.6
					V654.4z M518.3,691.3h42.2v-42.2h-42.2V691.3z M524.6,654.4h30.6V685h-30.6V654.4z M378,691.3h43.2v-42.2H378V691.3z M383.3,654.4
					h30.6V685h-30.6V654.4z M307.4,691.3h43.2v-42.2h-43.2V691.3z M313.7,654.4h30.6V685h-30.6V654.4z M447.6,691.3h42.2v-42.2h-42.2
					V691.3z M454,654.4h30.6V685H454V654.4z M236.7,691.3h42.2v-42.2h-42.2V691.3z M243.1,654.4h30.6V685h-30.6V654.4z M447.6,752.4
					h42.2v-43.2h-42.2V752.4z M454,715.5h30.6v30.6H454V715.5z M95.5,752.4h42.2v-43.2H95.5V752.4z M101.8,715.5h30.6v30.6h-30.6
					C101.8,746.1,101.8,715.5,101.8,715.5z M588.9,752.4h42.2v-43.2h-42.2V752.4L588.9,752.4z M595.2,715.5h30.6v30.6h-30.6V715.5z
					 M730.2,752.4h42.2v-43.2h-42.2V752.4z M736.5,715.5h30.6v30.6h-30.6V715.5z M236.7,752.4h42.2v-43.2h-42.2V752.4z M243.1,715.5
					h30.6v30.6h-30.6V715.5z M378,752.4h43.2v-43.2H378V752.4z M383.3,715.5h30.6v30.6h-30.6V715.5z M659.6,752.4h43.2v-43.2h-43.2
					V752.4z M665.9,715.5h30.6v30.6h-30.6V715.5z M518.3,752.4h42.2v-43.2h-42.2V752.4z M524.6,715.5h30.6v30.6h-30.6V715.5z
					 M307.4,752.4h43.2v-43.2h-43.2V752.4z M313.7,715.5h30.6v30.6h-30.6V715.5z M166.1,752.4h43.2v-43.2h-43.2V752.4z M172.4,715.5
					H203v30.6h-30.6V715.5z"/>
			</g>
			<g>
				<rect x="183.4" y="333.8" transform="matrix(-0.7072 -0.707 0.707 -0.7072 65.9173 744.4566)" width="7.4" height="49.6"/>
				<rect x="183.7" y="333.4" transform="matrix(0.7074 -0.7069 0.7069 0.7074 -198.3564 237.2592)" width="7.4" height="49.6"/>
			</g>
			<g>
				<rect x="323.4" y="393.8" transform="matrix(-0.7074 -0.7069 0.7069 -0.7074 262.6012 945.9229)" width="7.4" height="49.6"/>
				<rect x="323.4" y="394.4" transform="matrix(0.7074 -0.7068 0.7068 0.7074 -200.6019 353.869)" width="7.4" height="49.6"/>
			</g>
			<g>
				<rect x="604.7" y="335" transform="matrix(-0.7067 -0.7075 0.7075 -0.7067 783.8303 1044.5054)" width="7.4" height="49.6"/>
				<rect x="604.4" y="335.4" transform="matrix(0.7067 -0.7075 0.7075 0.7067 -76.5187 535.8945)" width="7.4" height="49.6"/>
			</g>
			<g>
				<rect x="677" y="333.5" transform="matrix(-0.7073 -0.7069 0.7069 -0.7073 908.9125 1092.9554)" width="7.4" height="49.6"/>
				<rect x="676.7" y="332.8" transform="matrix(0.7074 -0.7068 0.7068 0.7074 -53.6916 585.5557)" width="7.4" height="49.6"/>
			</g>
			<g>
				<rect x="607.8" y="646.1" transform="matrix(-0.7073 -0.7069 0.7069 -0.7073 569.7457 1577.7068)" width="7.4" height="49.6"/>
				<rect x="606.8" y="646.3" transform="matrix(0.7072 -0.707 0.707 0.7072 -295.6996 628.0851)" width="7.4" height="49.6"/>
			</g>
			<g>
				<rect x="466.4" y="583.5" transform="matrix(-0.7072 -0.707 0.707 -0.7072 372.5634 1370.8452)" width="7.4" height="49.6"/>
				<rect x="466.9" y="583.1" transform="matrix(0.7072 -0.707 0.707 0.7072 -292.0052 510.7305)" width="7.4" height="49.6"/>
			</g>
			<g>
				<rect x="393.6" y="645.6" transform="matrix(-0.7075 -0.7067 0.7067 -0.7075 204.6278 1425.4534)" width="7.4" height="49.6"/>
				<rect x="393.7" y="645.1" transform="matrix(0.7075 -0.7067 0.7067 0.7075 -357.1489 476.8075)" width="7.4" height="49.6"/>
			</g>
			<g>
				<rect x="464.3" y="708.2" transform="matrix(-0.7074 -0.7068 0.7068 -0.7074 280.9894 1582.3619)" width="7.4" height="49.6"/>
				<rect x="464" y="707.5" transform="matrix(0.7075 -0.7067 0.7067 0.7075 -380.7192 544.7464)" width="7.4" height="49.6"/>
			</g>
			<g>
				<rect x="606.5" y="706.2" transform="matrix(-0.7069 -0.7074 0.7074 -0.7069 524.4236 1679.3076)" width="7.4" height="49.6"/>
				<rect x="606" y="706.3" transform="matrix(0.7068 -0.7074 0.7074 0.7068 -338.4391 645.6927)" width="7.4" height="49.6"/>
			</g>
			<g>
				<rect x="181.6" y="456.1" transform="matrix(-0.7074 -0.7068 0.7068 -0.7074 -23.5008 951.9805)" width="7.4" height="49.6"/>
				<rect x="181.2" y="455.8" transform="matrix(0.7072 -0.707 0.707 0.7072 -285.6501 271.4239)" width="7.4" height="49.6"/>
			</g>
			<g>
				<path class="st0" d="M823,59.7c-53.8,0-95.9,43.2-95.9,95.9c0,53.8,43.2,95.9,95.9,95.9c3.2,0,5.3,0,8.4,0v-15.8
					c-14.8-1.1-28.5-4.2-35.8-8.4l6.3-25.3c8.4,5.3,21.1,9.5,35.8,9.5c11.6,0,20-4.2,20-13.7c0-8.4-6.3-13.7-22.1-19
					c-24.3-6.3-40.1-16.9-40.1-38c0-19,13.7-33.7,35.8-38v-20h21.1v19c14.8,1.1,24.3,3.2,30.6,7.4l-6.3,24.3
					c-5.3-2.1-14.8-7.4-30.6-7.4c-13.7,0-17.9,6.3-17.9,11.6c0,7.4,7.4,11.6,25.3,17.9c25.3,8.4,35.8,21.1,35.8,40.1s-13.7,34.8-38,39
					v13.7c39-12.7,67.5-48.5,67.5-91.7C918.9,102.9,875.7,59.7,823,59.7z"/>
			</g>
			<g>
				<rect x="909" y="284.3" class="st0" width="3" height="481.9"/>
			</g>
			<g>
				<path class="st0" d="M933.6,823.5H33.3c-14,0-25.8-15.2-25.8-33.1V38.6c0-18.9,11.1-33.1,25.8-33.1h901.5
					c13.9,0,25.7,15.2,25.7,33.1v751.8c0,0.2,0,0.4-0.1,0.5C960.2,809.2,948.5,823.5,933.6,823.5z M33.3,8.5c-13,0-22.8,12.9-22.8,30.1
					v751.8c0,16.3,10.4,30.1,22.8,30.1h900.3c13.1,0,23.8-13.5,23.8-30.1c0-0.2,0-0.4,0.1-0.5V38.6c0-16.3-10.4-30.1-22.7-30.1
					C934.8,8.5,33.3,8.5,33.3,8.5z"/>
			</g>
		</g>
	</svg>

	<svg viewBox="0 0 971.9 842.9">
		<g id="winner-cup" class="icon">
			<path class="st0" d="M503.7,614.5c0-28.5,14.3-53,36.7-67.3H432.3c21.4,14.3,36.7,38.7,36.7,67.3c0,44.9-36.7,80.5-80.5,80.5h194.7
				C538.3,695.1,503.7,659.4,503.7,614.5z"/>
			<rect x="389.5" y="695.1" class="st1" width="194.7" height="25.5"/>
			<rect x="324.2" y="719.6" class="st2" width="323.2" height="74.4"/>
			<polygon class="st3" points="682.1,842.9 289.6,842.9 304.9,795 661.7,795 "/>
			<path class="st0" d="M756.5,16H215.1c0,14.3,0,28.5,1,43.8h540.4C756.5,44.6,756.5,30.3,756.5,16z"/>
			<g>
				<g>
					<path class="st0" d="M956.4,43.6c-6.1-10.2-16.3-20.4-26.5-27.5c-39.8-27.5-103-17.3-137.6,13.3c-14.3,12.2-26.5,28.5-33.6,45.9
						c-7.1,17.3-12.2,32.6-12.2,51l17.3,4.1c7.1-44.9,35.7-85.6,83.6-93.8c43.8-6.1,78.5,29.6,79.5,69.3
						c3.1,100.9-90.7,162.1-167.2,207c-25.5,15.3-55.1,33.6-71.4,59.1c-4.1,8.2-9.2,17.3-11.2,28.5c-2,10.2-1,21.4,4.1,32.6
						c4.1,11.2,13.3,19.4,23.5,23.5s20.4,5.1,31.6,4.1c5.1-1,16.3-6.1,18.4-11.2v-15.3c-14.3,4.1-28.5,4.1-37.7-2
						c-10.2-5.1-15.3-16.3-12.2-28.5c10.2-51,81.6-87.7,120.3-114.2c43.8-28.5,88.7-61.2,118.3-104c16.3-24.5,26.5-53,28.5-81.6
						C970.7,85.4,967.6,62.9,956.4,43.6z"/>
					<circle class="st1" cx="781" cy="126.2" r="36.7"/>
					<circle class="st1" cx="731.1" cy="429" r="31.6"/>
				</g>
				<g>
					<path class="st0" d="M15.3,43.6C21.4,33.4,31.6,23.2,41.8,16c39.8-27.5,103-17.3,137.6,13.3c14.3,12.2,26.5,28.5,33.6,45.9
						s12.2,32.6,12.2,51l-17.3,4.1c-7.1-44.9-35.7-85.6-83.6-93.8C80.5,30.3,45.9,66,44.9,105.8c-3.1,100.9,90.7,162.1,167.2,207
						c25.5,15.3,55.1,33.6,71.4,59.1c4.1,8.2,9.2,17.3,11.2,28.5c2,10.2,1,21.4-4.1,32.6c-4.1,11.2-13.3,19.4-23.5,23.5
						s-20.4,5.1-31.6,4.1c-5.1-1-16.3-6.1-18.4-11.2v-15.3c14.3,4.1,28.5,4.1,37.7-2c10.2-5.1,15.3-16.3,12.2-28.5
						c-10.2-51-81.6-87.7-120.3-114.2c-43.8-28.5-88.7-61.2-118.3-104C12.2,160.8,2,132.3,0,103.7C2,85.4,4.1,62.9,15.3,43.6z"/>
					<circle class="st1" cx="190.7" cy="126.2" r="36.7"/>
					<circle class="st1" cx="240.6" cy="429" r="31.6"/>
				</g>
			</g>
			<path class="st1" d="M683.1,59.9H222.3C227.4,207.7,262,339.2,314,430c45.9,81.6,107.1,131.5,172.3,131.5
				c139.7,0,252.9-220.2,264.1-500.6h-67.3L683.1,59.9L683.1,59.9z"/>
			<path class="st4" d="M222.3,59.9C227.4,207.7,262,339.2,314,430L683.1,59.9H222.3z"/>
		</g>
	</svg>


</svg>