<?xml version="1.0" encoding="utf-8"?>
<svg xmlns="http://www.w3.org/2000/svg"
	xmlns:xlink="http://www.w3.org/1999/xlink"
	width="638px" height="141px" viewBox="0 0 638 141">
<clipPath id="clip0"><path fillRule="evenodd" d="M 619.79-0.03C 619.79-0.03 0.16-0.03 0.16-0.03 0.16-0.03 18.15 74.7 18.15 74.7 18.15 74.7 0.16 140.89 0.16 140.89 0.16 140.89 619.79 140.89 619.79 140.89 619.79 140.89 637.79 74.7 637.79 74.7 637.79 74.7 619.79-0.03 619.79-0.03Z"/></clipPath><defs>
<symbol id="symbol0"><path fillRule="evenodd" d="M 619.79-0.03C 619.79-0.03 0.16-0.03 0.16-0.03 0.16-0.03 18.15 74.7 18.15 74.7 18.15 74.7 0.16 140.89 0.16 140.89 0.16 140.89 619.79 140.89 619.79 140.89 619.79 140.89 637.79 74.7 637.79 74.7 637.79 74.7 619.79-0.03 619.79-0.03Z"/></symbol></defs>
<g><use xlink:href="#symbol0" x="0" y="0" width="638" height="141" fill="rgb(225,225,225)"/><use xlink:href="#symbol0" x="0" y="0" width="638" height="141" fill="none" stroke="rgb(195,195,195)" stroke-width="4.00px" clip-path="url(#clip0)"/></g></svg>