<?xml version="1.0" encoding="utf-8"?>
<svg xmlns="http://www.w3.org/2000/svg"
	xmlns:xlink="http://www.w3.org/1999/xlink"
	width="637px" height="138px" viewBox="0 0 637 138">
<filter filterUnits="objectBoundingBox" x="0.00" y="0.00" width="100.00" height="100.00" id="filter0">
<feImage x="0" y="0" width="637" height="138" preserveApectRatio="none" xlink:href="#symbol0"/>
<feComposite in="grImage1" in2="SourceAlpha" operator="in" result="grOverlay1"/>
<feBlend in="grOverlay1" in2="SourceGraphic" mode="normal" result="gradientOverlay1"/>
</filter>
<linearGradient id="linear_PSgrad_0" x1="0%" y1="100%" x2="100%" y2="0%">
    <stop offset="0%" stop-color="rgb(247,205,13)" stop-opacity="1" />
    <stop offset="100%" stop-color="rgb(248,218,79)" stop-opacity="1" />
</linearGradient>

<clipPath id="clip0"><path fillRule="evenodd" d="M 618.82 0C 618.82 0 0 0 0 0 0 0 17.66 73.17 17.66 73.17 17.66 73.17-0 138-0 138-0 138 618.82 138 618.82 138 618.82 138 636.48 73.17 636.48 73.17 636.48 73.17 618.82 0 618.82 0Z"/></clipPath><defs>
<rect x="0" y="0" width="637" height="138" id="symbol0" fill="url(#linear_PSgrad_0)"/><symbol id="symbol1"><path fillRule="evenodd" d="M 618.82 0C 618.82 0 0 0 0 0 0 0 17.66 73.17 17.66 73.17 17.66 73.17-0 138-0 138-0 138 618.82 138 618.82 138 618.82 138 636.48 73.17 636.48 73.17 636.48 73.17 618.82 0 618.82 0Z"/></symbol></defs>
<g><path fillRule="evenodd" d="M 618.82 0C 618.82 0 0 0 0 0 0 0 17.66 73.17 17.66 73.17 17.66 73.17-0 138-0 138-0 138 618.82 138 618.82 138 618.82 138 636.48 73.17 636.48 73.17 636.48 73.17 618.82 0 618.82 0Z" fill="rgb(182,182,182)" filter="url(#filter0)"/><use xlink:href="#symbol1" x="0" y="0" width="637" height="138" fill="none" stroke="rgb(239,210,70)" stroke-width="8.00px" clip-path="url(#clip0)"/></g></svg>