<?xml version="1.0" encoding="utf-8"?>
<!-- Generator: Adobe Illustrator 22.1.0, SVG Export Plug-In . SVG Version: 6.00 Build 0)  -->
<svg version="1.1" id="Layer_1" xmlns="http://www.w3.org/2000/svg" xmlns:xlink="http://www.w3.org/1999/xlink" x="0px" y="0px"
	 viewBox="0 0 142 142" style="enable-background:new 0 0 142 142;" xml:space="preserve">
<style type="text/css">
	.st0{fill:#333333;}
</style>
<g>
	<g>
		<path class="st0" d="M68.7,139.7C30.8,139.7,0,108.9,0,71C0,33.1,30.8,2.3,68.7,2.3c31.3,0,58.6,21.1,66.5,51.3
			c0.5,2.1-0.7,4.1-2.7,4.7c-2.1,0.5-4.1-0.7-4.7-2.7C120.8,28.7,96.5,10,68.7,10c-33.6,0-61,27.4-61,61s27.4,61,61,61
			c18,0,35.1-7.9,46.7-21.7c1.4-1.6,3.8-1.8,5.4-0.5c1.6,1.4,1.8,3.8,0.5,5.4C108.2,130.8,89,139.7,68.7,139.7z"/>
		<g>
			<polygon class="st0" points="119.3,53 133.6,71 142,49.6 			"/>
		</g>
	</g>
	<path class="st0" d="M78.2,72.8c0,5.3-4.3,9.5-9.5,9.5c-5.3,0-9.5-4.3-9.5-9.5c0-5.3,4.3-9.5,9.5-9.5C74,63.2,78.2,67.5,78.2,72.8z
		"/>
	<path class="st0" d="M111.8,87.5c-0.3,0-0.6,0-1-0.1L64.8,75.5V35.8c0-2.1,1.7-3.8,3.8-3.8c2.1,0,3.8,1.7,3.8,3.8v33.8l40.3,10.4
		c2.1,0.5,3.3,2.6,2.8,4.7C115.1,86.3,113.5,87.5,111.8,87.5z"/>
</g>
</svg>
