<?xml version="1.0" encoding="utf-8"?>
<!-- Generator: Adobe Illustrator 17.0.0, SVG Export Plug-In . SVG Version: 6.00 Build 0)  -->
<!DOCTYPE svg PUBLIC "-//W3C//DTD SVG 1.1//EN" "http://www.w3.org/Graphics/SVG/1.1/DTD/svg11.dtd" [
	<!ENTITY st0 "opacity:0.75;">
	<!ENTITY st1 "fill:url(#SVGID_1_);">
	<!ENTITY st2 "fill:url(#SVGID_2_);">
	<!ENTITY st3 "fill:url(#SVGID_3_);">
	<!ENTITY st4 "fill:url(#SVGID_4_);">
	<!ENTITY st5 "fill:url(#SVGID_5_);">
	<!ENTITY st6 "fill:url(#SVGID_6_);">
	<!ENTITY st7 "fill:url(#SVGID_7_);">
	<!ENTITY st8 "fill:url(#SVGID_8_);">
	<!ENTITY st9 "fill:url(#SVGID_9_);">
	<!ENTITY st10 "fill:url(#SVGID_10_);">
	<!ENTITY st11 "fill:url(#SVGID_11_);">
	<!ENTITY st12 "fill:url(#SVGID_12_);">
]>
<svg version="1.1" id="Layer_1" xmlns="http://www.w3.org/2000/svg" xmlns:xlink="http://www.w3.org/1999/xlink" x="0px" y="0px"
	 width="132.292px" height="18.946px" viewBox="0 0 132.292 18.946" style="enable-background:new 0 0 132.292 18.946;"
	 xml:space="preserve">
<g style="&st0;">
	<path d="M5.239,13.682l-0.024,1.712v0.023c0.727-0.031,1.311-0.047,1.754-0.047h5.497c0,0.587-0.024,1.039-0.072,1.355
		c-0.19,1.221-0.998,1.83-2.424,1.83H3.646c-0.681,0-1.216-0.197-1.604-0.594c-0.389-0.396-0.583-0.934-0.583-1.616V2.414
		l0.166-0.166h10.246c0.095,0.46,0.143,0.959,0.143,1.498s-0.111,1.102-0.332,1.688H5.215l0.024,1.711v1.664
		c0.41-0.015,0.946-0.024,1.609-0.024h3.62c0.143,0.444,0.214,0.951,0.214,1.522c0,0.57-0.071,1.093-0.214,1.569h-5.23V13.682z"/>
	<path d="M14.344,14.467V9.593c0-1.03-0.191-1.822-0.571-2.377c0.586-0.523,1.299-0.784,2.14-0.784c0.84,0,1.41,0.19,1.712,0.571
		c0.301,0.38,0.452,0.959,0.452,1.735v5.04c0,0.554,0.063,0.959,0.19,1.212c0.127,0.253,0.459,0.38,0.998,0.38
		c0.523,0,1.054-0.269,1.593-0.808v-7.94c0.523-0.095,1.133-0.143,1.831-0.143s1.323,0.048,1.878,0.143v8.463
		c0,0.856,0.222,1.434,0.665,1.735c-0.079,0.317-0.23,0.663-0.452,1.034c-0.222,0.373-0.451,0.646-0.689,0.82
		c-1.3-0.047-2.234-0.602-2.805-1.664c-1.252,1.126-2.433,1.688-3.542,1.688s-1.953-0.384-2.531-1.153
		C14.633,16.777,14.344,15.751,14.344,14.467z"/>
	<path d="M26.753,8.334c0.079-0.317,0.229-0.669,0.451-1.058s0.443-0.669,0.666-0.844c1.458,0.111,2.472,0.832,3.043,2.163
		c0.603-1.426,1.593-2.14,2.971-2.14c0.412,0,0.935,0.063,1.569,0.19c0,0.491-0.083,1.074-0.25,1.747
		c-0.166,0.674-0.392,1.248-0.677,1.723c-0.27-0.095-0.674-0.174-1.213-0.237c-0.792,0-1.442,0.404-1.949,1.212v7.393
		c-0.523,0.095-1.138,0.142-1.843,0.142s-1.327-0.047-1.866-0.142v-7.679C27.656,9.617,27.354,8.794,26.753,8.334z"/>
	<path d="M45.104,7.668c1.141,1.141,1.711,2.773,1.711,4.897c0,0.951-0.123,1.816-0.369,2.591c-0.246,0.777-0.602,1.438-1.069,1.985
		c-0.468,0.547-1.043,0.967-1.724,1.26c-0.682,0.293-1.466,0.439-2.353,0.439c-0.888,0-1.669-0.151-2.342-0.452
		c-0.674-0.301-1.244-0.724-1.711-1.271c-0.468-0.547-0.82-1.209-1.058-1.985c-0.238-0.777-0.357-1.633-0.357-2.568
		c0-0.951,0.119-1.81,0.357-2.579c0.238-0.768,0.586-1.43,1.046-1.985c0.459-0.555,1.03-0.982,1.712-1.284
		c0.681-0.301,1.465-0.452,2.353-0.452C42.87,6.266,44.137,6.733,45.104,7.668z M41.312,9.047c-0.351,0-0.635,0.083-0.85,0.25
		c-0.215,0.166-0.387,0.392-0.515,0.678c-0.128,0.285-0.215,0.614-0.263,0.986c-0.048,0.373-0.072,0.773-0.072,1.201
		c0,0.665,0.019,1.241,0.06,1.723c0.04,0.484,0.119,0.888,0.239,1.213s0.287,0.567,0.503,0.724c0.216,0.159,0.498,0.238,0.85,0.238
		c0.701,0,1.165-0.305,1.388-0.915c0.223-0.61,0.336-1.478,0.336-2.603c0-1.141-0.112-2.009-0.336-2.603
		C42.43,9.344,41.983,9.047,41.312,9.047z"/>
	<path d="M48.836,18.437l1.259-16.165c0.697-0.127,1.522-0.19,2.472-0.19s1.783,0.063,2.497,0.19l1.403,5.824
		c0.554,2.63,0.847,4.065,0.879,4.302h0.166c0.063-0.396,0.357-1.831,0.879-4.302l1.427-5.824c0.697-0.127,1.522-0.19,2.472-0.19
		s1.783,0.063,2.496,0.19l1.26,16.165c-0.491,0.127-1.098,0.19-1.818,0.19c-0.722,0-1.312-0.04-1.771-0.119l-0.38-6.608
		c-0.111-2.63-0.175-4.461-0.191-5.491h-0.143l-2.353,9.676c-0.57,0.095-1.224,0.142-1.961,0.142c-0.737,0-1.391-0.047-1.962-0.142
		l-2.329-9.676h-0.166c0,1.411-0.064,3.241-0.191,5.491l-0.356,6.608c-0.46,0.079-1.05,0.119-1.771,0.119
		C49.933,18.627,49.326,18.564,48.836,18.437z"/>
	<path d="M73.035,9.356v9.129c-0.27,0.047-0.563,0.083-0.88,0.106c-0.317,0.024-0.642,0.036-0.975,0.036
		c-0.333,0-0.662-0.012-0.987-0.036c-0.325-0.023-0.622-0.059-0.891-0.106v-7.869c0-0.919-0.372-1.379-1.117-1.379h-0.357
		c-0.095-0.301-0.142-0.721-0.142-1.26c0-0.523,0.047-0.967,0.142-1.331c0.412-0.031,0.792-0.059,1.141-0.083
		c0.348-0.024,0.665-0.035,0.951-0.035h0.522c0.809,0,1.442,0.253,1.903,0.76C72.806,7.795,73.035,8.484,73.035,9.356z
		 M68.875,1.844c0.459-0.253,1.054-0.381,1.784-0.381c0.745,0,1.322,0.127,1.736,0.381c0.19,0.428,0.285,0.887,0.285,1.378
		c0,0.491-0.096,0.951-0.285,1.379c-0.461,0.238-1.063,0.357-1.807,0.357c-0.745,0-1.315-0.119-1.712-0.357
		c-0.19-0.428-0.284-0.887-0.284-1.379C68.59,2.732,68.685,2.272,68.875,1.844z"/>
	<path d="M80.475,15.751h0.641c0.191,0.527,0.285,1.054,0.285,1.581c0,0.528-0.023,0.872-0.071,1.031
		c-0.951,0.16-1.799,0.24-2.544,0.24c-1.078,0-1.843-0.266-2.294-0.797c-0.452-0.53-0.677-1.367-0.677-2.507V1.155l0.142-0.166
		h1.451c0.744,0,1.267,0.166,1.569,0.499c0.301,0.332,0.452,0.91,0.452,1.732v11.416C79.43,15.379,79.778,15.751,80.475,15.751z"/>
	<path d="M87.678,15.751h0.641c0.191,0.527,0.285,1.054,0.285,1.581c0,0.528-0.023,0.872-0.071,1.031
		c-0.951,0.16-1.799,0.24-2.544,0.24c-1.078,0-1.843-0.266-2.294-0.797c-0.452-0.53-0.677-1.367-0.677-2.507V1.155l0.142-0.166
		h1.451c0.744,0,1.267,0.166,1.569,0.499c0.301,0.332,0.452,0.91,0.452,1.732v11.416C86.632,15.379,86.98,15.751,87.678,15.751z"/>
	<path d="M94.761,9.356v9.129c-0.27,0.047-0.563,0.083-0.879,0.106c-0.317,0.024-0.642,0.036-0.975,0.036s-0.662-0.012-0.987-0.036
		c-0.325-0.023-0.622-0.059-0.891-0.106v-7.869c0-0.919-0.372-1.379-1.117-1.379h-0.357c-0.095-0.301-0.142-0.721-0.142-1.26
		c0-0.523,0.047-0.967,0.142-1.331c0.412-0.031,0.792-0.059,1.141-0.083c0.348-0.024,0.665-0.035,0.951-0.035h0.522
		c0.809,0,1.442,0.253,1.903,0.76C94.532,7.795,94.761,8.484,94.761,9.356z M90.601,1.844c0.459-0.253,1.054-0.381,1.784-0.381
		c0.745,0,1.322,0.127,1.735,0.381c0.19,0.428,0.285,0.887,0.285,1.378c0,0.491-0.096,0.951-0.285,1.379
		c-0.46,0.238-1.062,0.357-1.807,0.357c-0.745,0-1.315-0.119-1.712-0.357c-0.19-0.428-0.284-0.887-0.284-1.379
		C90.316,2.732,90.411,2.272,90.601,1.844z"/>
	<path d="M106.124,7.668c1.141,1.141,1.711,2.773,1.711,4.897c0,0.951-0.123,1.816-0.369,2.591
		c-0.246,0.777-0.602,1.438-1.069,1.985c-0.468,0.547-1.043,0.967-1.724,1.26c-0.682,0.293-1.466,0.439-2.353,0.439
		c-0.888,0-1.669-0.151-2.342-0.452c-0.674-0.301-1.244-0.724-1.711-1.271c-0.468-0.547-0.82-1.209-1.058-1.985
		c-0.238-0.777-0.357-1.633-0.357-2.568c0-0.951,0.119-1.81,0.357-2.579c0.238-0.768,0.586-1.43,1.046-1.985
		c0.459-0.555,1.03-0.982,1.712-1.284c0.681-0.301,1.465-0.452,2.353-0.452C103.89,6.266,105.157,6.733,106.124,7.668z
		 M102.333,9.047c-0.351,0-0.635,0.083-0.85,0.25c-0.215,0.166-0.387,0.392-0.515,0.678c-0.128,0.285-0.215,0.614-0.263,0.986
		c-0.048,0.373-0.072,0.773-0.072,1.201c0,0.665,0.019,1.241,0.06,1.723c0.04,0.484,0.119,0.888,0.239,1.213
		s0.287,0.567,0.503,0.724c0.216,0.159,0.498,0.238,0.85,0.238c0.701,0,1.165-0.305,1.388-0.915c0.223-0.61,0.336-1.478,0.336-2.603
		c0-1.141-0.112-2.009-0.336-2.603C103.45,9.344,103.003,9.047,102.333,9.047z"/>
	<path d="M120.196,10.64v4.874c0,1.046,0.191,1.83,0.571,2.353c-0.603,0.539-1.323,0.808-2.163,0.808
		c-0.824,0-1.387-0.19-1.688-0.57c-0.302-0.381-0.452-0.96-0.452-1.736v-5.063c0-0.539-0.072-0.935-0.214-1.189
		c-0.143-0.253-0.421-0.38-0.833-0.38c-0.237,0-0.507,0.063-0.808,0.19c-0.302,0.127-0.61,0.333-0.928,0.618v7.94
		c-0.269,0.047-0.562,0.083-0.879,0.106c-0.317,0.024-0.641,0.036-0.975,0.036c-0.333,0-0.658-0.012-0.974-0.036
		c-0.317-0.023-0.61-0.059-0.879-0.106V6.622l0.166-0.166h1.403c0.966,0,1.616,0.475,1.949,1.426
		c1.108-0.982,2.21-1.474,3.304-1.474c1.108,0,1.953,0.384,2.531,1.153S120.196,9.356,120.196,10.64z"/>
	<path d="M122.027,17.676c0.015-0.412,0.122-0.864,0.32-1.355c0.198-0.49,0.432-0.879,0.701-1.165
		c1.268,0.665,2.369,0.998,3.304,0.998c0.444,0,0.784-0.074,1.022-0.225s0.357-0.353,0.357-0.606c0-0.475-0.365-0.832-1.094-1.07
		l-1.307-0.499c-1.982-0.728-2.971-1.918-2.971-3.566c0-1.204,0.416-2.159,1.248-2.865c0.832-0.705,1.953-1.058,3.363-1.058
		c0.697,0,1.466,0.099,2.306,0.297c0.84,0.198,1.529,0.432,2.068,0.701c0.032,0.444-0.055,0.931-0.261,1.462
		c-0.206,0.531-0.459,0.907-0.76,1.129c-1.332-0.602-2.441-0.903-3.328-0.903c-0.317,0-0.559,0.072-0.725,0.214
		c-0.166,0.143-0.25,0.325-0.25,0.547c0,0.38,0.301,0.681,0.903,0.903l1.474,0.523c2.108,0.745,3.161,2.021,3.161,3.828
		c0,1.188-0.435,2.131-1.307,2.828c-0.872,0.697-2.115,1.046-3.733,1.046C124.903,18.84,123.406,18.453,122.027,17.676z"/>
</g>
<g>
	<linearGradient id="SVGID_1_" gradientUnits="userSpaceOnUse" x1="6.2369" y1="1.3649" x2="6.2369" y2="17.672">
		<stop  offset="0" style="stop-color:#FEFCF6"/>
		<stop  offset="1" style="stop-color:#F1D86E"/>
	</linearGradient>
	<path style="&st1;" d="M4.514,12.799L4.49,14.511v0.023c0.727-0.031,1.311-0.047,1.754-0.047h5.497
		c0,0.587-0.024,1.039-0.072,1.355c-0.19,1.221-0.998,1.83-2.424,1.83H2.921c-0.681,0-1.216-0.197-1.604-0.594
		c-0.389-0.396-0.583-0.934-0.583-1.616V1.531L0.9,1.365h10.246c0.095,0.46,0.143,0.959,0.143,1.498s-0.111,1.102-0.332,1.688H4.49
		l0.024,1.711v1.664C4.923,7.91,5.46,7.902,6.123,7.902h3.62c0.143,0.444,0.214,0.951,0.214,1.522c0,0.57-0.071,1.093-0.214,1.569
		h-5.23V12.799z"/>
	<linearGradient id="SVGID_2_" gradientUnits="userSpaceOnUse" x1="18.7768" y1="5.5488" x2="18.7768" y2="17.8152">
		<stop  offset="0" style="stop-color:#FEFCF6"/>
		<stop  offset="1" style="stop-color:#F1D86E"/>
	</linearGradient>
	<path style="&st2;" d="M13.619,13.583V8.71c0-1.03-0.191-1.822-0.571-2.377c0.586-0.523,1.299-0.784,2.14-0.784
		c0.84,0,1.41,0.19,1.712,0.571c0.301,0.38,0.452,0.959,0.452,1.735v5.04c0,0.554,0.063,0.959,0.19,1.212
		c0.127,0.253,0.459,0.38,0.998,0.38c0.523,0,1.054-0.269,1.593-0.808v-7.94c0.523-0.095,1.133-0.143,1.831-0.143
		s1.323,0.048,1.878,0.143v8.463c0,0.856,0.222,1.434,0.665,1.735c-0.079,0.317-0.23,0.663-0.452,1.034
		c-0.222,0.373-0.451,0.646-0.689,0.82c-1.3-0.047-2.234-0.602-2.805-1.664c-1.252,1.126-2.433,1.688-3.542,1.688
		s-1.953-0.384-2.531-1.153C13.907,15.894,13.619,14.868,13.619,13.583z"/>
	<linearGradient id="SVGID_3_" gradientUnits="userSpaceOnUse" x1="30.3772" y1="5.5488" x2="30.3772" y2="17.7436">
		<stop  offset="0" style="stop-color:#FEFCF6"/>
		<stop  offset="1" style="stop-color:#F1D86E"/>
	</linearGradient>
	<path style="&st3;" d="M26.027,7.45c0.079-0.317,0.229-0.669,0.451-1.058c0.222-0.388,0.443-0.669,0.666-0.844
		c1.458,0.111,2.472,0.832,3.043,2.163c0.603-1.426,1.593-2.14,2.971-2.14c0.412,0,0.935,0.063,1.569,0.19
		c0,0.491-0.083,1.074-0.25,1.747c-0.166,0.674-0.392,1.248-0.677,1.723c-0.27-0.095-0.674-0.174-1.213-0.237
		c-0.792,0-1.442,0.404-1.949,1.212v7.393c-0.523,0.095-1.138,0.142-1.843,0.142s-1.327-0.047-1.866-0.142V9.923
		C26.93,8.734,26.629,7.91,26.027,7.45z"/>
	<linearGradient id="SVGID_4_" gradientUnits="userSpaceOnUse" x1="40.5985" y1="5.3825" x2="40.5985" y2="17.9574">
		<stop  offset="0" style="stop-color:#FEFCF6"/>
		<stop  offset="1" style="stop-color:#F1D86E"/>
	</linearGradient>
	<path style="&st4;" d="M44.379,6.785c1.141,1.141,1.711,2.773,1.711,4.897c0,0.951-0.123,1.816-0.369,2.591
		c-0.246,0.777-0.602,1.438-1.069,1.985c-0.468,0.547-1.043,0.967-1.724,1.26c-0.682,0.293-1.466,0.439-2.353,0.439
		c-0.888,0-1.669-0.151-2.342-0.452c-0.674-0.301-1.244-0.724-1.711-1.271c-0.468-0.547-0.82-1.209-1.058-1.985
		c-0.238-0.777-0.357-1.633-0.357-2.568c0-0.951,0.119-1.81,0.357-2.579c0.238-0.768,0.586-1.43,1.046-1.985s1.03-0.982,1.712-1.284
		c0.681-0.301,1.465-0.452,2.353-0.452C42.144,5.382,43.411,5.85,44.379,6.785z M40.587,8.164c-0.351,0-0.635,0.083-0.85,0.25
		c-0.215,0.166-0.387,0.392-0.515,0.678c-0.128,0.285-0.215,0.614-0.263,0.986c-0.048,0.373-0.072,0.773-0.072,1.201
		c0,0.665,0.019,1.241,0.06,1.723c0.04,0.484,0.119,0.888,0.239,1.213s0.287,0.567,0.503,0.724c0.216,0.159,0.498,0.238,0.85,0.238
		c0.701,0,1.165-0.305,1.388-0.915c0.223-0.61,0.336-1.478,0.336-2.603c0-1.141-0.112-2.009-0.336-2.603S41.257,8.164,40.587,8.164z
		"/>
	<linearGradient id="SVGID_5_" gradientUnits="userSpaceOnUse" x1="56.7155" y1="1.1986" x2="56.7155" y2="17.7436">
		<stop  offset="0" style="stop-color:#FEFCF6"/>
		<stop  offset="1" style="stop-color:#F1D86E"/>
	</linearGradient>
	<path style="&st5;" d="M48.11,17.554L49.37,1.389c0.697-0.127,1.522-0.19,2.472-0.19s1.783,0.063,2.497,0.19l1.403,5.824
		c0.554,2.63,0.847,4.065,0.879,4.302h0.166c0.063-0.396,0.357-1.831,0.879-4.302l1.427-5.824c0.697-0.127,1.522-0.19,2.472-0.19
		s1.783,0.063,2.496,0.19l1.26,16.165c-0.491,0.127-1.098,0.19-1.818,0.19c-0.722,0-1.312-0.04-1.771-0.119l-0.38-6.608
		c-0.111-2.63-0.175-4.461-0.191-5.491h-0.143l-2.353,9.676c-0.57,0.095-1.224,0.142-1.961,0.142c-0.737,0-1.391-0.047-1.962-0.142
		l-2.329-9.676h-0.166c0,1.411-0.064,3.241-0.191,5.491L51.7,17.625c-0.46,0.079-1.05,0.119-1.771,0.119
		C49.207,17.744,48.601,17.681,48.11,17.554z"/>
	<linearGradient id="SVGID_6_" gradientUnits="userSpaceOnUse" x1="69.6355" y1="0.5805" x2="69.6355" y2="17.7436">
		<stop  offset="0" style="stop-color:#FEFCF6"/>
		<stop  offset="1" style="stop-color:#F1D86E"/>
	</linearGradient>
	<path style="&st6;" d="M72.31,8.473v9.129c-0.27,0.047-0.563,0.083-0.88,0.106c-0.317,0.024-0.642,0.036-0.975,0.036
		s-0.662-0.012-0.987-0.036c-0.325-0.023-0.622-0.059-0.891-0.106V9.733c0-0.919-0.372-1.379-1.117-1.379h-0.357
		c-0.095-0.301-0.142-0.721-0.142-1.26c0-0.523,0.047-0.967,0.142-1.331c0.412-0.031,0.792-0.059,1.141-0.083
		c0.348-0.024,0.665-0.035,0.951-0.035h0.522c0.809,0,1.442,0.253,1.903,0.76C72.081,6.912,72.31,7.601,72.31,8.473z M68.149,0.961
		c0.459-0.253,1.054-0.381,1.784-0.381c0.745,0,1.322,0.127,1.736,0.381c0.19,0.428,0.285,0.887,0.285,1.378
		c0,0.491-0.096,0.951-0.285,1.379c-0.461,0.238-1.063,0.357-1.807,0.357c-0.745,0-1.315-0.119-1.712-0.357
		c-0.19-0.428-0.284-0.887-0.284-1.379C67.865,1.849,67.959,1.389,68.149,0.961z"/>
	<linearGradient id="SVGID_7_" gradientUnits="userSpaceOnUse" x1="77.8836" y1="0.1051" x2="77.8836" y2="17.7204">
		<stop  offset="0" style="stop-color:#FEFCF6"/>
		<stop  offset="1" style="stop-color:#F1D86E"/>
	</linearGradient>
	<path style="&st7;" d="M79.75,14.868h0.641c0.191,0.527,0.285,1.054,0.285,1.581c0,0.528-0.023,0.872-0.071,1.031
		c-0.951,0.16-1.799,0.24-2.544,0.24c-1.078,0-1.843-0.266-2.294-0.797c-0.452-0.53-0.677-1.367-0.677-2.507V0.271l0.142-0.166
		h1.451c0.744,0,1.267,0.166,1.569,0.499c0.301,0.332,0.452,0.91,0.452,1.732v11.416C78.704,14.496,79.053,14.868,79.75,14.868z"/>
	<linearGradient id="SVGID_8_" gradientUnits="userSpaceOnUse" x1="85.0859" y1="0.1051" x2="85.0859" y2="17.7204">
		<stop  offset="0" style="stop-color:#FEFCF6"/>
		<stop  offset="1" style="stop-color:#F1D86E"/>
	</linearGradient>
	<path style="&st8;" d="M86.952,14.868h0.641c0.191,0.527,0.285,1.054,0.285,1.581c0,0.528-0.023,0.872-0.071,1.031
		c-0.951,0.16-1.799,0.24-2.544,0.24c-1.078,0-1.843-0.266-2.294-0.797c-0.452-0.53-0.677-1.367-0.677-2.507V0.271l0.142-0.166
		h1.451c0.744,0,1.267,0.166,1.569,0.499c0.301,0.332,0.452,0.91,0.452,1.732v11.416C85.907,14.496,86.255,14.868,86.952,14.868z"/>
	<linearGradient id="SVGID_9_" gradientUnits="userSpaceOnUse" x1="91.3615" y1="0.5805" x2="91.3615" y2="17.7436">
		<stop  offset="0" style="stop-color:#FEFCF6"/>
		<stop  offset="1" style="stop-color:#F1D86E"/>
	</linearGradient>
	<path style="&st9;" d="M94.035,8.473v9.129c-0.27,0.047-0.563,0.083-0.879,0.106c-0.317,0.024-0.642,0.036-0.975,0.036
		c-0.333,0-0.662-0.012-0.987-0.036c-0.325-0.023-0.622-0.059-0.891-0.106V9.733c0-0.919-0.372-1.379-1.117-1.379H88.83
		c-0.095-0.301-0.142-0.721-0.142-1.26c0-0.523,0.047-0.967,0.142-1.331c0.412-0.031,0.792-0.059,1.141-0.083
		c0.348-0.024,0.665-0.035,0.951-0.035h0.522c0.809,0,1.442,0.253,1.903,0.76C93.806,6.912,94.035,7.601,94.035,8.473z
		 M89.875,0.961c0.459-0.253,1.054-0.381,1.784-0.381c0.745,0,1.322,0.127,1.735,0.381c0.19,0.428,0.285,0.887,0.285,1.378
		c0,0.491-0.096,0.951-0.285,1.379c-0.46,0.238-1.062,0.357-1.807,0.357s-1.315-0.119-1.712-0.357
		c-0.19-0.428-0.284-0.887-0.284-1.379C89.591,1.849,89.686,1.389,89.875,0.961z"/>
	<linearGradient id="SVGID_10_" gradientUnits="userSpaceOnUse" x1="101.6188" y1="5.3825" x2="101.6188" y2="17.9574">
		<stop  offset="0" style="stop-color:#FEFCF6"/>
		<stop  offset="1" style="stop-color:#F1D86E"/>
	</linearGradient>
	<path style="&st10;" d="M105.399,6.785c1.141,1.141,1.711,2.773,1.711,4.897c0,0.951-0.123,1.816-0.369,2.591
		c-0.246,0.777-0.602,1.438-1.069,1.985c-0.468,0.547-1.043,0.967-1.724,1.26c-0.682,0.293-1.466,0.439-2.353,0.439
		c-0.888,0-1.669-0.151-2.342-0.452c-0.674-0.301-1.244-0.724-1.711-1.271c-0.468-0.547-0.82-1.209-1.058-1.985
		c-0.238-0.777-0.357-1.633-0.357-2.568c0-0.951,0.119-1.81,0.357-2.579c0.238-0.768,0.586-1.43,1.046-1.985s1.03-0.982,1.712-1.284
		c0.681-0.301,1.465-0.452,2.353-0.452C103.164,5.382,104.432,5.85,105.399,6.785z M101.607,8.164c-0.351,0-0.635,0.083-0.85,0.25
		c-0.215,0.166-0.387,0.392-0.515,0.678c-0.128,0.285-0.215,0.614-0.263,0.986c-0.048,0.373-0.072,0.773-0.072,1.201
		c0,0.665,0.019,1.241,0.06,1.723c0.04,0.484,0.119,0.888,0.239,1.213s0.287,0.567,0.503,0.724c0.216,0.159,0.498,0.238,0.85,0.238
		c0.701,0,1.165-0.305,1.388-0.915c0.223-0.61,0.336-1.478,0.336-2.603c0-1.141-0.112-2.009-0.336-2.603
		C102.724,8.461,102.278,8.164,101.607,8.164z"/>
	<linearGradient id="SVGID_11_" gradientUnits="userSpaceOnUse" x1="114.6454" y1="5.5251" x2="114.6454" y2="17.791">
		<stop  offset="0" style="stop-color:#FEFCF6"/>
		<stop  offset="1" style="stop-color:#F1D86E"/>
	</linearGradient>
	<path style="&st11;" d="M119.471,9.756v4.874c0,1.046,0.191,1.83,0.571,2.353c-0.603,0.539-1.323,0.808-2.163,0.808
		c-0.824,0-1.387-0.19-1.688-0.57c-0.302-0.381-0.452-0.96-0.452-1.736v-5.063c0-0.539-0.072-0.935-0.214-1.189
		c-0.143-0.253-0.421-0.38-0.833-0.38c-0.237,0-0.507,0.063-0.808,0.19c-0.302,0.127-0.61,0.333-0.928,0.618v7.94
		c-0.269,0.047-0.562,0.083-0.879,0.106c-0.317,0.024-0.641,0.036-0.975,0.036c-0.333,0-0.658-0.012-0.974-0.036
		c-0.317-0.023-0.61-0.059-0.879-0.106V5.739l0.166-0.166h1.403c0.966,0,1.616,0.475,1.949,1.426
		c1.108-0.982,2.21-1.474,3.304-1.474c1.108,0,1.953,0.384,2.531,1.153C119.181,7.447,119.471,8.473,119.471,9.756z"/>
	<linearGradient id="SVGID_12_" gradientUnits="userSpaceOnUse" x1="126.0674" y1="5.3825" x2="126.0674" y2="17.9574">
		<stop  offset="0" style="stop-color:#FEFCF6"/>
		<stop  offset="1" style="stop-color:#F1D86E"/>
	</linearGradient>
	<path style="&st12;" d="M121.302,16.793c0.015-0.412,0.122-0.864,0.32-1.355c0.198-0.49,0.432-0.879,0.701-1.165
		c1.268,0.665,2.369,0.998,3.304,0.998c0.444,0,0.784-0.074,1.022-0.225c0.238-0.151,0.357-0.353,0.357-0.606
		c0-0.475-0.365-0.832-1.094-1.07l-1.307-0.499c-1.982-0.728-2.971-1.918-2.971-3.566c0-1.204,0.416-2.159,1.248-2.865
		c0.832-0.705,1.953-1.058,3.363-1.058c0.697,0,1.466,0.099,2.306,0.297c0.84,0.198,1.529,0.432,2.068,0.701
		c0.032,0.444-0.055,0.931-0.261,1.462c-0.206,0.531-0.459,0.907-0.76,1.129c-1.332-0.602-2.441-0.903-3.328-0.903
		c-0.317,0-0.559,0.072-0.725,0.214c-0.166,0.143-0.25,0.325-0.25,0.547c0,0.38,0.301,0.681,0.903,0.903l1.474,0.523
		c2.108,0.745,3.161,2.021,3.161,3.828c0,1.188-0.435,2.131-1.307,2.828s-2.115,1.046-3.733,1.046
		C124.177,17.957,122.68,17.57,121.302,16.793z"/>
</g>
</svg>
