<svg xmlns="http://www.w3.org/2000/svg" viewBox="0 0 47.67 47.67"><filter id="a" height="130%"><feGaussianBlur in="SourceAlpha" stdDeviation="1"/><feOffset dx="2" dy="2" result="offsetblur"/><feComponentTransfer><feFuncA type="linear" slope=".5"/></feComponentTransfer><feMerge><feMergeNode/><feMergeNode in="SourceGraphic"/></feMerge></filter><circle cx="23.835" cy="23.835" r="21.345" fill="#EFC204" filter="url(#a)"/><circle cx="23.833" cy="23.913" r="21.248" fill="#EFC208"/><circle cx="23.831" cy="23.992" r="21.15" fill="#EFC20C"/><circle cx="23.828" cy="24.07" r="21.052" fill="#F0C20F"/><ellipse cx="23.826" cy="24.149" fill="#F0C312" transform="translate(-.053 .052)" rx="20.955" ry="20.949"/><ellipse cx="23.824" cy="24.227" fill="#F0C314" transform="translate(-.053 .052)" rx="20.857" ry="20.85"/><ellipse cx="23.821" cy="24.306" fill="#F0C317" transform="translate(-.053 .052)" rx="20.76" ry="20.751"/><ellipse cx="23.819" cy="24.384" fill="#F0C319" transform="translate(-.053 .052)" rx="20.662" ry="20.652"/><ellipse cx="23.817" cy="24.462" fill="#F0C41B" transform="translate(-.053 .052)" rx="20.564" ry="20.553"/><ellipse cx="23.815" cy="24.541" fill="#F0C41D" transform="translate(-.053 .052)" rx="20.467" ry="20.454"/><ellipse cx="23.812" cy="24.619" fill="#F0C41F" transform="translate(-.053 .052)" rx="20.369" ry="20.355"/><ellipse cx="23.81" cy="24.698" fill="#F0C521" transform="translate(-.054 .052)" rx="20.271" ry="20.256"/><ellipse cx="23.808" cy="24.776" fill="#F1C522" transform="translate(-.054 .052)" rx="20.174" ry="20.157"/><ellipse cx="23.806" cy="24.854" fill="#F1C524" transform="translate(-.054 .052)" rx="20.076" ry="20.058"/><ellipse cx="23.803" cy="24.933" fill="#F1C526" transform="translate(-.054 .052)" rx="19.979" ry="19.959"/><ellipse cx="23.801" cy="25.011" fill="#F1C627" transform="translate(-.054 .052)" rx="19.881" ry="19.86"/><ellipse cx="23.799" cy="25.09" fill="#F1C629" transform="translate(-.054 .05)" rx="19.783" ry="19.761"/><ellipse cx="23.796" cy="25.168" fill="#F1C62A" transform="translate(-.054 .05)" rx="19.686" ry="19.662"/><ellipse cx="23.794" cy="25.247" fill="#F1C62C" transform="translate(-.054 .05)" rx="19.588" ry="19.563"/><ellipse cx="23.792" cy="25.325" fill="#F1C72D" transform="translate(-.055 .05)" rx="19.491" ry="19.464"/><ellipse cx="23.79" cy="25.403" fill="#F1C72E" transform="translate(-.055 .05)" rx="19.393" ry="19.366"/><ellipse cx="23.787" cy="25.482" fill="#F2C730" transform="translate(-.055 .05)" rx="19.295" ry="19.267"/><ellipse cx="23.785" cy="25.56" fill="#F2C831" transform="translate(-.055 .05)" rx="19.198" ry="19.168"/><ellipse cx="23.783" cy="25.639" fill="#F2C833" transform="translate(-.055 .05)" rx="19.1" ry="19.069"/><ellipse cx="23.781" cy="25.717" fill="#F2C834" transform="translate(-.055 .05)" rx="19.002" ry="18.97"/><ellipse cx="23.778" cy="25.796" fill="#F2C835" transform="translate(-.055 .05)" rx="18.905" ry="18.871"/><ellipse cx="23.776" cy="25.874" fill="#F2C936" transform="translate(-.055 .05)" rx="18.807" ry="18.772"/><ellipse cx="23.774" cy="25.952" fill="#F2C938" transform="translate(-.055 .05)" rx="18.71" ry="18.673"/><ellipse cx="23.771" cy="26.031" fill="#F2C939" transform="translate(-.056 .05)" rx="18.612" ry="18.574"/><ellipse cx="23.769" cy="26.109" fill="#F2CA3A" transform="translate(-.056 .05)" rx="18.514" ry="18.475"/><ellipse cx="23.767" cy="26.188" fill="#F3CA3C" transform="translate(-.056 .05)" rx="18.417" ry="18.376"/><ellipse cx="23.765" cy="26.266" fill="#F3CA3D" transform="translate(-.056 .05)" rx="18.319" ry="18.277"/><ellipse cx="23.762" cy="26.344" fill="#F3CA3E" transform="translate(-.056 .05)" rx="18.221" ry="18.178"/><ellipse cx="23.76" cy="26.423" fill="#F3CB3F" transform="translate(-.056 .05)" rx="18.124" ry="18.079"/><ellipse cx="23.758" cy="26.501" fill="#F3CB40" transform="translate(-.056 .05)" rx="18.026" ry="17.98"/><ellipse cx="23.756" cy="26.58" fill="#F3CB42" transform="translate(-.056 .05)" rx="17.929" ry="17.881"/><ellipse cx="23.753" cy="26.658" fill="#F3CB43" transform="translate(-.056 .05)" rx="17.831" ry="17.782"/><ellipse cx="23.751" cy="26.737" fill="#F3CC44" transform="translate(-.056 .05)" rx="17.733" ry="17.683"/><ellipse cx="23.749" cy="26.815" fill="#F3CC45" transform="translate(-.057 .05)" rx="17.636" ry="17.584"/><ellipse cx="23.746" cy="26.893" fill="#F3CC47" transform="translate(-.057 .05)" rx="17.538" ry="17.485"/><ellipse cx="23.744" cy="26.972" fill="#F4CD48" transform="translate(-.057 .05)" rx="17.441" ry="17.386"/><ellipse cx="23.742" cy="27.05" fill="#F4CD49" transform="translate(-.057 .05)" rx="17.343" ry="17.287"/><ellipse cx="23.74" cy="27.129" fill="#F4CD4A" transform="translate(-.057 .05)" rx="17.245" ry="17.188"/><ellipse cx="23.737" cy="27.207" fill="#F4CD4B" transform="translate(-.057 .05)" rx="17.148" ry="17.089"/><ellipse cx="23.735" cy="27.286" fill="#F4CE4D" transform="translate(-.057 .05)" rx="17.05" ry="16.99"/><ellipse cx="23.733" cy="27.364" fill="#F4CE4E" transform="translate(-.057 .05)" rx="16.952" ry="16.891"/><ellipse cx="23.731" cy="27.442" fill="#F4CE4F" transform="translate(-.057 .05)" rx="16.855" ry="16.792"/><ellipse cx="23.728" cy="27.521" fill="#F4CF50" transform="translate(-.057 .05)" rx="16.757" ry="16.693"/><ellipse cx="23.726" cy="27.599" fill="#F4CF51" transform="translate(-.057 .05)" rx="16.66" ry="16.594"/><ellipse cx="23.724" cy="27.678" fill="#F4CF52" transform="translate(-.058 .05)" rx="16.562" ry="16.496"/><ellipse cx="23.721" cy="27.756" fill="#F5CF53" transform="translate(-.058 .05)" rx="16.464" ry="16.397"/><ellipse cx="23.719" cy="27.834" fill="#F5D055" transform="translate(-.058 .05)" rx="16.367" ry="16.298"/><ellipse cx="23.717" cy="27.913" fill="#F5D056" transform="translate(-.058 .05)" rx="16.269" ry="16.199"/><ellipse cx="23.715" cy="27.991" fill="#F5D057" transform="translate(-.058 .05)" rx="16.172" ry="16.1"/><ellipse cx="23.712" cy="28.07" fill="#F5D158" transform="translate(-.058 .05)" rx="16.074" ry="16.001"/><ellipse cx="23.71" cy="28.148" fill="#F5D159" transform="translate(-.058 .05)" rx="15.976" ry="15.902"/><ellipse cx="23.708" cy="28.227" fill="#F5D15A" transform="translate(-.058 .05)" rx="15.879" ry="15.803"/><ellipse cx="23.706" cy="28.305" fill="#F5D15B" transform="translate(-.058 .05)" rx="15.781" ry="15.704"/><ellipse cx="23.703" cy="28.383" fill="#F5D25C" transform="translate(-.058 .05)" rx="15.683" ry="15.605"/><ellipse cx="23.701" cy="28.462" fill="#F5D25D" transform="translate(-.058 .05)" rx="15.586" ry="15.506"/><ellipse cx="23.699" cy="28.54" fill="#F5D25F" transform="translate(-.058 .05)" rx="15.488" ry="15.407"/><ellipse cx="23.697" cy="28.619" fill="#F6D360" transform="translate(-.058 .048)" rx="15.391" ry="15.308"/><ellipse cx="23.694" cy="28.697" fill="#F6D361" transform="translate(-.058 .048)" rx="15.293" ry="15.209"/><ellipse cx="23.692" cy="28.775" fill="#F6D362" transform="translate(-.058 .048)" rx="15.195" ry="15.11"/><ellipse cx="23.69" cy="28.854" fill="#F6D363" transform="translate(-.06 .048)" rx="15.098" ry="15.011"/><ellipse cx="23.687" cy="28.932" fill="#F6D464" transform="translate(-.06 .048)" rx="15" ry="14.912"/><ellipse cx="23.685" cy="29.011" fill="#F6D465" transform="translate(-.06 .048)" rx="14.903" ry="14.813"/><ellipse cx="23.683" cy="29.089" fill="#F6D466" transform="translate(-.06 .048)" rx="14.805" ry="14.714"/><ellipse cx="23.681" cy="29.168" fill="#F6D567" transform="translate(-.06 .048)" rx="14.707" ry="14.615"/><ellipse cx="23.678" cy="29.246" fill="#F6D568" transform="translate(-.06 .048)" rx="14.61" ry="14.516"/><ellipse cx="23.676" cy="29.324" fill="#F6D569" transform="translate(-.06 .048)" rx="14.512" ry="14.417"/><ellipse cx="23.674" cy="29.403" fill="#F7D66A" transform="translate(-.06 .048)" rx="14.414" ry="14.318"/><ellipse cx="23.672" cy="29.481" fill="#F7D66B" transform="translate(-.06 .047)" rx="14.317" ry="14.219"/><ellipse cx="23.669" cy="29.56" fill="#F7D66C" transform="translate(-.06 .047)" rx="14.219" ry="14.12"/><ellipse cx="23.667" cy="29.638" fill="#F7D66D" transform="translate(-.06 .047)" rx="14.122" ry="14.021"/><ellipse cx="23.665" cy="29.717" fill="#F7D76E" transform="translate(-.06 .047)" rx="14.024" ry="13.922"/><ellipse cx="23.662" cy="29.795" fill="#F7D76F" transform="translate(-.06 .047)" rx="13.926" ry="13.823"/><ellipse cx="23.66" cy="29.873" fill="#F7D770" transform="translate(-.06 .047)" rx="13.829" ry="13.724"/><ellipse cx="23.658" cy="29.952" fill="#F7D871" transform="translate(-.06 .047)" rx="13.731" ry="13.625"/><ellipse cx="23.656" cy="30.03" fill="#F7D872" transform="translate(-.06 .047)" rx="13.634" ry="13.527"/><ellipse cx="23.653" cy="30.109" fill="#F7D874" transform="translate(-.06 .046)" rx="13.536" ry="13.428"/><ellipse cx="23.651" cy="30.187" fill="#F7D875" transform="translate(-.06 .046)" rx="13.438" ry="13.329"/><ellipse cx="23.649" cy="30.265" fill="#F7D976" transform="translate(-.06 .046)" rx="13.341" ry="13.23"/><ellipse cx="23.647" cy="30.344" fill="#F7D977" transform="translate(-.06 .046)" rx="13.243" ry="13.131"/><ellipse cx="23.644" cy="30.422" fill="#F8D978" transform="translate(-.06 .046)" rx="13.145" ry="13.032"/><ellipse cx="23.642" cy="30.501" fill="#F8DA79" transform="translate(-.06 .046)" rx="13.048" ry="12.933"/><ellipse cx="23.64" cy="30.579" fill="#F8DA7A" transform="translate(-.06 .046)" rx="12.95" ry="12.834"/><ellipse cx="23.637" cy="30.658" fill="#F8DA7B" transform="translate(-.06 .046)" rx="12.853" ry="12.735"/><ellipse cx="23.635" cy="30.736" fill="#F8DA7C" transform="translate(-.06 .046)" rx="12.755" ry="12.636"/><ellipse cx="23.633" cy="30.814" fill="#F8DB7D" transform="translate(-.06 .045)" rx="12.657" ry="12.537"/><ellipse cx="23.631" cy="30.893" fill="#F8DB7E" transform="translate(-.06 .045)" rx="12.56" ry="12.438"/><ellipse cx="23.628" cy="30.971" fill="#F8DB7F" transform="translate(-.06 .045)" rx="12.462" ry="12.339"/><ellipse cx="23.626" cy="31.05" fill="#F8DC80" transform="translate(-.06 .045)" rx="12.365" ry="12.24"/><ellipse cx="23.624" cy="31.128" fill="#F8DC81" transform="translate(-.06 .045)" rx="12.267" ry="12.141"/><ellipse cx="23.622" cy="31.206" fill="#F8DC82" transform="translate(-.06 .045)" rx="12.169" ry="12.042"/><ellipse cx="23.619" cy="31.285" fill="#F8DD83" transform="translate(-.06 .045)" rx="12.072" ry="11.943"/><ellipse cx="23.617" cy="31.363" fill="#F9DD84" transform="translate(-.06 .044)" rx="11.974" ry="11.844"/><ellipse cx="23.615" cy="31.442" fill="#F9DD85" transform="translate(-.06 .044)" rx="11.876" ry="11.745"/><ellipse cx="23.612" cy="31.52" fill="#F9DD86" transform="translate(-.06 .044)" rx="11.779" ry="11.646"/><ellipse cx="23.61" cy="31.599" fill="#F9DE87" transform="translate(-.06 .044)" rx="11.681" ry="11.547"/><ellipse cx="23.608" cy="31.677" fill="#F9DE88" transform="translate(-.06 .044)" rx="11.584" ry="11.448"/><ellipse cx="23.606" cy="31.755" fill="#F9DE89" transform="translate(-.06 .044)" rx="11.486" ry="11.349"/><ellipse cx="23.603" cy="31.834" fill="#F9DF8A" transform="translate(-.06 .044)" rx="11.388" ry="11.25"/><ellipse cx="23.601" cy="31.912" fill="#F9DF8B" transform="translate(-.06 .043)" rx="11.291" ry="11.151"/><ellipse cx="23.599" cy="31.991" fill="#F9DF8C" transform="translate(-.06 .043)" rx="11.193" ry="11.052"/><ellipse cx="23.597" cy="32.069" fill="#F9DF8D" transform="translate(-.06 .043)" rx="11.096" ry="10.953"/><ellipse cx="23.594" cy="32.148" fill="#F9E08E" transform="translate(-.058 .043)" rx="10.998" ry="10.854"/><ellipse cx="23.592" cy="32.226" fill="#F9E08E" transform="translate(-.058 .043)" rx="10.9" ry="10.755"/><ellipse cx="23.59" cy="32.304" fill="#F9E08F" transform="translate(-.058 .043)" rx="10.803" ry="10.657"/><ellipse cx="23.587" cy="32.383" fill="#FAE190" transform="translate(-.058 .042)" rx="10.705" ry="10.558"/><ellipse cx="23.585" cy="32.461" fill="#FAE191" transform="translate(-.058 .042)" rx="10.607" ry="10.459"/><ellipse cx="23.583" cy="32.54" fill="#FAE192" transform="translate(-.058 .042)" rx="10.51" ry="10.36"/><ellipse cx="23.581" cy="32.618" fill="#FAE193" transform="translate(-.058 .042)" rx="10.412" ry="10.261"/><ellipse cx="23.578" cy="32.696" fill="#FAE294" transform="translate(-.058 .042)" rx="10.315" ry="10.162"/><ellipse cx="23.576" cy="32.775" fill="#FAE295" transform="translate(-.058 .042)" rx="10.217" ry="10.063"/><ellipse cx="23.574" cy="32.853" fill="#FAE296" transform="translate(-.058 .04)" rx="10.119" ry="9.964"/><ellipse cx="23.572" cy="32.932" fill="#FAE397" transform="translate(-.057 .04)" rx="10.022" ry="9.865"/><ellipse cx="23.569" cy="33.01" fill="#FAE398" transform="translate(-.057 .04)" rx="9.924" ry="9.766"/><ellipse cx="23.567" cy="33.089" fill="#FAE399" transform="translate(-.057 .04)" rx="9.827" ry="9.667"/><ellipse cx="23.565" cy="33.167" fill="#FAE39A" transform="translate(-.057 .04)" rx="9.729" ry="9.568"/><ellipse cx="23.562" cy="33.245" fill="#FAE49B" transform="translate(-.057 .04)" rx="9.631" ry="9.469"/><ellipse cx="23.56" cy="33.324" fill="#FBE49C" transform="translate(-.057 .04)" rx="9.534" ry="9.37"/><ellipse cx="23.558" cy="33.402" fill="#FBE49D" transform="translate(-.056 .04)" rx="9.436" ry="9.271"/><ellipse cx="23.556" cy="33.481" fill="#FBE59D" transform="translate(-.056 .04)" rx="9.338" ry="9.172"/><ellipse cx="23.553" cy="33.559" fill="#FBE59E" transform="translate(-.056 .04)" rx="9.241" ry="9.073"/><ellipse cx="23.551" cy="33.638" fill="#FBE59F" transform="translate(-.056 .04)" rx="9.143" ry="8.974"/><ellipse cx="23.549" cy="33.716" fill="#FBE6A0" transform="translate(-.056 .04)" rx="9.046" ry="8.875"/><ellipse cx="23.547" cy="33.794" fill="#FBE6A1" transform="translate(-.055 .04)" rx="8.948" ry="8.776"/><ellipse cx="23.544" cy="33.873" fill="#FBE6A2" transform="translate(-.055 .038)" rx="8.85" ry="8.677"/><ellipse cx="23.542" cy="33.951" fill="#FBE6A3" transform="translate(-.055 .038)" rx="8.753" ry="8.578"/><ellipse cx="23.54" cy="34.03" fill="#FBE7A4" transform="translate(-.055 .038)" rx="8.655" ry="8.479"/><ellipse cx="23.538" cy="34.108" fill="#FBE7A5" transform="translate(-.054 .038)" rx="8.557" ry="8.38"/><ellipse cx="23.535" cy="34.186" fill="#FBE7A6" transform="translate(-.054 .037)" rx="8.46" ry="8.281"/><ellipse cx="23.533" cy="34.265" fill="#FCE8A7" transform="translate(-.054 .037)" rx="8.362" ry="8.182"/><ellipse cx="23.531" cy="34.343" fill="#FCE8A8" transform="translate(-.054 .037)" rx="8.265" ry="8.083"/><ellipse cx="23.528" cy="34.422" fill="#FCE8A9" transform="translate(-.053 .036)" rx="8.167" ry="7.984"/><ellipse cx="23.526" cy="34.5" fill="#FCE9A9" transform="translate(-.053 .036)" rx="8.069" ry="7.885"/><ellipse cx="23.524" cy="34.579" fill="#FCE9AA" transform="translate(-.053 .036)" rx="7.972" ry="7.787"/><ellipse cx="23.522" cy="34.657" fill="#FCE9AB" transform="translate(-.052 .036)" rx="7.874" ry="7.688"/><ellipse cx="23.519" cy="34.735" fill="#FCE9AC" transform="translate(-.052 .035)" rx="7.777" ry="7.589"/><ellipse cx="23.517" cy="34.814" fill="#FCEAAD" transform="translate(-.052 .035)" rx="7.679" ry="7.49"/><ellipse cx="23.515" cy="34.892" fill="#FCEAAE" transform="translate(-.05 .035)" rx="7.581" ry="7.391"/><ellipse cx="23.513" cy="34.971" fill="#FCEAAF" transform="translate(-.05 .034)" rx="7.484" ry="7.292"/><ellipse cx="23.51" cy="35.049" fill="#FCEBB0" transform="translate(-.05 .034)" rx="7.386" ry="7.193"/><ellipse cx="23.508" cy="35.127" fill="#FCEBB1" transform="translate(-.05 .034)" rx="7.288" ry="7.094"/><ellipse cx="23.506" cy="35.206" fill="#FCEBB2" transform="translate(-.05 .033)" rx="7.191" ry="6.995"/><ellipse cx="23.503" cy="35.284" fill="#FDECB3" transform="translate(-.05 .033)" rx="7.093" ry="6.896"/><ellipse cx="23.501" cy="35.363" fill="#FDECB3" transform="translate(-.05 .032)" rx="6.996" ry="6.797"/><ellipse cx="23.499" cy="35.441" fill="#FDECB4" transform="translate(-.048 .032)" rx="6.898" ry="6.698"/><ellipse cx="23.497" cy="35.52" fill="#FDECB5" transform="translate(-.048 .032)" rx="6.8" ry="6.599"/><ellipse cx="23.494" cy="35.598" fill="#FDEDB6" transform="translate(-.047 .03)" rx="6.703" ry="6.5"/><ellipse cx="23.492" cy="35.676" fill="#FDEDB7" transform="translate(-.046 .03)" rx="6.605" ry="6.401"/><ellipse cx="23.49" cy="35.755" fill="#FDEDB8" transform="translate(-.046 .03)" rx="6.508" ry="6.302"/><ellipse cx="23.488" cy="35.833" fill="#FDEEB9" transform="translate(-.045 .03)" rx="6.41" ry="6.203"/><ellipse cx="23.485" cy="35.912" fill="#FDEEBA" transform="translate(-.045 .03)" rx="6.312" ry="6.104"/><ellipse cx="23.483" cy="35.99" fill="#FDEEBB" transform="translate(-.044 .03)" rx="6.215" ry="6.005"/><ellipse cx="23.481" cy="36.069" fill="#FDEEBB" transform="translate(-.043 .028)" rx="6.117" ry="5.906"/><ellipse cx="23.478" cy="36.147" fill="#FDEFBC" transform="translate(-.043 .028)" rx="6.019" ry="5.807"/><ellipse cx="23.476" cy="36.225" fill="#FDEFBD" transform="translate(-.042 .027)" rx="5.922" ry="5.708"/><ellipse cx="23.474" cy="36.304" fill="#FEEFBE" transform="translate(-.04 .027)" rx="5.824" ry="5.609"/><ellipse cx="23.472" cy="36.382" fill="#FEF0BF" transform="translate(-.04 .026)" rx="5.727" ry="5.51"/><ellipse cx="23.469" cy="36.461" fill="#FEF0C0" transform="translate(-.04 .025)" rx="5.629" ry="5.411"/><ellipse cx="23.467" cy="36.539" fill="#FEF0C1" transform="translate(-.038 .025)" rx="5.531" ry="5.312"/><ellipse cx="23.465" cy="36.617" fill="#FEF1C2" transform="translate(-.037 .024)" rx="5.434" ry="5.213"/><ellipse cx="23.463" cy="36.696" fill="#FEF1C2" transform="translate(-.037 .023)" rx="5.336" ry="5.114"/><ellipse cx="23.46" cy="36.774" fill="#FEF1C3" transform="translate(-.035 .023)" rx="5.239" ry="5.015"/><ellipse cx="23.458" cy="36.853" fill="#FEF1C4" rx="5.141" ry="4.917"/><ellipse cx="23.456" cy="36.931" fill="#FEF2C5" rx="5.043" ry="4.818"/><ellipse cx="23.453" cy="37.01" fill="#FEF2C6" rx="4.946" ry="4.719"/><ellipse cx="23.451" cy="37.088" fill="#FEF2C7" rx="4.848" ry="4.62"/><ellipse cx="23.449" cy="37.166" fill="#FEF3C8" rx="4.75" ry="4.521"/><ellipse cx="23.447" cy="37.245" fill="#FEF3C9" rx="4.653" ry="4.422"/><ellipse cx="23.444" cy="37.323" fill="#FFF3C9" rx="4.555" ry="4.323"/><ellipse cx="23.442" cy="37.402" fill="#FFF4CA" rx="4.458" ry="4.224"/><ellipse cx="23.44" cy="37.48" fill="#FFF4CB" rx="4.36" ry="4.125"/><ellipse cx="23.438" cy="37.559" fill="#FFF4CC" rx="4.262" ry="4.026"/><ellipse cx="23.435" cy="37.637" fill="#FFF4CD" rx="4.165" ry="3.927"/><ellipse cx="23.433" cy="37.715" fill="#FFF5CE" rx="4.067" ry="3.828"/><ellipse cx="23.431" cy="37.794" fill="#FFF5CF" rx="3.97" ry="3.729"/><ellipse cx="23.428" cy="37.872" fill="#FFF5D0" rx="3.872" ry="3.63"/><ellipse cx="23.426" cy="37.951" fill="#FFF6D0" rx="3.774" ry="3.531"/><ellipse cx="23.424" cy="38.029" fill="#FFF6D1" rx="3.677" ry="3.432"/><ellipse cx="23.422" cy="38.107" fill="#FFF6D2" rx="3.579" ry="3.333"/><ellipse cx="23.419" cy="38.186" fill="#FFF7D3" rx="3.481" ry="3.234"/><ellipse cx="23.417" cy="38.264" fill="#FFF7D4" rx="3.384" ry="3.135"/><ellipse cx="23.415" cy="38.343" fill="#FFF7D5" rx="3.286" ry="3.036"/><linearGradient id="b" x1="23.986" x2="23.986" y1="30.885" y2="3.47" gradientUnits="userSpaceOnUse"><stop offset="0" stop-color="#FFD936"/><stop offset="1" stop-color="#FFF"/></linearGradient><ellipse cx="23.986" cy="17.178" fill="url(#b)" rx="17.359" ry="13.708"/><circle cx="23.675" cy="23.605" r="14.336" fill="#FFF"/><path fill="#9F4978" d="M26.952 28.13c-.942-.942-1.833-1.854-2.776-2.798-.165-.164-.507-.542-.562-.54-.055-.002-.398.376-.562.54-.943.944-1.833 1.856-2.776 2.798-.77.77-1.705 1.482-1.696 2.97.012 1.984 2.193 3.7 4.31 2.658.1-.05.24-.124.39-.227.09-.06.308-.254.334-.255.026 0 .244.197.335.26.145.102.285.177.385.226 2.117 1.04 4.298-.674 4.31-2.657.01-1.488-.926-2.2-1.696-2.97zm.442-8.59c-.942.942-1.833 1.854-2.776 2.798-.165.164-.507.542-.562.54-.055.002-.398-.376-.562-.54-.943-.944-1.833-1.856-2.776-2.798-.77-.77-1.705-1.482-1.696-2.97.012-1.984 2.193-3.7 4.31-2.658.1.05.24.124.39.227.09.06.308.254.334.255.026 0 .244-.197.335-.26.15-.102.29-.177.39-.226 2.12-1.04 4.3.674 4.31 2.657.01 1.488-.924 2.2-1.693 2.97zm-8.074 7.633c.94-.942 1.853-1.833 2.797-2.776.164-.165.542-.507.54-.562.002-.055-.376-.398-.54-.562-.944-.943-1.856-1.833-2.798-2.776-.77-.77-1.486-1.705-2.975-1.696-1.983.016-3.698 2.197-2.657 4.31.05.1.124.24.227.39.063.09.258.31.26.338-.002.026-.198.244-.26.335-.103.15-.178.29-.227.39-1.04 2.117.676 4.298 2.66 4.31 1.49.01 2.2-.927 2.97-1.696zm9.03 0c-.94-.942-1.853-1.833-2.797-2.776-.164-.165-.542-.507-.54-.562-.002-.055.376-.398.54-.562.944-.943 1.856-1.833 2.798-2.776.77-.77 1.486-1.705 2.975-1.696 1.983.016 3.698 2.197 2.657 4.31-.05.1-.124.24-.227.39-.063.09-.258.31-.26.338.002.026.198.244.26.335.103.15.178.29.227.39 1.04 2.117-.676 4.298-2.66 4.31-1.49.01-2.2-.927-2.97-1.696z"/></svg>