<svg xmlns="http://www.w3.org/2000/svg" viewBox="0 0 100 100">
<symbol id="v-clover" viewBox="0 0 1046 1024">
    <path class="path1" d="M675.224 721.658c-46.015-46.015-89.469-90.514-135.484-136.582-8.053-8-24.786-26.459-27.452-26.354-2.667-0.105-19.4 18.354-27.452 26.354-46.015 46.068-89.521 90.619-135.484 136.582-37.597 37.597-83.246 72.37-82.775 145.053 0.575 96.842 107.090 180.558 210.416 129.732 4.863-2.353 11.713-6.066 18.981-11.086 4.445-3.033 15.060-12.602 16.367-12.654 1.255 0.052 11.87 9.621 16.367 12.654 7.268 5.020 14.118 8.68 18.981 11.086 103.326 50.826 209.841-32.891 210.416-129.732 0.314-72.683-45.336-107.456-82.88-145.053z"></path>
    <path class="path2" d="M696.768 302.29c-46.015 46.015-89.469 90.514-135.484 136.582-8.053 8.053-24.786 26.511-27.505 26.407-2.667 0.105-19.4-18.354-27.4-26.354-46.015-46.068-89.521-90.619-135.484-136.582-37.597-37.597-83.298-72.37-82.828-145.053 0.575-96.842 107.038-180.558 210.416-129.732 4.863 2.353 11.713 6.066 18.981 11.086 4.445 3.033 15.060 12.602 16.367 12.654 1.255-0.052 11.87-9.621 16.367-12.654 7.268-5.020 14.118-8.68 18.981-11.086 103.326-50.826 209.841 32.891 210.416 129.732 0.418 72.683-45.283 107.456-82.828 145.001z"></path>
    <path class="path3" d="M302.551 674.963c46.015-46.015 90.514-89.469 136.582-135.484 8-8.053 26.459-24.786 26.354-27.452 0.157-2.719-18.302-19.452-26.302-27.505-46.068-46.015-90.619-89.521-136.582-135.484-37.597-37.544-72.37-83.246-145.053-82.775-96.842 0.575-180.558 107.038-129.732 210.416 2.353 4.863 6.066 11.713 11.086 18.981 3.033 4.445 12.602 15.060 12.654 16.367-0.052 1.255-9.621 11.87-12.654 16.367-5.020 7.268-8.68 14.118-11.086 18.981-50.826 103.326 32.891 209.841 129.732 210.416 72.683 0.366 107.456-45.283 145.001-82.828z"></path>
    <path class="path4" d="M743.463 674.963c-46.015-46.015-90.514-89.469-136.582-135.484-8-8.053-26.459-24.786-26.354-27.452-0.105-2.719 18.354-19.452 26.354-27.505 46.068-46.015 90.619-89.521 136.582-135.484 37.597-37.597 72.37-83.246 145.053-82.775 96.842 0.575 180.558 107.090 129.732 210.416-2.353 4.863-6.066 11.713-11.086 18.981-3.033 4.445-12.602 15.060-12.654 16.367 0.052 1.255 9.621 11.87 12.654 16.367 5.020 7.268 8.68 14.118 11.086 18.981 50.826 103.326-32.891 209.841-129.732 210.416-72.683 0.366-107.456-45.283-145.053-82.828z"></path>
</symbol>
<symbol id="v-question-mark" viewBox="0 0 1024 1024">
    <path class="path1" d="M513.044 109.855c222.833 0 404.122 181.289 404.122 404.122s-181.289 404.122-404.122 404.122-404.111-181.289-404.111-404.122 181.289-404.122 404.111-404.122zM513.044 52.132c-255.068 0-461.844 206.776-461.844 461.844s206.776 461.844 461.844 461.844c255.068 0 461.844-206.776 461.844-461.844 0.010-255.068-206.766-461.844-461.844-461.844v0z"></path>
    <path class="path2" d="M385.403 372.357c6.308-18.289 15.667-33.843 28.078-46.684 12.401-12.831 27.443-22.804 45.107-29.962 17.664-7.148 37.857-10.732 60.57-10.732 17.664 0 34.161 2.632 49.541 7.885 15.329 5.274 28.897 12.933 40.673 23.020 11.776 10.107 21.043 22.303 27.771 36.588 6.728 14.305 10.076 30.72 10.076 49.224 0 23.562-5.14 43.53-15.442 59.935-10.301 16.394-23.439 32.174-39.434 47.319-13.046 13.046-23.47 23.235-31.212 30.597-7.813 7.363-13.578 14.623-17.367 21.78-3.799 7.158-6.308 15.882-7.578 26.184-1.26 10.301-2.109 25.108-2.529 44.452h-39.741c-0.43-19.343 0.625-35.533 3.144-48.558 2.529-13.046 6.625-24.832 12.319-35.348 5.673-10.506 13.23-20.603 22.702-30.28 9.472-9.667 20.92-20.603 34.386-32.809 11.776-10.926 21.565-23.122 29.327-36.588 7.793-13.455 11.694-28.396 11.694-44.79 0-12.616-2.427-24.177-7.27-34.703-4.823-10.506-11.346-19.456-19.548-26.819-8.223-7.342-17.777-13.138-28.713-17.347-10.936-4.198-22.508-6.308-34.703-6.308-16.835 0-31.764 2.939-44.79 8.827-13.046 5.908-23.767 13.988-32.184 24.289-8.417 10.312-14.725 22.405-18.924 36.28-4.198 13.885-6.093 29.030-5.673 45.425h-39.752c0.010-22.282 3.164-42.578 9.472-60.877zM540.6 678.042v66.857h-52.992v-66.857h52.992z"></path>
</symbol>
<symbol id="v-star-out" viewBox="0 0 1069 1024">
    <path class="path1" d="M248.911 1024c-26.256 0-50.412-14.704-63.015-36.759-8.402-14.704-10.503-31.508-7.352-47.262l53.563-282.519-210.051-197.448c-13.653-13.653-21.005-31.508-22.055-50.412 0-18.905 6.302-36.759 19.955-51.463 11.553-11.553 26.256-18.905 43.061-21.005l285.67-35.709 120.779-260.464c11.553-25.206 37.809-40.96 65.116-40.96 10.503 0 21.005 2.101 30.457 6.302 14.704 7.352 26.256 18.905 34.658 33.608l121.83 260.464 284.619 35.709c38.859 5.251 67.216 40.96 61.965 79.819-2.101 17.854-10.503 34.658-25.206 46.211l-205.85 194.297 53.563 282.519c7.352 38.859-17.854 76.669-56.714 84.021-15.754 3.151-33.608 1.050-48.312-7.352l-251.011-139.684-252.062 138.634c-10.503 6.302-22.055 9.452-33.608 9.452zM534.581 42.010c-11.553 0-22.055 6.302-27.307 16.804l-131.282 281.469-307.725 37.809c-7.352 1.050-13.653 4.201-17.854 9.452-5.251 5.251-8.402 13.653-8.402 21.005s3.151 14.704 9.452 19.955l226.855 212.152-58.814 304.574c-1.050 4.201-1.050 11.553 3.151 19.955 5.251 9.452 14.704 15.754 26.256 15.754 5.251 0 9.452-1.050 13.653-3.151l272.016-150.187 272.016 150.187c6.302 3.151 12.603 4.201 19.955 3.151 15.754-3.151 26.256-18.905 24.156-34.658l-58.814-304.574 224.755-211.102c6.302-5.251 9.452-11.553 10.503-18.905 2.101-15.754-9.452-30.457-26.256-32.558l-307.725-38.859-132.332-281.469c-3.151-6.302-8.402-11.553-13.653-13.653-4.201-2.101-8.402-3.151-12.603-3.151z"></path>
</symbol>
<symbol id="v-star" viewBox="0 0 1069 1024">
    <path class="path1" d="M580.792 50.412l127.081 270.966 295.122 35.709c28.357 3.151 47.262 28.357 44.111 55.664-2.101 13.653-8.402 25.206-17.854 32.558l-215.303 203.75 55.664 294.072c5.251 27.307-12.603 53.563-39.91 58.814-11.553 2.101-24.156 0-33.608-5.251l-261.514-144.935-261.514 144.935c-24.156 13.653-55.664 4.201-68.267-19.955-6.302-10.503-7.352-23.106-5.251-33.608l55.664-294.072-218.453-204.8c-19.955-18.905-21.005-51.463-2.101-71.417 8.402-8.402 18.905-13.653 30.457-15.754v0l296.172-36.759 127.081-269.916c11.553-25.206 42.010-35.709 67.216-24.156 11.553 4.201 19.955 13.653 25.206 24.156v0z"></path>
</symbol>
<symbol id="v-m" viewBox="0 0 1239 1024">
    <path class="path1" d="M7.502 141.285c0-45.011 2.501-97.524 2.501-141.284 110.027 0 273.817 0 395.096 0 47.512 126.281 151.287 431.355 223.805 643.907h12.503c75.018-212.552 163.79-465.114 228.806-643.907 110.027 0 260.063 0 365.089 0 0 43.761-1.25 96.274-1.25 141.284l-78.769 5.001c-3.751 0-5.001 3.751-5.001 6.252 1.25 225.055 1.25 496.371 3.751 733.929l86.271 5.001c0 41.26 0 90.022-1.25 132.532-52.513 0-128.781 0-187.546 0-77.519 0-165.040 0-231.306 0 0-42.51 1.25-91.272 1.25-132.532l90.022-5.001c5.001 0 5.001-3.751 5.001-6.252-1.25-165.040-3.751-340.083-6.252-530.129h-12.503c-97.524 273.817-180.044 465.114-243.81 615.15-23.756 0-88.772 1.25-137.534 1.25-72.518-171.292-143.785-357.587-236.308-637.656h-13.753c-3.751 195.048-7.502 373.841-11.253 556.386l110.027 6.252c0 41.26 0 90.022-1.25 132.532-56.264 0-137.534 0-202.549 0-58.764 0-108.777 0-160.039 0 0-42.51 0-91.272 0-132.532l81.27-5.001c3.751-1.25 5.001-3.751 5.001-6.252 1.25-225.055 5.001-511.375 7.502-733.929l-87.521-5.001z"></path>
</symbol>
<symbol id="v-email64" viewBox="0 0 1024 1024">
    <path class="path1" d="M896 128h-768c-70.688 0-128 57.312-128 128v512c0 70.688 57.312 128 128 128h768c70.688 0 128-57.312 128-128v-512c0-70.688-57.312-128-128-128zM928 192l-416 320-416-320h832zM64 768v-512l288 224-284.96 306.497c-1.792-5.89-3.040-12-3.040-18.497zM113.759 830.303l288.8-307.712 109.441 82.688 104.736-83.232 293.505 308.224c-4.608 1.057-791.873 1.057-796.481 0.032zM956.961 786.527l-284.961-306.527 288-224v512c0 6.497-1.248 12.608-3.039 18.527z"></path>
</symbol>
<symbol id="v-opened25" viewBox="0 0 1024 1024">
    <path class="path1" d="M512 0l-512 288c0 72.992 0 608 0 608 0 70.688 57.312 128 128 128h768c70.688 0 128-57.312 128-128 0 0 0-537.983 0-608l-512-288zM64 896v-500l290.112 231.456-287.071 287.071c-1.792-5.92-3.040-12.030-3.040-18.527zM113.759 958.272l293.985-293.952 104.256 71.68 104.257-71.68 293.983 293.952c-4.608 1.057-791.873 1.057-796.481 0zM960 896c0 6.497-1.248 12.608-3.039 18.527l-287.071-287.071 290.11-231.456v500zM512 660.992l-448-340.992 447.361-245.407 448.639 245.407-448 340.992z"></path>
</symbol>
<symbol id="v-multimedia" viewBox="0 0 1024 1024">
    <path class="path1" d="M642.49 412.533l-176.197-87.179c-8.983-4.375-17.779-6.609-26.135-6.609-22.155-0.023-44.521 16.546-44.521 53.619v162.91c0 37.071 22.622 53.645 45.033 53.645 8.401 0 17.246-2.235 26.438-6.703l174.127-87.042c19.642-9.587 30.906-24.855 30.906-41.914-0.002-16.687-10.846-31.558-29.651-40.727zM440.67 565.645l-0.023-23.271h0.023v23.271zM446.487 540.486c-1.513 0.723-2.722 1.186-3.629 1.441-0.35-1.441-0.674-3.631-0.674-6.654v-162.91c0-2.886 0.279-5.026 0.582-6.517 0.815 0.279 1.815 0.674 3.002 1.28l174.639 86.413-173.919 86.948zM954.181 93.092h-884.363c-38.492 0-69.818 31.324-69.818 69.818v558.543c0 38.494 31.326 69.821 69.818 69.821h349.092v93.092h-93.092v46.542h372.363v-46.542h-93.090v-93.092h349.090c38.494 0 69.819-31.327 69.819-69.821v-558.543c0-38.494-31.326-69.818-69.819-69.818zM558.545 884.366h-93.092v-93.092h93.092v93.092zM977.455 721.455c0 12.847-10.449 23.274-23.273 23.274h-884.365c-12.823 0-23.273-10.427-23.273-23.274v-558.545c0-12.847 10.449-23.273 23.273-23.273h884.363c12.823 0 23.273 10.426 23.273 23.273v558.545z"></path>
</symbol>
<symbol id="v-pull-down" viewBox="0 0 1024 1024">
    <path class="path1" d="M13.23 228.618h188.467l315.535 330.066 315.546-330.066h182.006l-497.551 525.414z"></path>
</symbol>
<symbol id="v-lotto-ticket" viewBox="0 0 1024 1024">
    <path class="path1" d="M269.117 725.463h16.773v129.536h-16.773v-129.536z"></path>
    <path class="path2" d="M461.599 725.463h16.783v129.536h-16.783v-129.536z"></path>
    <path class="path3" d="M490.291 725.463h16.783v129.536h-16.783v-129.536z"></path>
    <path class="path4" d="M294.871 725.463h8.387v129.536h-8.387v-129.536z"></path>
    <path class="path5" d="M315.013 725.463h25.518v129.536h-25.518v-129.536z"></path>
    <path class="path6" d="M349.501 725.463h8.397v129.536h-8.397v-129.536z"></path>
    <path class="path7" d="M395.602 725.463h25.518v129.536h-25.518v-129.536z"></path>
    <path class="path8" d="M430.1 725.463h8.387v129.536h-8.387v-129.536z"></path>
    <path class="path9" d="M603.689 725.463h25.518v129.536h-25.518v-129.536z"></path>
    <path class="path10" d="M638.188 725.463h8.387v129.536h-8.387v-129.536z"></path>
    <path class="path11" d="M369.91 725.463h8.387v129.536h-8.387v-129.536z"></path>
    <path class="path12" d="M665.713 725.463h8.387v129.536h-8.387v-129.536z"></path>
    <path class="path13" d="M711.803 725.463h25.518v129.536h-25.518v-129.536z"></path>
    <path class="path14" d="M686.111 725.463h8.387v129.536h-8.387v-129.536z"></path>
    <path class="path15" d="M746.496 725.463h8.387v129.536h-8.387v-129.536z"></path>
    <path class="path16" d="M515.328 725.463h8.387v129.536h-8.387v-129.536z"></path>
    <path class="path17" d="M562.258 725.463h25.518v129.536h-25.518v-129.536z"></path>
    <path class="path18" d="M536.566 725.463h8.387v129.536h-8.387v-129.536z"></path>
    <path class="path19" d="M269.117 308.234v-118.047h25.027v97.372h42.967v20.675h-67.994z"></path>
    <path class="path20" d="M456.612 249.047c0 9.093-1.065 17.388-3.185 24.873-2.13 7.485-5.366 13.885-9.728 19.22-4.362 5.325-9.861 9.441-16.507 12.36-6.646 2.908-14.49 4.362-23.532 4.362s-16.886-1.454-23.542-4.362c-6.646-2.908-12.145-7.025-16.476-12.36s-7.557-11.745-9.687-19.261c-2.12-7.506-3.185-15.841-3.185-24.996 0-9.144 1.065-17.449 3.185-24.914 2.13-7.455 5.366-13.814 9.728-19.098 4.362-5.274 9.861-9.349 16.507-12.237 6.646-2.877 14.52-4.321 23.613-4.321 9.042 0 16.876 1.444 23.501 4.321s12.093 6.973 16.435 12.268c4.332 5.304 7.557 11.684 9.697 19.139 2.109 7.475 3.174 15.8 3.174 25.006zM376.504 249.047c0 6.195 0.532 11.745 1.618 16.671 1.075 4.925 2.734 9.093 4.966 12.513s5.048 6.052 8.438 7.875c3.389 1.823 7.434 2.744 12.114 2.744 4.792 0 8.899-0.911 12.319-2.744s6.216-4.454 8.397-7.875c2.181-3.42 3.799-7.588 4.844-12.513 1.055-4.925 1.577-10.486 1.577-16.671s-0.522-11.745-1.577-16.671c-1.044-4.925-2.662-9.114-4.844-12.554s-4.966-6.083-8.356-7.916c-3.389-1.833-7.455-2.744-12.196-2.744-4.69 0-8.745 0.922-12.186 2.744-3.451 1.833-6.287 4.465-8.52 7.916s-3.891 7.629-4.966 12.554c-1.085 4.925-1.628 10.476-1.628 16.671z"></path>
    <path class="path21" d="M519.107 308.234h-24.955v-97.219h-29.635v-20.828h84.142v20.828h-29.553v97.219z"></path>
    <path class="path22" d="M611.482 308.234h-24.955v-97.219h-29.635v-20.828h84.132v20.828h-29.553v97.219z"></path>
    <path class="path23" d="M754.883 249.047c0 9.093-1.065 17.388-3.195 24.873s-5.366 13.885-9.728 19.22c-4.362 5.325-9.871 9.441-16.517 12.36-6.646 2.908-14.49 4.362-23.532 4.362-9.052 0-16.896-1.454-23.542-4.362s-12.145-7.025-16.476-12.36c-4.342-5.335-7.567-11.745-9.687-19.261s-3.185-15.841-3.185-24.996c0-9.144 1.065-17.449 3.185-24.914s5.366-13.814 9.728-19.098c4.362-5.274 9.861-9.349 16.517-12.237 6.646-2.877 14.52-4.321 23.624-4.321 9.042 0 16.876 1.444 23.491 4.321 6.625 2.877 12.104 6.973 16.435 12.268 4.332 5.304 7.557 11.684 9.687 19.139 2.13 7.475 3.195 15.8 3.195 25.006zM674.785 249.047c0 6.195 0.532 11.745 1.608 16.671s2.734 9.093 4.966 12.513c2.232 3.42 5.038 6.052 8.438 7.875 3.389 1.823 7.434 2.744 12.114 2.744 4.782 0 8.888-0.911 12.308-2.744s6.216-4.454 8.407-7.875c2.181-3.42 3.799-7.588 4.844-12.513 1.055-4.925 1.577-10.486 1.577-16.671s-0.522-11.745-1.577-16.671c-1.044-4.925-2.652-9.114-4.844-12.554-2.181-3.441-4.966-6.083-8.356-7.916s-7.455-2.744-12.196-2.744c-4.69 0-8.745 0.922-12.186 2.744-3.451 1.833-6.287 4.465-8.52 7.916s-3.891 7.629-4.966 12.554c-1.085 4.925-1.618 10.476-1.618 16.671z"></path>
    <path class="path24" d="M295.731 512.625l-2.611-9.206h-13.179l-2.642 9.206h-8.172l12.411-38.82h9.912l12.462 38.82h-8.182zM291.236 496.538l-2.458-8.458c-0.102-0.317-0.266-0.84-0.471-1.556-0.205-0.727-0.43-1.526-0.666-2.396s-0.461-1.751-0.666-2.632c-0.215-0.881-0.369-1.628-0.451-2.243-0.072 0.389-0.164 0.85-0.276 1.372-0.102 0.532-0.246 1.096-0.389 1.679-0.154 0.594-0.297 1.188-0.461 1.782-0.154 0.604-0.307 1.167-0.44 1.69-0.143 0.532-0.276 0.993-0.379 1.403-0.113 0.41-0.195 0.707-0.246 0.901l-2.427 8.458h9.329z"></path>
    <path class="path25" d="M306.964 508.836c0-0.829 0.123-1.526 0.348-2.099 0.236-0.573 0.563-1.034 0.983-1.393s0.901-0.604 1.464-0.768c0.553-0.154 1.157-0.236 1.802-0.236 0.604 0 1.188 0.082 1.741 0.236s1.034 0.41 1.454 0.768c0.42 0.348 0.748 0.819 0.993 1.393s0.358 1.27 0.358 2.099c0 0.799-0.123 1.475-0.358 2.038-0.246 0.563-0.584 1.034-0.993 1.403-0.42 0.369-0.901 0.635-1.454 0.809-0.543 0.164-1.126 0.246-1.741 0.246-0.645 0-1.249-0.082-1.802-0.246-0.563-0.164-1.044-0.44-1.464-0.809s-0.748-0.84-0.983-1.403c-0.225-0.563-0.348-1.239-0.348-2.038z"></path>
    <path class="path26" d="M360.868 512.625h-25.641v-5.683l9.001-9.81c1.137-1.239 2.161-2.376 3.082-3.41s1.72-2.048 2.376-3.041c0.655-0.983 1.178-1.997 1.546-3.011 0.358-1.024 0.553-2.12 0.553-3.308 0-1.3-0.389-2.314-1.167-3.041-0.778-0.717-1.812-1.085-3.123-1.085-1.372 0-2.703 0.338-3.973 1.034-1.27 0.686-2.601 1.669-4.004 2.939l-4.393-5.263c0.788-0.717 1.608-1.413 2.458-2.079s1.792-1.249 2.826-1.761c1.034-0.512 2.161-0.922 3.4-1.229s2.621-0.461 4.157-0.461c1.833 0 3.471 0.256 4.936 0.768 1.454 0.512 2.693 1.239 3.727 2.181 1.024 0.942 1.812 2.089 2.365 3.42 0.553 1.341 0.819 2.847 0.819 4.526 0 1.516-0.256 2.97-0.788 4.352-0.522 1.382-1.239 2.744-2.14 4.076s-1.956 2.652-3.154 3.963c-1.198 1.311-2.468 2.652-3.83 4.004l-4.598 4.68v0.369h15.575v6.871z"></path>
    <path class="path27" d="M383.918 512.625h-8.079v-22.374c0-0.461 0-1.004 0.010-1.649s0.031-1.311 0.051-2.007c0.020-0.696 0.051-1.403 0.082-2.099 0.031-0.707 0.051-1.352 0.061-1.935-0.092 0.113-0.236 0.266-0.44 0.481s-0.451 0.44-0.707 0.696c-0.256 0.256-0.532 0.512-0.809 0.778-0.287 0.266-0.553 0.502-0.819 0.717l-4.393 3.574-3.922-4.925 12.308-9.912h6.636v38.656z"></path>
    <path class="path28" d="M433.797 493.292c0 3.123-0.236 5.908-0.717 8.356s-1.249 4.526-2.304 6.236c-1.055 1.71-2.417 3.011-4.076 3.912-1.669 0.901-3.676 1.352-6.031 1.352-2.212 0-4.137-0.451-5.775-1.352-1.628-0.901-2.99-2.202-4.076-3.912s-1.884-3.789-2.417-6.236c-0.532-2.447-0.799-5.233-0.799-8.356s0.246-5.919 0.717-8.387c0.481-2.468 1.239-4.557 2.284-6.267s2.396-3.021 4.055-3.922c1.659-0.911 3.666-1.362 6.011-1.362 2.191 0 4.116 0.451 5.755 1.352s3 2.202 4.106 3.912c1.096 1.71 1.915 3.799 2.458 6.267 0.532 2.468 0.809 5.274 0.809 8.407zM415.662 493.292c0 4.403 0.369 7.721 1.116 9.943s2.048 3.338 3.891 3.338c1.812 0 3.113-1.106 3.912-3.308s1.188-5.53 1.188-9.974c0-4.424-0.399-7.752-1.188-9.984s-2.089-3.348-3.912-3.348c-0.922 0-1.7 0.287-2.335 0.84-0.635 0.563-1.157 1.403-1.556 2.519-0.399 1.106-0.686 2.499-0.86 4.168s-0.256 3.604-0.256 5.806z"></path>
    <path class="path29" d="M461.742 482.611c0 1.341-0.215 2.54-0.645 3.604s-1.014 1.997-1.751 2.806c-0.748 0.799-1.608 1.475-2.621 2.007-0.993 0.543-2.089 0.952-3.246 1.229v0.154c3.082 0.389 5.417 1.331 7.004 2.836s2.376 3.543 2.376 6.093c0 1.69-0.297 3.256-0.901 4.69s-1.526 2.683-2.775 3.738c-1.249 1.055-2.816 1.884-4.71 2.468-1.884 0.594-4.116 0.891-6.676 0.891-2.058 0-3.994-0.174-5.806-0.512-1.812-0.348-3.502-0.87-5.069-1.577v-6.953c0.788 0.42 1.608 0.788 2.478 1.116 0.87 0.317 1.741 0.584 2.611 0.809s1.731 0.379 2.58 0.492c0.84 0.102 1.638 0.154 2.386 0.154 1.495 0 2.744-0.143 3.738-0.42 0.993-0.287 1.782-0.676 2.376-1.188s1.014-1.126 1.27-1.843c0.246-0.717 0.379-1.495 0.379-2.335 0-0.799-0.164-1.516-0.481-2.15-0.328-0.645-0.85-1.188-1.567-1.638-0.727-0.451-1.669-0.799-2.836-1.044s-2.601-0.369-4.321-0.369h-2.714v-5.734h2.662c1.608 0 2.939-0.143 4.004-0.44 1.065-0.287 1.905-0.686 2.54-1.188s1.085-1.085 1.352-1.761c0.256-0.666 0.389-1.382 0.389-2.14 0-1.372-0.42-2.447-1.27-3.226-0.84-0.778-2.181-1.167-4.014-1.167-0.84 0-1.618 0.082-2.335 0.256-0.727 0.164-1.393 0.379-2.017 0.635-0.614 0.256-1.188 0.543-1.7 0.85s-0.983 0.614-1.403 0.911l-4.076-5.448c0.737-0.543 1.526-1.044 2.396-1.505s1.802-0.86 2.816-1.208c1.014-0.348 2.099-0.614 3.267-0.809s2.417-0.287 3.738-0.287c1.884 0 3.594 0.205 5.14 0.625 1.546 0.41 2.867 1.014 3.963 1.802s1.946 1.741 2.55 2.877c0.614 1.137 0.922 2.437 0.922 3.901z"></path>
    <path class="path30" d="M506.614 512.625h-25.641v-5.683l8.991-9.81c1.126-1.239 2.161-2.376 3.082-3.41s1.72-2.048 2.376-3.041c0.666-0.983 1.178-1.997 1.546-3.011 0.358-1.024 0.543-2.12 0.543-3.308 0-1.3-0.389-2.314-1.157-3.041-0.778-0.717-1.812-1.085-3.123-1.085-1.382 0-2.703 0.338-3.973 1.034-1.28 0.686-2.601 1.669-4.004 2.939l-4.393-5.263c0.778-0.717 1.608-1.413 2.458-2.079s1.792-1.249 2.826-1.761c1.024-0.512 2.161-0.922 3.4-1.229s2.621-0.461 4.157-0.461c1.823 0 3.471 0.256 4.925 0.768s2.693 1.239 3.727 2.181c1.034 0.942 1.823 2.089 2.365 3.42 0.553 1.341 0.829 2.847 0.829 4.526 0 1.516-0.266 2.97-0.788 4.352s-1.239 2.744-2.15 4.076c-0.901 1.331-1.956 2.652-3.144 3.963-1.198 1.311-2.468 2.652-3.83 4.004l-4.598 4.68v0.369h15.575v6.871z"></path>
    <path class="path31" d="M523.95 487.926c1.638 0 3.164 0.256 4.577 0.768s2.642 1.26 3.686 2.243c1.044 0.993 1.864 2.222 2.458 3.686 0.594 1.475 0.891 3.164 0.891 5.069 0 2.099-0.317 3.983-0.963 5.642-0.645 1.669-1.597 3.072-2.847 4.229-1.26 1.157-2.816 2.038-4.669 2.662-1.853 0.614-3.983 0.922-6.39 0.922-0.963 0-1.915-0.041-2.847-0.133-0.942-0.092-1.843-0.215-2.703-0.379s-1.69-0.389-2.458-0.645c-0.778-0.266-1.475-0.573-2.109-0.922v-7.055c0.614 0.348 1.321 0.686 2.12 0.993s1.638 0.573 2.499 0.788c0.86 0.225 1.731 0.399 2.601 0.532s1.7 0.195 2.478 0.195c2.335 0 4.116-0.492 5.335-1.464 1.219-0.983 1.823-2.54 1.823-4.669 0-1.905-0.594-3.359-1.792-4.352-1.188-0.993-3.031-1.495-5.53-1.495-0.461 0-0.942 0.020-1.454 0.072s-1.024 0.123-1.516 0.215c-0.502 0.092-0.973 0.184-1.423 0.276-0.461 0.102-0.85 0.195-1.178 0.307l-3.215-1.741 1.434-19.702h20.183v6.932h-13.179l-0.625 7.588c0.563-0.123 1.208-0.246 1.946-0.369 0.748-0.133 1.7-0.195 2.867-0.195z"></path>
    <path class="path32" d="M573.061 512.625h-8.079v-22.374c0-0.461 0-1.004 0.010-1.649s0.020-1.311 0.051-2.007c0.020-0.696 0.051-1.403 0.082-2.099 0.020-0.707 0.041-1.352 0.061-1.935-0.082 0.113-0.236 0.266-0.44 0.481-0.215 0.215-0.44 0.44-0.707 0.696s-0.532 0.512-0.809 0.778c-0.276 0.266-0.543 0.502-0.809 0.717l-4.393 3.574-3.922-4.925 12.308-9.912h6.636v38.656z"></path>
    <path class="path33" d="M586.609 512.625l13.588-31.734h-17.562v-6.881h26.348v5.13l-13.926 33.485h-8.448z"></path>
    <path class="path34" d="M640.225 487.926c1.638 0 3.164 0.256 4.577 0.768s2.632 1.26 3.686 2.243c1.044 0.993 1.864 2.222 2.458 3.686 0.594 1.475 0.891 3.164 0.891 5.069 0 2.099-0.328 3.983-0.973 5.642-0.645 1.669-1.597 3.072-2.847 4.229-1.26 1.157-2.806 2.038-4.669 2.662-1.853 0.614-3.983 0.922-6.39 0.922-0.963 0-1.905-0.041-2.847-0.133s-1.843-0.215-2.703-0.379c-0.86-0.164-1.679-0.389-2.458-0.645-0.768-0.266-1.475-0.573-2.099-0.922v-7.055c0.614 0.348 1.321 0.686 2.12 0.993s1.628 0.573 2.499 0.788c0.86 0.225 1.731 0.399 2.601 0.532s1.7 0.195 2.478 0.195c2.335 0 4.116-0.492 5.335-1.464 1.219-0.983 1.833-2.54 1.833-4.669 0-1.905-0.594-3.359-1.792-4.352-1.188-0.993-3.031-1.495-5.53-1.495-0.451 0-0.932 0.020-1.454 0.072-0.512 0.051-1.024 0.123-1.516 0.215-0.502 0.092-0.973 0.184-1.423 0.276-0.461 0.102-0.84 0.195-1.178 0.307l-3.215-1.741 1.434-19.702h20.173v6.932h-13.169l-0.635 7.588c0.553-0.123 1.208-0.246 1.946-0.369 0.737-0.133 1.7-0.195 2.867-0.195z"></path>
    <path class="path35" d="M675.43 512.625h-8.079v-22.374c0-0.461 0-1.004 0.010-1.649s0.031-1.311 0.051-2.007c0.031-0.696 0.051-1.403 0.082-2.099 0.020-0.707 0.051-1.352 0.061-1.935-0.092 0.113-0.236 0.266-0.44 0.481s-0.451 0.44-0.707 0.696c-0.266 0.256-0.532 0.512-0.809 0.778s-0.543 0.502-0.809 0.717l-4.393 3.574-3.922-4.925 12.308-9.912h6.636v38.656z"></path>
    <path class="path36" d="M725.299 493.292c0 3.123-0.236 5.908-0.717 8.356s-1.249 4.526-2.294 6.236c-1.055 1.71-2.417 3.011-4.086 3.912-1.659 0.901-3.666 1.352-6.031 1.352-2.202 0-4.137-0.451-5.775-1.352s-3-2.202-4.076-3.912c-1.075-1.71-1.884-3.789-2.417-6.236s-0.799-5.233-0.799-8.356c0-3.123 0.246-5.919 0.717-8.387 0.481-2.468 1.239-4.557 2.284-6.267s2.396-3.021 4.055-3.922c1.649-0.911 3.656-1.362 6.011-1.362 2.202 0 4.116 0.451 5.755 1.352s3 2.202 4.106 3.912c1.096 1.71 1.915 3.799 2.458 6.267s0.809 5.274 0.809 8.407zM707.164 493.292c0 4.403 0.379 7.721 1.126 9.943s2.048 3.338 3.891 3.338c1.812 0 3.113-1.106 3.912-3.308 0.788-2.202 1.188-5.53 1.188-9.974 0-4.424-0.399-7.752-1.188-9.984-0.799-2.232-2.099-3.348-3.912-3.348-0.922 0-1.7 0.287-2.335 0.84-0.635 0.563-1.157 1.403-1.556 2.519-0.399 1.106-0.686 2.499-0.86 4.168s-0.266 3.604-0.266 5.806z"></path>
    <path class="path37" d="M754.739 512.625h-25.651v-5.683l8.991-9.81c1.137-1.239 2.161-2.376 3.082-3.41s1.72-2.048 2.386-3.041c0.666-0.983 1.178-1.997 1.546-3.011 0.358-1.024 0.543-2.12 0.543-3.308 0-1.3-0.389-2.314-1.167-3.041-0.768-0.717-1.812-1.085-3.123-1.085-1.382 0-2.703 0.338-3.973 1.034-1.28 0.686-2.611 1.669-4.004 2.939l-4.393-5.263c0.788-0.717 1.608-1.413 2.458-2.079s1.792-1.249 2.826-1.761c1.024-0.512 2.161-0.922 3.4-1.229s2.621-0.461 4.157-0.461c1.833 0 3.471 0.256 4.925 0.768s2.693 1.239 3.727 2.181c1.034 0.942 1.812 2.089 2.365 3.42 0.553 1.341 0.829 2.847 0.829 4.526 0 1.516-0.266 2.97-0.788 4.352s-1.239 2.744-2.14 4.076c-0.901 1.331-1.956 2.652-3.144 3.963-1.198 1.311-2.468 2.652-3.83 4.004l-4.598 4.68v0.369h15.585v6.871z"></path>
    <path class="path38" d="M273.91 542.259h11.192c2.396 0 4.516 0.174 6.328 0.512 1.812 0.348 3.328 0.901 4.547 1.669s2.14 1.772 2.755 3.011c0.625 1.239 0.922 2.775 0.922 4.588 0 1.096-0.133 2.109-0.389 3.072-0.256 0.952-0.645 1.792-1.147 2.509s-1.116 1.331-1.843 1.812c-0.717 0.481-1.546 0.809-2.488 0.963v0.266c0.963 0.205 1.853 0.512 2.673 0.911 0.829 0.399 1.556 0.942 2.171 1.638s1.106 1.567 1.464 2.632c0.358 1.055 0.532 2.345 0.532 3.86 0 1.761-0.307 3.338-0.911 4.721s-1.485 2.56-2.632 3.523c-1.137 0.963-2.529 1.7-4.157 2.212s-3.471 0.768-5.53 0.768h-13.486v-38.666zM282.020 557.568h4.209c1.014 0 1.853-0.092 2.54-0.276s1.229-0.461 1.638-0.84c0.42-0.369 0.727-0.829 0.911-1.393 0.184-0.553 0.276-1.198 0.276-1.946 0-1.485-0.461-2.54-1.372-3.185s-2.365-0.963-4.352-0.963h-3.84v8.602zM282.020 564.070v10.076h4.762c1.065 0 1.956-0.123 2.673-0.369 0.727-0.246 1.311-0.604 1.751-1.055 0.44-0.461 0.758-1.014 0.952-1.669s0.287-1.372 0.287-2.171c0-0.717-0.092-1.382-0.287-1.966s-0.512-1.096-0.973-1.526c-0.461-0.42-1.065-0.748-1.812-0.983-0.758-0.225-1.69-0.348-2.796-0.348h-4.557z"></path>
    <path class="path39" d="M306.534 577.137c0-0.829 0.123-1.526 0.348-2.099 0.236-0.573 0.563-1.034 0.983-1.393s0.901-0.604 1.464-0.768c0.563-0.154 1.157-0.236 1.802-0.236 0.614 0 1.188 0.082 1.741 0.236 0.543 0.154 1.024 0.41 1.444 0.768 0.42 0.348 0.748 0.819 0.993 1.393s0.369 1.27 0.369 2.099c0 0.799-0.123 1.475-0.369 2.038s-0.573 1.034-0.993 1.403c-0.42 0.369-0.901 0.645-1.444 0.809-0.553 0.164-1.126 0.256-1.741 0.256-0.645 0-1.249-0.082-1.802-0.256-0.553-0.164-1.044-0.43-1.464-0.809-0.42-0.369-0.748-0.84-0.983-1.403-0.225-0.563-0.348-1.249-0.348-2.038z"></path>
    <path class="path40" d="M358.943 550.902c0 1.341-0.215 2.54-0.645 3.615-0.43 1.065-1.014 1.997-1.751 2.806-0.737 0.799-1.608 1.475-2.611 2.007s-2.089 0.952-3.246 1.229v0.154c3.082 0.389 5.417 1.341 7.004 2.847s2.376 3.533 2.376 6.093c0 1.69-0.297 3.256-0.901 4.69s-1.526 2.683-2.775 3.738c-1.249 1.055-2.816 1.884-4.71 2.468-1.894 0.594-4.116 0.891-6.676 0.891-2.058 0-3.994-0.174-5.806-0.512-1.812-0.348-3.502-0.87-5.069-1.577v-6.953c0.788 0.43 1.618 0.799 2.488 1.116s1.741 0.584 2.611 0.809c0.87 0.225 1.731 0.389 2.58 0.492 0.84 0.102 1.638 0.154 2.396 0.154 1.495 0 2.744-0.143 3.738-0.42 0.993-0.287 1.782-0.686 2.376-1.188 0.594-0.512 1.014-1.126 1.27-1.833 0.256-0.717 0.389-1.495 0.389-2.345 0-0.799-0.164-1.516-0.481-2.15-0.328-0.645-0.85-1.188-1.567-1.638s-1.669-0.799-2.836-1.044c-1.167-0.246-2.601-0.369-4.311-0.369h-2.714v-5.734h2.662c1.597 0 2.929-0.143 4.004-0.43 1.065-0.297 1.905-0.686 2.54-1.188s1.085-1.085 1.352-1.761c0.256-0.676 0.389-1.382 0.389-2.14 0-1.382-0.43-2.447-1.27-3.226s-2.181-1.167-4.014-1.167c-0.84 0-1.618 0.082-2.335 0.256-0.727 0.164-1.393 0.379-2.017 0.635-0.614 0.256-1.188 0.543-1.7 0.85s-0.983 0.614-1.403 0.911l-4.076-5.448c0.737-0.543 1.526-1.044 2.396-1.505s1.802-0.86 2.816-1.198c1.014-0.338 2.099-0.614 3.267-0.809s2.417-0.287 3.738-0.287c1.874 0 3.594 0.205 5.13 0.614 1.546 0.42 2.867 1.014 3.963 1.802 1.096 0.778 1.946 1.741 2.55 2.877 0.584 1.106 0.881 2.406 0.881 3.871z"></path>
    <path class="path41" d="M388.434 550.902c0 1.341-0.215 2.54-0.635 3.615-0.43 1.065-1.014 1.997-1.751 2.806-0.748 0.799-1.618 1.475-2.621 2.007s-2.089 0.952-3.246 1.229v0.154c3.082 0.389 5.417 1.341 7.004 2.847s2.386 3.533 2.386 6.093c0 1.69-0.297 3.256-0.901 4.69s-1.526 2.683-2.775 3.738c-1.249 1.055-2.806 1.884-4.7 2.468-1.894 0.594-4.116 0.891-6.676 0.891-2.058 0-3.994-0.174-5.806-0.512-1.812-0.348-3.502-0.87-5.079-1.577v-6.953c0.788 0.43 1.618 0.799 2.488 1.116s1.741 0.584 2.611 0.809c0.87 0.225 1.731 0.389 2.58 0.492s1.638 0.154 2.396 0.154c1.495 0 2.744-0.143 3.738-0.42 0.993-0.287 1.782-0.686 2.376-1.188 0.594-0.512 1.014-1.126 1.27-1.833 0.256-0.717 0.379-1.495 0.379-2.345 0-0.799-0.164-1.516-0.481-2.15-0.328-0.645-0.85-1.188-1.567-1.638s-1.669-0.799-2.836-1.044c-1.167-0.246-2.601-0.369-4.311-0.369h-2.714v-5.734h2.662c1.608 0 2.939-0.143 4.004-0.43 1.055-0.297 1.905-0.686 2.55-1.188 0.635-0.502 1.085-1.085 1.352-1.761s0.389-1.382 0.389-2.14c0-1.382-0.42-2.447-1.27-3.226s-2.181-1.167-4.014-1.167c-0.84 0-1.618 0.082-2.345 0.256-0.717 0.164-1.393 0.379-2.007 0.635s-1.188 0.543-1.7 0.85c-0.512 0.307-0.983 0.614-1.403 0.911l-4.076-5.448c0.737-0.543 1.526-1.044 2.396-1.505 0.86-0.461 1.802-0.86 2.806-1.198 1.014-0.338 2.099-0.614 3.267-0.809s2.417-0.287 3.738-0.287c1.874 0 3.594 0.205 5.13 0.614 1.546 0.42 2.867 1.014 3.963 1.802 1.096 0.778 1.956 1.741 2.55 2.877 0.573 1.106 0.881 2.406 0.881 3.871z"></path>
    <path class="path42" d="M433.367 561.582c0 3.123-0.236 5.908-0.727 8.356-0.481 2.447-1.249 4.526-2.294 6.236-1.055 1.71-2.417 3.021-4.076 3.912-1.669 0.901-3.676 1.352-6.031 1.352-2.212 0-4.137-0.451-5.775-1.352s-3-2.202-4.086-3.912c-1.075-1.71-1.884-3.789-2.417-6.236s-0.799-5.233-0.799-8.356c0-3.123 0.236-5.919 0.717-8.387s1.239-4.557 2.284-6.267c1.044-1.71 2.396-3.021 4.055-3.932 1.649-0.911 3.656-1.362 6.011-1.362 2.202 0 4.116 0.451 5.755 1.352s3 2.202 4.106 3.912c1.096 1.71 1.915 3.799 2.458 6.267 0.543 2.478 0.819 5.284 0.819 8.417zM415.222 561.582c0 4.403 0.369 7.721 1.126 9.943 0.748 2.222 2.048 3.328 3.891 3.328 1.812 0 3.113-1.106 3.912-3.308s1.188-5.53 1.188-9.974c0-4.424-0.399-7.752-1.188-9.984s-2.089-3.348-3.912-3.348c-0.922 0-1.7 0.287-2.335 0.84-0.635 0.563-1.157 1.403-1.556 2.519s-0.686 2.499-0.86 4.168c-0.174 1.679-0.266 3.615-0.266 5.816z"></path>
    <path class="path43" d="M456.366 580.915h-8.079v-22.374c0-0.461 0-1.004 0.010-1.649s0.031-1.311 0.051-2.007c0.031-0.696 0.051-1.393 0.082-2.099 0.020-0.707 0.041-1.352 0.061-1.935-0.092 0.102-0.236 0.266-0.451 0.471-0.205 0.215-0.44 0.451-0.707 0.707-0.256 0.256-0.532 0.522-0.809 0.778-0.276 0.266-0.553 0.502-0.809 0.717l-4.393 3.574-3.922-4.925 12.308-9.912h6.646v38.656z"></path>
    <path class="path44" d="M506.767 572.908h-4.598v8.018h-7.864v-8.018h-15.79v-5.683l16.23-24.965h7.424v24.3h4.598v6.349zM494.295 566.559v-6.554c0-0.225 0-0.563 0.010-0.993s0.020-0.922 0.041-1.464c0.010-0.543 0.041-1.116 0.061-1.69 0.031-0.584 0.051-1.137 0.082-1.669s0.051-0.993 0.082-1.393c0.020-0.399 0.051-0.686 0.061-0.86h-0.236c-0.317 0.737-0.666 1.526-1.065 2.355-0.389 0.829-0.84 1.659-1.341 2.488l-6.38 9.789h8.684z"></path>
    <path class="path45" d="M522.66 541.757c1.587 0 3.082 0.195 4.495 0.573 1.413 0.389 2.642 0.973 3.717 1.751 1.065 0.778 1.905 1.741 2.529 2.908s0.942 2.529 0.942 4.096c0 1.167-0.174 2.222-0.522 3.164s-0.829 1.802-1.434 2.57c-0.604 0.768-1.331 1.454-2.171 2.048s-1.741 1.147-2.724 1.638c1.014 0.543 1.997 1.157 2.97 1.823 0.963 0.676 1.823 1.423 2.57 2.263s1.352 1.782 1.802 2.816c0.451 1.034 0.676 2.202 0.676 3.492 0 1.608-0.317 3.062-0.942 4.362-0.625 1.311-1.505 2.417-2.642 3.338-1.137 0.911-2.488 1.618-4.065 2.12-1.577 0.492-3.318 0.737-5.212 0.737-2.058 0-3.891-0.236-5.489-0.717-1.608-0.481-2.959-1.157-4.055-2.038-1.106-0.881-1.935-1.966-2.499-3.256s-0.85-2.734-0.85-4.342c0-1.321 0.195-2.509 0.573-3.574 0.379-1.055 0.901-2.007 1.567-2.857 0.666-0.84 1.444-1.597 2.324-2.243 0.891-0.655 1.833-1.229 2.847-1.72-0.85-0.543-1.659-1.137-2.406-1.782s-1.403-1.362-1.946-2.14c-0.553-0.788-0.993-1.649-1.311-2.601-0.328-0.952-0.481-1.997-0.481-3.144 0-1.536 0.317-2.877 0.952-4.035 0.645-1.157 1.495-2.12 2.58-2.908s2.324-1.372 3.738-1.761c1.434-0.389 2.908-0.584 4.465-0.584zM517.243 570.634c0 0.707 0.113 1.352 0.338 1.946s0.563 1.096 1.004 1.526c0.451 0.42 1.004 0.758 1.659 0.993 0.666 0.236 1.434 0.358 2.294 0.358 1.833 0 3.195-0.44 4.106-1.311s1.362-2.028 1.362-3.451c0-0.737-0.154-1.403-0.461-1.997s-0.696-1.137-1.178-1.638c-0.481-0.502-1.024-0.963-1.638-1.393-0.614-0.42-1.219-0.829-1.823-1.219l-0.573-0.369c-0.768 0.389-1.464 0.809-2.089 1.26s-1.167 0.942-1.608 1.485c-0.44 0.543-0.788 1.126-1.024 1.761-0.236 0.614-0.369 1.3-0.369 2.048zM522.609 547.727c-0.573 0-1.106 0.092-1.608 0.266s-0.922 0.43-1.28 0.768c-0.358 0.338-0.645 0.748-0.85 1.249-0.205 0.492-0.317 1.044-0.317 1.669 0 0.737 0.113 1.382 0.328 1.915 0.215 0.543 0.512 1.014 0.891 1.423 0.379 0.42 0.809 0.788 1.311 1.116s1.024 0.645 1.577 0.963c0.543-0.276 1.055-0.594 1.546-0.922 0.492-0.338 0.922-0.717 1.29-1.147s0.676-0.922 0.901-1.464c0.225-0.543 0.338-1.167 0.338-1.874 0-0.614-0.102-1.178-0.307-1.669s-0.492-0.911-0.86-1.249c-0.369-0.328-0.809-0.594-1.3-0.768-0.522-0.184-1.075-0.276-1.659-0.276z"></path>
    <path class="path46" d="M572.641 580.915h-8.079v-22.374c0-0.461 0-1.004 0.010-1.649s0.031-1.311 0.051-2.007c0.031-0.696 0.051-1.393 0.082-2.099 0.020-0.707 0.051-1.352 0.061-1.935-0.092 0.102-0.236 0.266-0.44 0.471-0.205 0.215-0.451 0.451-0.707 0.707s-0.532 0.522-0.809 0.778c-0.276 0.266-0.543 0.502-0.809 0.717l-4.393 3.574-3.922-4.925 12.319-9.912h6.636v38.656z"></path>
    <path class="path47" d="M608.604 561.582c0 3.123-0.236 5.908-0.717 8.356s-1.249 4.526-2.294 6.236c-1.055 1.71-2.417 3.021-4.086 3.912-1.659 0.901-3.666 1.352-6.021 1.352-2.212 0-4.137-0.451-5.786-1.352-1.628-0.901-2.99-2.202-4.076-3.912s-1.884-3.789-2.417-6.236c-0.532-2.447-0.799-5.233-0.799-8.356s0.236-5.919 0.717-8.387c0.481-2.468 1.239-4.557 2.294-6.267 1.044-1.71 2.396-3.021 4.055-3.932 1.649-0.911 3.656-1.362 6.011-1.362 2.191 0 4.116 0.451 5.755 1.352s3.011 2.202 4.106 3.912c1.096 1.71 1.915 3.799 2.458 6.267 0.522 2.478 0.799 5.284 0.799 8.417zM590.469 561.582c0 4.403 0.369 7.721 1.116 9.943s2.048 3.328 3.891 3.328c1.812 0 3.113-1.106 3.912-3.308 0.788-2.202 1.188-5.53 1.188-9.974 0-4.424-0.399-7.752-1.188-9.984-0.799-2.232-2.099-3.348-3.912-3.348-0.922 0-1.7 0.287-2.335 0.84-0.635 0.563-1.157 1.403-1.556 2.519s-0.686 2.499-0.86 4.168c-0.174 1.679-0.256 3.615-0.256 5.816z"></path>
    <path class="path48" d="M651.94 580.915h-25.641v-5.683l8.991-9.81c1.137-1.239 2.161-2.376 3.082-3.41 0.922-1.044 1.72-2.058 2.386-3.041s1.178-1.997 1.546-3.021c0.358-1.024 0.543-2.12 0.543-3.308 0-1.3-0.389-2.314-1.167-3.041-0.768-0.727-1.812-1.085-3.123-1.085-1.372 0-2.703 0.348-3.973 1.034s-2.601 1.669-4.004 2.939l-4.393-5.263c0.788-0.727 1.608-1.413 2.458-2.079s1.792-1.249 2.816-1.761c1.034-0.512 2.161-0.922 3.4-1.229s2.621-0.461 4.157-0.461c1.833 0 3.471 0.256 4.925 0.768s2.693 1.239 3.727 2.181c1.034 0.942 1.812 2.089 2.365 3.42 0.553 1.341 0.829 2.847 0.829 4.526 0 1.516-0.266 2.97-0.788 4.352s-1.239 2.744-2.14 4.076c-0.901 1.331-1.956 2.652-3.154 3.963-1.188 1.311-2.458 2.652-3.83 4.004l-4.608 4.68v0.369h15.575v6.881z"></path>
    <path class="path49" d="M681.431 580.915h-25.641v-5.683l8.991-9.81c1.137-1.239 2.161-2.376 3.082-3.41 0.922-1.044 1.72-2.058 2.376-3.041 0.666-0.983 1.178-1.997 1.546-3.021s0.543-2.12 0.543-3.308c0-1.3-0.389-2.314-1.167-3.041-0.768-0.727-1.812-1.085-3.123-1.085-1.382 0-2.703 0.348-3.973 1.034s-2.601 1.669-3.994 2.939l-4.393-5.263c0.778-0.727 1.608-1.413 2.458-2.079s1.792-1.249 2.826-1.761c1.024-0.512 2.161-0.922 3.4-1.229s2.621-0.461 4.157-0.461c1.833 0 3.471 0.256 4.925 0.768s2.693 1.239 3.727 2.181c1.024 0.942 1.812 2.089 2.365 3.42 0.553 1.341 0.829 2.847 0.829 4.526 0 1.516-0.266 2.97-0.788 4.352s-1.239 2.744-2.14 4.076c-0.901 1.331-1.956 2.652-3.154 3.963s-2.468 2.652-3.83 4.004l-4.598 4.68v0.369h15.585v6.881z"></path>
    <path class="path50" d="M724.869 561.582c0 3.123-0.236 5.908-0.717 8.356-0.471 2.447-1.239 4.526-2.294 6.236s-2.417 3.021-4.086 3.912c-1.659 0.901-3.666 1.352-6.021 1.352-2.212 0-4.147-0.451-5.775-1.352-1.638-0.901-3-2.202-4.076-3.912-1.085-1.71-1.884-3.789-2.417-6.236s-0.799-5.233-0.799-8.356c0-3.123 0.236-5.919 0.717-8.387s1.239-4.557 2.284-6.267c1.044-1.71 2.396-3.021 4.055-3.932 1.649-0.911 3.656-1.362 6.011-1.362 2.191 0 4.106 0.451 5.755 1.352 1.628 0.901 3 2.202 4.106 3.912 1.096 1.71 1.915 3.799 2.458 6.267 0.532 2.478 0.799 5.284 0.799 8.417zM706.734 561.582c0 4.403 0.379 7.721 1.126 9.943s2.048 3.328 3.901 3.328c1.812 0 3.113-1.106 3.901-3.308s1.188-5.53 1.188-9.974c0-4.424-0.399-7.752-1.188-9.984-0.799-2.232-2.099-3.348-3.901-3.348-0.922 0-1.71 0.287-2.345 0.84-0.635 0.563-1.147 1.403-1.556 2.519-0.399 1.116-0.686 2.499-0.86 4.168-0.184 1.679-0.266 3.615-0.266 5.816z"></path>
    <path class="path51" d="M754.883 572.908h-4.598v8.018h-7.864v-8.018h-15.79v-5.683l16.23-24.965h7.424v24.3h4.598v6.349zM742.42 566.559v-6.554c0-0.225 0-0.563 0.010-0.993s0.020-0.922 0.041-1.464c0.020-0.543 0.041-1.116 0.061-1.69 0.031-0.584 0.051-1.137 0.082-1.669 0.020-0.532 0.051-0.993 0.072-1.393 0.031-0.399 0.051-0.686 0.061-0.86h-0.236c-0.307 0.737-0.666 1.526-1.065 2.355-0.389 0.829-0.84 1.659-1.341 2.488l-6.38 9.789h8.694z"></path>
    <path class="path52" d="M269.117 377.467h485.765v32.532h-485.765v-32.532z"></path>
    <path class="path53" d="M269.117 644.977h485.765v32.532h-485.765v-32.532z"></path>
    <path class="path54" d="M186.255 81.408v861.184h651.5v-861.184h-651.5zM798.126 902.963h-572.252v-781.926h572.242v781.926z"></path>
</symbol>
<symbol id="v-cart" viewBox="0 0 1024 1024">
    <path class="path1" d="M290.222 866.836c0 39.782-32.195 71.967-71.967 71.967s-71.967-32.195-71.967-71.967c0-39.711 32.195-71.967 71.967-71.967s71.967 32.246 71.967 71.967z"></path>
    <path class="path2" d="M865.997 866.836c0 39.782-32.195 71.967-71.967 71.967-39.782 0-71.967-32.195-71.967-71.967 0-39.711 32.195-71.967 71.967-71.967 39.772-0.010 71.967 32.246 71.967 71.967z"></path>
    <path class="path3" d="M506.132 363.028h71.967v71.967h-71.967v-71.967z"></path>
    <path class="path4" d="M650.076 506.972h71.967v71.967h-71.967v-71.967z"></path>
    <path class="path5" d="M362.189 506.972h71.967v71.967h-71.967v-71.967z"></path>
    <path class="path6" d="M362.189 363.028h71.967v71.967h-71.967v-71.967z"></path>
    <path class="path7" d="M506.132 506.972h71.967v71.967h-71.967v-71.967z"></path>
    <path class="path8" d="M236.175 219.085l-9.073-72.53c-8.858-71.414-25.016-71.414-44.841-71.414h-179.927v71.967h143.944l71.967 575.775h647.752l143.944-503.798h-773.765zM855.736 506.972h-61.706v71.967h41.114l-20.593 71.967h-532.337l-8.018-71.967h16.026v-71.967h-23.962l-8.008-71.967h31.98v-71.967h-39.997l-8.008-71.967h675.226l-61.716 215.9z"></path>
    <path class="path9" d="M650.076 363.028h71.967v71.967h-71.967v-71.967z"></path>
    <path class="path10" d="M794.020 363.028h71.967v71.967h-71.967v-71.967z"></path>
</symbol>
<symbol id="v-hourglass" viewBox="0 0 1024 1024">
    <path class="path1" d="M816.763 207.34c0-153.866 0-164.485 0-164.485 0-22.528-18.432-40.96-40.96-40.96h-531.241c-22.528 0-40.96 18.432-40.96 40.96 0 0 0 12.431 0 165.519s187.054 227.072 187.054 306.432-187.054 153.6-187.054 306.371c0 152.76 0 163.758 0 163.758 0 22.518 18.432 40.96 40.96 40.96h531.241c22.528 0 40.96-18.442 40.96-40.96 0 0 0-11.899 0-163.779 0-151.869-182.19-218.030-182.19-306.35s182.19-153.6 182.19-307.466zM552.653 514.806c0 72.172 51.436 123.556 96.829 168.888 51.558 51.507 85.361 88.904 85.361 137.462v102.339h-22.6l-143.022-137.533c-32.481-31.222-85.617-31.222-118.098 0l-143.012 137.544h-22.589v-102.318c0-54.497 46.612-100.444 91.679-144.855 46.889-46.213 95.365-94.003 95.365-161.526s-48.456-115.251-95.324-161.403c-55.409-54.559-91.73-94.126-91.73-145.029v-103.168h449.321v102.134c0 49.838-33.956 87.47-85.77 139.182-45.189 45.107-96.41 96.236-96.41 168.284z"></path>
</symbol>
<symbol id="v-arrow-right" viewBox="0 0 1024 1024">
    <path class="path1" d="M166.636 991.99l373.709-474.86-373.709-474.89h317l373.729 474.89-373.729 474.86h-317z"></path>
</symbol>
<symbol id="v-triangle-down" viewBox="0 0 767.5 1024">
    <path class="path1" d="M0 384l383.75 383.75 383.75-383.75h-767.5z"></path>
</symbol>
<symbol id="v-triangle-up" viewBox="0 0 767.5 1024">
    <path class="path1" d="M383.75 256l-383.75 383.75h767.5l-383.75-383.75z"></path>
</symbol>
<symbol id="v-arrow-right3" viewBox="0 0 609 1024">
    <path class="path1" d="M77.075 1024c-22.022 0-40.373-7.341-55.054-25.692-29.362-29.362-29.362-80.746 3.67-110.108l396.387-378.036-396.387-378.036c-29.362-29.362-33.032-77.075-3.67-110.108 29.362-29.362 77.075-33.032 110.108-3.67l455.111 433.090c14.681 14.681 25.692 36.703 25.692 55.054s-7.341 40.373-25.692 55.054l-455.111 440.43c-14.681 14.681-36.703 22.022-55.054 22.022z"></path>
</symbol>
<symbol id="v-pencil" viewBox="0 0 1024 1024">
    <path class="path1" d="M864 0c88.364 0 160 71.634 160 160 0 36.020-11.91 69.258-32 96l-64 64-224-224 64-64c26.742-20.090 59.978-32 96-32zM64 736l-64 288 288-64 592-592-224-224-592 592zM715.578 363.578l-448 448-55.156-55.156 448-448 55.156 55.156z"></path>
</symbol>
<symbol id="v-play" viewBox="0 0 1024 1024">
    <path class="path1" d="M981.188 160.108c-143.632-20.65-302.332-32.108-469.186-32.108-166.86 0-325.556 11.458-469.194 32.108-27.53 107.726-42.808 226.75-42.808 351.892 0 125.14 15.278 244.166 42.808 351.89 143.638 20.652 302.336 32.11 469.194 32.11 166.854 0 325.552-11.458 469.186-32.11 27.532-107.724 42.812-226.75 42.812-351.89 0-125.142-15.28-244.166-42.812-351.892zM384.002 704v-384l320 192-320 192z"></path>
</symbol>
<symbol id="v-bullhorn" viewBox="0 0 1024 1024">
    <path class="path1" d="M1024 429.256c0-200.926-58.792-363.938-131.482-365.226 0.292-0.006 0.578-0.030 0.872-0.030h-82.942c0 0-194.8 146.336-475.23 203.754-8.56 45.292-14.030 99.274-14.030 161.502s5.466 116.208 14.030 161.5c280.428 57.418 475.23 203.756 475.23 203.756h82.942c-0.292 0-0.578-0.024-0.872-0.032 72.696-1.288 131.482-164.298 131.482-365.224zM864.824 739.252c-9.382 0-19.532-9.742-24.746-15.548-12.63-14.064-24.792-35.96-35.188-63.328-23.256-61.232-36.066-143.31-36.066-231.124 0-87.81 12.81-169.89 36.066-231.122 10.394-27.368 22.562-49.266 35.188-63.328 5.214-5.812 15.364-15.552 24.746-15.552 9.38 0 19.536 9.744 24.744 15.552 12.634 14.064 24.796 35.958 35.188 63.328 23.258 61.23 36.068 143.312 36.068 231.122 0 87.804-12.81 169.888-36.068 231.124-10.39 27.368-22.562 49.264-35.188 63.328-5.208 5.806-15.36 15.548-24.744 15.548zM251.812 429.256c0-51.95 3.81-102.43 11.052-149.094-47.372 6.554-88.942 10.324-140.34 10.324-67.058 0-67.058 0-67.058 0l-55.466 94.686v88.17l55.46 94.686c0 0 0 0 67.060 0 51.398 0 92.968 3.774 140.34 10.324-7.236-46.664-11.048-97.146-11.048-149.096zM368.15 642.172l-127.998-24.51 81.842 321.544c4.236 16.634 20.744 25.038 36.686 18.654l118.556-47.452c15.944-6.376 22.328-23.964 14.196-39.084l-123.282-229.152zM864.824 548.73c-3.618 0-7.528-3.754-9.538-5.992-4.87-5.42-9.556-13.86-13.562-24.408-8.962-23.6-13.9-55.234-13.9-89.078s4.938-65.478 13.9-89.078c4.006-10.548 8.696-18.988 13.562-24.408 2.010-2.24 5.92-5.994 9.538-5.994 3.616 0 7.53 3.756 9.538 5.994 4.87 5.42 9.556 13.858 13.56 24.408 8.964 23.598 13.902 55.234 13.902 89.078 0 33.842-4.938 65.478-13.902 89.078-4.004 10.548-8.696 18.988-13.56 24.408-2.008 2.238-5.92 5.992-9.538 5.992z"></path>
</symbol>
<symbol id="v-coin-dollar" viewBox="0 0 1024 1024">
    <path class="path1" d="M480 64c-265.096 0-480 214.904-480 480 0 265.098 214.904 480 480 480 265.098 0 480-214.902 480-480 0-265.096-214.902-480-480-480zM480 928c-212.078 0-384-171.922-384-384s171.922-384 384-384c212.078 0 384 171.922 384 384s-171.922 384-384 384zM512 512v-128h128v-64h-128v-64h-64v64h-128v256h128v128h-128v64h128v64h64v-64h128.002l-0.002-256h-128zM448 512h-64v-128h64v128zM576.002 704h-64.002v-128h64.002v128z"></path>
</symbol>
<symbol id="v-coin-euro" viewBox="0 0 1024 1024">
    <path class="path1" d="M480 64c-265.096 0-480 214.904-480 480s214.904 480 480 480c265.098 0 480-214.902 480-480s-214.902-480-480-480zM480 928c-212.078 0-384-171.922-384-384s171.922-384 384-384c212.076 0 384 171.922 384 384s-171.924 384-384 384z"></path>
    <path class="path2" d="M670.824 644.34c-15.27-8.884-34.862-3.708-43.75 11.57-17.256 29.662-49.088 48.090-83.074 48.090h-128c-41.716 0-77.286-26.754-90.496-64h154.496c17.672 0 32-14.326 32-32s-14.328-32-32-32h-160v-64h160c17.672 0 32-14.328 32-32s-14.328-32-32-32h-154.496c13.21-37.246 48.78-64 90.496-64h128c33.986 0 65.818 18.426 83.074 48.090 8.888 15.276 28.478 20.456 43.752 11.568 15.276-8.888 20.456-28.476 11.568-43.752-28.672-49.288-81.702-79.906-138.394-79.906h-128c-77.268 0-141.914 55.056-156.78 128h-35.22c-17.672 0-32 14.328-32 32s14.328 32 32 32h32v64h-32c-17.672 0-32 14.326-32 32s14.328 32 32 32h35.22c14.866 72.944 79.512 128 156.78 128h128c56.692 0 109.72-30.62 138.394-79.91 8.888-15.276 3.708-34.864-11.57-43.75z"></path>
</symbol>
<symbol id="v-coin-pound" viewBox="0 0 1024 1024">
    <path class="path1" d="M480 64c-265.096 0-480 214.904-480 480s214.904 480 480 480c265.098 0 480-214.902 480-480s-214.902-480-480-480zM480 928c-212.078 0-384-171.922-384-384s171.922-384 384-384c212.074 0 384 171.922 384 384s-171.926 384-384 384z"></path>
    <path class="path2" d="M608 704h-224v-128h96c17.672 0 32-14.326 32-32s-14.328-32-32-32h-96v-32c0-52.934 43.066-96 96-96 34.17 0 66.042 18.404 83.18 48.030 8.85 15.298 28.426 20.526 43.722 11.676 15.296-8.848 20.526-28.424 11.676-43.722-28.538-49.336-81.638-79.984-138.578-79.984-88.224 0-160 71.776-160 160v32h-32c-17.672 0-32 14.326-32 32s14.328 32 32 32h32v192h288c17.674 0 32-14.326 32-32s-14.326-32-32-32z"></path>
</symbol>
<symbol id="v-coin-yen" viewBox="0 0 1024 1024">
    <path class="path1" d="M480 64c-265.096 0-480 214.904-480 480s214.904 480 480 480c265.098 0 480-214.902 480-480s-214.902-480-480-480zM480 928c-212.078 0-384-171.922-384-384s171.922-384 384-384c212.076 0 384 171.922 384 384s-171.924 384-384 384z"></path>
    <path class="path2" d="M608 576c17.674 0 32-14.326 32-32s-14.326-32-32-32h-68.208l94.832-142.25c9.804-14.704 5.83-34.572-8.876-44.376-14.704-9.802-34.572-5.83-44.376 8.876l-101.372 152.062-101.374-152.062c-9.804-14.706-29.672-18.68-44.376-8.876-14.706 9.804-18.678 29.672-8.876 44.376l94.834 142.25h-68.208c-17.672 0-32 14.326-32 32s14.328 32 32 32h96v64h-96c-17.672 0-32 14.326-32 32s14.328 32 32 32h96v96c0 17.674 14.328 32 32 32s32-14.326 32-32v-96h96c17.674 0 32-14.326 32-32s-14.326-32-32-32h-96v-64h96z"></path>
</symbol>
<symbol id="v-clock" viewBox="0 0 1024 1024">
    <path class="path1" d="M658.744 749.256l-210.744-210.746v-282.51h128v229.49l173.256 173.254zM512 0c-282.77 0-512 229.23-512 512s229.23 512 512 512 512-229.23 512-512-229.23-512-512-512zM512 896c-212.078 0-384-171.922-384-384s171.922-384 384-384c212.078 0 384 171.922 384 384s-171.922 384-384 384z"></path>
</symbol>
<symbol id="v-display" viewBox="0 0 1024 1024">
    <path class="path1" d="M0 64v640h1024v-640h-1024zM960 640h-896v-512h896v512zM672 768h-320l-32 128-64 64h512l-64-64z"></path>
</symbol>
<symbol id="v-mobile2" viewBox="0 0 1024 1024">
    <path class="path1" d="M768 0h-576c-35.2 0-64 28.798-64 64v896c0 35.2 28.798 64 64 64h576c35.2 0 64-28.8 64-64v-896c0-35.202-28.8-64-64-64zM480 977.782c-27.492 0-49.782-22.29-49.782-49.782s22.29-49.782 49.782-49.782 49.782 22.29 49.782 49.782-22.29 49.782-49.782 49.782zM768 832h-576v-704h576v704z"></path>
</symbol>
<symbol id="v-tablet" viewBox="0 0 1024 1024">
    <path class="path1" d="M800 0h-640c-52.8 0-96 43.2-96 96v832c0 52.8 43.2 96 96 96h640c52.8 0 96-43.2 96-96v-832c0-52.8-43.2-96-96-96zM480 992c-17.672 0-32-14.326-32-32s14.328-32 32-32 32 14.326 32 32-14.328 32-32 32zM768 896h-576v-768h576v768z"></path>
</symbol>
<symbol id="v-bubble" viewBox="0 0 1024 1024">
    <path class="path1" d="M512 64c282.77 0 512 186.25 512 416 0 229.752-229.23 416-512 416-27.156 0-53.81-1.734-79.824-5.044-109.978 109.978-241.25 129.7-368.176 132.596v-26.916c68.536-33.578 128-94.74 128-164.636 0-9.754-0.758-19.33-2.164-28.696-115.796-76.264-189.836-192.754-189.836-323.304 0-229.75 229.23-416 512-416z"></path>
</symbol>
<symbol id="v-bubble2" viewBox="0 0 1024 1024">
    <path class="path1" d="M512 192c-54.932 0-107.988 8.662-157.694 25.742-46.712 16.054-88.306 38.744-123.628 67.444-66.214 53.798-102.678 122.984-102.678 194.814 0 40.298 11.188 79.378 33.252 116.152 22.752 37.92 56.982 72.586 98.988 100.252 30.356 19.992 50.78 51.948 56.176 87.894 1.8 11.984 2.928 24.088 3.37 36.124 7.47-6.194 14.75-12.846 21.88-19.976 24.154-24.152 56.78-37.49 90.502-37.49 5.368 0 10.762 0.336 16.156 1.024 20.974 2.666 42.398 4.020 63.676 4.020 54.934 0 107.988-8.66 157.694-25.742 46.712-16.054 88.306-38.744 123.628-67.444 66.214-53.796 102.678-122.984 102.678-194.814s-36.464-141.016-102.678-194.814c-35.322-28.698-76.916-51.39-123.628-67.444-49.706-17.080-102.76-25.742-157.694-25.742zM512 64v0c282.77 0 512 186.25 512 416 0 229.752-229.23 416-512 416-27.156 0-53.81-1.734-79.824-5.044-109.978 109.978-241.25 129.7-368.176 132.596v-26.916c68.536-33.578 128-94.74 128-164.636 0-9.754-0.758-19.33-2.164-28.696-115.796-76.264-189.836-192.754-189.836-323.304 0-229.75 229.23-416 512-416z"></path>
</symbol>
<symbol id="v-user" viewBox="0 0 1024 1024">
    <path class="path1" d="M576 706.612v-52.78c70.498-39.728 128-138.772 128-237.832 0-159.058 0-288-192-288s-192 128.942-192 288c0 99.060 57.502 198.104 128 237.832v52.78c-217.102 17.748-384 124.42-384 253.388h896c0-128.968-166.898-235.64-384-253.388z"></path>
</symbol>
<symbol id="v-quotes-left" viewBox="0 0 1024 1024">
    <path class="path1" d="M225 448c123.712 0 224 100.29 224 224 0 123.712-100.288 224-224 224s-224-100.288-224-224l-1-32c0-247.424 200.576-448 448-448v128c-85.474 0-165.834 33.286-226.274 93.726-11.634 11.636-22.252 24.016-31.83 37.020 11.438-1.8 23.16-2.746 35.104-2.746zM801 448c123.71 0 224 100.29 224 224 0 123.712-100.29 224-224 224s-224-100.288-224-224l-1-32c0-247.424 200.576-448 448-448v128c-85.474 0-165.834 33.286-226.274 93.726-11.636 11.636-22.254 24.016-31.832 37.020 11.44-1.8 23.16-2.746 35.106-2.746z"></path>
</symbol>
<symbol id="v-quotes-right" viewBox="0 0 1024 1024">
    <path class="path1" d="M800 640c-123.712 0-224-100.29-224-224 0-123.712 100.288-224 224-224s224 100.288 224 224l1 32c0 247.424-200.576 448-448 448v-128c85.474 0 165.834-33.286 226.274-93.726 11.634-11.636 22.252-24.016 31.83-37.020-11.438 1.8-23.16 2.746-35.104 2.746zM224 640c-123.71 0-224-100.29-224-224 0-123.712 100.29-224 224-224s224 100.288 224 224l1 32c0 247.424-200.576 448-448 448v-128c85.474 0 165.834-33.286 226.274-93.726 11.636-11.636 22.254-24.016 31.832-37.020-11.44 1.8-23.16 2.746-35.106 2.746z"></path>
</symbol>
<symbol id="v-spinner" viewBox="0 0 1024 1024">
    <path class="path1" d="M384 128c0-70.692 57.308-128 128-128s128 57.308 128 128c0 70.692-57.308 128-128 128s-128-57.308-128-128zM655.53 240.47c0-70.692 57.308-128 128-128s128 57.308 128 128c0 70.692-57.308 128-128 128s-128-57.308-128-128zM832 512c0-35.346 28.654-64 64-64s64 28.654 64 64c0 35.346-28.654 64-64 64s-64-28.654-64-64zM719.53 783.53c0-35.346 28.654-64 64-64s64 28.654 64 64c0 35.346-28.654 64-64 64s-64-28.654-64-64zM448.002 896c0 0 0 0 0 0 0-35.346 28.654-64 64-64s64 28.654 64 64c0 0 0 0 0 0 0 35.346-28.654 64-64 64s-64-28.654-64-64zM176.472 783.53c0 0 0 0 0 0 0-35.346 28.654-64 64-64s64 28.654 64 64c0 0 0 0 0 0 0 35.346-28.654 64-64 64s-64-28.654-64-64zM144.472 240.47c0 0 0 0 0 0 0-53.019 42.981-96 96-96s96 42.981 96 96c0 0 0 0 0 0 0 53.019-42.981 96-96 96s-96-42.981-96-96zM56 512c0-39.765 32.235-72 72-72s72 32.235 72 72c0 39.765-32.235 72-72 72s-72-32.235-72-72z"></path>
</symbol>
<symbol id="v-search" viewBox="0 0 1024 1024">
    <path class="path1" d="M992.262 871.396l-242.552-206.294c-25.074-22.566-51.89-32.926-73.552-31.926 57.256-67.068 91.842-154.078 91.842-249.176 0-212.078-171.922-384-384-384-212.076 0-384 171.922-384 384s171.922 384 384 384c95.098 0 182.108-34.586 249.176-91.844-1 21.662 9.36 48.478 31.926 73.552l206.294 242.552c35.322 39.246 93.022 42.554 128.22 7.356s31.892-92.898-7.354-128.22zM384 640c-141.384 0-256-114.616-256-256s114.616-256 256-256 256 114.616 256 256-114.614 256-256 256z"></path>
</symbol>
<symbol id="v-key" viewBox="0 0 1024 1024">
    <path class="path1" d="M704 0c-176.73 0-320 143.268-320 320 0 20.026 1.858 39.616 5.376 58.624l-389.376 389.376v192c0 35.346 28.654 64 64 64h64v-64h128v-128h128v-128h128l83.042-83.042c34.010 12.316 70.696 19.042 108.958 19.042 176.73 0 320-143.268 320-320s-143.27-320-320-320zM799.874 320.126c-53.020 0-96-42.98-96-96s42.98-96 96-96 96 42.98 96 96-42.98 96-96 96z"></path>
</symbol>
<symbol id="v-cog" viewBox="0 0 1024 1024">
    <path class="path1" d="M933.79 610.25c-53.726-93.054-21.416-212.304 72.152-266.488l-100.626-174.292c-28.75 16.854-62.176 26.518-97.846 26.518-107.536 0-194.708-87.746-194.708-195.99h-201.258c0.266 33.41-8.074 67.282-25.958 98.252-53.724 93.056-173.156 124.702-266.862 70.758l-100.624 174.292c28.97 16.472 54.050 40.588 71.886 71.478 53.638 92.908 21.512 211.92-71.708 266.224l100.626 174.292c28.65-16.696 61.916-26.254 97.4-26.254 107.196 0 194.144 87.192 194.7 194.958h201.254c-0.086-33.074 8.272-66.57 25.966-97.218 53.636-92.906 172.776-124.594 266.414-71.012l100.626-174.29c-28.78-16.466-53.692-40.498-71.434-71.228zM512 719.332c-114.508 0-207.336-92.824-207.336-207.334 0-114.508 92.826-207.334 207.336-207.334 114.508 0 207.332 92.826 207.332 207.334-0.002 114.51-92.824 207.334-207.332 207.334z"></path>
</symbol>
<symbol id="v-bin" viewBox="0 0 1024 1024">
    <path class="path1" d="M128 320v640c0 35.2 28.8 64 64 64h576c35.2 0 64-28.8 64-64v-640h-704zM320 896h-64v-448h64v448zM448 896h-64v-448h64v448zM576 896h-64v-448h64v448zM704 896h-64v-448h64v448z"></path>
    <path class="path2" d="M848 128h-208v-80c0-26.4-21.6-48-48-48h-224c-26.4 0-48 21.6-48 48v80h-208c-26.4 0-48 21.6-48 48v80h832v-80c0-26.4-21.6-48-48-48zM576 128h-192v-63.198h192v63.198z"></path>
</symbol>
<symbol id="v-menu" viewBox="0 0 1024 1024">
    <path class="path1" d="M64 192h896v192h-896zM64 448h896v192h-896zM64 704h896v192h-896z"></path>
</symbol>
<symbol id="v-earth" viewBox="0 0 1024 1024">
    <path class="path1" d="M512 0c-282.77 0-512 229.23-512 512s229.23 512 512 512 512-229.23 512-512-229.23-512-512-512zM512 960.002c-62.958 0-122.872-13.012-177.23-36.452l233.148-262.29c5.206-5.858 8.082-13.422 8.082-21.26v-96c0-17.674-14.326-32-32-32-112.99 0-232.204-117.462-233.374-118.626-6-6.002-14.14-9.374-22.626-9.374h-128c-17.672 0-32 14.328-32 32v192c0 12.122 6.848 23.202 17.69 28.622l110.31 55.156v187.886c-116.052-80.956-192-215.432-192-367.664 0-68.714 15.49-133.806 43.138-192h116.862c8.488 0 16.626-3.372 22.628-9.372l128-128c6-6.002 9.372-14.14 9.372-22.628v-77.412c40.562-12.074 83.518-18.588 128-18.588 70.406 0 137.004 16.26 196.282 45.2-4.144 3.502-8.176 7.164-12.046 11.036-36.266 36.264-56.236 84.478-56.236 135.764s19.97 99.5 56.236 135.764c36.434 36.432 85.218 56.264 135.634 56.26 3.166 0 6.342-0.080 9.518-0.236 13.814 51.802 38.752 186.656-8.404 372.334-0.444 1.744-0.696 3.488-0.842 5.224-81.324 83.080-194.7 134.656-320.142 134.656z"></path>
</symbol>
<symbol id="v-flag" viewBox="0 0 1024 1024">
    <path class="path1" d="M0 0h128v1024h-128v-1024z"></path>
    <path class="path2" d="M832 643.002c82.624 0 154.57-19.984 192-49.5v-512c-37.43 29.518-109.376 49.502-192 49.502s-154.57-19.984-192-49.502v512c37.43 29.516 109.376 49.5 192 49.5z"></path>
    <path class="path3" d="M608 32.528c-46.906-19.94-115.52-32.528-192-32.528-96.396 0-180.334 19.984-224 49.502v512c43.666-29.518 127.604-49.502 224-49.502 76.48 0 145.094 12.588 192 32.528v-512z"></path>
</symbol>
<symbol id="v-eye" viewBox="0 0 1024 1024">
    <path class="path1" d="M512 192c-223.318 0-416.882 130.042-512 320 95.118 189.958 288.682 320 512 320 223.312 0 416.876-130.042 512-320-95.116-189.958-288.688-320-512-320zM764.45 361.704c60.162 38.374 111.142 89.774 149.434 150.296-38.292 60.522-89.274 111.922-149.436 150.296-75.594 48.218-162.89 73.704-252.448 73.704-89.56 0-176.858-25.486-252.452-73.704-60.158-38.372-111.138-89.772-149.432-150.296 38.292-60.524 89.274-111.924 149.434-150.296 3.918-2.5 7.876-4.922 11.86-7.3-9.96 27.328-15.41 56.822-15.41 87.596 0 141.382 114.616 256 256 256 141.382 0 256-114.618 256-256 0-30.774-5.452-60.268-15.408-87.598 3.978 2.378 7.938 4.802 11.858 7.302v0zM512 416c0 53.020-42.98 96-96 96s-96-42.98-96-96 42.98-96 96-96 96 42.982 96 96z"></path>
</symbol>
<symbol id="v-eye-blocked" viewBox="0 0 1024 1024">
    <path class="path1" d="M945.942 14.058c-18.746-18.744-49.136-18.744-67.882 0l-202.164 202.164c-51.938-15.754-106.948-24.222-163.896-24.222-223.318 0-416.882 130.042-512 320 41.122 82.124 100.648 153.040 173.022 207.096l-158.962 158.962c-18.746 18.746-18.746 49.136 0 67.882 9.372 9.374 21.656 14.060 33.94 14.060s24.568-4.686 33.942-14.058l864-864c18.744-18.746 18.744-49.138 0-67.884zM416 320c42.24 0 78.082 27.294 90.92 65.196l-121.724 121.724c-37.902-12.838-65.196-48.68-65.196-90.92 0-53.020 42.98-96 96-96zM110.116 512c38.292-60.524 89.274-111.924 149.434-150.296 3.918-2.5 7.876-4.922 11.862-7.3-9.962 27.328-15.412 56.822-15.412 87.596 0 54.89 17.286 105.738 46.7 147.418l-60.924 60.924c-52.446-36.842-97.202-83.882-131.66-138.342z"></path>
    <path class="path2" d="M768 442c0-27.166-4.256-53.334-12.102-77.898l-321.808 321.808c24.568 7.842 50.742 12.090 77.91 12.090 141.382 0 256-114.618 256-256z"></path>
    <path class="path3" d="M830.026 289.974l-69.362 69.362c1.264 0.786 2.53 1.568 3.786 2.368 60.162 38.374 111.142 89.774 149.434 150.296-38.292 60.522-89.274 111.922-149.436 150.296-75.594 48.218-162.89 73.704-252.448 73.704-38.664 0-76.902-4.76-113.962-14.040l-76.894 76.894c59.718 21.462 123.95 33.146 190.856 33.146 223.31 0 416.876-130.042 512-320-45.022-89.916-112.118-166.396-193.974-222.026z"></path>
</symbol>
<symbol id="v-star-empty" viewBox="0 0 1024 1024">
    <path class="path1" d="M1024 397.050l-353.78-51.408-158.22-320.582-158.216 320.582-353.784 51.408 256 249.538-60.432 352.352 316.432-166.358 316.432 166.358-60.434-352.352 256.002-249.538zM512 753.498l-223.462 117.48 42.676-248.83-180.786-176.222 249.84-36.304 111.732-226.396 111.736 226.396 249.836 36.304-180.788 176.222 42.678 248.83-223.462-117.48z"></path>
</symbol>
<symbol id="v-star-full" viewBox="0 0 1024 1024">
    <path class="path1" d="M1024 397.050l-353.78-51.408-158.22-320.582-158.216 320.582-353.784 51.408 256 249.538-60.432 352.352 316.432-166.358 316.432 166.358-60.434-352.352 256.002-249.538z"></path>
</symbol>
<symbol id="v-heart" viewBox="0 0 1024 1024">
    <path class="path1" d="M755.188 64c-107.63 0-200.258 87.554-243.164 179-42.938-91.444-135.578-179-243.216-179-148.382 0-268.808 120.44-268.808 268.832 0 301.846 304.5 380.994 512.022 679.418 196.154-296.576 511.978-387.206 511.978-679.418 0-148.392-120.43-268.832-268.812-268.832z"></path>
</symbol>
<symbol id="v-smile" viewBox="0 0 1024 1024">
    <path class="path1" d="M512 1024c282.77 0 512-229.23 512-512s-229.23-512-512-512-512 229.23-512 512 229.23 512 512 512zM512 96c229.75 0 416 186.25 416 416s-186.25 416-416 416-416-186.25-416-416 186.25-416 416-416zM256 320c0-35.346 28.654-64 64-64s64 28.654 64 64c0 35.346-28.654 64-64 64s-64-28.654-64-64zM640 320c0-35.346 28.654-64 64-64s64 28.654 64 64c0 35.346-28.654 64-64 64s-64-28.654-64-64zM704.098 627.26l82.328 49.396c-55.962 93.070-157.916 155.344-274.426 155.344s-218.464-62.274-274.426-155.344l82.328-49.396c39.174 65.148 110.542 108.74 192.098 108.74s152.924-43.592 192.098-108.74z"></path>
</symbol>
<symbol id="v-sad" viewBox="0 0 1024 1024">
    <path class="path1" d="M512 1024c282.77 0 512-229.23 512-512s-229.23-512-512-512-512 229.23-512 512 229.23 512 512 512zM512 96c229.75 0 416 186.25 416 416s-186.25 416-416 416-416-186.25-416-416 186.25-416 416-416zM256 320c0-35.346 28.654-64 64-64s64 28.654 64 64c0 35.346-28.654 64-64 64s-64-28.654-64-64zM640 320c0-35.346 28.654-64 64-64s64 28.654 64 64c0 35.346-28.654 64-64 64s-64-28.654-64-64zM319.902 780.74l-82.328-49.396c55.962-93.070 157.916-155.344 274.426-155.344 116.508 0 218.462 62.274 274.426 155.344l-82.328 49.396c-39.174-65.148-110.542-108.74-192.098-108.74-81.558 0-152.924 43.592-192.098 108.74z"></path>
</symbol>
<symbol id="v-plus" viewBox="0 0 1024 1024">
    <path class="path1" d="M992 384h-352v-352c0-17.672-14.328-32-32-32h-192c-17.672 0-32 14.328-32 32v352h-352c-17.672 0-32 14.328-32 32v192c0 17.672 14.328 32 32 32h352v352c0 17.672 14.328 32 32 32h192c17.672 0 32-14.328 32-32v-352h352c17.672 0 32-14.328 32-32v-192c0-17.672-14.328-32-32-32z"></path>
</symbol>
<symbol id="v-minus" viewBox="0 0 1024 1024">
    <path class="path1" d="M0 416v192c0 17.672 14.328 32 32 32h960c17.672 0 32-14.328 32-32v-192c0-17.672-14.328-32-32-32h-960c-17.672 0-32 14.328-32 32z"></path>
</symbol>
<symbol id="v-info" viewBox="0 0 1024 1024">
    <path class="path1" d="M448 304c0-26.4 21.6-48 48-48h32c26.4 0 48 21.6 48 48v32c0 26.4-21.6 48-48 48h-32c-26.4 0-48-21.6-48-48v-32z"></path>
    <path class="path2" d="M640 768h-256v-64h64v-192h-64v-64h192v256h64z"></path>
    <path class="path3" d="M512 0c-282.77 0-512 229.23-512 512s229.23 512 512 512 512-229.23 512-512-229.23-512-512-512zM512 928c-229.75 0-416-186.25-416-416s186.25-416 416-416 416 186.25 416 416-186.25 416-416 416z"></path>
</symbol>
<symbol id="v-cancel-circle" viewBox="0 0 1024 1024">
    <path class="path1" d="M512 0c-282.77 0-512 229.23-512 512s229.23 512 512 512 512-229.23 512-512-229.23-512-512-512zM512 928c-229.75 0-416-186.25-416-416s186.25-416 416-416 416 186.25 416 416-186.25 416-416 416z"></path>
    <path class="path2" d="M672 256l-160 160-160-160-96 96 160 160-160 160 96 96 160-160 160 160 96-96-160-160 160-160z"></path>
</symbol>
<symbol id="v-cross" viewBox="0 0 1024 1024">
    <path class="path1" d="M1014.662 822.66c-0.004-0.004-0.008-0.008-0.012-0.010l-310.644-310.65 310.644-310.65c0.004-0.004 0.008-0.006 0.012-0.010 3.344-3.346 5.762-7.254 7.312-11.416 4.246-11.376 1.824-24.682-7.324-33.83l-146.746-146.746c-9.148-9.146-22.45-11.566-33.828-7.32-4.16 1.55-8.070 3.968-11.418 7.31 0 0.004-0.004 0.006-0.008 0.010l-310.648 310.652-310.648-310.65c-0.004-0.004-0.006-0.006-0.010-0.010-3.346-3.342-7.254-5.76-11.414-7.31-11.38-4.248-24.682-1.826-33.83 7.32l-146.748 146.748c-9.148 9.148-11.568 22.452-7.322 33.828 1.552 4.16 3.97 8.072 7.312 11.416 0.004 0.002 0.006 0.006 0.010 0.010l310.65 310.648-310.65 310.652c-0.002 0.004-0.006 0.006-0.008 0.010-3.342 3.346-5.76 7.254-7.314 11.414-4.248 11.376-1.826 24.682 7.322 33.83l146.748 146.746c9.15 9.148 22.452 11.568 33.83 7.322 4.16-1.552 8.070-3.97 11.416-7.312 0.002-0.004 0.006-0.006 0.010-0.010l310.648-310.65 310.648 310.65c0.004 0.002 0.008 0.006 0.012 0.008 3.348 3.344 7.254 5.762 11.414 7.314 11.378 4.246 24.684 1.826 33.828-7.322l146.746-146.748c9.148-9.148 11.57-22.454 7.324-33.83-1.552-4.16-3.97-8.068-7.314-11.414z"></path>
</symbol>
<symbol id="v-checkmark" viewBox="0 0 1024 1024">
    <path class="path1" d="M864 128l-480 480-224-224-160 160 384 384 640-640z"></path>
</symbol>
<symbol id="v-exit" viewBox="0 0 1024 1024">
    <path class="path1" d="M768 640v-128h-320v-128h320v-128l192 192zM704 576v256h-320v192l-384-192v-832h704v320h-64v-256h-512l256 128v576h256v-192z"></path>
</symbol>
<symbol id="v-shuffle" viewBox="0 0 1024 1024">
    <path class="path1" d="M768 704h-101.49l-160-160 160-160h101.49v160l224-224-224-224v160h-128c-16.974 0-33.252 6.744-45.254 18.746l-178.746 178.744-178.746-178.746c-12-12-28.28-18.744-45.254-18.744h-192v128h165.49l160 160-160 160h-165.49v128h192c16.974 0 33.252-6.742 45.254-18.746l178.746-178.744 178.746 178.744c12.002 12.004 28.28 18.746 45.254 18.746h128v160l224-224-224-224v160z"></path>
</symbol>
<symbol id="v-arrow-up2" viewBox="0 0 1024 1024">
    <path class="path1" d="M877.254 402.746l-320-320c-24.992-24.994-65.514-24.994-90.508 0l-320 320c-24.994 24.994-24.994 65.516 0 90.51 24.994 24.996 65.516 24.996 90.51 0l210.744-210.746v613.49c0 35.346 28.654 64 64 64s64-28.654 64-64v-613.49l210.746 210.746c12.496 12.496 28.876 18.744 45.254 18.744s32.758-6.248 45.254-18.746c24.994-24.994 24.994-65.514 0-90.508z"></path>
</symbol>
<symbol id="v-arrow-right2" viewBox="0 0 1024 1024">
    <path class="path1" d="M621.254 877.254l320-320c24.994-24.992 24.994-65.516 0-90.51l-320-320c-24.994-24.992-65.516-24.992-90.51 0-24.994 24.994-24.994 65.516 0 90.51l210.746 210.746h-613.49c-35.346 0-64 28.654-64 64s28.654 64 64 64h613.49l-210.746 210.746c-12.496 12.496-18.744 28.876-18.744 45.254s6.248 32.758 18.744 45.254c24.994 24.994 65.516 24.994 90.51 0z"></path>
</symbol>
<symbol id="v-arrow-down2" viewBox="0 0 1024 1024">
    <path class="path1" d="M877.254 621.254l-320 320c-24.992 24.994-65.514 24.994-90.508 0l-320-320c-24.994-24.994-24.994-65.516 0-90.51 24.994-24.996 65.516-24.996 90.51 0l210.744 210.746v-613.49c0-35.346 28.654-64 64-64s64 28.654 64 64v613.49l210.746-210.746c12.496-12.496 28.876-18.744 45.254-18.744s32.758 6.248 45.254 18.746c24.994 24.994 24.994 65.514 0 90.508z"></path>
</symbol>
<symbol id="v-arrow-left2" viewBox="0 0 1024 1024">
    <path class="path1" d="M402.746 877.254l-320-320c-24.994-24.992-24.994-65.516 0-90.51l320-320c24.994-24.992 65.516-24.992 90.51 0 24.994 24.994 24.994 65.516 0 90.51l-210.746 210.746h613.49c35.346 0 64 28.654 64 64s-28.654 64-64 64h-613.49l210.746 210.746c12.496 12.496 18.744 28.876 18.744 45.254s-6.248 32.758-18.744 45.254c-24.994 24.994-65.516 24.994-90.51 0z"></path>
</symbol>
<symbol id="v-circle-up" viewBox="0 0 1024 1024">
    <path class="path1" d="M0 512c0 282.77 229.23 512 512 512s512-229.23 512-512-229.23-512-512-512-512 229.23-512 512zM928 512c0 229.75-186.25 416-416 416s-416-186.25-416-416 186.25-416 416-416 416 186.25 416 416z"></path>
    <path class="path2" d="M706.744 669.256l90.512-90.512-285.256-285.254-285.254 285.256 90.508 90.508 194.746-194.744z"></path>
</symbol>
<symbol id="v-circle-right" viewBox="0 0 1024 1024">
    <path class="path1" d="M512 0c-282.77 0-512 229.23-512 512s229.23 512 512 512 512-229.23 512-512-229.23-512-512-512zM512 928c-229.75 0-416-186.25-416-416s186.25-416 416-416 416 186.25 416 416-186.25 416-416 416z"></path>
    <path class="path2" d="M354.744 706.744l90.512 90.512 285.254-285.256-285.256-285.254-90.508 90.508 194.744 194.746z"></path>
</symbol>
<symbol id="v-circle-down" viewBox="0 0 1024 1024">
    <path class="path1" d="M1024 512c0-282.77-229.23-512-512-512s-512 229.23-512 512 229.23 512 512 512 512-229.23 512-512zM96 512c0-229.75 186.25-416 416-416s416 186.25 416 416-186.25 416-416 416-416-186.25-416-416z"></path>
    <path class="path2" d="M317.256 354.744l-90.512 90.512 285.256 285.254 285.254-285.256-90.508-90.508-194.746 194.744z"></path>
</symbol>
<symbol id="v-circle-left" viewBox="0 0 1024 1024">
    <path class="path1" d="M512 1024c282.77 0 512-229.23 512-512s-229.23-512-512-512-512 229.23-512 512 229.23 512 512 512zM512 96c229.75 0 416 186.25 416 416s-186.25 416-416 416-416-186.25-416-416 186.25-416 416-416z"></path>
    <path class="path2" d="M669.256 317.256l-90.512-90.512-285.254 285.256 285.256 285.254 90.508-90.508-194.744-194.746z"></path>
</symbol>
<symbol id="v-google-plus" viewBox="0 0 1024 1024">
    <path class="path1" d="M559.066 64c0 0-200.956 0-267.94 0-120.12 0-233.17 91.006-233.17 196.422 0 107.726 81.882 194.666 204.088 194.666 8.498 0 16.756-0.17 24.842-0.752-7.93 15.186-13.602 32.288-13.602 50.042 0 29.938 16.104 54.21 36.468 74.024-15.386 0-30.242 0.448-46.452 0.448-148.782-0.002-263.3 94.758-263.3 193.020 0 96.778 125.542 157.314 274.334 157.314 169.624 0 263.306-96.244 263.306-193.028 0-77.6-22.896-124.072-93.686-174.134-24.216-17.144-70.53-58.836-70.53-83.344 0-28.72 8.196-42.868 51.428-76.646 44.312-34.624 75.672-83.302 75.672-139.916 0-67.406-30.020-133.098-86.372-154.772h84.954l59.96-43.344zM465.48 719.458c2.126 8.972 3.284 18.206 3.284 27.628 0 78.2-50.392 139.31-194.974 139.31-102.842 0-177.116-65.104-177.116-143.3 0-76.642 92.126-140.444 194.964-139.332 24 0.254 46.368 4.116 66.67 10.69 55.826 38.826 95.876 60.762 107.172 105.004zM300.818 427.776c-69.038-2.064-134.636-77.226-146.552-167.86-11.916-90.666 34.37-160.042 103.388-157.99 69.010 2.074 134.638 74.814 146.558 165.458 11.906 90.66-34.39 162.458-103.394 160.392zM832 256v-192h-64v192h-192v64h192v192h64v-192h192v-64z"></path>
</symbol>
<symbol id="v-facebook" viewBox="0 0 1024 1024">
    <path class="path1" d="M672 192c-88.366 0-160 71.634-160 160v96h-128v128h128v448h128v-448h144l32-128h-176v-96c0-17.672 14.326-32 32-32h160v-128h-160z"></path>
</symbol>
<symbol id="v-twitter" viewBox="0 0 1024 1024">
    <path class="path1" d="M1024 194.418c-37.676 16.708-78.164 28.002-120.66 33.080 43.372-26 76.686-67.17 92.372-116.23-40.596 24.078-85.556 41.56-133.41 50.98-38.32-40.83-92.922-66.34-153.346-66.34-116.022 0-210.088 94.058-210.088 210.078 0 16.466 1.858 32.5 5.44 47.878-174.6-8.764-329.402-92.4-433.018-219.506-18.084 31.028-28.446 67.116-28.446 105.618 0 72.888 37.088 137.192 93.46 174.866-34.438-1.092-66.832-10.542-95.154-26.278-0.020 0.876-0.020 1.756-0.020 2.642 0 101.788 72.418 186.696 168.522 206-17.626 4.8-36.188 7.372-55.348 7.372-13.538 0-26.698-1.32-39.528-3.772 26.736 83.46 104.32 144.206 196.252 145.896-71.9 56.35-162.486 89.934-260.916 89.934-16.958 0-33.68-0.994-50.116-2.94 92.972 59.61 203.402 94.394 322.042 94.394 386.422 0 597.736-320.124 597.736-597.744 0-9.108-0.206-18.168-0.61-27.18 41.056-29.62 76.672-66.62 104.836-108.748z"></path>
</symbol>
<symbol id="v-wordpress" viewBox="0 0 1024 1024">
    <path class="path1" d="M128 511.992c0 148.026 88.322 275.968 216.43 336.578l-183.178-488.784c-21.308 46.508-33.252 97.982-33.252 152.206zM771.228 493.128c0-46.234-17.054-78.236-31.654-103.142-19.458-30.82-37.72-56.894-37.72-87.716 0-34.374 26.766-66.376 64.486-66.376 1.704 0 3.32 0.204 4.976 0.302-68.316-60.97-159.34-98.196-259.308-98.196-134.16 0-252.186 67.046-320.844 168.568 9.010 0.282 17.506 0.454 24.712 0.454 40.154 0 102.34-4.752 102.34-4.752 20.69-1.182 23.132 28.434 2.458 30.822 0 0-20.81 2.368-43.952 3.55l139.834 405.106 84.044-245.456-59.822-159.65c-20.688-1.184-40.278-3.55-40.278-3.55-20.702-1.192-18.272-32.002 2.438-30.822 0 0 63.4 4.752 101.134 4.752 40.146 0 102.35-4.752 102.35-4.752 20.702-1.182 23.14 28.434 2.446 30.822 0 0-20.834 2.372-43.948 3.55l138.78 402.018 38.312-124.632c16.58-51.75 29.216-88.9 29.216-120.9zM518.742 544.704l-115.226 326.058c34.416 9.858 70.794 15.238 108.488 15.238 44.716 0 87.604-7.518 127.518-21.2-1.018-1.602-1.974-3.304-2.75-5.154l-118.030-314.942zM848.962 332.572c1.652 11.91 2.588 24.686 2.588 38.458 0 37.93-7.292 80.596-29.202 133.95l-117.286 330.272c114.162-64.828 190.938-185.288 190.938-323.258 0-65.030-17.060-126.16-47.038-179.422zM512 0c-282.77 0-512 229.23-512 512s229.23 512 512 512 512-229.23 512-512-229.23-512-512-512zM512 960c-247.424 0-448-200.576-448-448s200.576-448 448-448 448 200.576 448 448-200.576 448-448 448z"></path>
</symbol>
<symbol id="v-warning" viewBox="0 0 1024 1024">
    <path class="path1" d="M512 92.774l429.102 855.226h-858.206l429.104-855.226zM512 0c-22.070 0-44.14 14.882-60.884 44.648l-437.074 871.112c-33.486 59.532-5 108.24 63.304 108.24h869.308c68.3 0 96.792-48.708 63.3-108.24h0.002l-437.074-871.112c-16.742-29.766-38.812-44.648-60.882-44.648v0z"></path>
    <path class="path2" d="M576 832c0 35.346-28.654 64-64 64s-64-28.654-64-64c0-35.346 28.654-64 64-64s64 28.654 64 64z"></path>
    <path class="path3" d="M512 704c-35.346 0-64-28.654-64-64v-192c0-35.346 28.654-64 64-64s64 28.654 64 64v192c0 35.346-28.654 64-64 64z"></path>
</symbol>
</svg>