<svg xmlns="http://www.w3.org/2000/svg" viewBox="0 0 100 100">
<symbol id="emblem" viewBox="175.985 8.635 491.172 579.055">
    <path fill="#FFF" d="M651.622 372.543c-3.358-.292-6.862-.146-10.22.292 1.17-2.482 2.044-5.11 2.775-7.737 3.212-11.68 2.043-23.942-3.212-34.746l-4.234-8.468-7.88 5.11c-10.07 6.57-17.52 16.497-20.73 28.176-.87 3.504-1.6 7.007-1.75 10.657l-9.34 1.606h-15.04c-11.68 0-23.21-1.022-34.6-3.358l4.97-11.825-4.67-3.942c-5.55-4.818-11.39-9.343-17.66-13.43 19.71-1.023 30.22-5.11 30.66-5.257l3.36-1.31 22.63-53.72-4.52-3.94c-1.17-1.02-2.48-2.19-3.65-3.21l17.08-9.05 27.15 14.31-5.11-30.36 22.05-21.46-30.37-4.38-13.58-27.59-13.58 27.59-30.37 4.38 22.04 21.46-3.21 18.4c-9.63-7.59-19.85-14.45-30.66-20.44 2.49-23.06 3.22-45.98 3.51-63.65l.15-8.17-7.44-3.21c-.73-.29-6.42-2.63-16.2-5.84l22.93-12.12 33.87 17.81-6.42-37.81 27.45-26.71-37.95-5.55-16.94-33.87-16.94 34.46-25.69 3.79 5.84-17.66c5.84-1.75 10.22-7.15 10.22-13.58 0-7.88-6.42-14.31-14.3-14.31s-14.3 6.42-14.3 14.3v1.32l-6.43 6.43c-2.48-3.06-5.4-5.98-8.76-8.61V67c2.92-2.63 4.67-6.424 4.67-10.51 0-7.884-6.42-14.31-14.3-14.31-7.44 0-13.58 5.84-14.16 13.14-3.5-1.022-7-1.9-10.8-2.482-1.02-.146-2.04-.292-3.21-.438l-1.76-6.717c3.36-3.21 5.55-7.736 5.55-12.7 0-9.635-7.88-17.52-17.51-17.52s-17.52 7.885-17.52 17.52c0 4.964 2.04 9.49 5.55 12.7L407.3 52.4c-4.816.73-9.49 1.75-13.87 3.064-.58-7.3-6.713-13.14-14.16-13.14-7.88 0-14.306 6.425-14.306 14.308 0 4.235 1.75 7.884 4.67 10.512v-.15c-3.353 2.628-6.272 5.547-8.76 8.613l-6.43-6.424v-1.315c0-7.883-6.43-14.307-14.31-14.307s-14.31 6.43-14.31 14.31c0 6.43 4.23 11.97 10.22 13.58l5.84 17.67-25.7-3.79-16.49-34.16-16.93 34.16-37.96 5.55 27.45 26.72-6.42 37.81 34.01-17.81 22.92 12.12c-9.78 3.07-15.473 5.55-16.203 5.84l-7.44 3.22.15 8.18c.3 17.67 1.03 40.59 3.51 63.66-10.8 6.13-21.02 13-30.66 20.44l-3.21-18.39 22.05-21.46-30.36-4.38-13.58-27.6-13.58 27.59-30.41 4.36 22.05 21.46-5.11 30.37 27.16-14.31 17.08 9.05c-1.17 1.02-2.48 2.04-3.65 3.21L256 274.9l22.63 53.87 3.36 1.315c.434.146 11.09 4.09 30.22 5.11-6.13 4.234-12.12 8.613-17.67 13.43l-4.67 3.943 4.963 11.827c-11.24 2.19-22.78 3.21-34.167 3.21h-15.03L236.29 366c-.146-3.5-.73-7.15-1.752-10.655-3.21-11.68-10.51-21.602-20.73-28.172l-7.88-5.11-4.23 8.47c-5.25 10.808-6.42 23.216-3.21 34.75.73 2.63 1.75 5.26 2.78 7.74-3.36-.44-6.86-.583-10.22-.29l-9.34.73 1.752 9.34c2.33 11.825 8.76 22.336 18.39 29.78 3.21 2.48 6.57 4.38 10.072 5.987-1.61.44-3.36.88-4.97 1.46l-8.905 3.07 4.23 8.47c5.26 10.8 14.31 19.412 25.406 23.94 1.46.58 2.77 1.02 4.23 1.603-1.17.73-2.338 1.603-3.36 2.48l-7.59 5.692 6.57 6.72c8.466 8.616 19.56 14.02 31.68 14.89.874 0 1.896.15 2.772.15-.44.584-.88 1.02-1.17 1.75l-5.4 7.74 8.32 4.526c7.15 3.95 15.33 5.99 23.5 5.99 3.65 0 7.446-.43 11.095-1.31 2.19-.58 7.59-2.33 7.59-2.33 1.897-.73 3.65-1.75 5.546-2.62l-8.613 23.65h30.518l-3.36 4.38 33.14-4.38c4.24 5.11 9.2 9.78 14.75 13.58l-2.33 17.81 14.31-10.95c6.13 2.78 12.56 4.82 19.27 5.99l12.71 30.95 12.7-30.95c6.72-1.16 13-3.06 19.13-5.98L468 555.84l-2.34-17.82c5.55-3.94 10.37-8.46 14.75-13.57l33.14 4.38-3.36-4.38h30.51l-8.61-23.65c1.756 1.02 6.57 3.062 6.57 3.062 2.047.878 4.24 1.46 6.57 2.045 3.65.88 7.45 1.318 11.1 1.318 8.17 0 16.35-2.04 23.5-5.98l8.32-4.53-5.4-7.74c-.44-.583-.88-1.17-1.17-1.75.875 0 1.9 0 2.773-.15 11.97-.874 23.21-6.13 31.68-14.89l6.57-6.72-7.59-5.69c-1.17-.875-2.34-1.75-3.36-2.48 1.46-.44 2.92-.88 4.233-1.61 11.096-4.522 20.29-13.14 25.4-23.94l4.238-8.464-8.904-3.06c-1.61-.58-3.21-1.02-4.968-1.46 3.5-1.61 6.86-3.5 10.07-5.99 9.49-7.3 16.06-17.96 18.39-29.78l1.758-9.35-10.23-1.02zM515.412 127.57l-5.11 29.2c-6.57-1.753-14.16-3.65-22.774-5.402V136.33l9.052-27.008 18.833 18.25zm-188.18 0l18.686-18.248 9.052 27.01v15.036c-8.468 1.752-16.06 3.65-22.628 5.4l-5.11-29.197z"/><path fill="#D0A000" d="M421.394 582.185c-.438 0-.73-.292-.876-.584l-12.555-30.36c-6.277-1.17-12.556-3.06-18.395-5.69L375.7 556.06c-.292.292-.73.292-1.168 0-.292-.146-.584-.584-.438-1.02l2.336-17.227c-5.11-3.65-9.928-8.03-14.015-12.993l-32.556 4.234c-.44 0-.73-.146-1.03-.44-.15-.29-.15-.73 0-1.17l2.19-2.772h-28.46c-.3 0-.59-.146-.88-.438-.15-.294-.29-.586-.15-.878l7.73-21.166c-1.02.584-2.19 1.022-3.36 1.46-.3.146-5.4 1.898-7.6 2.336-3.65.876-7.45 1.314-11.39 1.314-8.33 0-16.65-2.19-23.95-6.13l-8.32-4.526c-.29-.147-.44-.44-.44-.585s0-.59.15-.88l5.4-7.74s0-.15.14-.15h-.88c-12.26-.88-23.65-6.28-32.26-15.19l-6.57-6.72c-.15-.15-.3-.44-.3-.73s.14-.59.43-.73l7.59-5.7 1.75-1.32c-.73-.29-1.61-.59-2.34-.88-11.24-4.67-20.58-13.28-25.98-24.38l-4.24-8.47c-.15-.3-.15-.59 0-.88.14-.29.29-.44.58-.59l8.9-3.07c.73-.3 1.6-.44 2.33-.73-2.78-1.46-5.4-3.07-7.89-4.97-9.78-7.59-16.35-18.4-18.69-30.37l-1.75-9.35c0-.29 0-.59.14-.73.14-.29.44-.44.73-.44l9.34-.73c2.77-.29 5.84-.15 8.76.15-.88-2.05-1.61-4.09-2.19-6.28-3.36-11.83-2.19-24.53 3.36-35.48l4.23-8.47c.14-.29.29-.44.58-.58.29-.15.58 0 .87.14l7.88 5.11c10.36 6.57 17.81 16.79 21.17 28.76.87 3.06 1.46 6.42 1.75 10.07l8.47 1.46h15.04c10.95 0 22.04-1.03 32.85-2.92l-4.52-10.8c-.14-.44 0-.88.29-1.17l4.67-3.94c4.82-4.09 9.93-8.18 15.33-11.97-17.81-1.32-27.45-4.97-27.6-4.97l-3.36-1.32c-.29-.14-.44-.29-.586-.58l-22.63-53.87c-.14-.44 0-.88.29-1.17l4.53-3.94c.585-.59 1.17-1.03 1.9-1.61.293-.15.44-.44.73-.59l-15.33-8.03-26.714 14.02c-.29.15-.73.15-1.02-.14-.3-.29-.44-.58-.44-1.02l5.11-29.78-22.34-20.88c-.29-.29-.44-.73-.29-1.02.14-.44.43-.59.87-.73l29.923-4.38 13.43-27.01c.15-.3.58-.59.88-.59s.73.15.87.58l13.43 27.01 29.93 4.38c.43 0 .73.29.87.73.15.44 0 .73-.29 1.02L270 242.62l2.775 16.206c9.198-7.008 18.833-13.578 28.906-19.27-2.48-23.652-3.06-47.302-3.5-63.07l-.14-8.175c0-.43.3-.73.59-.87l7.74-3.21c4.82-1.9 9.78-3.65 13.73-4.96l-20.3-10.66-33.43 17.66c-.29.15-.73.15-1.02-.14-.29-.29-.44-.58-.44-1.02l6.43-37.37-27.15-26.13c-.29-.29-.43-.73-.29-1.02.15-.44.44-.58.88-.73l37.37-5.4 16.62-33.76c.15-.29.59-.58.88-.58.44 0 .73.15.88.59l16.79 34.01 23.65 3.5-5.25-15.62c-6.13-2.05-10.37-7.89-10.37-14.46 0-8.47 6.87-15.19 15.19-15.19 8.47 0 15.18 6.87 15.18 15.19V69l5.26 5.257c2.19-2.63 4.67-5.11 7.44-7.3-2.78-2.777-4.38-6.72-4.38-10.66 0-8.467 6.86-15.18 15.18-15.18 7.44 0 13.87 5.545 15.03 12.845 3.94-1.17 8.03-2.047 12.26-2.63l1.46-5.55c-3.5-3.504-5.4-8.176-5.4-13.14 0-10.218 8.32-18.54 18.54-18.54s18.54 8.322 18.54 18.54c0 4.965-1.9 9.636-5.4 13.14l1.46 5.55c.88.145 1.75.29 2.48.44 3.51.58 6.72 1.31 9.64 2.19 1.17-7.3 7.59-12.85 15.04-12.85 8.47 0 15.18 6.86 15.18 15.18 0 3.946-1.6 7.74-4.38 10.66 2.78 2.19 5.26 4.67 7.45 7.3L486.36 69v-1c0-8.47 6.87-15.184 15.19-15.184 8.47 0 15.183 6.86 15.183 15.18 0 6.57-4.234 12.41-10.365 14.455l-5.25 15.77 23.65-3.5 16.79-33.87c.143-.29.58-.58.873-.58.3 0 .73.15.88.59l16.79 33.87 37.37 5.4c.44 0 .73.29.88.73.14.44 0 .73-.3 1.02l-26.71 26.28 6.28 37.08v.3c0 .59-.44 1.03-1.02 1.03-.14 0-.29 0-.43-.15l-33.44-17.66-20.44 10.65c5.11 1.61 9.78 3.36 13.72 4.97l.15.14 7.44 3.21c.44.15.58.58.58.88l-.14 8.18c-.29 15.77-1.02 39.42-3.35 63.07 9.64 5.55 19.42 11.97 28.91 19.27l2.77-16.2-21.46-21.02c-.29-.29-.44-.73-.29-1.02.15-.44.44-.58.88-.73l29.93-4.38 13.43-27.01c.15-.29.59-.58.88-.58.29 0 .73.15.87.59l13.43 27.01 29.93 4.38c.44 0 .73.29.88.73.15.44 0 .73-.29 1.02l-21.61 21.03 5.11 29.64v.29c0 .58-.44 1.02-1.02 1.02-.14 0-.29 0-.44-.15l-26.72-14.02-15.33 8.03c.88.73 1.76 1.46 2.49 2.19l4.53 3.94c.3.29.44.73.3 1.17l-22.62 53.72c-.14.29-.29.44-.58.58l-3.35 1.31s-9.78 3.79-28.03 5.11c5.11 3.65 10.22 7.59 15.33 11.82l4.67 3.94c.3.29.44.73.3 1.17L549 363.35c10.804 2.043 22.045 3.066 33.286 3.066h14.89l8.47-1.46c.29-3.212.875-6.716 1.75-10.074 3.36-11.972 10.805-22.046 21.17-28.762l7.883-5.11c.29-.146.58-.146.87-.146.29.146.44.292.58.584l4.23 8.468c5.4 11.095 6.57 23.65 3.36 35.475-.59 2.19-1.32 4.24-2.19 6.28 2.92-.29 5.84-.29 8.76-.14l9.48.59c.29 0 .58.15.73.44.15.3.29.59.15.88l-1.75 9.34c-2.34 12.12-9.06 22.93-18.69 30.37-2.49 1.9-5.11 3.65-7.74 4.97.73.3 1.46.44 2.34.73l8.9 3.07c.29.15.43.29.58.59.15.3.15.59 0 .88l-4.23 8.47c-5.4 11.1-14.6 19.71-25.99 24.38-.73.29-1.61.59-2.48.88l1.75 1.32 7.59 5.7c.29.14.44.44.44.73s-.15.58-.29.73l-6.57 6.71c-8.47 8.76-20 14.16-32.27 15.19H583s0 .15.147.15l5.4 7.74c.146.29.29.59.146.88 0 .3-.29.59-.434.59l-8.32 4.53c-7.3 4.09-15.62 6.13-23.94 6.13-3.95 0-7.74-.43-11.39-1.31-2.34-.58-4.67-1.31-6.72-2.04-.15 0-2.34-1.02-4.38-1.89l7.73 21.02c.14.15.14.29.14.44 0 .58-.44 1.02-1.03 1.02H511.9l2.042 2.77c.144.15.29.44.29.73 0 .58-.438 1.02-1.02 1.02h-.148L480.508 525c-4.233 4.96-8.904 9.34-14.014 12.99l2.19 17.08v.29c0 .584-.434 1.02-1.02 1.02-.14 0-.432 0-.58-.144l-13.73-10.52c-5.693 2.63-11.824 4.527-18.25 5.696l-12.55 30.358c-.444.29-.736.438-1.175.438zm-31.97-38.833c.145 0 .29 0 .437.146 5.99 2.774 12.41 4.818 18.98 5.84.3 0 .59.292.73.584l11.83 28.614 11.83-28.614c.15-.292.44-.584.73-.584 6.72-1.168 13-3.066 18.84-5.84.29-.146.73-.146 1.02.146l12.27 9.49-2.04-15.33c0-.438.15-.73.44-1.022 5.4-3.795 10.22-8.322 14.46-13.43.29-.293.58-.44.88-.293l30.66 4.08-1.89-2.48c-.29-.29-.29-.73-.15-1.02.15-.29.58-.59.88-.59h29.19l-8.17-22.19c-.14-.44 0-.88.29-1.17.3-.29.73-.29 1.17-.15 1.61 1.02 6.43 2.92 6.43 2.92 1.9.73 4.09 1.46 6.42 1.9 3.5.87 7.15 1.31 10.8 1.31 8.03 0 16.06-2.05 23.07-5.99l7.3-3.95-4.82-6.86c-.15-.29-.44-.59-.58-.88-.15-.29-.44-.59-.59-.88-.29-.3-.29-.73-.15-1.03.15-.29.59-.58.88-.58.88 0 1.9 0 2.78-.15 11.83-.88 22.78-6.13 30.95-14.6l5.84-5.99-6.57-4.97c-1.17-.88-2.19-1.61-3.36-2.34-.3-.15-.44-.59-.44-1.02 0-.44.29-.73.73-.88l.58-.15c1.17-.44 2.48-.88 3.65-1.32 10.95-4.53 19.86-12.85 24.97-23.36l3.65-7.45-7.88-2.78c-1.6-.58-3.21-1.02-4.82-1.31-.44-.15-.73-.44-.73-.88s.15-.88.59-1.02c3.51-1.46 6.72-3.51 9.93-5.99 9.34-7.15 15.77-17.52 17.96-29.2l1.61-8.18-8.32-.44c-3.36-.29-6.71-.14-10.07.29-.44 0-.73-.14-.88-.43-.29-.3-.29-.73-.14-1.03 1.17-2.48 2.04-4.97 2.77-7.59 3.21-11.39 2.04-23.51-3.21-34.17l-3.65-7.45-7 4.53c-9.93 6.42-17.08 16.2-20.29 27.59-.87 3.5-1.46 7.002-1.75 10.36 0 .44-.43.88-.87.88l-9.34 1.602H582c-11.825 0-23.505-1.17-34.892-3.36-.29 0-.582-.29-.73-.58-.144-.29-.144-.59 0-.88l4.674-11.1-4.086-3.5c-5.694-4.97-11.68-9.346-17.518-13.43-.292-.296-.584-.73-.438-1.17.145-.44.437-.73.875-.73 19.854-1.02 30.22-5.11 30.366-5.11l2.92-1.17 22.19-52.71-3.94-3.503c-1.17-1.02-2.33-2.19-3.65-3.06-.29-.14-.44-.58-.44-.87 0-.29.29-.585.59-.73L595 257.1c.3-.146.59-.146.88 0l25.41 13.43-4.82-28.32c0-.29 0-.73.29-.877l20.59-20-28.46-4.09c-.29 0-.58-.29-.73-.58l-12.7-25.7-12.7 25.7c-.14.3-.44.44-.73.59l-28.47 4.09 20.59 20c.29.29.29.586.29.88l-3.21 18.39c0 .295-.29.59-.58.73-.29.15-.73.15-1.02-.14-10.07-7.74-20.29-14.6-30.51-20.44-.29-.15-.58-.58-.44-1.02 2.48-23.8 3.21-47.6 3.51-63.51l.15-7.448-7.01-2.92c-4.53-1.897-9.93-3.79-15.91-5.69-.43-.15-.73-.44-.73-.88s.15-.73.59-1.02l22.92-12.11c.29-.14.58-.14.87 0l32.12 16.94-6.13-35.77c0-.29 0-.73.29-.875l25.99-25.26-35.62-4.82c-.29 0-.58-.29-.73-.59l-16.1-32.52-16.06 32.56c-.14.296-.43.44-.73.59l-25.69 3.8c-.29 0-.73-.147-.87-.29-.29-.29-.29-.587-.14-1.02l5.84-17.67c.15-.29.29-.58.73-.58 5.55-1.6 9.49-6.86 9.49-12.7 0-7.3-5.98-13.28-13.28-13.28s-13.33 6-13.33 13.3v1.17c0 .29 0 .58-.29.874l-6.42 6.426c-.14.147-.44.293-.73.293s-.58-.146-.73-.438c-2.48-3.068-5.4-5.84-8.61-8.47-.29-.146-.44-.438-.44-.73v-.29c0-.294.15-.586.29-.73 2.78-2.484 4.38-6.13 4.38-9.78 0-7.3-5.98-13.29-13.28-13.29-6.86 0-12.7 5.4-13.13 12.264 0 .29-.14.58-.44.73-.29.14-.58.29-.87.14-3.21-1.02-6.57-1.75-10.65-2.48l-3.06-.44c-.43 0-.73-.29-.87-.73l-1.75-6.715c-.14-.29 0-.73.29-1.02 3.36-3.068 5.26-7.448 5.26-11.97 0-9.055-7.44-16.5-16.49-16.5-9.05 0-16.5 7.446-16.5 16.497 0 4.524 1.9 8.904 5.26 11.97.29.292.44.584.29 1.022l-1.75 6.715c-.14.44-.44.73-.87.73-4.81.73-9.48 1.755-13.72 2.92-.29.15-.58 0-.87-.144-.29-.144-.43-.436-.43-.73-.43-6.86-6.27-12.26-13.14-12.26-7.3 0-13.28 5.986-13.28 13.286 0 3.65 1.61 7.3 4.38 9.78.15.146.29.44.29.73v.146c0 .292-.14.584-.43.73-3.35 2.63-6.13 5.4-8.61 8.47-.14.29-.44.29-.73.44-.29 0-.58-.147-.73-.29L354 69.9c-.29-.29-.29-.58-.29-.87v-1.17c0-7.3-5.986-13.28-13.285-13.28s-13.3 5.99-13.3 13.29c0 5.84 3.945 11.098 9.49 12.7.29.15.586.296.73.588l5.84 17.665c.148.29 0 .73-.144 1.02-.29.29-.58.44-.88.29l-25.69-3.8c-.29 0-.58-.29-.73-.583l-16.06-32.56-15.91 32.556c-.15.29-.44.43-.73.58l-35.91 5.26 25.84 25.25c.3.29.3.583.3.875l-6.13 35.77 32.11-16.93c.29-.14.59-.14.88 0l22.92 12.12c.3.15.59.59.59 1.02s-.29.73-.73.88c-4.09 1.32-10.22 3.36-15.92 5.7l-.29.15-6.86 2.92.15 7.45c.29 15.92 1.02 39.71 3.5 63.51 0 .44-.15.73-.44 1.02-10.51 5.99-20.87 12.85-30.51 20.44-.29.15-.58.29-1.02.15-.29-.14-.58-.44-.58-.73l-3.21-18.39c0-.29 0-.73.3-.87l20.59-20-28.17-4.38c-.29 0-.58-.29-.73-.58l-12.7-25.69-12.85 25.69c-.14.29-.44.44-.73.59l-28.47 4.09 20.59 20c.3.3.3.59.3.88l-4.84 28.3 25.41-13.43c.3-.15.59-.15.88 0l17.08 9.05c.29.15.44.44.59.73 0 .29-.14.58-.29.88-.58.59-1.16 1.03-1.89 1.61-.58.59-1.17 1.02-1.9 1.61l-3.94 3.5 22.19 52.71 3.07 1.17c.15 0 10.51 3.95 29.93 5.11.44 0 .73.3.88.73.15.44 0 .88-.44 1.17-6.28 4.24-12.12 8.76-17.52 13.43l-4.09 3.51 4.67 11.24c.15.3.15.59 0 .88s-.43.44-.73.59c-11.24 2.19-22.92 3.22-34.45 3.22h-15.2l-9.34-1.6c-.43-.14-.87-.44-.87-.87-.15-3.65-.73-7.15-1.75-10.36-3.22-11.38-10.37-21.17-20.3-27.59l-7.01-4.52-3.65 7.45c-5.254 10.66-6.275 22.63-3.21 34.02.73 2.63 1.606 5.11 2.77 7.59.15.3.15.73-.14 1.03-.29.29-.58.44-.87.44-3.36-.44-6.865-.59-10.077-.29l-8.32.58 1.605 8.18c2.19 11.53 8.61 21.9 17.954 29.2 3.07 2.33 6.42 4.38 9.93 5.98.44.15.58.585.58 1.02 0 .44-.29.73-.73.88-1.75.44-3.36.88-4.82 1.46l-7.88 2.778 3.65 7.44c5.25 10.66 14.16 18.98 24.96 23.36 1.46.586 2.92 1.17 4.23 1.46.44.15.59.44.73.88 0 .436-.14.73-.44 1.02-1.17.73-2.33 1.46-3.36 2.334l-6.71 5.11 5.84 5.985c8.32 8.47 19.27 13.726 30.95 14.6 1.02 0 1.9.15 2.77.15.43 0 .73.14.87.58.14.29.14.73-.15 1.02-.44.585-.73 1.02-1.17 1.607l-4.82 6.86 7.3 3.948c7.004 3.95 15.034 5.99 23.064 5.99 3.8 0 7.45-.44 10.81-1.31 2.19-.58 7.445-2.33 7.445-2.33 1.9-.73 3.8-1.75 5.4-2.63.44-.14.88-.14 1.17.15.29.29.44.73.29 1.17l-8.17 22.19H333c.44 0 .73.15.88.59.15.29.15.73-.145 1.02l-1.753 1.89 30.66-4.08c.294 0 .73.15.88.29 4.23 5.11 9.2 9.64 14.45 13.43.29.15.44.59.44 1.023l-2.05 15.33 12.26-9.346c.42-.15.57-.15.86-.15zm120.88-385.56h-.293c-7.3-2.044-14.89-3.796-22.62-5.402-.44-.146-.87-.438-.87-1.022V136.04l9.05-27.01c.15-.292.44-.584.73-.73.29-.146.73 0 .88.292l18.83 18.25c.29.29.29.583.29.875l-5.11 29.198c0 .292-.14.584-.43.73 0 .146-.29.146-.44.146zm-21.753-7.155c7.16 1.46 14.17 3.212 20.88 4.964l4.82-27.59-17.22-16.79-8.47 25.26v14.16zm-156.21 7.154c-.14 0-.43 0-.58-.14-.29-.14-.44-.44-.44-.73l-5.11-29.2c0-.29 0-.73.29-.87l18.69-18.25c.29-.29.59-.29.88-.29.29.15.59.29.73.73l9.05 27.01v15.33c0 .44-.29.88-.87 1.03-7.73 1.61-15.33 3.36-22.63 5.4.15 0 0 0 0 0zm-4.08-29.78l4.82 27.59c6.72-1.89 13.73-3.5 20.88-4.96v-14.01l-8.47-25.25-17.22 16.65z"/><path fill="#FFB000" d="M621.84 372.835c-2.044 7.446-4.82 14.89-7.738 22.045-3.066 7.153-6.57 14.162-10.365 21.023-7.737 13.43-17.227 26.133-28.76 36.35-11.534 10.366-25.11 18.25-40.003 22.337-14.745 4.088-30.512 4.38-45.695 1.752l-.88 5.11c15.76 2.482 32.26 1.898 47.74-2.628 15.47-4.525 29.63-12.993 41.31-23.797 11.82-10.95 21.17-23.797 28.9-37.666 3.79-6.86 7.3-14.16 10.22-21.46 2.92-7.3 5.54-14.74 7.59-22.48l-2.34-.58z"/><path fill="#FFC923" d="M633.52 334l-14.454 52.266c8.176-5.256 14.307-13.286 17.08-23.358 2.774-10.074 1.607-20.147-2.627-28.907z"/><path fill="#FFDF65" d="M616.292 357.36c-2.774 10.074-1.606 20.147 2.628 28.76l14.453-52.264c-8.03 5.402-14.307 13.577-17.08 23.504z"/><path fill="#FFC923" d="M632.935 427.582l-50.074 20.585c9.06 3.212 19.42 3.212 28.91-.876 9.78-3.79 16.94-11.09 21.17-19.7z"/><path fill="#FFDF65" d="M604.03 428.458c-9.636 3.942-16.936 11.095-21.024 19.855l50.074-20.585c-9.196-3.358-19.416-3.358-29.05.73z"/><path fill="#FFC923" d="M575.123 493.13l-52.703-12.26c5.548 7.883 13.87 13.723 24.088 16.06 10.074 2.48 20.147.875 28.615-3.797z"/><path fill="#FFDF65" d="M551.035 477.072c-10.074-2.336-20.293-.73-28.614 3.942l52.71 12.263c-5.55-8.03-13.87-13.87-24.09-16.205z"/><path fill="#FFC923" d="M584.32 408.75l-17.37 51.24c8.468-4.818 15.183-12.556 18.394-22.336 3.358-9.928 2.628-20.148-1.02-28.907z"/><path fill="#FFDF65" d="M565.925 431.085c-3.358 9.928-2.628 20.147 1.022 28.906l17.373-51.38c-8.32 4.82-15.037 12.56-18.395 22.49z"/><path fill="#FFB000" d="M602.13 374.15l-5.4 53.87c7.007-6.57 11.825-15.62 12.847-25.986 1.168-10.22-1.752-20.002-7.446-27.885z"/><path fill="#FFC923" d="M589.283 400.136c-1.022 10.365 1.898 20.147 7.592 27.885l5.4-53.87c-7.152 6.57-11.97 15.62-12.992 25.99z"/><path fill="#FFB000" d="M558.626 430.355l-27.592 46.57c9.198-2.918 17.373-9.197 22.628-18.102 5.402-8.76 6.862-18.978 4.964-28.468z"/><path fill="#FFC923" d="M535.997 448.458c-5.256 8.905-6.716 19.124-4.964 28.614l27.592-46.57c-9.196 2.92-17.372 9.05-22.628 17.956z"/><path fill="#FFB000" d="M609.14 465.83l-54.017 4.09c7.592 5.84 17.373 9.05 27.738 8.175 10.51-.73 19.57-5.403 26.28-12.264z"/><path fill="#FFC923" d="M581.4 457.656c-10.365.876-19.563 5.4-26.133 12.263l54.016-4.09c-7.88-5.84-17.518-9.05-27.883-8.18z"/><path fill="#FFB000" d="M651.038 380.864l-42.92 32.994c9.634.73 19.416-2.043 27.737-8.322 8.322-6.276 13.43-15.182 15.183-24.672z"/><path fill="#FFC923" d="M623.3 389.186c-8.322 6.277-13.43 15.183-15.183 24.673l42.92-33c-9.635-.59-19.416 2.04-27.737 8.32z"/><path fill="#FFB000" d="M220.658 372.835c2.043 7.446 4.818 14.89 7.737 22.045 3.066 7.153 6.57 14.162 10.365 21.023 7.737 13.43 17.227 26.133 28.76 36.35 11.534 10.366 25.11 18.25 40.003 22.337 14.745 4.088 30.512 4.38 45.695 1.752l.876 5.11c-15.767 2.482-32.264 1.898-47.74-2.628-15.474-4.525-29.635-12.993-41.314-23.797-11.825-10.95-21.17-23.797-28.906-37.666-3.795-6.86-7.3-14.16-10.22-21.46-2.918-7.3-5.546-14.74-7.59-22.48l2.334-.58z"/><path fill="#FFC923" d="M209.125 334l14.453 52.266c-8.176-5.256-14.307-13.286-17.08-23.358-2.775-10.074-1.607-20.147 2.627-28.907z"/><path fill="#FFDF65" d="M226.352 357.36c2.774 10.074 1.606 20.147-2.628 28.76l-14.453-52.264c8.03 5.402 14.17 13.577 17.09 23.504z"/><path fill="#FFC923" d="M209.563 427.582l50.074 20.585c-9.052 3.212-19.417 3.212-28.906-.876-9.63-3.79-16.93-11.09-21.16-19.7z"/><path fill="#FFDF65" d="M238.615 428.458c9.635 3.942 16.935 11.095 21.023 19.855l-50.074-20.73c9.05-3.213 19.416-3.213 29.05.875z"/><path fill="#FFC923" d="M267.375 493.13l52.703-12.262c-5.547 7.883-13.87 13.723-24.088 16.06-10.075 2.48-20.148.875-28.615-3.797z"/><path fill="#FFDF65" d="M291.464 477.072c10.074-2.336 20.293-.73 28.76 3.942l-52.848 12.263c5.692-8.03 14.014-13.87 24.088-16.205z"/><path fill="#FFC923" d="M258.324 408.75l17.373 51.388c-8.468-4.818-15.183-12.556-18.395-22.336-3.504-10.074-2.774-20.294 1.022-29.053z"/><path fill="#FFDF65" d="M276.718 431.085c3.358 9.928 2.628 20.147-1.022 28.906l-17.373-51.38c8.322 4.82 15.038 12.56 18.395 22.49z"/><path fill="#FFB000" d="M240.367 374.15l5.4 53.87c-7.006-6.57-11.824-15.62-12.846-25.986-1.02-10.22 1.9-20.002 7.45-27.885z"/><path fill="#FFC923" d="M253.36 400.136c1.022 10.365-1.898 20.147-7.592 27.885l-5.4-53.87c7.152 6.57 11.97 15.62 12.992 25.99z"/><path fill="#FFB000" d="M284.018 430.355l27.592 46.57c-9.198-2.918-17.373-9.197-22.628-18.102-5.403-8.76-6.862-18.978-4.964-28.468z"/><path fill="#FFC923" d="M306.646 448.458c5.256 8.905 6.716 19.124 4.964 28.614l-27.592-46.57c9.198 2.92 17.227 9.05 22.628 17.956z"/><path fill="#FFB000" d="M233.505 465.83l54.016 4.09c-7.59 5.84-17.37 9.05-27.73 8.175-10.51-.73-19.71-5.403-26.28-12.264z"/><path fill="#FFC923" d="M261.243 457.656c10.365.876 19.563 5.4 26.133 12.263l-54.016-4.09c7.737-5.84 17.518-9.05 27.883-8.18z"/><path fill="#FFB000" d="M191.46 380.864l42.92 32.994c-9.634.73-19.416-2.043-27.737-8.322-8.176-6.276-13.285-15.182-15.183-24.672z"/><path fill="#FFC923" d="M219.198 389.186c8.322 6.277 13.43 15.183 15.183 24.673l-42.92-33c9.64-.59 19.57 2.04 27.74 8.32z"/><path fill="#DC3F16" d="M582.715 375.755c-30.366 0-60.148-7.007-86.864-20.293l-20.58 50.074c26.72 13.43 56.5 20.44 86.87 20.293-2.04-8.33-3.94-16.94-5.84-25.7 8.76-7.89 17.52-16.06 26.43-24.38z"/><path fill="#931700" d="M518.04 356.776c-13.43 0-22.19-1.314-22.19-1.314l-20.586 50.074s8.468 2.19 23.65 1.752c15.184-.438 22.922-3.504 22.922-3.504l20.585-49.053c0-.14-10.8 1.9-24.38 2.05z"/><path fill="#DC3F16" d="M259.93 375.755c30.366 0 60.148-7.007 86.864-20.293l20.585 50.074c-26.72 13.43-56.36 20.44-86.87 20.293 2.04-8.33 3.94-16.94 5.84-25.7-8.76-7.89-17.52-16.06-26.43-24.38z"/><path fill="#931700" d="M324.603 356.776c13.43 0 22.19-1.314 22.19-1.314l20.586 50.074s-8.47 2.19-23.66 1.752c-15.19-.438-23.36-3.504-23.36-3.504l-20.59-49.198s11.09 2.044 24.82 2.19z"/><path fill="#FF5418" d="M420.957 309.62c-44.235-.145-88.178 16.643-121.318 45.112l20.58 49.053c26.86-25.257 63.65-40.148 100.73-39.856 37.08-.15 73.87 14.74 100.73 39.85l20.58-49.06c-33-28.62-76.94-45.26-121.32-45.11z"/><path fill="#931700" d="M494.828 324.22s11.533 2.92 31.972 2.336c20.44-.73 31.096-4.818 31.096-4.818-14.307-13.43-30.658-24.673-48.322-33.432l-14.746 35.914zm-178.4 2.336c20.44.73 31.972-2.336 31.972-2.336l-14.89-36.06c-17.812 8.76-34.455 20.147-48.908 33.723.146-.145 11.387 4.09 31.826 4.673z"/><path fill="#FF5418" d="M421.25 217.063c-56.645-.292-112.852 21.9-155.48 59.856l18.832 44.96c14.453-13.58 30.95-24.97 48.907-33.73 27.15-13.29 57.37-20.59 87.74-20.44 30.51-.15 60.87 7.3 88.32 20.73 17.66 8.76 34.01 20 48.32 33.43l18.83-44.97c-42.63-37.96-98.84-60.15-155.48-59.86z"/><path fill="#FFC923" d="M421.25 153.12c-63.507 0-109.64 19.27-111.537 20l-2.19.875v2.482c1.752 92.996 11.825 188.765 111.975 247.015l1.752 1.022 1.752-1.022c100.004-58.25 110.077-153.874 111.975-247.015v-2.482l-2.19-.876c-1.9-.88-47.886-20-111.538-20z"/><path fill="#EE8610" d="M421.25 414.442c-42.192-25.256-70.368-59.418-86.427-104.383-14.453-40.74-17.665-86.58-18.54-130.23 11.386-4.24 51.68-18.11 104.967-18.11s93.725 13.72 104.968 18.1c-.876 43.65-4.088 89.49-18.54 130.22-15.915 45.11-44.237 79.12-86.43 104.38z"/><path fill="#186E73" d="M361.83 340.717c14.454 24.088 34.163 43.943 59.42 60.148 36.497-23.358 61.315-54.455 75.622-94.6 13.286-37.082 16.497-78.398 17.665-118.107L361.83 340.718z"/><path fill="#2B9FA5" d="M514.537 188.01c-16.35-5.4-50.513-14.598-93.288-14.598s-76.8 9.198-93.29 14.6c1.17 39.708 4.38 81.17 17.66 118.25 4.38 12.41 9.78 23.798 16.2 34.455L514.53 188.01z"/><path fill="#EE8610" d="M442.855 253.707l-.73-.438 30.805-12.41 8.613 3.65-24.38 17.51"/><path fill="#FFB000" d="M441.833 253.27l27.155-17.082 9.343 3.942-25.84 19.563"/><path fill="#EE8610" d="M439.498 252.247l26.424-20.293 8.76 3.796-27.446 21.022"/><path fill="#FFB000" d="M437.454 252.247l27.884-27.885 5.693 6.862-29.05 23.65"/><path fill="#FFC923" d="M435.993 246.846l.44.73 12.408-30.805-3.65-8.61-17.51 24.24"/><path fill="#FFDF65" d="M436.432 247.867l17.08-27.3-3.94-9.198-19.564 25.69"/><path fill="#FFC923" d="M437.454 250.35l20.293-26.57-3.797-8.76-21.022 27.3"/><path fill="#FFDF65" d="M437.454 252.247l27.884-27.885-6.86-5.838-23.652 29.198"/><path fill="#EE8610" d="M406.65 289.913l-.438-.73-12.41 30.803 3.65 8.614 17.52-24.234"/><path fill="#FFB000" d="M406.212 288.89l-17.227 27.3 4.087 9.198 19.563-25.84"/><path fill="#EE8610" d="M405.19 286.41l-20.293 26.57 3.796 8.758 21.023-27.3"/><path fill="#FFB000" d="M405.044 284.51l-27.884 27.885 7.007 5.694 23.65-29.06"/><path fill="#FFC923" d="M399.788 283.05l.73.438-30.804 12.41-8.76-3.65 24.38-17.52"/><path fill="#FFDF65" d="M400.81 283.488l-27.3 17.08-9.197-3.94 25.694-19.563"/><path fill="#FFC923" d="M403.146 284.51l-26.424 20.293-8.76-3.795 27.3-21.023"/><path fill="#FFDF65" d="M405.044 284.51l-27.884 27.885-5.694-6.862 29.198-23.65"/><path fill="#EE8610" d="M435.993 289.913l.44-.73 12.408 30.803-3.65 8.614-17.51-24.234"/><path fill="#FFB000" d="M436.432 288.89l17.08 27.3-3.94 9.198-19.564-25.84"/><path fill="#EE8610" d="M437.454 286.41l20.293 26.57-3.797 8.758-21.022-27.3"/><path fill="#FFB000" d="M437.454 284.51l27.884 27.885-6.86 5.694-23.652-29.06"/><path fill="#FFC923" d="M442.855 283.05l-.73.438 30.805 12.41 8.613-3.65-24.38-17.52"/><path fill="#FFDF65" d="M441.833 283.488l27.155 17.08 9.343-3.94-25.84-19.563"/><path fill="#FFC923" d="M439.35 284.51l26.572 20.293 8.76-3.795-27.446-21.023"/><path fill="#FFDF65" d="M437.454 284.51l27.884 27.885 5.693-6.862-29.05-23.65"/><path fill="#EE8610" d="M399.788 253.707l.73-.438-30.804-12.41-8.76 3.65 24.38 17.51"/><path fill="#FFB000" d="M400.81 253.27l-27.3-17.082-9.197 3.942 25.694 19.563"/><path fill="#EE8610" d="M403.146 252.247l-26.424-20.293-8.76 3.796 27.3 21.022"/><path fill="#FFB000" d="M405.044 252.247l-27.884-27.885-5.694 6.862 29.198 23.65"/><path fill="#FFC923" d="M406.65 246.846l-.438.73-12.41-30.805 3.65-8.61 17.52 24.24"/><path fill="#FFDF65" d="M406.212 247.867l-17.227-27.3 4.087-9.198 19.563 25.69"/><path fill="#FFC923" d="M405.19 250.35l-20.293-26.57 3.796-8.76 21.023 27.3"/><path fill="#FFDF65" d="M405.044 252.247l-27.884-27.885 7.007-5.838 23.65 29.198"/><path fill="#FFC923" d="M448.55 203.194l-5.257-9.198s-9.49 3.65-21.9 3.65-21.898-3.65-21.898-3.65l-5.256 9.198 27.15 47.155 27.15-47.16z"/><path fill="#FF7938" d="M421.25 201.588c-8.76 0-16.06-1.752-20.148-2.774l-2.482 4.234 10.95 19.124 21.168-21.17c-2.628.44-5.986.586-9.49.586z"/><path fill="#FF5418" d="M443.878 203.194l-2.482-4.234c-2.482.73-5.986 1.606-10.365 2.19l-21.16 21.17 11.54 20 22.49-39.126z"/><path fill="#FFC923" d="M394.095 333.564l5.256 9.198s9.49-3.65 21.9-3.65c12.56 0 21.9 3.65 21.9 3.65l5.26-9.198-27.15-47.155-27.15 47.15z"/><path fill="#FF7938" d="M421.25 294.438l-22.63 38.98 2.483 4.234c2.043-.584 5.11-1.314 8.613-1.898l22.336-22.336-10.803-18.98z"/><path fill="#FF5418" d="M432.344 313.563L410.008 335.9c3.358-.585 7.153-.877 11.387-.877 8.76 0 16.06 1.752 20.147 2.774l2.482-4.234-11.68-20z"/><path fill="#FFC923" d="M356.137 241.152l-9.198 5.256s3.65 9.49 3.65 21.9c0 12.408-3.65 21.898-3.65 21.898l9.19 5.256 47.15-27.155-47.16-27.155z"/><path fill="#FF7938" d="M356.137 245.823l-4.234 2.482c1.168 4.088 2.774 11.387 2.774 20.147 0 4.818-.584 9.198-1.168 12.847l23.5-23.51-20.88-11.97z"/><path fill="#FF5418" d="M376.867 257.794l-23.504 23.504c-.584 2.92-1.168 5.4-1.752 7.153l4.24 2.49 39.13-22.63-18.1-10.51z"/><path fill="#FFC923" d="M486.506 295.607l9.198-5.256s-3.65-9.48-3.65-21.89c0-12.55 3.65-21.9 3.65-21.9l-9.198-5.25-47.155 27.01 47.16 27.3z"/><path fill="#FF7938" d="M490.887 248.305l-4.234-2.482-39.126 22.628 20.147 11.68 21.023-21.02c.584-4.67 1.46-8.32 2.19-10.8z"/><path fill="#FF5418" d="M488.55 258.963l-21.022 21.023 18.98 10.95 4.233-2.483c-1.16-4.088-2.77-11.387-2.77-20.147 0-3.358.29-6.57.59-9.343z"/><path fill="#FFDF65" d="M421.25 307.724c-21.753 0-39.418-17.665-39.418-39.417 0-21.752 17.665-39.417 39.417-39.417s39.41 17.665 39.41 39.417c0 21.75-17.67 39.417-39.42 39.417z"/><circle cx="421.249" cy="268.306" r="35.475" fill="#FFC923"/><path fill="#931700" d="M398.912 290.643c5.694 5.694 13.577 9.343 22.336 9.343 17.373 0 31.534-14.162 31.534-31.534 0-8.76-3.504-16.642-9.343-22.336l-44.53 44.527z"/><path fill="#DC3F16" d="M421.25 236.772c-17.374 0-31.535 14.162-31.535 31.534 0 8.76 3.504 16.642 9.343 22.336l44.673-44.673c-5.83-5.55-13.72-9.2-22.48-9.2z"/><path fill="#FFDF65" d="M579.648 106.694l-25.4-3.795-11.39 15.76"/><path fill="#FFB000" d="M542.86 118.666l11.387-15.767-11.387-22.93"/><path fill="#FFC923" d="M542.86 118.666l18.394 5.985 18.394-17.95"/><path fill="#FFDF65" d="M542.86 138.083l22.774 11.97-22.775-31.387"/><path fill="#FFB000" d="M542.86 118.666l22.774 31.388-4.38-25.403m-41.17 25.41l22.775-11.97v-19.42"/><path fill="#FFDF65" d="M531.472 102.9l-25.55 3.794 36.937 11.972"/><path fill="#FFC923" d="M542.86 118.666V79.978l-11.388 22.92m11.388 15.768l-36.937-11.972 18.54 17.957"/><path fill="#FFDF65" d="M542.86 118.666l-18.396 5.985-4.38 25.41m-183.51-43.36l-25.402-3.79-11.388 15.77"/><path fill="#FFB000" d="M299.784 118.666l11.388-15.767-11.388-22.93"/><path fill="#FFC923" d="M299.784 118.666l18.396 5.985 18.394-17.95"/><path fill="#FFDF65" d="M299.784 138.083l22.775 11.97-22.78-31.387"/><path fill="#FFB000" d="M299.784 118.666l22.775 31.388-4.38-25.403m-41.17 25.41l22.77-11.97v-19.42"/><path fill="#FFDF65" d="M288.397 102.9l-25.548 3.794 36.93 11.972"/><path fill="#FFC923" d="M299.784 118.666V79.978l-11.387 22.92m11.387 15.768l-36.935-11.972 18.54 17.957"/><path fill="#FFDF65" d="M299.784 118.666l-18.394 5.985-4.38 25.41m344.684 76.79l-17.81-2.62-8.176 11.1"/><path fill="#FFB000" d="M595.708 235.312l8.175-11.095-8.175-16.35"/><path fill="#FFC923" d="M595.708 235.312l12.993 4.234 13-12.702"/><path fill="#FFDF65" d="M595.708 248.89l16.06 8.467-16.06-22.045"/><path fill="#FFB000" d="M595.708 235.312l16.06 22.045-3.067-17.81m-29.05 17.81l16.06-8.468v-13.58"/><path fill="#FFDF65" d="M587.678 224.217l-17.956 2.627 25.986 8.468"/><path fill="#FFC923" d="M595.708 235.312v-27.446l-8.03 16.35m8.03 11.096l-25.986-8.468 13.138 12.702"/><path fill="#FFDF65" d="M595.708 235.312l-12.848 4.234-3.212 17.81m-306.87-30.512l-17.958-2.627-8.03 11.095"/><path fill="#FFB000" d="M246.79 235.312l8.03-11.095-8.03-16.35"/><path fill="#FFC923" d="M246.79 235.312l12.994 4.234 12.993-12.702"/><path fill="#FFDF65" d="M246.79 248.89l16.06 8.467-16.06-22.045"/><path fill="#FFB000" d="M246.79 235.312l16.06 22.045-3.066-17.81"/><path fill="#FFB000" d="M230.732 257.357l16.06-8.468v-13.58"/><path fill="#FFDF65" d="M238.76 224.217l-17.956 2.627 25.987 8.468"/><path fill="#FFC923" d="M246.79 235.312v-27.446l-8.03 16.35m8.03 11.096l-25.986-8.468 12.993 12.702"/><path fill="#FFDF65" d="M246.79 235.312l-12.993 4.234-3.065 17.81"/><path fill="#FF5418" d="M421.25 59.394c-33.433 0-60.587 17.81-60.587 39.856 0 9.343 4.818 17.81 12.847 24.527l63.068-63.068c-4.817-.88-9.927-1.32-15.33-1.32z"/><path fill="#DC3F16" d="M436.724 60.707l-63.068 63.068c11.095 9.343 28.322 15.183 47.593 15.183 33.43 0 60.58-17.81 60.58-39.856 0-18.394-19.13-34.015-45.11-38.395z"/><path fill="#FFC923" d="M466.944 101.73L464.9 75.453l-1.606-20.438-24.964 43.943-17.08-66.718-17.082 66.717-24.82-43.943-3.648 46.717-35.184-35.03 22.775 68.18h115.92l22.78-68.18"/><path fill="#FFDF65" d="M463.294 55.014L438.33 98.957 421.25 32.24l-17.082 66.717-24.82-43.943-3.648 46.717-35.184-35.03 22.775 68.18h42.2l59.42-59.42"/><path fill="#EE8610" d="M363.29 134.87h115.917v10.512H363.29z"/><circle cx="421.249" cy="32.239" r="9.052" fill="#EE8610"/><path fill="#EE8610" d="M385.335 56.036c0 3.212-2.628 5.84-5.84 5.84-3.212 0-5.84-2.628-5.84-5.84s2.628-5.84 5.84-5.84 5.84 2.628 5.84 5.84zm-38.98 11.534c0 3.21-2.627 5.84-5.84 5.84s-5.84-2.63-5.84-5.84c0-3.213 2.63-5.84 5.84-5.84 3.213 0 5.84 2.628 5.84 5.84z"/><circle cx="463.148" cy="56.036" r="5.84" fill="#EE8610"/><path fill="#EE8610" d="M496.142 67.57c0 3.21 2.628 5.84 5.84 5.84 3.212 0 5.84-2.63 5.84-5.84 0-3.213-2.628-5.84-5.84-5.84-3.212 0-5.84 2.628-5.84 5.84z"/><circle cx="421.249" cy="113.41" r="14.453" fill="#EE8610"/><path fill="#44CDD0" d="M421.25 102.46c-5.987 0-10.95 4.965-10.95 10.95 0 2.92 1.168 5.694 3.066 7.592l15.475-15.475c-1.89-1.9-4.52-3.066-7.59-3.066z"/><path fill="#2B9FA5" d="M428.84 105.527l-15.475 15.475c2.043 2.043 4.818 3.358 7.737 3.358 5.986 0 10.95-4.964 10.95-10.95.146-3.066-1.02-5.84-3.212-7.883z"/><circle cx="455.119" cy="117.205" r="10.657" fill="#EE8610"/><path fill="#44CDD0" d="M455.12 109.906c-4.09 0-7.3 3.358-7.3 7.3 0 1.898.875 3.795 2.042 5.11l10.22-10.22c-1.168-1.46-3.065-2.19-4.963-2.19z"/><path fill="#2B9FA5" d="M460.23 111.95l-10.22 10.22c1.314 1.313 3.212 2.19 5.256 2.19 4.088 0 7.3-3.36 7.3-7.3-.294-1.898-1.024-3.796-2.337-5.11z"/><circle cx="387.525" cy="117.205" r="10.657" fill="#EE8610"/><path fill="#44CDD0" d="M387.525 109.906c-4.088 0-7.3 3.358-7.3 7.3 0 1.898.876 3.795 2.043 5.11l10.22-10.22c-1.167-1.46-2.92-2.19-4.963-2.19z"/><path fill="#2B9FA5" d="M392.635 111.95l-10.22 10.22c1.315 1.313 3.213 2.19 5.257 2.19 4.088 0 7.3-3.36 7.3-7.3-.148-1.898-1.024-3.796-2.337-5.11z"/><path fill="#186E73" d="M429.862 491.233H323.144l-8.76 24.235H429.86"/><path fill="#44CDD0" d="M429.862 443.057h-115.48l8.762 24.088h106.718"/><path fill="#2B9FA5" d="M429.862 467.145H323.144l4.525 12.117-4.53 11.97h106.72"/><path fill="#186E73" d="M412.78 491.233h106.575l8.76 24.235H412.78"/><path fill="#44CDD0" d="M412.78 443.057h115.334l-8.76 24.088H412.782"/><path fill="#2B9FA5" d="M412.78 467.145h106.575l-4.38 12.117 4.38 11.97H412.78"/><path fill="#FFDF65" d="M488.988 475.32c0 37.374-30.366 67.594-67.594 67.594S353.8 512.547 353.8 475.32c0-37.374 30.366-67.594 67.594-67.594 37.374-.146 67.594 30.075 67.594 67.594z"/><circle cx="421.249" cy="475.32" r="63.068" fill="#EE8610"/><path fill="#FFDF65" d="M461.688 475.32l32.264-42.045-52.41 6.862-20.293-48.907-20.3 48.907-52.41-6.862 32.26 42.045-32.27 42.045 52.41-6.862 20.29 48.907 20.29-48.907 52.41 6.862-32.27-42.045zm-24.526 27.593h-31.827l-8.03-13.723-7.882-13.87 8.03-13.722 8.028-13.723h31.83l8.03 13.723 8.03 13.723-8.03 13.73-8.17 13.87z"/><path fill="#FFB000" d="M389.423 481.014l-33.14-43.213 43.65 25.11"/><path fill="#FFC923" d="M399.934 462.91l-43.65-25.11 54.015 7.01"/><path fill="#FFB000" d="M432.198 505.687l54.162 7.153-43.65-25.256"/><path fill="#FFC923" d="M442.71 487.584l43.65 25.256-33.286-43.213"/><path fill="#FFB000" d="M410.3 505.687l-54.017 7.153 43.65-25.256"/><path fill="#FFC923" d="M399.934 487.584l-43.65 25.256 33.14-43.213"/><path fill="#FFB000" d="M453.074 481.014L486.36 437.8l-43.65 25.11"/><path fill="#FFC923" d="M442.71 462.91l43.65-25.11-54.162 7.01"/><path fill="#FFB000" d="M442.126 450.502l-20.877-50.366v50.366"/><path fill="#FFC923" d="M421.25 450.502v-50.366l-20.732 50.366"/><path fill="#FFB000" d="M442.126 499.993L421.25 550.36v-50.367"/><path fill="#FFC923" d="M421.25 499.993v50.366l-20.732-50.37"/><path fill="#FFB000" d="M450.592 492.255l41.023-16.935-41.023-16.935 5.84-43.943-35.184 27.01-35.184-27.01 5.84 43.943-41.023 16.935 41.03 16.935-5.84 43.943 35.19-27.008 35.19 27.008-5.84-43.943zm-29.343 9.782l-11.54-6.716-11.54-6.71v-26.86l11.53-6.71 11.53-6.71 11.53 6.72 11.53 6.72v26.72l-11.53 6.72-11.53 6.86z"/><path fill="#FFC923" d="M401.102 492.4l-41.17-17.08h41.17"/><path fill="#FFDF65" d="M401.102 475.32h-41.17l41.17-17.08"/><path fill="#FFC923" d="M441.542 492.4l41.17-17.08h-41.17"/><path fill="#FFDF65" d="M441.542 475.32h41.17l-41.17-17.08"/><path fill="#FFC923" d="M425.92 501.307l-35.33 27.153 20.585-35.766"/><path fill="#FFDF65" d="M411.175 492.694L390.59 528.46l5.84-44.234"/><path fill="#FFC923" d="M446.213 466.415l5.84-44.236-20.73 35.62"/><path fill="#FFDF65" d="M431.322 457.802l20.73-35.623-35.33 27.15"/><path fill="#FFC923" d="M425.92 449.334l-35.33-27.155 20.585 35.62"/><path fill="#FFDF65" d="M411.175 457.802L390.59 422.18l5.84 44.235"/><path fill="#FFC923" d="M446.213 484.226l5.84 44.234-20.73-35.766"/><path fill="#FFDF65" d="M431.322 492.694l20.73 35.766-35.33-27.153"/><circle cx="421.249" cy="475.32" r="38.541" fill="#FFC923"/><circle cx="421.249" cy="475.32" r="33.723" fill="#EE8610"/><path fill="#FFDF65" d="M421.25 445.83c-16.206 0-29.345 13.14-29.345 29.344 0 8.03 3.212 15.183 8.322 20.44l41.46-41.462c-5.255-5.11-12.408-8.322-20.438-8.322z"/><path fill="#FFC923" d="M441.833 454.298l-41.46 41.46c5.4 5.548 12.846 8.906 21.022 8.906 16.205 0 29.49-13.14 29.49-29.344-.146-8.32-3.65-15.767-9.052-21.022z"/>
</symbol>

<symbol id="lottery-ticket" viewBox="7.5 5.5 953 818"><path fill="#00ADEE" d="M55.845 110.498h21.863v78.25h38.58v17.71H55.846v-95.96zM210.17 157.39c0 31.26-18.795 50.056-46.89 50.056s-44.814-21.863-44.814-49.068c0-29.183 18.796-50.057 46.89-50.057 29.184.1 44.815 21.97 44.815 49.07zm-68.853 1.087c0 18.796 8.31 32.35 24.04 32.35 14.64 0 22.95-13.554 22.95-32.35 0-17.708-8.31-32.35-22.95-32.35-15.63 0-24.04 13.554-24.04 32.35zm98.037-30.27h-26.117v-17.71h74.096v17.71h-26.117v77.162h-21.863V128.2zm81.416 0h-26.116v-17.71h74.096v17.71h-26.117v77.162H320.77V128.2zM437.603 165.7h-35.416v22.95h39.67v17.708h-61.533v-95.96h59.455v17.71h-37.6v19.784h35.42V165.7zm18.797-54.213c7.32-1.088 17.707-2.077 29.182-2.077 14.64 0 24.04 2.077 31.26 7.32 6.233 4.156 8.31 11.477 8.31 19.786 0 12.564-8.31 20.874-16.718 24.04 6.232 3.165 10.387 9.397 12.564 17.707 3.166 10.387 6.232 24.04 7.32 27.106h-21.862c-1.088-3.17-4.155-10.39-6.232-21.87s-6.232-14.64-15.63-15.63h-6.232v37.59H456.5l-.1-93.98zm20.774 40.66h8.31c10.387 0 17.708-5.244 17.708-13.554s-6.232-13.553-15.63-13.553c-5.243 0-8.31 0-9.398 1.088l-.99 26.018zm82.406 54.31v-39.67l-30.272-56.29h25.03l9.397 22.952c3.166 7.32 5.243 11.47 7.32 18.79 2.078-6.23 4.156-11.48 7.322-18.8l9.398-22.95h24.04l-31.262 56.29v39.67H559.58zm-505.813 79.24h22.95v52.134h-22.95zm0 69.843h22.95v52.134h-22.95zm0 70.93h22.95v52.134h-22.95zm0 70.93h22.95v52.135h-22.95zm0 70.93h22.95v52.135h-22.95zm0 70.932h22.95v52.134h-22.95zm0 70.93h22.95v52.134h-22.95zm34.427-424.495v37.592H804.82v189.84h74.096V285.69H88.194zm151.16 93.882H281.1v-42.74h-41.746v42.73zm6.33-36.51h30.273v30.27h-30.272v-30.27zm63.61 36.5h42.737v-42.73H309.3v42.73zm6.234-36.51H345.8v30.27h-30.272v-30.27zm-146.016 36.51h42.736v-42.73h-42.736v42.73zm6.232-36.51h30.272v30.27h-30.272v-30.27zM99.67 379.58h41.746v-42.737H99.67v42.736zm6.232-36.505h30.272v30.272h-30.272v-30.272zm273.236 36.504h42.736v-42.74h-42.736v42.73zm5.243-36.51h30.28v30.27h-30.28v-30.27zm133.56 36.5h41.75v-42.73h-41.75v42.73zm6.23-36.51h30.27v30.27h-30.27v-30.27zm133.55 36.5h42.74v-42.73h-42.74v42.73zm6.23-36.51h30.27v30.27h-30.27v-30.27zm-76.17 36.5h41.75v-42.73h-41.75v42.73zm6.24-36.51h30.27v30.27h-30.27v-30.26zM448 379.57h41.747v-42.73h-41.75v42.735zm6.33-36.506h30.27v30.27h-30.28v-30.27zm273.237 36.503h41.748v-42.74h-41.75v42.733zm6.233-36.51h30.27v30.272H733.8v-30.27zm-146.02 97.05h41.747v-42.73h-41.74v42.735zm6.233-36.603h30.273v30.27H594v-30.27zm63.71 36.603h42.736V397.37h-42.74v42.737zm6.23-36.603h30.274v30.27H663.95v-30.27zM99.67 440.12h41.746v-42.736H99.67v42.736zm6.232-36.603h30.272v30.27h-30.272v-30.27zm63.61 36.602h42.736v-42.74h-42.736v42.73zm6.232-36.61h30.272v30.27h-30.272v-30.27zm551.814 36.6h41.747v-42.73h-41.747v42.73zm6.232-36.61h30.272v30.27H733.79V403.5zm-215.858 36.61h41.747v-42.73h-41.75v42.73zm6.232-36.61h30.272v30.27h-30.272V403.5zm-145.026 36.61h42.736v-42.73h-42.736v42.73zm5.243-36.61h30.28v30.27h-30.28V403.5zm-75.08 36.61h42.74v-42.74H309.3v42.73zm6.24-36.61h30.27v30.27h-30.27V403.5zM448 440.11h41.75v-42.73H448v42.737zm6.332-36.604h30.27v30.27H454.33v-30.27zm-214.97 36.61h41.74v-42.74h-41.746v42.735zm6.33-36.605h30.273v30.27h-30.27v-30.27zM448 500.56h41.75v-41.74H448v41.746zm6.334-36.505h30.27v30.27h-30.27v-30.27zm-354.66 36.5h41.74v-41.74H99.67v41.74zm6.23-36.51h30.27v30.27H105.9v-30.27zm481.87 36.5h41.74v-41.74h-41.74v41.743zm6.23-36.5h30.27v30.272H594v-30.27zm133.55 36.504h41.75v-41.74h-41.75v41.74zm6.23-36.51h30.27v30.27h-30.27v-30.27zm-494.43 36.51h41.75v-41.74H239.36v41.74zm6.33-36.51h30.275v30.27h-30.28v-30.27zm133.456 36.51h42.736v-41.74h-42.73v41.74zm5.243-36.51h30.28v30.27h-30.28v-30.27zm273.34 36.5h42.74V458.8h-42.74v41.746zm6.23-36.5h30.27v30.27h-30.27v-30.27zm-146.01 36.51h41.746V458.8h-41.75v41.744zm6.23-36.51h30.27v30.27h-30.27v-30.28zM309.3 500.57h42.736v-41.75H309.3v41.75zm6.233-36.5h30.27v30.273H315.53v-30.28zm-146.02 36.5h42.737v-41.75h-42.74v41.747zm6.233-36.505h30.272v30.273h-30.272V464.06zm-87.55 69.844v37.59H804.82v189.84h74.096V533.91H88.194zm151.16 93.88H281.1v-41.65h-41.746v41.64zm6.33-35.42h30.272v30.27h-30.272v-30.27zm63.61 35.41h42.736v-41.65h-42.734v41.64zm6.233-35.42h30.27v30.27h-30.28v-30.27zm-146.02 35.41h42.73v-41.64h-42.73v41.64zm6.23-35.42h30.27v30.27h-30.27v-30.27zm-76.07 35.42h41.74v-41.64H99.67v41.64zm6.23-35.42h30.27v30.27H105.9v-30.27zm273.23 35.41h42.73v-41.64h-42.73v41.64zm5.24-35.42h30.28v30.27h-30.28v-30.27zm133.56 35.41h41.74v-41.64h-41.75v41.64zm6.23-35.42h30.27v30.27h-30.27v-30.27zm133.55 35.41h42.73V586.1H657.7v41.647zm6.23-35.42h30.27v30.27h-30.27v-30.27zm-76.18 35.42h41.74V586.1h-41.74v41.646zm6.24-35.4h30.27v30.27H594v-30.27zm-146.01 35.43h41.74v-41.64h-41.74v41.64zm6.33-35.42h30.27v30.27h-30.27v-30.26zm273.23 35.413h41.75v-41.64h-41.75v41.65zm6.23-35.41h30.27v30.27h-30.27v-30.27zm-146.02 95.96h41.74v-41.75h-41.74v41.75zm6.23-36.5h30.27v30.27H594v-30.28zm63.71 36.51h42.73v-41.75H657.7v41.75zm6.23-36.51h30.27v30.27h-30.27v-30.27zm-564.27 36.5h41.74v-41.75H99.67v41.75zm6.23-36.5h30.27v30.27H105.9v-30.27zm63.61 36.51h42.73v-41.75H169.5v41.74zm6.23-36.51H206v30.27h-30.27v-30.27zm551.81 36.5h41.75v-41.74h-41.75v41.74zm6.23-36.51h30.27v30.27h-30.27v-30.27zm-215.86 36.51h41.75v-41.75h-41.75v41.747zm6.23-36.51h30.27v30.28h-30.27v-30.27zm-145.02 36.52h42.73v-41.75h-42.73v41.75zm5.24-36.5h30.28v30.27h-30.28v-30.27zm-75.08 36.51h42.74v-41.75H309.3v41.744zm6.24-36.51h30.27v30.27h-30.27v-30.27zm132.46 36.505h41.75v-41.75h-41.75v41.746zm6.33-36.505h30.27v30.27h-30.27v-30.27zm-214.97 36.51h41.74v-41.75h-41.74v41.75zm6.33-36.5h30.27v30.27h-30.27v-30.27zM448 748.765h41.75V706.03H448v42.737zm6.335-36.505h30.27v30.27h-30.27v-30.27zM99.67 748.78h41.746v-42.74H99.67v42.735zm6.232-36.503h30.272v30.27h-30.272v-30.27zm481.872 36.5h41.747v-42.74h-41.74v42.736zm6.233-36.507h30.272v30.27H594v-30.27zm133.55 36.503h41.748v-42.74h-41.747v42.738zm6.233-36.504h30.272v30.27H733.79v-30.27zm-494.436 36.51H281.1v-42.74h-41.746v42.73zm6.33-36.51h30.273v30.27h-30.272v-30.27zm133.454 36.5h42.736v-42.74h-42.736v42.73zm5.243-36.51h30.28v30.27h-30.28v-30.27zm273.34 36.5h42.74v-42.74h-42.74v42.73zm6.23-36.51h30.27v30.27h-30.27v-30.27zm-146.01 36.5h41.75v-42.73h-41.75v42.733zm6.24-36.507h30.27v30.27h-30.27v-30.27zM309.3 748.77h42.738v-42.735H309.3v42.736zm6.235-36.503h30.27v30.27H315.53v-30.27zm-146.02 36.503h42.737v-42.735h-42.74v42.736zm6.233-36.503h30.272v30.27h-30.273v-30.27z"/><path d="M205.074 339.234l5.177 5.176-34.69 34.7-5.17-5.176z"/><path d="M210.515 373.542l-5.18 5.176-34.688-34.713 5.18-5.175zm133.038 25.08l5.18 5.176-34.69 34.713-5.178-5.17z"/><path d="M348.698 433.935l-5.18 5.174-34.68-34.71 5.18-5.18zm273.17-93.49l5.172 5.18-34.715 34.675-5.173-5.18z"/><path d="M626.687 375.546l-5.174 5.18-34.715-34.676 5.174-5.18zM693.377 339l5.177 5.174-34.685 34.705-5.18-5.18z"/><path d="M698.205 372.992l-5.18 5.174-34.68-34.71 5.18-5.174zM624.877 648.21l5.178 5.175-34.685 34.705-5.178-5.175z"/><path d="M629.098 683.073l-5.177 5.176-34.69-34.71 5.18-5.18zM485.083 586.27l5.178 5.176-34.69 34.7-5.17-5.176z"/><path d="M490.673 620.61l-5.177 5.176-34.69-34.7 5.177-5.176zm-77.683 27.066l5.18 5.174-34.676 34.715-5.18-5.174z"/><path d="M418.294 681.95l-5.18 5.175-34.676-34.715 5.18-5.174zm64.64 27.737l5.18 5.174-34.68 34.71-5.18-5.17z"/><path d="M487.805 743.687l-5.18 5.174-34.675-34.71 5.18-5.17zm135.787-36.05l5.175 5.18-34.712 34.687-5.176-5.18z"/><path d="M628.28 742.486l-5.175 5.18-34.71-34.682 5.174-5.18zM203.277 460.163l5.18 5.175-34.682 34.71-5.18-5.175z"/><path d="M208.044 494.635l-5.178 5.176-34.69-34.7 5.177-5.17z"/><path fill="#00ADEE" d="M819.362 63.508c-53.223 0-94.87 42.736-94.87 94.87 0 53.224 42.735 94.872 94.87 94.872h8.31v-15.63c-14.64-1.088-28.194-4.155-35.416-8.31l6.232-25.028c8.31 5.243 20.874 9.398 35.416 9.398 11.476 0 19.785-4.155 19.785-13.553 0-8.31-6.24-13.553-21.87-18.796-24.04-6.23-39.67-16.71-39.67-37.59 0-18.79 13.55-33.34 35.41-37.59V86.36h20.87v18.796c14.64 1.088 24.04 3.166 30.27 7.32l-6.24 24.04c-5.24-2.077-14.64-7.32-30.27-7.32-13.56 0-17.71 6.23-17.71 11.475 0 7.33 7.32 11.48 25.03 17.71 25.03 8.31 35.41 20.88 35.41 39.67s-13.56 34.43-37.6 38.58v13.56c38.58-12.56 66.77-47.98 66.77-90.71.1-53.22-42.64-95.96-94.78-95.96zm85.078 222.19h2.967v476.727h-2.968z"/><path fill="#00ADEE" d="M928.775 819.11H38.137c-13.85 0-25.523-15.036-25.523-32.744V42.634c0-18.697 10.98-32.745 25.523-32.745h891.825c13.75 0 25.424 15.03 25.424 32.74v743.73c0 .19 0 .39-.1.49-.196 18.1-11.77 32.25-26.51 32.25zM38.137 12.858c-12.86 0-22.555 12.762-22.555 29.777v743.732c0 16.125 10.288 29.777 22.555 29.777h890.638c12.96 0 23.545-13.355 23.545-29.777 0-.198 0-.396.1-.495V42.635c0-16.125-10.29-29.777-22.457-29.777H38.137z"/></symbol>

<symbol id="monitor" viewBox="147.116 8.334 554.801 577.422"><path fill="#30363D" d="M696.515 449.715v-315.87c0-8.188-6.434-14.623-14.624-14.623H168.32c-8.19 0-14.624 6.434-14.624 14.624v315.868H696.52z"/><path fill="#E4E7EB" d="M151.934 450.3v45.624c0 8.774 7.02 15.793 15.793 15.793h513.58c8.773 0 15.792-7.02 15.792-15.793V450.3H151.93zm366.758 128.687s-4.095-1.755-8.774-3.51c-4.68-1.755-10.53-4.095-14.04-5.85-5.848-2.924-6.433-4.68-8.773-14.623-2.34-10.53-4.68-33.342-5.85-43.286H367.778c-1.17 9.944-3.51 32.757-5.85 43.286-2.34 9.944-2.924 11.7-8.773 14.624-3.51 1.755-9.36 4.095-14.04 5.85-4.68 1.754-8.188 2.924-8.188 2.924s-3.51 1.755 2.34 2.34h183.087c5.264 0 2.34-1.755 2.34-1.755z"/><path fill="#CCD4D6" d="M483.01 523.417c-.584-4.68-1.17-8.774-1.17-11.7H367.778c0 2.926-.585 7.02-1.17 11.7H483.01z"/><path fill="#484F59" d="M250.79 449.715h112.893l206.484-331.077H457.273m-61.418 331.077h41.53L643.87 118.638h-40.946"/><path fill="#F7F8FC" d="M178.256 143.79h492.52v277.262h-492.52z"/><path fill="#F7F8FC" d="M268.337 421.637H381.23L554.375 143.79H441.48m13.454 277.847L628.076 143.79h-41.53L413.403 421.637"/><circle cx="372.457" cy="120.977" r="93.006" fill="#FFF"/><circle cx="364.853" cy="120.977" r="47.965" fill="#FFDD3E"/><path fill="#FFDD3E" d="M364.853 13.348c-59.08 0-107.63 47.965-107.63 107.63s47.966 107.628 107.63 107.628 107.63-47.965 107.63-107.63S424.516 13.35 364.853 13.35zm0 166.708c-32.757 0-59.08-26.322-59.08-59.08S332.097 61.9 364.853 61.9s59.08 26.322 59.08 59.08c.585 32.756-26.323 59.078-59.08 59.078zm82.476-51.474c-4.1 0-7.61-3.51-7.61-7.604 0-40.946-33.34-74.288-74.29-74.288-4.1 0-7.61-3.51-7.61-7.604 0-4.095 3.51-7.604 7.6-7.604 49.72 0 90.08 40.36 90.08 90.08-.59 3.51-4.1 7.02-8.19 7.02z"/><path fill="#1D1D1B" d="M352.57 131.506c1.754 1.17 5.848 2.34 9.943 2.34 5.264 0 7.604-2.34 7.604-5.85 0-4.094-4.095-5.848-8.19-5.848h-4.094v-7.02h4.095c3.51 0 7.604-1.17 7.604-4.68 0-2.34-2.34-4.68-6.434-4.68-3.51 0-7.02 1.756-8.774 2.34l-1.755-7.018c2.34-1.755 7.6-2.925 12.86-2.925 8.77 0 14.04 4.68 14.04 10.53 0 4.68-2.34 8.188-7.61 9.943 5.26 1.17 9.36 4.68 9.36 9.944 0 7.604-6.44 12.87-16.97 12.87-5.27 0-9.95-1.17-12.29-2.926l.582-7.02z"/><circle cx="547.939" cy="293.535" r="47.965" fill="#EF846E"/><path fill="#EF846E" d="M547.94 185.906c-59.08 0-107.63 47.965-107.63 107.63s47.965 107.628 107.63 107.628c59.663 0 107.043-48.55 107.043-107.63S607.018 185.907 547.94 185.907zm0 166.708c-32.758 0-59.08-26.322-59.08-59.08s26.322-59.078 59.08-59.078c32.756 0 59.078 26.322 59.078 59.08s-26.322 59.078-59.08 59.078zm81.89-51.475c-4.094 0-7.603-3.51-7.603-7.61 0-40.95-33.342-74.29-74.288-74.29-4.1 0-7.61-3.51-7.61-7.61s3.51-7.61 7.6-7.61c49.72 0 90.08 40.36 90.08 90.08 0 3.51-3.51 7.02-8.19 7.02z"/><path fill="#FFF" d="M533.316 314.008v-9.944h-18.718v-6.434l15.793-25.737h12.29v24.568h5.27v7.61h-5.26v9.95h-9.36zm0-17.548v-9.36c0-2.34 0-5.263.585-7.603-1.17 2.925-2.34 5.264-4.09 7.604l-5.85 9.36h9.36zm18.718 17.548v-5.85l5.264-4.68c9.36-8.188 13.454-12.868 14.04-17.547 0-3.51-2.34-5.84-7.02-5.84-3.51 0-7.02 1.76-8.774 3.51l-2.925-7.02c2.92-2.34 8.18-4.09 14.03-4.09 9.36 0 14.62 5.27 14.62 13.46 0 7.02-5.27 12.87-11.12 18.14l-4.1 3.51h15.79v8.19h-29.83v-1.756z"/><path fill="#30363D" d="M521.032 211.643l-44.455-14.038-45.04-14.624 14.623 44.46 14.623 44.46 15.794-30.41 23.397 23.99 14.04-14.04-23.4-23.98"/><path fill="#484F59" d="M476.577 197.605l-45.04-14.624.584 1.17L507 259.03l7.02-7.606-23.398-23.982 30.416-15.793"/><path fill="#333" d="M421.007 163.678c-1.17 0-1.755-1.17-1.755-2.34V134.43c0-1.17 1.17-2.34 1.755-2.34 1.17 0 2.34 1.17 2.34 2.34v26.908c-.585 1.17-1.17 2.34-2.34 2.34zm-13.454 7.604h-1.17l-23.398-13.454c-1.17-.585-1.17-1.755-.585-2.925s1.755-1.17 2.925-.585l23.398 13.454c1.17.585 1.17 1.755.585 2.925-.585 0-1.17.585-1.755.585zm-23.397 29.248c-.585 0-1.17-.586-1.755-1.17-.58-1.17 0-2.34.59-2.926l23.4-13.454c1.17-.585 2.34 0 2.93.585.59 1.17 0 2.34-.58 2.925l-23.4 13.454c-.58 0-.58.585-1.17.585zm36.85 21.057c-1.17 0-1.754-1.17-1.754-2.34V192.34c0-1.17 1.17-2.34 1.755-2.34 1.17 0 2.34 1.17 2.34 2.34v26.907c-.585 1.17-1.17 2.34-2.34 2.34zm13.454-50.305c-.584 0-1.17-.585-1.754-1.17-.585-1.17 0-2.34.585-2.925l23.4-13.454c1.17-.585 2.34 0 2.93.585.59 1.17 0 2.34-.58 2.925l-23.4 13.454c-.58.585-1.17.585-1.17.585z"/><circle cx="298.169" cy="349.105" r="59.079" fill="none"/><path fill="none" d="M380.646 356.71c4.095 0 7.604-3.51 7.604-7.605 0-49.72-40.36-90.08-90.08-90.08-4.096 0-7.605 3.51-7.605 7.603s3.51 7.604 7.604 7.604c40.94 0 74.28 33.342 74.28 74.288 0 4.68 3.51 8.19 8.19 8.19z"/><circle cx="311.038" cy="349.105" r="47.965" fill="#EF846E"/><path fill="#FFF" d="M291.735 336.236l-8.19 4.095-1.754-7.6 11.12-5.26h8.19v42.12h-9.36v-33.35zm51.475-.586h-16.378l-1.17 6.435h2.925c4.095 0 8.19 1.17 11.114 2.925 2.93 2.34 5.27 5.85 5.27 10.53 0 7.603-6.43 14.623-18.13 14.623-5.26 0-9.36-1.17-11.7-2.34l1.76-7.604c1.76 1.17 5.85 2.34 9.36 2.34 4.1 0 8.19-1.76 8.19-6.44 0-4.1-3.51-7.02-11.7-7.02-2.34 0-4.09 0-5.84.58l2.928-22.23h23.398v8.18z"/><path fill="#EF846E" d="M418.082 349.105c0-59.08-47.965-107.63-107.63-107.63s-107.628 47.965-107.628 107.63c0 28.077 10.53 53.23 28.077 72.533h158.52c18.14-19.304 28.67-44.456 28.67-72.533zm-107.044 59.08c-32.757 0-59.08-26.323-59.08-59.08s26.323-59.08 59.08-59.08 59.08 26.323 59.08 59.08c0 32.756-26.323 59.08-59.08 59.08zm0-133.368c-4.095 0-7.604-3.51-7.604-7.604s3.51-7.604 7.604-7.604c49.72 0 90.08 40.36 90.08 90.08 0 4.09-3.51 7.6-7.603 7.6s-7.604-3.51-7.604-7.61c-.58-41.53-33.92-74.88-74.87-74.88z"/></symbol>


<symbol id="winner-cup" viewBox="141.163 57.904 567.302 492.135"><path fill="#EE8610" d="M435.232 416.696c0-16.668 8.334-30.955 21.43-39.288h-63.1c12.5 8.334 21.43 22.62 21.43 39.288 0 26.192-21.43 47.027-47.027 47.027h113.698c-26.192 0-46.43-20.835-46.43-47.027z"/><path fill="#FFC923" d="M368.56 463.723h113.7v14.882h-113.7z"/><path fill="#00ADEE" d="M330.462 478.01h188.704v43.455H330.462z"/><path fill="#005499" d="M539.406 550.04H310.223l8.93-27.98H527.5"/><path fill="#EE8610" d="M582.86 67.267H266.768c0 8.334 0 16.668.595 25.597H582.86V67.267zM699.536 83.34c-3.572-5.954-9.524-11.907-15.477-16.074-23.22-16.073-60.128-10.12-80.368 7.74-8.334 7.142-15.477 16.667-19.644 26.787-4.167 10.12-7.143 19.05-7.143 29.764l10.12 2.38c4.166-26.19 20.834-50.003 48.812-54.765 25.596-3.572 45.836 17.263 46.43 40.48 1.787 58.932-52.98 94.65-97.625 120.84-14.882 8.93-32.145 19.645-41.67 34.527-2.38 4.76-5.358 10.12-6.548 16.663-1.19 5.953-.595 12.5 2.38 19.05 2.382 6.547 7.74 11.31 13.692 13.69 5.952 2.38 11.905 2.976 18.453 2.38 2.975-.594 9.523-3.57 10.714-6.547v-8.93c-8.335 2.38-16.67 2.38-22.026-1.19-5.953-2.977-8.93-9.525-7.143-16.67 5.953-29.763 47.622-51.193 70.243-66.67 25.597-16.67 51.79-35.717 69.052-60.72 9.524-14.286 15.477-30.954 16.668-47.62-.596-10.715-2.382-23.81-8.93-35.12z"/><circle cx="597.148" cy="131.557" r="21.43" fill="#FFC923"/><circle cx="567.979" cy="308.355" r="18.454" fill="#FFC923"/><path fill="#EE8610" d="M150.093 83.34c3.572-5.954 9.524-11.907 15.477-16.074 23.216-16.073 60.123-10.12 80.363 7.74 8.334 7.142 15.477 16.667 19.644 26.787s7.143 19.05 7.143 29.764l-10.12 2.38c-4.167-26.19-20.835-50.003-48.813-54.765-25.597-3.572-45.837 17.263-46.432 40.48-1.786 58.932 52.98 94.65 97.626 120.84 14.887 8.93 32.15 19.645 41.67 34.527 2.386 4.76 5.36 10.12 6.55 16.663 1.19 5.953.598 12.5-2.38 19.05-2.38 6.547-7.74 11.31-13.69 13.69s-11.905 2.976-18.453 2.38c-2.976-.594-9.525-3.57-10.715-6.547v-8.93c8.334 2.38 16.668 2.38 22.025-1.19 5.953-2.977 8.93-9.525 7.143-16.67-5.953-29.763-47.622-51.193-70.243-66.67-25.597-16.67-51.79-35.717-69.052-60.72-9.523-14.286-15.476-30.954-16.667-47.62 1.19-10.715 2.382-23.81 8.93-35.12z"/><circle cx="252.481" cy="131.557" r="21.43" fill="#FFC923"/><circle cx="281.65" cy="308.355" r="18.454" fill="#FFC923"/><path fill="#FFC923" d="M540 92.864H270.935C273.91 179.18 294.15 255.97 324.51 308.95c26.787 47.623 62.503 76.792 100.6 76.792 81.554 0 147.63-128.58 154.18-292.283H540v-.6z"/><path fill="#FFDF65" d="M270.934 92.864C273.91 179.18 294.15 255.97 324.51 308.95L540 92.865H270.935z"/></symbol>

<symbol id="lotto-game" viewBox="107.31 0 627.23 595.28"><path fill="#FFF" d="M560.83 545.73c-1.26 0-1.9-.63-1.9-1.9 0-1.24.64-1.87 1.9-1.87 4.4 0 8.78 0 13.17-.62 1.25 0 1.88.62 2.5 1.88 0 1.25-.62 1.88-1.87 2.5h-13.8zm26.34-2.5c-1.25 0-1.88-.64-1.88-1.9 0-1.25.6-2.5 1.8-2.5 4.4-.63 8.8-1.9 12.5-3.14 1.2 0 2.5.6 2.5 1.2 0 1.2-.6 2.5-1.3 2.5-5 1.9-9.4 3.1-13.8 3.7zm25.1-6.9c-.63 0-1.9-.64-1.9-1.27-.62-1.25 0-2.5 1.27-2.5 3.76-1.26 8.15-3.14 11.9-5.02 1.27-.63 2.52 0 2.52 1.25.63 1.2 0 2.5-1.25 2.5-3.7 1.8-8.1 3.7-12.5 5 .7 0 .7 0 0 0zm24.46-10.68c-.63 0-1.26-.62-1.9-1.25-.6-1.26 0-2.5.64-3.14 3.14-1.88 6.9-3.76 10.04-6.27l1.3-.7c1.3-.6 2.5-.6 3.2.6s.7 2.5-.6 3.1l-1.2.6c-3.1 1.8-6.9 4.4-10 6.2-.6.6-1.2.6-1.2.6zm21.95-14.42c-.63 0-1.25 0-1.88-.63-.63-.63-.63-2.5.63-3.14 3.76-2.5 6.9-5.64 10.03-8.15.63-.6 1.88-.6 3.14 0 .62.7.62 1.9 0 3.2-3.14 3.2-6.9 5.7-10.04 8.8h-1.88zm19.45-17.57c-.63 0-1.26 0-1.26-.63-.63-.62-.63-1.88 0-3.13 3.14-3.14 5.65-6.27 8.78-10.04.63-.62 1.9-1.25 3.14 0 .6.63 1.2 1.88 0 3.14-2.6 3.13-5.7 6.9-8.8 10.03-.7.63-1.3.63-1.9.63zm16.93-20.7c-.62 0-.62 0-1.25-.62-1.2-.63-1.2-1.9-.6-3.14 2.5-3.77 5-7.53 6.9-11.3.7-1.25 1.9-1.25 3.2-.62s1.3 1.88.6 3.14c-1.9 3.76-4.4 7.52-6.9 11.3-.6 1.24-1.2 1.24-1.9 1.24zm12.55-22.58h-.6c-1.2-.63-1.2-1.88-1.2-2.5 1.9-3.77 3.2-8.16 5-11.93.7-1.25 1.3-1.88 2.5-1.25 1.3.62 1.9 1.25 1.3 2.5-1.2 4.4-3.1 8.16-5 12.55 0 0-.6.63-1.9.63zm8.8-25.1c-1.9-.62-2.5-1.24-1.9-2.5 1.3-4.4 1.9-8.78 2.6-12.54 0-1.26 1.3-1.9 2.5-1.9 1.3 0 1.9 1.27 1.9 2.52-.6 4.4-1.2 8.78-2.5 13.18-.6.62-1.2 1.25-2.5 1.25zm3.2-26.34c-1.2 0-1.9-.62-1.9-1.88v-.62c0-4.4 0-8.16-.6-12.55 0-1.3.6-1.9 1.9-2.6 1.3 0 1.9.6 2.5 1.9.7 4.4.7 8.8.7 13.2v.6c-.6 1.2-1.2 1.9-2.5 1.9zm-2.5-26.34c-1.2 0-1.9-.63-1.9-1.88-.6-4.4-1.9-8.8-3.1-12.55 0-1.25.7-2.5 1.3-2.5 1.3 0 2.5.62 2.5 1.25 1.3 4.4 2.5 8.78 3.2 13.17 0 1.2-.6 2.5-1.8 2.5zm-7.5-25.1c-.6 0-1.9-.62-1.9-1.25-1.2-4.4-3.1-8.15-5-11.92-.6-1.25 0-2.5 1.3-2.5 1.3-.63 2.5 0 2.5 1.25 1.9 3.76 3.8 8.16 5 12.55.7 1.25 0 2.5-1.2 2.5 0-.62 0-.62-.6-.62zm-11.3-23.83c-.6 0-1.2-.62-1.8-1.25-2.5-3.77-4.4-7.53-6.9-10.67-.6-.62-.6-2.5.6-3.13.7-.63 2.5-.63 3.2.62l7.6 11.3c.7 1.25 0 2.5-.6 3.13h-1.9zm-15.6-21.32c-.6 0-1.2 0-1.2-.63-3.1-3.14-5.6-6.28-8.8-9.4-.6-.64-.6-1.9 0-3.15.7-.62 1.9-.62 3.2 0l9.4 9.4c.7.64.7 1.9 0 3.15-1.2.63-1.9.63-2.5.63zm-18.8-18.2c-.6 0-.6 0-1.2-.62-3.1-2.5-6.9-5.02-10.6-7.53-1.2-.63-1.2-1.88-.6-3.14s1.9-1.25 3.1-.62l11.3 7.52c.6.63 1.3 1.9.6 3.14-1.2 1.25-1.8 1.25-2.5 1.25zm-22.5-13.8h-.6c-3.7-1.88-8.1-3.76-11.9-5-1.2-.64-1.9-1.9-1.2-2.52.7-1.26 1.9-1.88 2.5-1.26 4.4 1.88 8.2 3.14 12.6 5.65 1.3.62 1.3 1.88 1.3 2.5-1.2 0-1.9.63-2.5.63zm-24.4-9.4c-.6 0-.6 0 0 0-3.7-.63-6.2-1.9-9.4-2.5-1.2 0-2.5-.64-3.7-.64s-1.9-1.2-1.9-2.5c0-1.2 1.3-1.8 2.5-1.8 1.3 0 2.5.6 3.8.6 3.1.7 6.3 1.3 9.4 2.5 1.3.7 1.9 1.3 1.3 2.5-.6 1.3-1.2 1.9-1.9 1.9zm-58.3 0c-1.3 0-1.9-.63-1.9-1.9s.6-1.87 1.9-1.87c1.9 0 3.7 0 5.6-.63 1.3 0 1.9.63 2.5 1.9 0 1.24-.6 1.87-1.8 2.5-1.9-.63-3.8 0-6.3 0zm18.8-1.9c-1.3 0-1.9-.6-1.9-1.87 0-1.25.6-2.5 1.9-2.5 3.7-.64 8.8-1.26 13.1-1.26 1.3 0 1.9.62 1.9 1.88 0 1.25-.6 1.88-1.9 1.88l-13.1 1.88zM291.1 558.27c-1.25 0-1.88-.63-1.88-1.88 0-1.3.62-1.9 1.88-2.6 4.4-.7 8.78-1.3 12.54-2.5 1.26-.7 2.5 0 2.5 1.2.64 1.2 0 2.5-1.24 2.5-4.4 1.2-8.78 2.5-13.8 3.1zm-13.17 0c-4.4-.63-8.78-1.25-13.8-1.88-1.26 0-1.88-1.3-1.26-2.6 0-1.3 1.26-1.9 2.5-1.3 4.4 1.2 8.8 1.9 12.56 1.9 1.25 0 1.88 1.2 1.88 2.5 0 0-.6 1.2-1.8 1.2zM252.2 552h-.62c-4.4-1.26-8.15-3.14-12.54-5.02-1.26-.63-1.26-1.88-1.26-2.5.63-1.26 1.88-1.26 2.5-1.26 3.77 1.88 8.17 3.76 11.93 5 1.3.64 1.9 1.9 1.3 2.52.7.63 0 1.26-1.2 1.26zm64-1.88c-.64 0-1.26-.63-1.9-1.26-.62-1.25 0-2.5.64-3.13 1.88-1.26 3.76-2.5 5.64-3.77 1.26-1.25 3.14-2.5 4.4-3.76.62-.63 1.87-.63 3.13 0 .7.62.7 1.88 0 3.13-1.2 1.26-3.1 2.5-4.3 3.77-1.9 1.25-4.4 3.13-6.3 4.4-.6.62-.6.62-1.2.62zm-87.83-9.4h-1.25l-11.3-7.54c-.62-.63-1.25-1.88-.62-3.14.63-.62 1.88-1.25 3.14-.62 3.13 2.5 6.9 5.02 10.66 7.52 1.25.63 1.25 1.9.63 3.14.63 0 0 .63-1.26.63zm107.27-8.17c-.63 0-.63 0-1.26-.62-.63-.63-1.25-1.9-.63-3.14 2.5-3.8 5.02-6.9 6.9-11.3.63-1.3 1.9-1.3 2.5-1.3 1.27.6 1.27 1.9 1.27 2.5-1.88 3.8-4.4 8.1-6.9 11.9-.63 1.2-1.26 1.9-1.88 1.9zM208.3 524.4c-.63 0-1.25 0-1.25-.63-3.14-3.13-6.28-6.9-8.8-10.66-.6-.6-.6-2.5.64-3.1.6-.6 2.5-.6 3.1.7 2.5 3.8 5 6.9 8.1 10.1.6.7.6 1.9 0 3.2-1.3 0-1.9.7-1.9.7zm138.63-15.68s-.63 0 0 0c-1.88-.63-2.5-1.26-1.88-2.5 0-.64.62-1.27.62-1.9-3.76-1.25-6.9-3.13-9.4-5.64-.63-.63-1.26-1.88 0-3.14.62-.62 1.88-1.25 3.13 0 2.5 1.9 5.02 3.14 7.53 4.4v-6.28c0-1.25.62-1.88 1.88-2.5 1.3 0 1.9.62 2.6 1.88v2.5c0 1.9 0 3.77-.6 5.65.7.6 1.3 1.2.7 2.5 0 .6-.6 1.2-1.2 1.2 0 .6 0 1.2-.6 1.9-.6 1.2-1.9 1.8-2.5 1.8zm15.05-3.14c-1.25 0-1.88-.63-1.88-1.88 0-1.26.63-1.88 1.88-2.5 3.77-.64 8.16-1.27 12.55-2.52 1.25-.63 2.5 0 2.5 1.25.63 1.26 0 2.5-1.25 2.5-5.02 1.9-9.4 3.15-13.8 3.15zm-169.36-3.14c-.63 0-1.26-.62-1.88-1.25-1.9-4.4-3.77-8.2-5.02-12.6-.63-1.3 0-2.5 1.25-2.5 1.26-.7 2.5 0 2.5 1.2 1.27 3.7 3.15 8.1 5.03 11.9.63 1.2 0 2.5-.63 2.5-.62.6-.62.6-1.25.6zm194.45-3.76c-.62 0-1.25-.63-1.88-1.25-.7-1.26 0-2.5 1.2-2.5 3.7-1.9 7.5-3.78 10.6-6.9.6-.64 2.5-.64 3.1.6.6.64.6 2.52-.6 3.15-3.8 2.5-7.6 5.02-11.9 6.9h-.6zm-57.7-10.04c-.63 0-1.26-.62-1.9-1.25-1.24-3.2-1.87-6.3-1.87-9.5V476c0-1.27 0-1.9.63-3.15 0-1.25 1.25-1.88 2.5-1.88s1.9 1.24 1.9 2.5c0 .63 0 1.9-.64 2.5v1.25c0 2.5.6 5 1.8 7.52.6 1.25 0 2.5-1.3 2.5l-1.3 1.26zM408.4 483c-.63 0-1.25 0-1.25-.63-.63-.62-.63-1.88 0-3.13 3.13-3.14 5.64-6.28 8.15-10.04.63-1.25 1.88-1.25 3.14-.63 1.25.63 1.25 1.88.62 3.14-2.5 3.8-5.64 7.6-8.15 10.7-1.2.7-1.8.7-2.5.7zm-63.35 0c-.63 0-1.26-.63-1.9-1.26-1.87-3.13-3.75-6.27-6.9-8.78l-.6-.62c-.64-.63-1.27-1.9 0-3.14.6-.63 1.87-1.26 3.12 0l.63.63c3.14 3.13 5.64 6.27 7.53 10.03.62 1.26 0 2.5-1.26 2.5l-.63.64zm-159.96-5.65c-1.3 0-1.9-.62-1.9-1.88-.7-2.5-.7-5.64-.7-8.15v-5.02c0-1.26 1.2-1.88 2.5-1.88 1.2 0 1.9 1.25 1.9 2.5v5.02c0 2.5 0 5.02.6 8.16 0 0-1.3 1.25-2.5 1.25zm237.7-16.3h-.7c-1.3-.63-1.9-1.9-1.3-3.14 1.9-3.7 3.1-8.1 4.4-11.9.6-1.2 1.2-1.9 2.5-1.2 1.2.7 1.9 1.3 1.2 2.5-1.3 4.4-3.2 8.8-5.1 12.6.6.7-.7 1.3-1.3 1.3zm7.5-25.1c-1.3 0-2.5-1.25-1.9-2.5.6-3.14.6-6.9.6-10.04v-2.5c0-1.2.6-1.8 1.8-1.8s1.9.6 1.9 1.9v3.2c0 3.8 0 6.9-.6 10.7 0 .7-.7 1.3-1.9 1.3zM429 409.6c-1.26 0-1.9-.6-1.9-1.8-.62-2.5-1.25-5.64-2.5-8.15-.63-1.25 0-2.5 1.25-2.5 1.26-.63 2.5 0 2.5 1.25 1.27 2.5 1.9 5.63 2.52 8.14.62 1.86 0 2.5-1.9 3.12.63 0 .63 0 0 0zm140.5-181.9h-3.13c-1.25 0-1.88-1.2-1.88-2.5s1.2-1.9 2.5-1.9c3.1.7 7.5 0 11.9-1.8 1.2-.63 2.5 0 2.5 1.25.6 1.26 0 2.5-1.3 2.5-3.8 1.9-7.5 2.5-10.7 2.5zm21.96-8.1c-.6 0-1.25-.6-1.88-.6-.63-1.27-.63-2.5.63-3.15 3.8-2.5 6.9-5.02 10.1-8.15.7-.64 1.9-.64 3.2 0 .7.6.7 1.87 0 3.12-3.1 3.15-6.9 5.66-10.6 8.17-.6.6-1.2.6-1.2.6zm18.82-18.2c-.63 0-.63 0-1.25-.6-1.26-.63-1.26-1.9-.63-3.14 2.5-3.77 4.4-7.54 6.27-11.3.63-1.25 1.9-1.9 2.5-1.25 1.27.6 1.9 1.9 1.27 2.5-1.9 4.4-3.78 8.2-6.3 11.9 0 1.9-1.24 1.9-1.87 1.9zm10.04-24.44c-1.27 0-2.5-1.27-1.9-2.52.63-3.75 1.26-8.14 1.26-12.53 0-1.2 1.24-1.9 2.5-1.9s1.87 1.3 1.87 2.5c0 5-.63 9.4-1.25 13.2-.64.6-1.27 1.3-2.5 1.3zm1.87-26.36c-1.3 0-1.9-1.26-1.9-1.9v-3.76c0-1.27.6-1.9 1.8-1.9s1.8.62 1.8 1.9v3.74c0 1.26-.6 1.88-1.9 1.88z"/><path fill="#FFC800" d="M621.67 445.36c-10.03 0-23.2-3.13-30.1-22.58 8.15-.63 15.67-6.27 19.44-6.27 0 0 4.4 6.3 10.1 6.3s1.3-6.9 13.2-2.5c5.7 1.9 1.9-5.6 8.2-3.7 5.7 1.9 10.7 6.3 10.7 6.3s-5 22.6-31.3 22.6z"/><path fill="#D2C878" d="M621.67 536.94c-35.12 0-47.67-22.58-47.67-43.9 0-26.35 18.2-54.58 47.67-54.58s47.68 28.23 47.68 54.58c0 11.9-3.77 22.58-11.3 30.1-8.15 9.4-20.7 13.8-36.38 13.8z"/><path fill="#FFC800" d="M671.23 495.54c0 12.55-4.4 23.84-11.92 32-8.7 9.4-21.9 13.8-38.2 13.8-36.4 0-49.5-23.84-49.5-45.8 0-26.97 18.8-56.45 49.6-56.45 31.4 0 50.2 29.4 50.2 56.4z"/><path fill="#FFF" d="M619.16 521.9v-6.28c-3.13 0-6.27-.63-8.15-1.26-1.8-.63-3.7-1.25-5-1.88v-10.66h11.9c0 1.25 0 1.88.7 2.5s1.3.63 2.5.63c1.3 0 1.9 0 2.5-.63s.7-.62.7-1.88c0-.62 0-.62-.6-1.25s-1.2-.7-2.5-1.3c-2.5-1.3-5-1.9-6.9-3.2-1.9-.7-3.7-1.9-5-3.2-1.2-1.3-2.5-2.5-3.1-3.8s-1.2-3.2-1.2-5.7c0-1.9 0-3.2.6-5 .7-1.3 1.3-2.5 2.5-3.8 1.3-1.3 2.6-1.9 4.4-2.5 1.9-.7 3.8-1.3 6.3-1.3v-6.3h6.9v6.2c1.9 0 3.2 0 4.4.6 1.3 0 2.5.6 3.8.6 1.2 0 1.9.6 3.1 1.2.6.6 1.9.6 1.9 1.2v9.4H628c0-1.3 0-1.9-.62-1.9h-1.9c-1.22 0-1.85 0-2.5.6-.6 0-.6.6-.6 1.2s0 1.2.63 1.2 1.3.6 2.5 1.2l5.7 1.9c1.9.6 3.2 1.9 5 2.5 1.3 1.2 2.5 2.5 3.1 3.8.7 1.9 1.3 3.8 1.3 5.6 0 4.4-1.3 7.5-3.8 9.4-2.5 2.5-5.6 3.7-10.6 3.7v6.3h-6.9v1.2z"/><path fill="#FFC800" d="M637.35 441.6c13.18-6.27 16.3-19.45 16.3-19.45s-5-4.4-10.65-6.27c-5.65-1.88-2.5 5.65-8.16 3.76-10.66-3.76-8.15 1.26-11.92 2.5V540.7c15.7 0 28.23-5 36.4-13.8 7.5-8.14 11.9-19.43 11.9-31.97 0-21.33-12.54-45.17-33.87-53.32z" opacity=".2"/><g fill="#FFDC00"><path d="M415.93 50.8L394.6 85.95l62.1 38.26 21.33-35.1-62.1-38.2zm31.36 64.62l-41.4-25.1c1.8-5 .6-10.03-3.2-13.8l8.8-14.42c5 1.88 10 .63 13.8-3.14l41.4 25.1c-1.9 5-.7 10.03 3.1 13.8l-8.8 14.42c-5.1-1.88-10.7-.63-13.8 3.14z"/><circle cx="456.07" cy="99.11" r="3.14"/><circle cx="416.55" cy="74.64" r="3.14"/><path d="M442.27 77.15c-7.52-4.4-16.3-3.76-20.07 1.9-3.14 5.63 0 13.8 7.53 18.8 7.52 4.4 16.3 3.77 20.07-1.88 3.76-6.27 0-14.42-7.53-18.82zm.63 10.67l-3.76-2.5v-.64s0-.63-.63-.63-.6-.62-.6-.62-.6 0-.6.63v.62s0 .63.7.63c.7.7 1.3 1.9 1.9 2.6.7.7.7 1.3 1.3 1.9v1.9s-.6 1.3-.6 1.9c-.6 0-1.2.7-1.2.7-.6.6-.6.6-1.2.6h-2s-1.2-.6-2.5-.6l-1.3 1.8-2.5-1.2 1.3-1.9-1.2-1.2-1.2-1.2-.6-.6-.6-.6 1.9-3.1 3.8 1.9v.7s0 .6.6.6.6.6.6.6.6 0 .6-.6v-.6l-.6-.6c-.7-.6-1.3-1.2-1.3-1.8-.6-.6-.6-1.2-1.3-1.9 0-.6-.6-1.2 0-1.9 0-.6 0-1.2.7-1.8.7-1.3 1.9-1.9 3.2-2.5 1.3 0 2.5 0 4.4.6l1.3-1.9 2.5 1.3-1.24 1.9c1.3.6 1.9 1.3 2.5 1.9.7.6 1.3 1.2 1.3 1.2l-3.14 5zm-37 30.1l-83.44 26.35 15.06 47.05 83.43-26.35-15.06-47.04zm0 48.93l-55.2 17.57c-3.14-5.65-8.8-8.78-15.06-7.53l-6.28-19.5c5.65-3.2 8.78-8.8 7.53-15.1l55.2-17.6c3.1 5.6 8.7 8.8 15 7.5l6.3 19.4c-5 3.1-8.2 9.4-7.6 15z"/><circle cx="398.36" cy="146.15" r="3.76"/><circle cx="345.05" cy="163.72" r="3.76"/><path d="M389.58 149.3c-2.5-7.54-12.54-11.3-22.58-7.54-10.04 3.14-16.3 11.92-13.8 19.45 2.5 7.6 12.54 11.3 22.58 7.6 10.04-3.1 16.3-11.9 13.8-19.4zm-9.4 10.65c0 .63-.63 1.26-1.26 1.9-1.26.6-1.88 1.24-3.14 1.24l.63 2.5-3.1 1.2-.6-2.5c-.6 0-1.2.6-1.9.6h-4.4l-1.2-3.8 5-1.3c0 .6.7.6.7.6h1.3c.6 0 .6-.7 1.3-.7v-.6s0-.7-.6-.7H369c-.66 0-1.9 0-2.5-.7-.67 0-1.3-.6-1.9-1.3s-1.28-1.3-1.28-2.5c-.6-1.9-.6-3.1 0-4.4.64-1.3 1.9-2.5 3.78-3.1l-.65-2.5 3.16-1.3.7 2.5c1.3-.6 2.5-.6 3.8-.6h2.5l1.3 4.4-5 1.2c0-.6-.6-.6-.6-.6H371c-.64 0-.64.6-1.27.6v.6s0 .6.64.6h4.4c1.24 0 1.87.6 2.5.6.6 0 1.25.6 1.9 1.3s.6 1.3 1.2 1.9c0 .6.67 1.3.67 1.9-.6 1.2-.6 1.9-.6 2.5zM234.65 11.3l-25.1 25.08 43.9 44.54 25.1-25.1-43.9-44.53zm25.1 60.2c-3.78-2.5-8.8-2.5-11.93 0l-29.48-29.47c2.5-3.77 2.5-8.8 0-11.92l10.03-10c3.77 2.5 8.78 2.5 11.92 0l30.1 29.5c-2.5 3.8-2.5 8.8 0 11.9l-10.7 10z"/><circle cx="230.25" cy="31.36" r="3.14"/><circle cx="258.48" cy="59.59" r="3.14"/><path d="M251.58 38.26c-5.64-5.64-13.17-6.27-16.93-2.5-3.77 3.76-3.14 11.9 2.5 16.93 5.65 5.6 13.18 6.2 16.94 2.5 3.7-3.8 3.1-11.3-2.6-17zm-1.88 9.4l-2.5-2.5s.62-.62 0-.62c0 0 0-.63-.64-.63l-.62-.6h-.63v.7s0 .7.7.7c0 .6.6 1.3.6 1.9 0 .7.7 1.3.7 1.9v1.9c0 .7-.6 1.3-1.2 1.9s-1.9 1.3-3.1 1.3-1.8-.6-3.1-1.2l-.6.7-1.9-1.9 1.3-.6c-.6-.6-1.2-1.2-1.2-1.9-.6-.6-.6-1.2-.6-1.2l1.9-3.1 2.5 2.5-.6.7s0 .6.7.6l.6.7h.6v-1.3c-.6-.6-.6-1.2-.6-2.5 0-.6-.6-1.2-.6-1.9v-1.3c0-.6.7-1.2 1.3-1.2.7-.6.7-.6 1.3-.6s.6-.6 1.3-.6 1.3 0 1.3.6c.6 0 1.3.6 1.9 1.2l1.2-1.2 2.5.6-1.2 1.2c.6.6.6.6.6 1.3s0 1.25.6 1.25v1.26l-1.9 2.5zm82.17.64L270.4 96.6l27.6 34.5 60.84-48.3-26.97-34.5zm-25.1 73.4c-4.38-3.77-10.02-4.4-15.04-1.9l-11.3-14.42c3.77-4.4 4.4-10.03 1.9-15.05L323.1 57.7c3.74 4.4 10.02 5.04 15.03 2.53l11.3 13.8c-3.77 4.4-4.4 10.04-1.9 15.05L306.8 121.7z"/><circle cx="295.49" cy="105.38" r="3.76"/><circle cx="334.38" cy="74.64" r="3.76"/><path d="M328.1 79.04c-4.38-5.65-13.8-5.02-21.32.62s-10.03 15.06-5.64 20.7 13.8 5.02 21.32-.62c7.53-5.65 10.04-15.06 5.65-20.7zm-4.38 13.17c0 1.3-.63 2.6-2.5 3.8l1.87 1.9-2.6 1.9-1.9-1.9c-1.3.6-1.9 1.3-3.2 1.9-.6.6-1.3.6-1.9.6l-2.5-3.1 3.7-3.1c0 .7.6.7.6.7s.6 0 1.2-.6c.6 0 .6-.6.6-.6V93h-1.9c-1.3.62-1.9.62-3.1.62h-2.5c-.7 0-1.3 0-1.9-.66-.6 0-1.3-.64-1.9-1.27-.6-.7-.6-1.3-1.3-1.9v-1.9s0-1.3.6-1.9c.6-.6.6-1.3 1.9-1.9l-1.1-1.9 1.9-1.9 1.2 1.9c.6-.7 1.2-.7 1.2-.7.6 0 .6-.6 1.2-.6s.6-.7 1.2-.7h1.3l2.5 3.1-2.5 2.5c0-.6-.7-.6-.7-.6s-.6 0-.6.6c-.7 0-.7.6-.7.6v.6h.6s.6 0 1.2-.7c.6 0 1.9-.7 2.5-.7.6 0 1.3-.6 2.5-.6.6 0 1.3 0 1.9.6.6 0 1.2.6 1.9 1.2 0 1.9.6 3.1.6 5zm-43.92 54.6l-37.63 22 38.9 66.5 37.63-21.9-38.9-66.5zm26.35 70.9l-15.05 8.8c-3.76-4.4-9.4-5.6-14.43-3.8l-25.72-43.9c4.4-3.7 5.65-9.4 3.77-14.4l15.05-8.8c3.77 4.4 9.4 5.7 14.43 3.8l25.72 43.9c-4.4 3.8-5.65 9.4-3.77 14.5z"/><circle cx="267.89" cy="169.36" r="3.76"/><circle cx="292.36" cy="212.02" r="3.76"/><path d="M291.1 184.42c-4.4-8.16-13.17-11.92-19.45-8.16-6.27 3.77-6.9 13.18-2.5 20.7 4.4 8.16 13.17 11.92 19.44 8.16 6.2-3.14 7.5-12.55 2.5-20.7zm-2.5 5.02c0 .62.62.62.62 1.25v2.5l-3.14 1.8-2.5-3.8c.62 0 .62-.7.62-.7v-.6c0-.6-.63-.6-.63-.6h-.62v1.9s.62 1.8.62 2.5v1.9c0 .6-.62 1.2-.62 1.8-.63.6-1.26 1.2-1.9 1.2-1.24.6-2.5 1.2-3.75.6s-2.5-1.3-3.14-2.5l-1.88 1.2-1.25-2.5 1.88-1.3c-.6-1.3-1.2-1.9-1.2-3.2 0-.7-.6-1.3-.6-1.9l3.8-1.9 2.5 3.7c-.6 0-.6.6-.6.6v1.3l.7.6h.7l.7-.6v-1.3c0-1.3-.6-1.9-.6-3.2V186s.6-1.26.6-1.9c.6-.62.6-1.24 1.9-1.24.6-.65 1.2-.65 1.9-.65h1.9c.6 0 1.3.6 1.9.6l1.9 1.9 1.9-1.2 1.3 2.5-3.1 1.9c.7.7.7.7.7 1.3zm-53.95-82.8l-55.83 28.85 16.3 31.3 55.85-28.8-16.3-31.4zm6.27 35.12l-37 18.82c-2.52-3.76-7.54-5.02-11.93-3.76l-6.9-13.18c3.7-2.5 5-7.52 3.7-11.3l37-18.8c2.5 3.76 7.5 5 11.3 3.76l6.9 13.17c-3.2 1.88-4.4 6.9-3.2 11.3z"/><circle cx="197.64" cy="146.15" r="3.14"/><circle cx="232.76" cy="127.96" r="3.14"/><path d="M227.12 130.47c-2.5-5.02-10.04-6.27-16.94-3.13-6.9 3.76-10.03 10.66-7.53 15.68 2.5 5.02 10.04 6.27 16.94 3.13 6.9-3.76 10.6-10.66 7.5-15.68zm-5.65 9.4c-.62 1.27-1.25 1.9-2.5 2.52l1.25 1.8-1.88 1.2-.63-1.9c-1.2.6-1.8.6-3.1.6h-1.9l-1.2-3.2 3.2-1.9.7.6h.7c.6 0 .6-.7.6-.7v-.6H211l-1.27-.6-1.27-1.3c0-.7-.64-1.3-.64-1.3V134c0-.6.63-.6.63-1.24.66-.6.66-.6 1.9-1.24l-.6-1.9 1.9-1.2.6 1.88c.6 0 .6-.6 1.24-.6h3.1l1.3 2.5-3.1 1.9-.7-.6h-.6c-.6 0-.6.6-.6.6v.68h5c.6 0 1.3.65 1.3.65l1.2 1.24c1.9 1.3 1.9 1.9 1.2 3.16zm8.78 68.38l-37.63 36.4 20.7 21.3 37.63-36.37-20.7-21.33zm-12.54 50.2c-3.1-1.9-6.9-2.52-10 0l-8.1-8.8c1.9-3.13 2.5-6.9 0-10.03l25.1-23.84c3.2 1.88 6.9 2.5 10.1 0l8.2 8.78c-1.8 3.14-2.5 6.9 0 10.04l-25.1 23.84z"/><circle cx="209.56" cy="248.4" r="2.51"/><circle cx="233.39" cy="225.19" r="2.51"/><path d="M229.63 228.95c-3.14-3.13-9.4-2.5-14.43 1.9-4.4 4.38-5.64 10.65-2.5 13.8 3.13 3.12 9.4 2.5 14.42-1.9 5.02-3.76 5.64-10.03 2.5-13.8zm-3.77 11.3l1.26 1.25-1.26 1.25-1.25-1.25c-.6.63-1.2 1.25-1.8 1.25-.6 0-.6.63-1.2.63l-1.9-1.88 2.5-1.88.7.62s.6 0 .6-.62l.7-.63v-.7H223c-.63 0-1.26.6-1.9.6-.6 0-1.24 0-1.24.6h-1.3s-.6-.7-1.23-.7c-.65-.7-.65-.7-.65-1.3v-1.3c0-.7 0-.7.66-1.3 0-.6.65-1.3 1.27-1.3l-1.2-1.3 1.3-1.3 1.3 1.2c.6 0 .6-.7 1.3-.7l.7-.7s.7 0 .7-.6h.6l1.9 1.9-1.8 1.9H222l-.65.6v.6h1.24c.6 0 1.2-.6 1.2-.6.6 0 1.2 0 1.2-.6h1.2s.6.6 1.3.6c.6.6 1.2 1.9 1.2 2.5-1.3.6-1.3 1.9-2.5 2.5zM394.6 0l-37.64 36.38 20.7 21.33 37.64-36.3L394.6 0zm-11.92 50.18c-3.13-1.88-6.9-2.5-10.03 0l-8.16-8.78c1.8-3.14 2.5-6.9 0-10.04l25-23.83c3.1 1.88 6.9 2.5 10 0l8.1 8.78c-1.9 3.2-2.5 6.9 0 10.1l-25.1 23.9z"/><circle cx="373.9" cy="40.15" r="2.51"/><circle cx="398.36" cy="16.94" r="2.51"/><path d="M394.6 20.7c-3.14-3.14-9.4-2.5-14.43 1.88-4.4 4.4-5.64 10.67-2.5 13.8s9.4 2.5 14.42-1.88c4.3-3.76 5.6-10.04 2.5-13.8zM390.84 32l1.25 1.25-1.3 1.25-1.3-1.25c-.7.62-1.3 1.25-1.9 1.25s-.7.63-1.3.63l-1.9-1.88 2.5-1.9.6.64s.6 0 .6-.7l.6-.6V30h-1.3c-.7 0-1.3.63-1.9.63s-1.3 0-1.3.63H383c-.62 0-.62-.6-1.25-.6-.6-.6-.6-.6-.6-1.26v-1.2c0-.63 0-.63.6-1.26 0-.62.65-1.25 1.3-1.25l-1.2-1.3 1.24-1.3v.6c.6 0 .6-.6 1.2-.6l.6-.6s.6 0 .6-.7h.6l1.9 1.9-1.9 1.8H385l-.64.6v.7h1.2c.6 0 1.25-.7 1.25-.7.6 0 1.3 0 1.3-.6h1.3c.7 0 .7.6 1.3.6.6.6 1.3 1.9 1.3 2.5 0 1.3-.6 2.5-1.2 3.1zm64.6 117.3l-22.58 19.43 33.88 39.52 22.58-19.44-33.88-39.5zm16.94 52.05c-3.14-2.5-6.9-2.5-10.04-.62l-22.58-26.35c2.5-3.13 2.5-6.9.63-10.03l9.4-8.16c3.1 2.5 6.9 2.5 10 .6l22.6 26.3c-2.5 3.1-2.5 6.9-.7 10l-9.4 8.1z"/><circle cx="450.43" cy="166.23" r="2.51"/><circle cx="472.38" cy="191.32" r="2.51"/><path d="M468 173.13c-4.4-5.02-10.67-6.28-13.8-3.14-3.77 3.1-3.15 9.4 1.25 14.4s10.66 6.2 13.8 3.1c3.13-3.2 2.5-9.4-1.26-14.4zm-2.52 7.52l-1.88-2.5v-1.26l-.63-.7h-.63v1.2c0 .6.63 1.2.63 1.2v2.5l-1.25 1.2c-.63.6-1.9 1.2-2.5.6-.64 0-1.9-.7-2.52-1.3l-1.26 1.2-1.25-1.3 1.2-1.3c-.6-.7-.6-1.3-1.3-1.9 0-.6-.7-1.3-.7-1.3l1.9-1.9 1.9 2.5-.7.6v.6l.6.6h.6v-1.3c0-.7-.6-1.3-.6-1.9V174s.6-.6.6-1.23c.6 0 .6-.6 1.2-.6h1.2c.6 0 .6 0 1.2.6.6 0 .6.6 1.3 1.27l1.2-1.28 1.2 1.2.6 1.25c0 .6.6.6.6 1.2l.6.6s0 .6.6.6v.7l-2.5 1.9zM343.8 242.13l-50.82 11.92 6.9 28.85 50.8-11.92-6.9-28.85zm-2.52 29.48l-33.87 7.6c-1.2-3.1-5-5.6-8.7-5.6l-2.5-11.9c3.1-1.2 5.7-5 5.7-8.7l33.9-7.5c1.3 3.2 5 5.7 8.8 5.7l2.5 12c-3.7 1.9-5.6 5-5.6 8.8z"/><circle cx="337.52" cy="259.06" r="2.51"/><circle cx="305.53" cy="266.59" r="2.51"/><path d="M332.5 260.32c-1.25-4.4-6.9-6.9-13.17-5.65-6.28 1.26-10.04 6.28-9.4 10.67 1.24 4.4 6.9 6.9 13.16 5.64 6.2-1.25 10.6-6.27 9.4-10.66zm-6.27 5.64c0 .63-.63.63-.63 1.26-.63 0-1.26.62-1.88.62l.62 1.9h-1.88l-.62-1.27h-3.77l-.62-2.5 3.13-.63s0 .62.63.62h1.3v-.62H320s-1.24 0-1.24-.63c-.62 0-.62-.6-1.25-.6 0-.6-.6-.6-.6-1.2 0-1.2 0-1.9.6-2.5.7-.6 1.3-1.2 2.5-1.9l-.6-1.9 1.9-.6.7 1.9h3.1l.7 2.5-3.1.6v-.6h-1.2v.6h.7c.6 0 1.3 0 1.9.6.7 0 1.3 0 1.3.7.7 0 .7.7 1.3.7 0 .6.6.6.6 1.3v1.3c-.6 0-.6.6-.6.6zm78.4-72.13l-33.87 59.6 33.25 18.8 33.9-58.96-33.2-19.44zm-9.4 70.88l-13.8-7.5c1.88-4.4 0-9.4-3.77-12.5l22.58-39.5c4.4 1.9 9.4 0 12.55-3.7l13.8 7.6c-1.9 4.4 0 9.4 3.7 12.6L407.7 261c-4.4-1.24-9.4.64-12.54 3.78z"/><circle cx="415.3" cy="214.53" r="3.14"/><circle cx="393.35" cy="252.16" r="3.14"/><path d="M411.54 220.17c-5.65-3.13-13.18 0-16.94 7.53-4.4 6.9-3.14 15.68 2.5 18.82s13.18 0 16.95-7.53c3.76-7.6 3.13-15.7-2.5-18.9zm0 18.82l-1.9-1.3c-.6.6-.6.6-.6 1.2s-.64.6-.64.6l-.63.6-.62.6L404 239l1.9-3.15h.62s.63 0 .63-.62v-.63s0-.63-.63-.63h-.63s-.7 0-.7.63c-.6.63-1.3 1.25-1.9 1.25-.6.63-1.3.63-1.9 1.26-.7 0-1.3.7-1.9 0-.6 0-1.3 0-1.9-.6-1.3-.6-1.9-1.9-2.5-2.5 0-1.2 0-2.5.6-3.7l-1.9-1.3 1.2-1.9 1.8 1.3c.6-1.2 1.2-1.9 1.9-2.5l1.2-1.2 3.1 1.9-1.9 3.8h-.7s-.6 0-.6.7v.7s0 .6.6.6h.6s.6 0 .6-.7l1.9-1.9c.6-.6 1.2-.6 1.9-1.2h1.8s1.2 0 1.9.6c.6 0 1.2.6 1.2 1.3.6.6.6.6.6 1.3v1.9s-.7 1.3-.7 2.5l1.9 1.3-1.3 1.9z"/></g><path fill="#C80000" d="M538.87 141.14c9.4-10.04 13.17-14.43 14.43-16.94-5.02-2.5-26.35-1.26-48.3 0 18.2-9.4 26.97-13.8 28.85-16.94-1.88-2.5-11.3-5.64-23.2-10.66l12.54-3.76c-3.2-1.9-6.9-3.14-15.1-6.28 11.3-8.78 11.9-6.27 1.9-25.72 20.7-10.03 18.2-7.52 15-20.07 6.9 1.88 16.9 4.4 20 3.77 0-.63-1.3-9.4-1.3-10.04 7.5 3.76 10 5.02 12.5 5.64-.6-3.13-1.9-5.64-8.2-22.58 38.9 30.1 37.6 28.86 47 6.9 20.7 28.86 21.3 28.23 47.7-1.88-2.5 39.52-3.2 39.52 30.7 28.86l-3.2 8.78c-5.6 16.93 4.4 16.3 44.5 17.56-17.5 9.4-19.4 10.04-21.9 11.92 2.5.63 4.4 1.26 15.7 3.14-1.3.62-9.4 6.9-10.1 8.15 2.5 2.5 11.9 6.2 17.6 8.7l-6.3 5c-3.2 2.5 1.2 8.1 7.5 21.3-22.6 10-20.1 6.2-16.3 20.7-8.8-2.5-12.6-3.8-16.3-4.4l10.1 13.2c-14.4-5.7-23.2-9.4-27.6-9.4 0 3.7 3.8 10.6 13.8 32.6-18.2-16.3-34.5-32-40.2-32-1.9 2.5-1.3 11.3-1.3 23.8-15.7-20.1-22.6-28.9-27.6-30.8-2.5-.7-6.9 0-16.9 15.6l-10.6 16.3c3.1-54 5.6-48.9-45.8-40.8z"/><path fill="#FFC800" d="M703.22 130.47c-8.16 3.77-18.2 5.65-15.7 14.43-13.16-3.77-19.43-4.4-12.53 5.02-17-6.28-21.4-3.77-13.2 13.17-20.7-18.9-29.5-23.3-30.1-2.6-17.6-22.6-22.6-30.1-40.8-3.8 3.1-32.6-6.3-29.5-35.1-25.1 13.1-14.4 3.1-16.3-23.9-15.1 15.7-8.2 14.4-13.2-1.3-19.5 9.4-3.2 3.7-6.3-7.6-11.3 7.5-5.7 3.1-13.2-.7-20.7 8.1-3.8 16.3-6.9 13.8-14.4 10.6 2.5 18.2 3.1 16.9-4.4 10.7 5 13.2 1.9 8.8-10.1 17.5 13.1 28.2 18.8 35.1 1.8 13.1 18.8 21.3 20.7 37.6 1.9-1.3 23.8 5 27.6 26.9 20.7-5.7 18.2 5 21.3 28.2 21.9-11.9 6.2-11.9 10 .6 12.5-7.5 5.6-1.9 9.4 8.8 14.4-6.9 5 0 13.2 3.8 20.7z"/><path fill="#C80000" d="M541.38 80.92c3.14 1.25 4.4 1.88 5.65-1.26l5.64-16.3 4.4 1.88-6.9 18.2c-.64 1.24-1.26 3.75-3.14 4.38-1.9.63-6.28-1.26-7.53-3.14l1.88-3.76zm26.97-12.55l5.02 1.9-.63 26.33-5-1.88v-5.65l-7.54-2.5-3.76 4.38-5.02-1.88 16.93-20.7zm0 16.3l.63-9.4-5.64 7.53 5 1.88zm21.33-8.14c3.14 1.25 5.65 2.5 7.53 3.76l-.6 3.7s-3.7-1.9-6.9-3.2-5-.7-7.5 6.2c-1.9 5-1.9 8.1 1.9 9.4 3.1 1.2 7.5 2.5 7.5 2.5l-1.2 3.7c-2.5 0-5-.6-8.7-1.9-5.6-2.6-6.3-7.6-3.7-15.1 2.5-8.2 5.7-11.9 11.9-9.4zm11.3 3.77l4.4 1.87-3.78 10.04 1.88.7 9.4-7.5 5.03 1.9-11.2 9.4 3.2 14.5-5-1.9-2.5-11.9-1.9-.6-3.7 8.8-4.4-1.8 8.8-23.2zm19.44 7.52l10.03 3.76c3.14 1.26 6.28 3.14 3.77 9.4-2.5 6.9-6.9 6.28-9.4 5.03-1.27-.6-5.03-2.5-5.66-2.5l-2.5 9.4-4.4-1.8 8.16-23.2zm6.27 14.43c1.2.62 2.5 0 3.7-2.5s0-3.78-1.3-4.4l-5.1-1.9-3.2 6.9 5.6 1.9zm21.9-4.4c5.6 1.9 8.8 4.4 5 15.7-3.8 10.65-8.2 10.65-13.8 8.14-5.7-1.9-9.4-4.4-5-15.1 4.4-11.3 8.8-10.7 13.8-8.8zm-6.9 19.45c3.7 1.25 5.6.63 7.5-5.64 2.5-7.53 1.2-8.16-1.9-10.04-3.8-1.26-5.1-1.26-8.2 6.27-1.9 6.9-1.9 8.1 2.5 9.4zm18.2-15.05l17.5 6.27-1.3 4.4-6.3-2.52-6.9 19.45-4.4-1.9 6.9-19.43-6.3-2.5.6-3.77zm24.4 8.78l-6.9 16.93-3.8-1.25 5.6-17.5 5 1.9zm-12 18.2c0-.64.6-.64 1.2-.64l3.1 1.2c.6 0 .6.6.6 1.2l-1.3 3.1c0 .6-.7.6-1.3.6l-3.1-1.9c-.7 0-.7-.6-.7-1.3l1.2-2.5z"/><path fill="#FFC800" d="M670.6 72.14c-3.14-2.5-3.14-6.28-1.26-12.55l3.14-9.5c-33.24 10.7-32.62 10.7-30.74-28.8-26.34 30.1-26.97 30.7-47.67 1.9-9.4 21.9-7.53 23.8-47.04-6.9 6.27 16.9 7.52 19.4 8.15 22.6-2.5-.7-5.02-1.9-12.54-5.7 0 .6 1.25 9.4 1.25 10-3.2.6-13.2-1.9-20.1-3.8 3.1 12.5 5.6 10.6-15.1 20.1 10 19.4 9.4 16.9-1.9 25.7 8.1 3.1 11.3 5 15 6.2l-12.6 3.8c12.5 5 21.3 7.5 23.2 10.6-1.9 3.1-10.7 6.9-28.9 16.9 21.9-1.3 42.6-2.5 48.3 0-.6 1.2-1.3 2.5-2.5 3.7L670.5 72z" opacity=".25"/><path fill="#FFDAB9" d="M186.35 304.23c-5.02 3.76-8.8 0-15.06-1.9-3.2-.6-10.1 0-14.5 0-9.4-1.24-15.7-2.5-26.4-5.63l-11.9-41.4-9.4-1.26c0 5.02 5 38.27 8.1 49.56 1.2 4.4 4.4 8.15 8.8 10.03 10 4.4 39.5 13.8 58.3 28.23l1.9-37.63z"/><path fill="#3C3C3C" d="M211.44 442.85l8.78-13.17c-4.4-3.76-4.4-8.15-7.53-10.04-6.9-4.4-12 6.28-15.1 10.04-7.6 8.15-13.8 14.43-15.7 21.33-.7 3.2 0 4.4 1.9 4.4 3.1.7 6.2-3.1 8.1-5.6 11.3-8.1 15-8.8 19.4-6.9z"/><path fill="#004673" d="M247.2 481.74l-39.53-38.26 11.92-15.05 40.1 33.24L276.6 483c-1.25 13.17-16.3 8.78-29.48-1.26z"/><path fill="#3C3C3C" d="M169.4 447.87l8.8-13.17c-4.4-3.77-4.4-8.16-7.54-10.04-6.9-4.4-11.9 6.27-15.05 10.04-7.5 8.15-13.8 14.42-15.6 21.32-.6 3.14 0 4.4 1.9 4.4 3.2.62 6.3-3.14 8.2-5.65 11.3-8.15 15.1-8.78 19.5-6.9z"/><path fill="#004673" d="M203.9 484.88l-39.5-38.26 11.9-15.06 40.15 33.25 16.94 21.4c-3.2 14.5-16.4 9.4-29.5-1.2z"/><path fill="#005A87" d="M277.3 479.86c.63 8.78-3.14 10.67-6.9 11.3-6.27 1.87-15.05-1.9-15.68-7.53L235.9 423.4l-1.88.64v62.1c0 3.76-2.5 7.52-7.53 8.15-5.1 1.2-12 0-13.8-5.1l-11.3-65.9-3.2-39.5 46.4-15.1 18.8 37 13.8 74z"/><path fill="#FFF" d="M277.3 479.86c.63 8.78-3.14 10.67-6.9 11.3-6.27 1.87-15.05-1.9-15.68-7.53L235.9 423.4h-1.25c-1.9-10.03-5.02-21.95-6.9-31.36-1.26-5.64-2.5-10.66-4.4-16.3l20.7-6.9 18.82 37 14.43 74.02z" opacity=".15"/><path fill="#FFDAB9" d="M180.7 304.23c-2.5 0-7.53 0-9.4.62-11.93 3.14-2.52 25.1 0 25.72 23.83 4.4 38.88 0 61.46 0 0-19.44 16.94-26.34-5.64-25.72-10.04-.62-12.55-3.76-16.94-19.44-6.9 0-12.54 5.7-19.44 5.7 2.5 10.1 0 12.6-10.04 13.2z"/><path fill="#FFDAB9" d="M219.6 300.46c6.26 2.5 8.15-2.5 14.42-5.64 2.5-1.88 9.4-2.5 13.8-4.4 8.78-3.76 11.92-5 21.33-11.28l-15.06-35.76 7.5-4.4 23.2 37.65c3.7 6.27 3.7 6.9-5 13.8-8.8 6.9-34.5 21.95-48.3 42.02l-12-32z"/><path fill="#C80000" d="M167.53 331.2c-.63-.63-11.3-5.65-13.8-7.53 0-5.02-1.26-15.05-1.88-22.58 6.9.6 10.03 0 15.05-.7 7.53-.6 9.4 3.7 16.3 3.1 1.9 0 4.4-.7 6.28-2.5l16.94 10 11.92-12c.62.6 3.76.6 5.64.6 3.14-.7 6.9-5 11.92-6.9 7.53-3.2 11.92-3.2 16.93-5 3.77 5.6 6.28 14.4 9.4 17.5-19.43 11.9-18.8 18.2-18.18 25.7l6.28 40.8 10.03 21.9-59.6 15.7-6.9-30.8-14.42-29.5c-1.88-.7-10.03-16.4-11.9-18.2z"/><path fill="#B40000" d="M167.53 331.2c-.63-.63-11.3-5.65-13.8-7.53v-1.88l19.44 4.3 24.47 52 3.76 31.3-1.25.6-6.9-30.8-14.43-29.5c-1.26-1.3-9.4-17-11.3-18.8z"/><path fill="#C80000" d="M205.8 311.13l11.9-11.92c.64.7 3.77.7 5.65.7 3.14-.6 6.9-5 11.92-6.9 7.53-3.1 11.92-3.1 16.94-5 3.8 5.7 6.3 14.4 9.5 17.6-19.4 11.9-18.8 18.2-18.2 25.7l6.3 40.8 10 22-27.6 7.5c-.6-3.1-1.2-6.9-2.5-9.4-7.5-27-15.7-53.3-23.8-80.9z" opacity=".2"/><path fill="#FFDAB9" d="M258.48 230.2l-6.27-8.15-12.5-1.25 3.2 10.04-2.5.62 3.2 6.28 10.7 6.9 8.2-3.14"/><path fill="#FFDAB9" d="M244.68 233.34c-2.5-3.76-3.76-6.27-7.53-5.64l5.65 10.04 1.25 1.25.63-5.7z"/><path fill="#FFE4C3" d="M253.46 225.2l-.62-3.15c-.63-.62-1.26-1.25-1.9-1.25l-8.77-1.26c-1.25 0-2.5 0-1.88 1.26 0 1.25 1.8 4.4 3.1 5.64 0 1.26 8.8 1.26 10-1.25z"/><path fill="#DC0000" d="M188.85 301.1l-6.27 3.75 13.8 13.18 9.4-6.9m11.92-11.93l6.28 2.52-8.15 14.42-10.04-5"/><path fill="#F5C8AA" d="M191.36 292.94c.63.62 1.9 1.25 2.5 1.88 1.9 1.25 2.52 2.5 3.78 3.13s2.5 0 4.4 0c2.5 0 3.12-.62 4.38-1.25 1.25-.63 1.25-1.88 3.13-3.77l2.5-2.5c-.6-1.9-1.24-3.77-1.87-5.65-6.9 0-12.54 5.65-19.44 5.65 0 1.25.62 1.88.62 2.5z"/><path fill="#FFDAB9" d="M201.4 295.44c2.5 0 3.76-.62 4.4-1.25 1.25-.7 1.25-1.9 3.13-3.8 1.25-1.3 3.76-3.2 3.76-4.4.6-1.9 0-3.8 0-6.3 1.2.6 2.5-3.2 2.5-4.4 0-1.9 1.2-5 1.2-6.9 0-1.3 0-1.9-.6-2.5-.7-.7-1.9 0-2.5 1.9 0-1.3-.7-3.2-.7-4.4 0-3.1-.7-5.7-1.3-7.5-.6-1.9-1.9-3.8-3.8-5.1-1.3-.7-1.9-1.3-3.2-1.9h-.6c-3.2-.7-6.9-.7-10.1 0s-6.3 2.5-8.2 5c-2.5 1.2-3.2 3.1-3.2 5 0 1.8 0 4.4.6 7.5 0 1.8.6 3.1.6 4.3-1.3-1.3-2.5-1.9-3.2-1.3s-.6 1.2 0 2.5c.6 1.9 2.5 5 3.1 6.3s1.9 4.4 3.2 3.7c.6 2.5.6 4.4 1.9 6.2.6 1.2 3.1 2.5 5 3.7 1.8 1.2 2.5 2.5 3.7 3.1h3.8z"/><path fill="#FFE4C3" d="M202.03 295.44c1.88 0 3.13-.62 3.76-1.25 1.2-.7 1.2-1.9 3.1-3.8 1.2-1.3 3.7-3.2 3.7-4.4.6-1.9 0-3.8 0-6.3 1.2.6 2.5-3.2 2.5-4.4 0-1.9 1.2-5 1.2-6.9 0-1.3 0-1.9-.6-2.5-.7-.7-1.9 0-2.5 1.9 0-1.3-.7-3.2-.7-4.4 0-3.1-.7-5.7-1.3-7.5-.6-1.9-1.9-3.8-3.8-5.1-1.3-.7-1.9-1.3-3.2-1.9h-.6c-3.1-.7-6.3-.7-9.4 0l7.5 46.4z"/><path fill="#965000" d="M213.32 252.16c1.25 5.02.63 11.3-.63 19.45-.7-8.1-3.8-15.6-5.1-16.9-3.2-1.9-11.3 6.3-20.7 5.7-1.9 5-3.2 7.5-2.5 12.6-3.8-10-8.2-20.7-.7-24.4 2.5-11.9 26.9-10.6 29.5 3.8z"/><path fill="#FFDAB9" d="M107.3 245.9l1.9-10.67 10.66-8.16 2.5 11.3 2.5-.63.64 7.52-6.27 12.55-9.4 1.3"/><path fill="#FFDAB9" d="M121.74 241.5c.62-5.02 0-8.16 4.4-9.4l-.64 12.54-.63 1.88-3.13-5.02z"/><path fill="#FFE4C3" d="M109.82 239l-.63-3.15c0-1.25 0-1.88 1.2-2.5l8.1-5.65c.6-.63 1.8-1.25 2.5 0 .6 1.26.6 5.02.6 6.9-1.3 1.25-10.1 6.27-11.9 4.4z"/><path fill="#006482" d="M338.14 542.6l260.32 1.24-10.66 35.76H338.14"/><path fill="#006482" d="M614.77 549.5c0-.64 0-.64-.62-1.27v-.62s-.63-.6-.63-1.2v-.6c0-.6-.63-.6-.63-.6-.7-.6-.7-1.2-1.3-1.8v-6.9c0-.6-.7-1.9-.7-2.5v-.6c0-.6-.7-1.2-.7-1.9 0-.6 0-.6-.6-1.2-.7-1.9-1.3-3.7-1.3-5 0-.6-.7-1.2-.7-1.2-.6-1.2-17.6-1.8-26.4-5-6.9-2.5-29.5-14.4-65.3-19.4-8.2-1.2-17-1.8-27-2.5H482c-25.7 0-27.6 0-33.26 1.9-11.3 3.8-47.7 22.6-52.7 25.1-9.4 3.8-70.9 5-76.5 13.2-.7.7-1.3 1.3-1.3 1.9-.65.6-.65.6-1.27 1.3s-1.24 1.2-1.24 1.9c0 0 0 .6-.64.6 0 0 0 .7-.6.7-.7 1.9-1.3 3.1-1.9 6.3v19s0 .7-.6.7v.7l-.7.6v.67c0 .63-.6 1.9 0 2.5 0 0 0 .64.6.64 0 .65.6.65.6 1.28h.6c.6.6 1.2.6 2.5.6H342c-.65-1.9-.65-3.8-.65-6.3 0-15.1 12.54-27.6 27.6-27.6s27.6 12.5 27.6 27.6c0 1.9 0 4.4-.64 6.2h137.4c-.6-1.9-.6-3.8-.6-6.3 0-15.1 12.6-27.6 27.6-27.6S588 555 588 570.1c0 1.8 0 4.4-.62 6.2h2.5c1.9 0 3.72-.7 6.23-1.3h1.9c2.5-.6 4.4-1.2 5.7-1.86 1.3-.6 1.9-1.25 3.1-1.9.6 0 .6-.6 1.3-.6l.6-.63.7-.6c.6 0 .6-.6 1.2-.6 1.3-.6 1.9-1.2 2.6-1.2l.6-.6s0-.7.6-1.3c.6-1.9 1.3-11.9 0-16.3zm-191.94-21.34h-6.28c-5.64 0-9.4-.62-11.3-1.25 0 0-.6 0-.6-.6v-.6l.6-.6c1.27-1.2 3.15-2.5 5.66-4.4 1.9-1.2 4.4-2.5 6.9-3.7 1.9-1.2 3.8-1.9 5.7-3.1 12.6-6.3 27.6-11.9 30.1-12.5 6.3-1.2 22.6-.6 32.7-.6 1.3 8.2 1.9 16.3 1.9 24.5-4.4 0-8.7.6-13.1.6h-4.4c-5.6.7-11.9.7-17.5.7H445c-8.2 1.9-15.7 1.9-22 1.9zm125.45-6.9h-5.02c-3.76.63-9.4.63-16.93 1.26-1.9 0-4.4.62-6.9.62h-2.5c-8.17.63-16.95 1.26-26.36 1.9v-1.27c0-7.53-.62-15.68-1.88-23.2h4.3c1.8 0 5 0 8.7.62 3.1.6 6.9.6 10 1.2 2.5.6 5 .6 6.9 1.2.6 0 1.2 0 1.8.6 9.4 3.1 30.7 15.6 27.6 16.9z"/><path fill="#006482" d="M515.04 500.56L436 579.6h-41.4c.63-1.88.63-3.77.63-6.28 0-15.05-12.55-27.6-27.6-27.6-15.06 0-27.6 12.55-27.6 27.6 0 1.9 0 4.4.62 6.28H314.3c-1.25 0-1.87-.63-2.5-.63h-.63s-.63-.63-.63-1.25c0 0 0-.63-.62-.63v-3.2c0-.6.62-.6.62-.6v-.7s0-.7.63-.7v-19.4c.63-2.5.63-4.4 1.88-6.3 0 0 0-.7.63-.7 0 0 0-.6.63-.6.7-.6.7-1.2 1.3-1.9 0-.6.7-.6 1.3-1.2.6-.6.6-1.3 1.3-1.9 5.7-8.2 67.1-9.4 76.6-13.2 5.1-1.9 41.4-21.3 52.7-25.1 5.7-1.9 7.6-1.9 33.3-1.9h6.9c10.7-1.9 19.5-.7 27.6.6z" opacity=".1"/><path fill="#D2EBEB" d="M488.06 525.65c-14.42.63-29.48 1.9-42.65 1.9-8.1 0-16.3.6-22.5.6h-6.3c-5.6 0-9.4-.62-11.3-1.24-.6 0-1.2-.6-.6-1.2 5.7-6.9 44.5-23.2 48.9-24.4 3.8-.6 10.7-.6 18.2-.6h14.5c1.3 8.8 1.9 17 1.9 25.1zm60.22-4.4c-.63 0-9.4 1.27-21.95 1.9-5.65.62-11.92.62-18.82 1.25-5.6.63-11.2.63-16.9 1.25 0-8.15-.6-16.3-1.9-24.46h4.4c5.7 0 18.2 1.2 27.6 3.7 1.3.6 2.5.6 4.4 1.2 3.8 1.2 7.5 3.7 11.9 5.6 6.9 4.4 13.2 8.8 11.3 9.4z"/><path fill="#FFF" d="M471.75 501.2l-26.97 26.96c-8.15 0-16.3.63-22.58.63h-6.27c-5.65 0-9.4-.7-11.3-1.3-.62 0-1.25-.6-.62-1.3 5.7-6.9 44.6-23.2 49-24.5 4.4-.7 11.3-.7 18.8-.7z" opacity=".4"/><path fill="#006482" d="M424.7 518.13c0 1.88 0 4.4-.62 6.27-.62 4.4-4.4 0-5.02.63-1.25.62 2.5 1.88 3.14 3.13-3.14.63-9.4.63-11.3.63-5.64 0-6.26-.7-6.26-1.9 3.13-2.5 6.27-5.7 10.66-8.2.63-.7 1.88-1.3 2.5-1.3 1.26-.7 1.9-.7 3.77-1.3 1.26 0 3.14.6 3.14 1.9z"/><path fill="#EBEBEB" d="M333.75 540.7c-1.25 4.4-2.5 8.8-8.15 10.04-3.76.63-8.16.63-12.55.63.63-5.65 1.9-6.9 5.02-10.66 5.02-.6 10.67-.6 15.68 0z"/><path fill="#A9C5CC" d="M613.52 569.56c-.63 0-3.77 2.5-4.4 2.5-5.64 3.78-7.52 5.03-21.32 6.9h-.63c3.77-16.93-8.78-33.86-26.97-33.86-17.56 0-30.74 16.3-26.97 33.87h-138s.62-2.5.62-6.27c0-15.06-12.54-27.6-27.6-27.6-17.56 0-30.73 16.3-26.97 33.87-23.2 0-32.62 1.26-30.1-6.27 0 0 .62-1.26.62-1.88 1.25-1.26 1.88-18.82 1.88-20.08 13.17.63 16.94.63 20.07-10.66l274.12-14.43c3.76 11.92 4.4 17.57 4.4 17.57 0 .62.62 1.25 1.25 1.88l1.25 2.5c.63 4.4 1.88 21.96-1.25 21.96z" opacity=".56"/><path fill="#414042" d="M560.83 595.28c-12.55 0-22.6-10.04-22.6-22.58s10.05-22.58 22.6-22.58 22.58 10.03 22.58 22.58c-.6 12.54-10.6 22.58-22.5 22.58z"/><circle cx="560.83" cy="573.33" r="17.56" fill="#FFF" opacity=".1"/><path fill="#B4B4B4" d="M578.4 570.2c0-.64 0-1.27-.64-1.9 0-.62 0-1.25-.62-1.25 0-.62-.63-1.25-.63-1.88-2.5-5.02-7.5-8.78-13.1-9.4h-5c-5.6.62-10.6 4.38-13.1 9.4 0 .63-.6 1.26-.6 1.88 0 .63-.6.63-.6 1.26s-.6 1.3-.6 1.9v3.2c0 5 1.9 9.4 5.7 12.6l1.3 1.3c.7.7.7.7 1.3.7.7.7 1.3.7 1.9 1.3 2.5 1.3 5.1 1.9 8.2 1.9s5.6-.6 8.2-1.9l1.9-1.2c.6 0 .6-.6 1.3-.6l1.3-1.2c3.1-3.1 5.7-7.5 5.7-12.5-1.2-1.2-1.2-1.9-1.2-3.1zm-2.52-2.52c0 .63 0 .63.63 1.25l-10 3.14-1.9.63c0-.63 0-.63-.6-1.26l1.9-.62 10-3.14zm-12.54-10.66c5 .62 9.4 3.76 11.9 8.78l-7.5 2.5-3.15 1.26-1.3.63V557zm-3.77 0h1.26v12.54h-1.26v-12.54zm1.26 14.42c.62 0 1.88.63 1.88 1.9 0 .6-.6 1.87-1.8 1.87-.6 0-1.9-.6-1.9-1.8s.7-1.9 1.9-1.9zm-2.5-14.42v12.54l-1.27-.62-3.13-1.26-7.53-1.88c1.88-5.02 6.27-8.16 11.92-8.78zm-13.2 11.9c0-.6 0-.6.64-1.24l10.04 3.14 1.9.62c0 .63-.6.63-.6 1.26l-1.9-.63-10-3.14zm3.78 15.7c-3.1-3.14-5-6.9-5-11.3v-2.5l7.6 2.5 3.2 1.26 1.3.63-.6 1.3-1.8 2.5-4.4 5.7zm2.6 2.5c-.6-.62-.6-.62-1.2-.62l6.3-8.78 1.3-1.9c0 .64.7.64 1.3.64l-1.2 1.88-6.3 8.78zm9.4 2.5c-2.5 0-5-.6-7.5-1.87l5.1-6.27 1.9-2.5.7-1.26.6 1.25 1.9 2.5 5 6.28c-2.5 1.26-5 1.88-7.5 1.88zm10.1-3.75s-.6.63-1.2.63l-6.2-8.78-1.2-1.26c.7 0 .7-.63 1.3-.63l1.3 1.9 6.3 8.14zm1.3-1.25l-5-6.28-1.8-2.5v-1.26l1.3-.63 3.2-1.25 7.6-2.5v2.5c0 5.02-1.9 8.78-5 11.92z"/><path fill="#414042" d="M368.25 595.28c-12.54 0-22.58-10.04-22.58-22.58s10.04-22.58 22.58-22.58c12.55 0 22.6 10.03 22.6 22.58 0 12.54-10.05 22.58-22.6 22.58z"/><circle cx="368.25" cy="573.33" r="17.56" fill="#FFF" opacity=".1"/><path fill="#B4B4B4" d="M385.82 570.2c0-.64 0-1.27-.63-1.9 0-.62 0-1.25-.7-1.25 0-.62-.6-1.25-.6-1.88-2.5-5.02-7.6-8.78-13.2-9.4h-5c-5.7.62-10.7 4.38-13.2 9.4 0 .63-.6 1.26-.6 1.88 0 .63-.7.63-.7 1.26s-.7 1.3-.7 1.9v3.2c0 5 1.8 9.4 5.6 12.6l1.2 1.3c.6.7.6.7 1.2.7.6.7 1.2.7 1.9 1.3 2.5 1.3 5 1.9 8.1 1.9s5.6-.6 8.2-1.9l1.9-1.2c.6 0 .6-.6 1.2-.6l1.2-1.2c3.1-3.1 5.6-7.5 5.6-12.5-.6-1.2-1.3-1.9-1.3-3.1zm-1.88-2.52c0 .63.62.63.62 1.25l-10.03 3.14-1.88.63c0-.63 0-.63-.63-1.26l1.88-.62 10.04-3.14c-.63 0-.63 0 0 0zm-13.18-10.66c5.02.62 9.4 3.76 11.92 8.78l-7.53 2.5-3.13 1.26h-1.26v-12.54zm-3.13 0h1.25v12.54h-1.25v-12.54zm.62 14.42c.63 0 1.9.63 1.9 1.9 0 .6-.64 1.87-1.9 1.87-.62 0-1.88-.6-1.88-1.8s1.26-1.9 1.88-1.9zm-2.5-14.42v12.54l-1.26-.62-3.2-1.26-7.5-2.5c2.5-4.4 6.9-7.54 11.9-8.16zm-13.18 11.9c0-.6 0-.6.63-1.24l10.04 3.14 1.88.62c0 .63-.63.63-.63 1.26l-1.9-.63-10.1-3.14zm3.77 15.7c-3.14-3.14-5.02-6.9-5.02-11.3v-2.5l7.53 2.5 3.13 1.26 1.26.63-.63 1.3-1.8 2.5-4.4 5.7zm3.13 2.5c-.63-.62-.63-.62-1.25-.62l6.27-8.78 1.2-1.9c0 .64.6.64 1.2.64l-1.3 1.88-6.3 8.78zm8.78 2.5c-2.5 0-5-.6-7.52-1.87l5.02-6.27 1.88-2.5.62-1.26.63 1.25 1.88 2.5 5.02 6.28c-2.5 1.26-5.02 1.88-7.53 1.88zm10.04-3.75s-.7.63-1.3.63l-6.3-8.78-1.3-1.26c.6 0 .6-.63 1.2-.63l1.2 1.9 6.2 8.14zm1.8-1.25l-5-6.28-1.9-2.5-.6-1.26 1.2-.63 3.1-1.25 7.5-2.5v2.5c0 5.02-1.3 8.78-4.4 11.92z"/><path fill="#FFF" d="M537 512.48l-10.67 10.66c-5.65.63-11.92.63-18.82 1.26l18.2-18.2c3.2 1.9 7.6 3.77 11.3 6.28z" opacity=".4"/><path fill="#C80000" d="M469.87 498.05h22.58v81.55h-22.58z"/><path fill="#C80000" d="M478.03 495.54c-7.53 7.53-48.3-4.4-49.56-16.3-1.25-10.67 23.2-35.76 33.25-33.25 11.3 2.5 23.83 42 16.3 49.5z"/><path fill="#DC0000" d="M440.4 458.54c7.52-7.53 16.3-13.18 21.32-12.55 11.3 2.5 23.83 42 16.3 49.5l-37.63-37z"/><path fill="#C80000" d="M483.67 495.54c7.53 7.53 48.3-4.4 49.56-16.3 1.25-10.67-23.2-35.76-33.25-33.25-11.3 2.5-23.84 42-16.3 49.5z"/><path fill="#DC0000" d="M521.3 458.54C513.8 451 505 445.36 500 446c-11.3 2.5-23.84 42.02-16.3 49.54l37.63-37zm-40.76 39.5h11.92v81.56h-11.92z"/><path fill="#F00000" d="M488.7 498.68c0 2.5-1.9 4.4-4.4 4.4h-6.9c-2.5 0-4.4-1.9-4.4-4.4v-6.9c0-2.5 1.9-4.4 4.4-4.4h6.9c2.5 0 4.4 1.9 4.4 4.4v6.9z"/><path fill="#3C3C3C" d="M441.58 278.05l12.37-8.58L560.07 422.6l-12.37 8.57z"/><path fill="#3C3C3C" d="M534.48 419.64h38.26v14.43h-38.26zM349 431.24l-12.36-8.58 106.1-153.12 12.38 8.58z"/><path fill="#3C3C3C" d="M323.72 419.64h38.26v14.43h-38.26z"/><circle cx="449.17" cy="271.61" r="136.75" fill="#3C3C3C"/><path fill="#FFB400" d="M574.63 289.8c-3.14-.63-5.65-3.77-5.02-6.9 0-3.14 3.2-5.65 6.3-5.65s6.3 3.14 5.7 6.9c-.6 3.77-3.7 6.28-6.9 5.65z"/><path fill="#C80000" d="M570.86 308c-3.13-1.26-5-4.4-4.4-7.54s4.4-5 7.54-4.4c3.14.64 5.64 3.78 4.4 7.54-1.26 3.76-4.4 5.64-7.54 4.4z"/><path fill="#FFF" d="M563.96 325.55c-3.13-1.25-4.4-5-3.13-8.15s4.4-4.4 7.52-3.14c3.14 1.26 5.02 5.02 3.77 8.16-1.26 3.13-5.02 4.4-8.16 3.13z"/><path fill="#009632" d="M555.18 341.86c-3.13-1.88-3.76-5.64-1.88-8.15 1.88-2.5 5.64-3.7 8.15-1.8 3.14 1.9 4.4 5.7 2.5 8.8-2.5 1.9-6.26 3.2-8.77 1.3z"/><path fill="#FFB400" d="M543.26 356.3c-2.5-2.52-2.5-6.28-.62-8.8s5.64-3.13 8.78-1.25c2.5 1.9 3.13 5.65 1.25 8.8-2.5 3.12-6.9 3.12-9.4 1.24z"/><path fill="#C80000" d="M530.1 369.46c-1.9-2.5-1.9-6.27.62-8.78 2.5-1.88 6.27-1.88 8.78.63 2.5 2.6 2.5 6.3-.63 8.8-2.5 1.9-6.27 1.9-8.78-.6z"/><path fill="#FFF" d="M515.04 380.13c-1.9-3.14-.63-6.9 1.88-8.16 2.5-1.88 6.27-1.25 8.15 1.26 1.88 2.5 1.26 6.9-1.25 8.78-3.14 1.9-6.9.7-8.78-1.8z"/><path fill="#009632" d="M498.73 388.28c-1.26-3.13 0-6.9 3.13-8.15 3.14-1.26 6.9 0 8.16 3.13 1.88 3.14.62 6.9-3.14 8.16-3.13 1.25-6.9 0-8.15-3.14z"/><path fill="#FFB400" d="M481.16 394.55c-.62-3.13 1.26-6.9 4.4-7.52 3.13-1.26 6.27.62 7.52 3.76s-.63 6.9-3.76 8.1c-3.77.6-7.53-1.3-8.16-4.4z"/><path fill="#C80000" d="M462.97 397.7c-.63-3.15 1.88-6.28 5.02-6.9s6.2 1.87 6.9 5c.6 3.14-1.9 6.28-5.1 6.9-3.8.63-6.9-1.25-6.9-5z"/><path fill="#FFF" d="M444.15 398.32c0-3.77 3.14-5.65 6.28-6.28 3.13 0 6.27 2.5 6.27 5.65s-2.5 6.2-6.27 6.2c-3.77.6-6.28-2.5-6.28-5.7z"/><path fill="#009632" d="M425.96 396.44c.63-3.14 3.77-5.65 6.9-5.02 1.88 0 3.14 1.25 3.77 2.5 1.25 1.26 1.25 2.52 1.25 4.4s-1.25 3.13-2.5 4.4c-1.26 1.24-3.14 1.24-5.03 1.24-2.5-1.25-5-4.4-4.4-7.52z"/><path fill="#FFB400" d="M407.77 391.42c1.26-3.14 4.4-5.02 7.53-3.77 3.13.63 5.02 4.4 4.4 7.53s-4.4 5.02-7.54 4.4c-3.76-.64-5.64-5.03-4.4-8.16z"/><path fill="#C80000" d="M390.84 384.52c1.88-3.14 5-4.4 8.15-3.14s4.3 5.02 3.1 8.16-5 5-8.2 3.13c-3.2-1.25-5-5.02-3.2-8.15z"/><path fill="#FFF" d="M375.15 374.48c1.9-3.14 5.65-3.14 8.16-1.88 2.6 1.88 3.8 5.64 1.9 8.15-1.9 3.14-5.6 3.77-8.8 1.9-3.1-1.27-3.1-5.03-1.2-8.17z"/><path fill="#009632" d="M360.73 363.2c2.5-2.52 6.27-2.52 8.78-.64 2.6 2.5 2.6 5.65.7 8.78-1.9 2.5-6.3 3.14-8.8.63s-3.1-6.9-.6-8.78z"/><path fill="#FFB400" d="M348.18 349.4c2.5-1.9 6.28-1.26 8.78.62 1.9 2.5 1.9 6.27-.62 8.78-2.5 2.5-6.28 1.88-8.78-.63-2.5-3.13-1.9-6.9.62-8.78z"/><path fill="#C80000" d="M338.14 333.7c3.14-1.87 6.9-.62 8.16 1.9.63 1.25 1.25 3.13.63 4.38 0 1.26-1.26 3.14-2.5 3.77-1.27 1.25-3.15 1.25-5.03 1.25-1.25-.63-3.14-1.25-3.76-3.14-1.26-2.5-.63-6.27 2.5-8.15z"/><path fill="#FFF" d="M330 316.77c3.13-1.25 6.26.63 8.15 3.14 1.25 3.2 0 6.3-3.14 8.2-3.1 1.3-6.9 0-8.1-3.1-1.9-3.1 0-6.9 3.2-8.1z"/><path fill="#009632" d="M324.97 299.2c3.14-.62 6.9 1.26 7.53 4.4.63 1.88 0 3.14-.63 4.4s-1.88 2.5-3.76 3.13-3.1.62-5-.63c-1.2-.63-2.5-1.88-3.1-3.76-.6-3.77 1.3-6.9 5-7.53z"/><path fill="#FFB400" d="M322.46 281.02c1.9 0 3.14.62 4.4 1.25 1.25 1.26 1.88 2.5 2.5 3.77.63 3.13-1.88 6.27-5 6.9s-6.3-1.9-6.9-5.65c-.64-1.9 0-3.8 1.24-4.4 0-1.3 1.88-1.9 3.76-1.9z"/><path fill="#C80000" d="M322.46 262.2c3.14 0 6.28 3.14 5.65 6.27 0 3.14-2.5 5.65-6.2 6.28-3.1 0-6.3-2.5-6.3-6.28.7-3.76 3.2-6.27 6.9-6.27z"/><path fill="#FFF" d="M324.97 244c1.88.64 3.14 1.26 3.77 2.52s1.25 3.13 1.25 4.4c-.7 3.12-3.8 5.63-6.9 5s-5.7-3.76-5.1-6.9c0-1.88 1.2-3.13 2.5-4.4.6-.6 2.5-1.24 4.4-.6z"/><path fill="#009632" d="M330 225.82c3.13 1.25 5 5.02 3.75 7.53-1.25 3.13-4.4 5-7.52 3.76-3.14-.6-5.65-4.3-4.4-8.1 1.9-2.5 5.02-4.4 8.16-3.1z"/><path fill="#FFB400" d="M338.14 209.5c1.26.64 2.5 1.9 3.14 3.77.63 1.26.63 3.14 0 4.4-1.25 3.13-5.02 4.38-8.15 2.5-3.14-1.25-4.4-5.02-3.14-8.15.6-1.9 1.8-2.5 3.7-3.14 1.2-.63 2.5-.63 4.4.63z"/><path fill="#C80000" d="M348.18 193.83c2.5 1.88 3.14 5.64 1.26 8.78-1.88 2.6-5.65 3.8-8.16 1.9-3.13-1.9-3.76-5.6-1.88-8.8 2.5-3.1 6.27-3.7 8.78-1.8z"/><path fill="#FFF" d="M360.73 180.03c2.5 2.5 2.5 6.27 0 8.78-1.9 2.6-6.28 2.6-8.8.7-2.5-2.5-2.5-6.3-.6-8.8 3.12-3.1 6.9-3.1 9.4-.6z"/><path fill="#009632" d="M375.15 168.1c1.9 2.52 1.26 6.9-1.25 8.8s-6.27 1.87-8.78-.64-1.88-6.9.62-8.78c3.14-2.5 7.53-1.88 9.4.63z"/><path fill="#FFB400" d="M390.84 158.7c1.25 3.14.62 6.27-2.5 8.15-2.52 1.9-6.3.63-8.17-1.88-1.88-3.13-.62-6.9 1.88-8.78 3.14-1.9 7.53-.7 8.8 2.5z"/><path fill="#C80000" d="M407.77 151.17c1.26 3.14-.62 6.9-3.76 8.16s-6.2 0-8.1-3.14c-1.2-3.2 0-6.9 3.2-8.2 4.4-1.9 7.6 0 8.8 3.1z"/><path fill="#FFF" d="M425.96 146.15c.63 3.14-1.25 6.28-4.4 7.53-3.12.63-6.26-1.25-7.5-4.4s1.24-6.9 4.38-7.52c3.13-1.25 6.9 1.26 7.52 4.4z"/><path fill="#009632" d="M444.15 144.27c0 3.14-2.5 6.27-5.64 6.27s-6.2-1.88-6.9-5.64c-.6-3.14 1.9-6.9 5.7-6.9 3.8.63 6.9 3.14 6.9 6.27z"/><path fill="#C80000" d="M462.97 144.9c-.63 3.14-3.13 5.64-6.27 5.64s-5.65-3.13-5.65-6.27 3.14-6.27 6.28-5.64c3.13 0 5.64 3.13 5.64 6.27z"/><path fill="#FFF" d="M481.16 148.66c-.62 3.14-4.4 5.02-7.52 4.4-3.14-.63-5.65-3.77-5.02-6.9s3.76-5.65 7.53-5.02c3.76.62 5.64 4.4 5 7.52z"/><path fill="#009632" d="M498.73 154.3c-1.26 3.14-5.02 5.03-8.16 3.77-3.13-1.25-4.4-4.4-3.76-8.15 1.3-3.14 4.4-5.02 8.2-3.77 3.2 1.26 5 5.02 3.8 8.16z"/><path fill="#FFB400" d="M515.04 163.1c-1.9 3.13-5.65 3.75-8.16 2.5-3.14-1.26-3.76-5.02-2.5-8.16 1.25-3.13 5-4.4 8.77-2.5 2.5 1.25 3.77 5 1.9 8.15z"/><path fill="#C80000" d="M530.1 173.75c-1.9 2.5-6.28 3.14-8.8 1.26s-3.13-5.6-1.25-8.7c1.9-3.1 5.65-3.1 8.8-1.2 3.12 2.5 3.75 6.3 1.24 8.8z"/><path fill="#FFF" d="M543.26 186.93c-2.5 2.5-6.27 1.88-8.78 0-2.5-2.5-2.5-6.28 0-8.8s6.27-2.5 8.78 0c3.14 2.52 2.5 6.3 0 8.8z"/><path fill="#009632" d="M555.18 201.35c-2.5 1.9-6.9 1.26-8.78-1.25-1.88-2.5-1.26-6.27 1.25-8.78 2.5-1.88 6.28-1.88 8.8 1.25 1.87 3.14 1.24 6.9-1.27 8.78z"/><path fill="#FFB400" d="M563.96 217.66c-3.13 1.26-6.9 0-8.15-2.5-1.2-3.14-.6-6.28 2.6-8.16s6.9-.63 8.8 2.5c1.3 2.52 0 6.28-3.1 8.16z"/><path fill="#C80000" d="M570.86 234.6c-3.13.63-6.9-.63-7.52-3.77-1.26-3.13.62-6.27 3.76-8.15 3.14-1.26 6.9.63 8.15 3.76.63 3.77-1.25 7.53-4.4 8.16z"/><path fill="#FFF" d="M574.63 252.8c-3.14.62-6.28-1.9-6.9-5.03-.63-3.13 1.25-6.27 4.4-6.9s6.9 1.26 7.5 5.02c.64 3.1-1.87 6.2-5 6.9z"/><path fill="#009632" d="M575.88 271.6c-3.14 0-6.27-2.5-6.27-5.64s2.6-6.27 5.7-6.27c3.2-.7 6.3 2.5 6.3 5.6.6 3.1-1.9 6.2-5.6 6.2z"/><path fill="#FFB400" d="M412.8 160.58c-23.85 7.53-43.92 22.58-58.35 42.65l94.1 68.38-35.75-111z"/><path fill="#C80000" d="M411.54 163.1l33.87 103.5-88.4-64c13.8-18.18 33.3-32.6 54.6-39.5zm1.25-2.52c-23.9 7.53-44 22.58-58.4 42.65l94.1 68.38-35.8-111z"/><path fill="#FFB400" d="M354.45 202.6c-13.8 19.45-22.58 42.66-22.58 68.38h116.67l-94.1-68.37z"/><path fill="#C80000" d="M355.08 205.75l87.82 63.98H334.38c0-23.2 7.53-45.17 20.7-64v.02zm-.63-3.14c-13.8 19.5-22.58 42.7-22.58 68.4h116.67l-94.1-68.3z"/><path fill="#FFB400" d="M543.26 202.6c-14.42-19.44-34.5-34.5-58.33-42.65l-35.76 111.03 94.1-68.37z"/><path fill="#C80000" d="M486.18 163.1c21.33 7.52 40.77 21.32 54.57 39.5l-88.44 64 33.9-103.5zm-1.25-2.52L449.17 271.6l94.1-68.37c-14.43-20.07-34.5-35.12-58.34-42.65z"/><path fill="#FFB400" d="M565.22 271.6c0-25.7-8.16-49.55-22.6-68.37l-94.08 68.38h116.68z"/><path fill="#C80000" d="M542.64 205.75c13.17 18.8 20.7 40.77 20.7 63.98H454.82l87.82-64v.02zm.62-3.14l-94.1 68.4h116.06c0-25.1-8.16-48.9-21.96-68.3z"/><path fill="#FFB400" d="M484.93 160.58c-11.3-3.76-23.2-5.64-35.76-5.64s-24.46 1.88-35.75 5.64l35.75 111.03 35.76-111z"/><path fill="#C80000" d="M449.17 156.82c11.3 0 22.58 1.88 33.88 5.02l-33.88 103.5-33.87-103.5c10.66-3.14 21.95-5.02 33.87-5.02zm0-1.88c-12.54 0-24.46 1.88-35.75 5.64l35.75 111.03 35.76-111c-11.3-3.7-23.2-5.6-35.76-5.6z"/><path fill="#FFB400" d="M332.5 271.6c0 25.73 8.15 49.56 22.58 68.38l94.1-68.37H332.5z"/><path fill="#C80000" d="M442.9 273.5l-87.82 63.97c-13.17-18.82-20.7-40.77-20.7-63.98H442.9zm6.27-1.9H332.5c0 25.73 8.15 49.56 22.58 68.38l94.1-68.37z"/><path fill="#FFB400" d="M449.17 271.6l94.1 68.38c13.8-19.45 22.58-42.65 22.58-68.37H449.17z"/><path fill="#C80000" d="M563.34 273.5c-.63 23.2-7.53 45.15-20.7 63.97l-87.82-63.98h108.52zm1.88-1.9H449.17l94.1 68.38c13.8-19.44 21.95-42.65 21.95-68.37z"/><path fill="#FFB400" d="M484.93 382.63c23.83-7.52 43.9-22.58 58.33-42.65l-94.1-68.37 35.77 111.1z"/><path fill="#C80000" d="M452.3 276.63l88.45 63.98c-13.8 18.2-33.24 32-54.57 39.6L452.3 276.7zm-3.13-5.02l35.76 111.1c23.83-7.5 43.9-22.6 58.33-42.6l-94.1-68.3z"/><path fill="#FFB400" d="M354.45 339.98c14.43 19.45 34.5 34.5 58.34 42.65l35.7-111.03-94.1 68.4z"/><path fill="#C80000" d="M445.4 276.63l-33.86 103.5c-21.33-7.53-40.78-21.33-54.58-39.52l88.45-63.9zm3.77-5.02l-94.1 68.4c14.44 19.5 34.5 34.5 58.35 42.7l35.75-111z"/><path fill="#FFB400" d="M412.8 382.63c11.28 3.77 23.2 5.65 35.74 5.65s24.47-1.88 35.76-5.64L448.54 271.6 412.8 382.64z"/><path fill="#C80000" d="M449.17 277.25l33.88 103.5c-10.67 3.14-21.96 5.02-33.88 5.02-11.3 0-22.58-1.88-33.87-5.02l33.87-103.5zm0-5.64L412.8 382.7c11.28 3.77 23.2 5.65 35.74 5.65s24.47-1.9 35.76-5.64l-35.13-111.1z"/><g fill="#3C3C3C"><path d="M445.4 223.3h7.54v37.02h-7.53z"/><path d="M449.17 209.5c2.5 6.28 6.28 14.44 10.67 19.45l-10.67-3.76-10.66 3.7c3.8-5 8.2-13.2 10.7-19.5z"/></g><circle cx="449.17" cy="271.61" r="15.68" fill="#C80000"/><path fill="#C80000" d="M430.98 171.25l5.02-3.14h5.02v27.6H436v-21.9l-5.02 1.3v-3.7zM445.4 175c0-4.38 2.52-6.9 6.9-6.9h6.28c5.02 0 6.9 3.14 6.9 6.9v13.8c0 4.4-2.5 6.9-6.9 6.9h-6.27c-4.3 0-6.9-1.87-6.9-6.9V175zm8.16 15.7h3.77c1.88 0 2.5-.64 2.5-2.52v-12.54c0-1.9-.62-2.5-2.5-2.5h-3.77c-2.5 0-2.5 1.87-2.5 2.5v12.54c-.63 1.88 1.25 2.5 2.5 2.5zm5.02 161.2h-10.66c-2.5 0-2.5 1.25-2.5 2.5v2.52c0 1.25 0 2.5 2.5 2.5h3.76c1.26 0 2.5-.62 2.5-1.88h4.4l-.63 16.94h-16.3v-5.02h10.66v-6.27c-.6.6-1.8.6-2.5.6h-4.4c-4.3 0-6.2-3.2-6.2-6.9v-3.8c0-5 3.8-6.9 6.9-6.9 4.4 0 6.3 0 11.3.6v5h1.3zm38.27-165.6c2.5-3.77 5.64-3.77 8.78-1.26l4.4 3.14c3.75 2.5 4.38 6.27-2.52 15.68-5.6 8.16-10 8.78-12.5 6.9-3.1-1.88-6.9-5.02-9.4-7.52l2.5-3.14 7.6 5.64c2.5 1.9 5-1.25 6.9-3.76-1.9-.63-4.4-1.88-6.9-3.76-4.4-3.14-3.7-6.28-1.9-8.8l3.2-3.12zm2.5 8.78l5.02 3.76c1.88-3.13 3.77-6.27 1.26-8.15l-2.5-1.9c-.64-.7-1.9-.7-2.52 1.2l-1.2 1.9c-1.2 1.9-1.2 2.5 0 3.1zm28.23 41.4c1.88-.63 3.76 0 5.02 1.26 0-2.5 2.5-3.77 4.4-4.4l2.5-.62c5.02-1.26 6.9 1.25 8.15 5.02l1.9 5.64c1.24 3.77 0 6.9-4.4 8.16l-1.9.62c-.6 0-3.75.63-5-1.25 0 2.6-2.5 3.8-3.77 4.4l-3.14 1.3c-5 1.9-6.9-1.2-8.15-4.4l-1.9-5.6c-1.9-6.2 1.9-8.1 3.7-8.8l2.5-1.2zm-1.88 8.78l1.25 3.14c.63 1.25 1.26 1.88 3.14 1.88l2.5-.63c1.2-.62 1.8-1.25 1.2-3.13l-1.3-3.77c-.7-1.25-1.3-1.88-3.2-1.88l-2.5.63c-1.3 1.25-1.9 1.88-1.3 3.76zm10.66-3.13l1.26 3.76c.63 1.8 1.88 1.8 3.13 1.8l1.9-.6c1.87-.7 2.5-1.9 1.87-3.2l-1.26-3.2c-.62-1.9-1.25-2.5-3.13-1.9l-1.9.6c-1.87 0-1.87 1.2-1.87 2.5zm14.44 51.43l-5.65 16.94-2.5.63-21.34-16.94 1.9-5.7 18.8 15.1 3.8-12 5 1.9zm-38.9 60.22c-3.14 2.5-6.9 5.02-10.04 6.27l-2.5-3.13 7.52-5.65c2.5-1.88.63-5.64-1.25-7.52-1.26 1.88-3.14 3.13-5.65 5-4.4 3.15-6.9 1.27-8.78-1.24l-2.5-3.1c-2.52-3.7-1.26-6.2 1.87-8.8l4.4-3.1c3.76-2.5 7.52-1.9 14.42 7.6 6.2 7.6 5 11.9 2.5 13.8zm-15.05-16.94l-2.5 1.9c-1.27.6-1.9 1.87-.64 3.12l1.3 1.88c1.3 1.26 1.9 1.26 3.2.63l5.1-3.76c-1.2-3.1-3.7-5.6-6.2-3.7zm-107.9 18.82l-4.4-3.13 16.32-8.16-5.64-3.76-3.77 4.4-2.5 1.9-3.14-2.5 5.64-7.5-2.5-1.9 2.5-3.1 2.5.6 3.78-5 4.4 3.1-3.78 5 10.04 7.6-.63 2.5-18.82 10.1zm-35.75-45.8c-1.88-3.12-3.14-6.9-4.4-11.3-1.25-3.74.64-6.9 4.4-8.13l1.88-.63c2.5-.63 4.4-.63 5.65 1.25 0-1.88 1.88-3.76 4.4-4.4l1.24-.6c4.4-1.27 6.9.6 8.16 5s2.5 8.16 1.88 11.3l-3.7 1.25-1.2-8.78c-.6-2.5-1.2-3.77-3.7-3.14l-1.2.63c-1.8.7-2.5 1.9-1.8 4.4l1.9 6.9-3.7 1.3-2.5-6.9c-.6-2.5-1.9-3.1-3.8-2.5l-1.3.6c-1.8.7-1.8 2.5-1.2 4.4l2.5 9.4h-3.1zm-5.02-62.7c.63-3.15 1.26-6.3 3.14-11.3s6.27-6.28 10.66-5c5.65 1.86 9.4 11.27 10.04 14.4l3.13-10.03 4.4 1.88-6.28 18.2-4.4-1.2c-1.24-3.7-5-16.3-9.4-18.2-2.5-.6-3.76 0-5.02 3.2l-2.5 9.4-3.77-1.2zm37.64-54.6l2.5-5.63 4.4-2.5 15.05 23.2-4.4 2.5-11.9-18.8-3.77 3.75-1.88-2.5z"/><path fill="#FFB400" d="M518.8 388.9l21.33 30.74h-5.02v14.43h38.3v-14.43h-15l-26.9-38.9c33.3-25.08 54.6-64.6 54.6-109.76 0-75.27-61.5-136.74-136.7-136.74v273.5c25.1.6 49-6.3 69.7-18.83z" opacity=".2"/><path fill="#008C28" d="M654.3 346.88c-10.67 0-16.95-8.15-17.57-8.15-.63-.63-.63-1.9 0-1.9.62-.6 1.88-.6 1.88 0 .7.64 10.1 11.93 24.5 4.4 23.2-11.9 22.6-50.18 22.6-50.18 0-.62.7-1.25 1.3-1.88.7 0 1.3.63 1.3 1.26 0 1.88.7 40.77-24.4 53.3-2.5 2.52-6.2 3.15-9.4 3.15z"/><path fill="#00A03C" d="M669.97 260.32c-5.64-10.04-27.6-4.4-16.3 15.05 6.27 11.3 34.5 15.68 34.5 15.68s10.03-26.34 3.76-37.63c-12.55-20.07-27.6-3.77-21.96 6.9z"/><path fill="#009632" d="M718.27 272.86c10.04-6.27 4.4-27.6-15.05-16.3-11.3 6.27-15.7 34.5-15.7 34.5s26.36 10.03 37.65 3.76c20.07-11.92 3.14-27.6-6.9-21.96z"/><path fill="#00A03C" d="M705.1 321.8c6.27 10.03 27.6 4.38 16.3-15.06-6.26-11.3-34.5-15.7-34.5-15.7s-10.03 26.36-3.76 37.65c12.55 19.4 28.23 3.1 21.96-6.9z"/><path fill="#009632" d="M656.8 308.62c-10.04 5.64-4.4 27.6 15.05 16.3 11.3-6.27 15.7-34.5 15.7-34.5s-26.36-10.03-37.65-3.76c-20.07 11.92-3.14 27.6 6.9 21.96z"/></symbol>


</svg>